# MagicaVoxel @ Ephtracy

# group
g Capsule_None

# material
mtllib Capsule_None.mtl
usemtl palette

# normals
vn -1 0 0
vn 1 0 0
vn 0 0 1
vn 0 0 -1
vn 0 -1 0
vn 0 1 0

# texcoords
vt 0.373047 0.5
vt 0.912109 0.5
vt 0.970703 0.5
vt 0.978516 0.5
vt 0.982422 0.5

# verts
v -6 11 3
v -6 11 1
v -6 11 -1
v -6 11 -3
v -6 12 3
v -6 12 1
v -6 12 -1
v -6 12 -3
v -6 13 3
v -6 13 -3
v -6 14 3
v -6 14 -3
v -5 11 5
v -5 11 3
v -5 11 -3
v -5 11 -5
v -5 12 5
v -5 12 3
v -5 12 -3
v -5 12 -5
v -5 13 5
v -5 13 3
v -5 13 -3
v -5 13 -5
v -5 14 5
v -5 14 3
v -5 14 -3
v -5 14 -5
v -3 11 6
v -3 11 5
v -3 11 -5
v -3 11 -6
v -3 12 6
v -3 12 5
v -3 12 -5
v -3 12 -6
v -3 13 6
v -3 13 5
v -3 13 -5
v -3 13 -6
v -3 14 6
v -3 14 5
v -3 14 -5
v -3 14 -6
v 3 11 6
v 3 11 5
v 3 11 -5
v 3 11 -6
v 3 12 6
v 3 12 5
v 3 12 -5
v 3 12 -6
v 3 13 6
v 3 13 5
v 3 13 -5
v 3 13 -6
v 3 14 6
v 3 14 5
v 3 14 -5
v 3 14 -6
v 5 11 5
v 5 11 3
v 5 11 -3
v 5 11 -5
v 5 12 5
v 5 12 3
v 5 12 -3
v 5 12 -5
v 5 13 5
v 5 13 3
v 5 13 -3
v 5 13 -5
v 5 14 5
v 5 14 3
v 5 14 -3
v 5 14 -5
v 6 11 3
v 6 11 1
v 6 11 -1
v 6 11 -3
v 6 12 3
v 6 12 1
v 6 12 -1
v 6 12 -3
v 6 13 3
v 6 13 -3
v 6 14 3
v 6 14 -3
v -3 11 6
v -3 12 6
v -3 13 6
v -3 14 6
v -1 11 6
v -1 12 6
v 1 11 6
v 1 12 6
v 3 11 6
v 3 12 6
v 3 13 6
v 3 14 6
v -5 11 5
v -5 12 5
v -5 13 5
v -5 14 5
v -3 11 5
v -3 12 5
v -3 13 5
v -3 14 5
v 3 11 5
v 3 12 5
v 3 13 5
v 3 14 5
v 5 11 5
v 5 12 5
v 5 13 5
v 5 14 5
v -6 11 3
v -6 12 3
v -6 13 3
v -6 14 3
v -5 11 3
v -5 12 3
v -5 13 3
v -5 14 3
v 5 11 3
v 5 12 3
v 5 13 3
v 5 14 3
v 6 11 3
v 6 12 3
v 6 13 3
v 6 14 3
v -6 11 -3
v -6 12 -3
v -6 13 -3
v -6 14 -3
v -5 11 -3
v -5 12 -3
v -5 13 -3
v -5 14 -3
v 5 11 -3
v 5 12 -3
v 5 13 -3
v 5 14 -3
v 6 11 -3
v 6 12 -3
v 6 13 -3
v 6 14 -3
v -5 11 -5
v -5 12 -5
v -5 13 -5
v -5 14 -5
v -3 11 -5
v -3 12 -5
v -3 13 -5
v -3 14 -5
v 3 11 -5
v 3 12 -5
v 3 13 -5
v 3 14 -5
v 5 11 -5
v 5 12 -5
v 5 13 -5
v 5 14 -5
v -3 11 -6
v -3 12 -6
v -3 13 -6
v -3 14 -6
v -1 11 -6
v -1 12 -6
v 1 11 -6
v 1 12 -6
v 3 11 -6
v 3 12 -6
v 3 13 -6
v 3 14 -6
v -3 11 6
v -1 11 6
v 1 11 6
v 3 11 6
v -5 11 5
v -3 11 5
v -1 11 5
v 1 11 5
v 3 11 5
v 5 11 5
v -4 11 4
v -3 11 4
v 3 11 4
v 4 11 4
v -6 11 3
v -5 11 3
v -4 11 3
v 4 11 3
v 5 11 3
v 6 11 3
v -6 11 1
v -5 11 1
v 5 11 1
v 6 11 1
v -6 11 -1
v -5 11 -1
v 5 11 -1
v 6 11 -1
v -6 11 -3
v -5 11 -3
v -4 11 -3
v 4 11 -3
v 5 11 -3
v 6 11 -3
v -4 11 -4
v -3 11 -4
v 3 11 -4
v 4 11 -4
v -5 11 -5
v -3 11 -5
v -1 11 -5
v 1 11 -5
v 3 11 -5
v 5 11 -5
v -3 11 -6
v -1 11 -6
v 1 11 -6
v 3 11 -6
v -3 14 6
v 3 14 6
v -5 14 5
v -3 14 5
v 3 14 5
v 5 14 5
v -4 14 4
v -3 14 4
v 3 14 4
v 4 14 4
v -6 14 3
v -5 14 3
v -4 14 3
v 4 14 3
v 5 14 3
v 6 14 3
v -6 14 -3
v -5 14 -3
v -4 14 -3
v 4 14 -3
v 5 14 -3
v 6 14 -3
v -4 14 -4
v -3 14 -4
v 3 14 -4
v 4 14 -4
v -5 14 -5
v -3 14 -5
v 3 14 -5
v 5 14 -5
v -3 14 -6
v 3 14 -6

# faces
f 5/1/1 2/1/1 1/1/1
f 6/5/1 3/5/1 2/5/1
f 6/1/1 2/1/1 5/1/1
f 7/1/1 4/1/1 3/1/1
f 7/5/1 3/5/1 6/5/1
f 8/1/1 4/1/1 7/1/1
f 9/4/1 6/4/1 5/4/1
f 9/4/1 7/4/1 6/4/1
f 9/4/1 8/4/1 7/4/1
f 10/4/1 8/4/1 9/4/1
f 11/3/1 10/3/1 9/3/1
f 12/3/1 10/3/1 11/3/1
f 17/5/1 14/5/1 13/5/1
f 18/5/1 14/5/1 17/5/1
f 19/5/1 16/5/1 15/5/1
f 20/5/1 16/5/1 19/5/1
f 21/4/1 18/4/1 17/4/1
f 22/4/1 18/4/1 21/4/1
f 23/4/1 20/4/1 19/4/1
f 24/4/1 20/4/1 23/4/1
f 25/3/1 22/3/1 21/3/1
f 26/3/1 22/3/1 25/3/1
f 27/3/1 24/3/1 23/3/1
f 28/3/1 24/3/1 27/3/1
f 33/1/1 30/1/1 29/1/1
f 34/1/1 30/1/1 33/1/1
f 35/1/1 32/1/1 31/1/1
f 36/1/1 32/1/1 35/1/1
f 37/4/1 34/4/1 33/4/1
f 38/4/1 34/4/1 37/4/1
f 39/4/1 36/4/1 35/4/1
f 40/4/1 36/4/1 39/4/1
f 41/3/1 38/3/1 37/3/1
f 42/3/1 38/3/1 41/3/1
f 43/3/1 40/3/1 39/3/1
f 44/3/1 40/3/1 43/3/1
f 45/1/2 46/1/2 49/1/2
f 49/1/2 46/1/2 50/1/2
f 47/1/2 48/1/2 51/1/2
f 51/1/2 48/1/2 52/1/2
f 49/4/2 50/4/2 53/4/2
f 53/4/2 50/4/2 54/4/2
f 51/4/2 52/4/2 55/4/2
f 55/4/2 52/4/2 56/4/2
f 53/3/2 54/3/2 57/3/2
f 57/3/2 54/3/2 58/3/2
f 55/3/2 56/3/2 59/3/2
f 59/3/2 56/3/2 60/3/2
f 61/5/2 62/5/2 65/5/2
f 65/5/2 62/5/2 66/5/2
f 63/5/2 64/5/2 67/5/2
f 67/5/2 64/5/2 68/5/2
f 65/4/2 66/4/2 69/4/2
f 69/4/2 66/4/2 70/4/2
f 67/4/2 68/4/2 71/4/2
f 71/4/2 68/4/2 72/4/2
f 69/3/2 70/3/2 73/3/2
f 73/3/2 70/3/2 74/3/2
f 71/3/2 72/3/2 75/3/2
f 75/3/2 72/3/2 76/3/2
f 77/1/2 78/1/2 81/1/2
f 78/5/2 79/5/2 82/5/2
f 81/1/2 78/1/2 82/1/2
f 79/1/2 80/1/2 83/1/2
f 82/5/2 79/5/2 83/5/2
f 83/1/2 80/1/2 84/1/2
f 81/4/2 82/4/2 85/4/2
f 82/4/2 83/4/2 85/4/2
f 83/4/2 84/4/2 85/4/2
f 85/4/2 84/4/2 86/4/2
f 85/3/2 86/3/2 87/3/2
f 87/3/2 86/3/2 88/3/2
f 93/1/3 90/1/3 89/1/3
f 94/4/3 91/4/3 90/4/3
f 94/1/3 90/1/3 93/1/3
f 95/5/3 94/5/3 93/5/3
f 96/4/3 91/4/3 94/4/3
f 96/5/3 94/5/3 95/5/3
f 97/1/3 96/1/3 95/1/3
f 98/4/3 91/4/3 96/4/3
f 98/1/3 96/1/3 97/1/3
f 99/3/3 92/3/3 91/3/3
f 99/4/3 91/4/3 98/4/3
f 100/3/3 92/3/3 99/3/3
f 105/5/3 102/5/3 101/5/3
f 106/4/3 103/4/3 102/4/3
f 106/5/3 102/5/3 105/5/3
f 107/3/3 104/3/3 103/3/3
f 107/4/3 103/4/3 106/4/3
f 108/3/3 104/3/3 107/3/3
f 113/5/3 110/5/3 109/5/3
f 114/4/3 111/4/3 110/4/3
f 114/5/3 110/5/3 113/5/3
f 115/3/3 112/3/3 111/3/3
f 115/4/3 111/4/3 114/4/3
f 116/3/3 112/3/3 115/3/3
f 121/1/3 118/1/3 117/1/3
f 122/4/3 119/4/3 118/4/3
f 122/1/3 118/1/3 121/1/3
f 123/3/3 120/3/3 119/3/3
f 123/4/3 119/4/3 122/4/3
f 124/3/3 120/3/3 123/3/3
f 129/1/3 126/1/3 125/1/3
f 130/4/3 127/4/3 126/4/3
f 130/1/3 126/1/3 129/1/3
f 131/3/3 128/3/3 127/3/3
f 131/4/3 127/4/3 130/4/3
f 132/3/3 128/3/3 131/3/3
f 133/1/4 134/1/4 137/1/4
f 134/4/4 135/4/4 138/4/4
f 137/1/4 134/1/4 138/1/4
f 135/3/4 136/3/4 139/3/4
f 138/4/4 135/4/4 139/4/4
f 139/3/4 136/3/4 140/3/4
f 141/1/4 142/1/4 145/1/4
f 142/4/4 143/4/4 146/4/4
f 145/1/4 142/1/4 146/1/4
f 143/3/4 144/3/4 147/3/4
f 146/4/4 143/4/4 147/4/4
f 147/3/4 144/3/4 148/3/4
f 149/5/4 150/5/4 153/5/4
f 150/4/4 151/4/4 154/4/4
f 153/5/4 150/5/4 154/5/4
f 151/3/4 152/3/4 155/3/4
f 154/4/4 151/4/4 155/4/4
f 155/3/4 152/3/4 156/3/4
f 157/5/4 158/5/4 161/5/4
f 158/4/4 159/4/4 162/4/4
f 161/5/4 158/5/4 162/5/4
f 159/3/4 160/3/4 163/3/4
f 162/4/4 159/4/4 163/4/4
f 163/3/4 160/3/4 164/3/4
f 165/1/4 166/1/4 169/1/4
f 166/4/4 167/4/4 170/4/4
f 169/1/4 166/1/4 170/1/4
f 169/5/4 170/5/4 171/5/4
f 170/4/4 167/4/4 172/4/4
f 171/5/4 170/5/4 172/5/4
f 171/1/4 172/1/4 173/1/4
f 172/4/4 167/4/4 174/4/4
f 173/1/4 172/1/4 174/1/4
f 167/3/4 168/3/4 175/3/4
f 174/4/4 167/4/4 175/4/4
f 175/3/4 168/3/4 176/3/4
f 182/1/5 178/1/5 177/1/5
f 183/5/5 179/5/5 178/5/5
f 183/1/5 178/1/5 182/1/5
f 184/1/5 180/1/5 179/1/5
f 184/5/5 179/5/5 183/5/5
f 185/1/5 180/1/5 184/1/5
f 187/5/5 182/5/5 181/5/5
f 188/2/5 183/2/5 182/2/5
f 188/5/5 182/5/5 187/5/5
f 188/2/5 184/2/5 183/2/5
f 188/2/5 185/2/5 184/2/5
f 189/5/5 186/5/5 185/5/5
f 189/2/5 185/2/5 188/2/5
f 190/5/5 186/5/5 189/5/5
f 192/5/5 187/5/5 181/5/5
f 193/2/5 188/2/5 187/2/5
f 193/2/5 189/2/5 188/2/5
f 193/5/5 187/5/5 192/5/5
f 193/2/5 190/2/5 189/2/5
f 194/5/5 186/5/5 190/5/5
f 194/2/5 190/2/5 193/2/5
f 195/5/5 186/5/5 194/5/5
f 197/1/5 192/1/5 191/1/5
f 198/2/5 193/2/5 192/2/5
f 198/1/5 192/1/5 197/1/5
f 198/2/5 194/2/5 193/2/5
f 198/2/5 195/2/5 194/2/5
f 199/1/5 196/1/5 195/1/5
f 199/2/5 195/2/5 198/2/5
f 200/1/5 196/1/5 199/1/5
f 201/5/5 198/5/5 197/5/5
f 202/2/5 199/2/5 198/2/5
f 202/5/5 198/5/5 201/5/5
f 203/5/5 200/5/5 199/5/5
f 203/2/5 199/2/5 202/2/5
f 204/5/5 200/5/5 203/5/5
f 205/1/5 202/1/5 201/1/5
f 206/2/5 203/2/5 202/2/5
f 206/1/5 202/1/5 205/1/5
f 207/2/5 203/2/5 206/2/5
f 208/2/5 203/2/5 207/2/5
f 209/1/5 204/1/5 203/1/5
f 209/2/5 203/2/5 208/2/5
f 210/1/5 204/1/5 209/1/5
f 211/2/5 208/2/5 207/2/5
f 211/5/5 207/5/5 206/5/5
f 212/2/5 208/2/5 211/2/5
f 213/2/5 208/2/5 212/2/5
f 214/5/5 209/5/5 208/5/5
f 214/2/5 208/2/5 213/2/5
f 215/5/5 211/5/5 206/5/5
f 215/5/5 212/5/5 211/5/5
f 216/2/5 213/2/5 212/2/5
f 216/5/5 212/5/5 215/5/5
f 217/2/5 213/2/5 216/2/5
f 218/2/5 213/2/5 217/2/5
f 219/5/5 214/5/5 213/5/5
f 219/2/5 213/2/5 218/2/5
f 220/5/5 209/5/5 214/5/5
f 220/5/5 214/5/5 219/5/5
f 221/1/5 217/1/5 216/1/5
f 222/5/5 218/5/5 217/5/5
f 222/1/5 217/1/5 221/1/5
f 223/1/5 219/1/5 218/1/5
f 223/5/5 218/5/5 222/5/5
f 224/1/5 219/1/5 223/1/5
f 225/3/6 226/3/6 228/3/6
f 228/3/6 226/3/6 229/3/6
f 227/3/6 228/3/6 231/3/6
f 228/2/6 229/2/6 232/2/6
f 231/3/6 228/3/6 232/3/6
f 229/3/6 230/3/6 233/3/6
f 232/2/6 229/2/6 233/2/6
f 233/3/6 230/3/6 234/3/6
f 227/3/6 231/3/6 236/3/6
f 231/2/6 232/2/6 237/2/6
f 232/2/6 233/2/6 237/2/6
f 236/3/6 231/3/6 237/3/6
f 233/2/6 234/2/6 237/2/6
f 234/3/6 230/3/6 238/3/6
f 237/2/6 234/2/6 238/2/6
f 238/3/6 230/3/6 239/3/6
f 235/3/6 236/3/6 241/3/6
f 236/2/6 237/2/6 242/2/6
f 241/3/6 236/3/6 242/3/6
f 237/2/6 238/2/6 242/2/6
f 238/2/6 239/2/6 242/2/6
f 242/2/6 239/2/6 243/2/6
f 243/2/6 239/2/6 244/2/6
f 239/3/6 240/3/6 245/3/6
f 244/2/6 239/2/6 245/2/6
f 245/3/6 240/3/6 246/3/6
f 243/2/6 244/2/6 247/2/6
f 242/3/6 243/3/6 247/3/6
f 247/2/6 244/2/6 248/2/6
f 248/2/6 244/2/6 249/2/6
f 244/3/6 245/3/6 250/3/6
f 249/2/6 244/2/6 250/2/6
f 242/3/6 247/3/6 251/3/6
f 247/3/6 248/3/6 251/3/6
f 248/2/6 249/2/6 252/2/6
f 251/3/6 248/3/6 252/3/6
f 249/3/6 250/3/6 253/3/6
f 252/2/6 249/2/6 253/2/6
f 250/3/6 245/3/6 254/3/6
f 253/3/6 250/3/6 254/3/6
f 252/3/6 253/3/6 255/3/6
f 255/3/6 253/3/6 256/3/6
