# MagicaVoxel @ Ephtracy

# group
g Capsule_Scan_Scanner

# material
mtllib Capsule_Scan_Scanner.mtl
usemtl palette

# normals
vn -1 0 0
vn 1 0 0
vn 0 0 1
vn 0 0 -1
vn 0 -1 0
vn 0 1 0

# texcoords
vt 0.642578 0.5
vt 0.912109 0.5
vt 0.970703 0.5
vt 0.978516 0.5
vt 0.982422 0.5
vt 0.994141 0.5

# verts
v -2 0 1
v -2 0 -1
v -2 1 1
v -2 1 -1
v -2 2 1
v -2 2 -1
v -2 3 1
v -2 3 -1
v -2 5 1
v -2 5 -1
v -2 6 1
v -2 6 -1
v -2 8 1
v -2 8 -1
v -2 9 1
v -2 9 -1
v -2 11 1
v -2 11 -1
v -2 12 1
v -2 12 -1
v -2 13 1
v -2 13 -1
v -2 14 1
v -2 14 -1
v -1 0 2
v -1 0 1
v -1 0 -1
v -1 0 -2
v -1 1 2
v -1 1 1
v -1 1 -1
v -1 1 -2
v -1 2 2
v -1 2 1
v -1 2 -1
v -1 2 -2
v -1 3 2
v -1 3 1
v -1 3 -1
v -1 3 -2
v -1 5 2
v -1 5 1
v -1 5 -1
v -1 5 -2
v -1 6 2
v -1 6 1
v -1 6 -0
v -1 6 -1
v -1 6 -2
v -1 7 1
v -1 7 -0
v -1 7 -1
v -1 8 2
v -1 8 1
v -1 8 -0
v -1 8 -1
v -1 8 -2
v -1 9 2
v -1 9 1
v -1 9 -1
v -1 9 -2
v -1 11 2
v -1 11 1
v -1 11 -1
v -1 11 -2
v -1 12 2
v -1 12 1
v -1 12 -1
v -1 12 -2
v -1 13 2
v -1 13 1
v -1 13 -1
v -1 13 -2
v -1 14 2
v -1 14 1
v -1 14 -1
v -1 14 -2
v 1 0 2
v 1 0 1
v 1 0 -1
v 1 0 -2
v 1 1 2
v 1 1 1
v 1 1 -1
v 1 1 -2
v 1 2 2
v 1 2 1
v 1 2 -1
v 1 2 -2
v 1 3 2
v 1 3 1
v 1 3 -1
v 1 3 -2
v 1 5 2
v 1 5 1
v 1 5 -1
v 1 5 -2
v 1 6 2
v 1 6 1
v 1 6 -0
v 1 6 -1
v 1 6 -2
v 1 7 1
v 1 7 -0
v 1 7 -1
v 1 8 2
v 1 8 1
v 1 8 -0
v 1 8 -1
v 1 8 -2
v 1 9 2
v 1 9 1
v 1 9 -1
v 1 9 -2
v 1 11 2
v 1 11 1
v 1 11 -1
v 1 11 -2
v 1 12 2
v 1 12 1
v 1 12 -1
v 1 12 -2
v 1 13 2
v 1 13 1
v 1 13 -1
v 1 13 -2
v 1 14 2
v 1 14 1
v 1 14 -1
v 1 14 -2
v 2 0 1
v 2 0 -1
v 2 1 1
v 2 1 -1
v 2 2 1
v 2 2 -1
v 2 3 1
v 2 3 -1
v 2 5 1
v 2 5 -1
v 2 6 1
v 2 6 -1
v 2 8 1
v 2 8 -1
v 2 9 1
v 2 9 -1
v 2 11 1
v 2 11 -1
v 2 12 1
v 2 12 -1
v 2 13 1
v 2 13 -1
v 2 14 1
v 2 14 -1
v -1 0 2
v -1 1 2
v -1 2 2
v -1 3 2
v -1 5 2
v -1 6 2
v -1 8 2
v -1 9 2
v -1 11 2
v -1 12 2
v -1 13 2
v -1 14 2
v 1 0 2
v 1 1 2
v 1 2 2
v 1 3 2
v 1 5 2
v 1 6 2
v 1 8 2
v 1 9 2
v 1 11 2
v 1 12 2
v 1 13 2
v 1 14 2
v -2 0 1
v -2 1 1
v -2 2 1
v -2 3 1
v -2 5 1
v -2 6 1
v -2 8 1
v -2 9 1
v -2 11 1
v -2 12 1
v -2 13 1
v -2 14 1
v -1 0 1
v -1 1 1
v -1 2 1
v -1 3 1
v -1 5 1
v -1 6 1
v -1 7 1
v -1 8 1
v -1 9 1
v -1 11 1
v -1 12 1
v -1 13 1
v -1 14 1
v 0 6 1
v 0 7 1
v 0 8 1
v 1 0 1
v 1 1 1
v 1 2 1
v 1 3 1
v 1 5 1
v 1 6 1
v 1 7 1
v 1 8 1
v 1 9 1
v 1 11 1
v 1 12 1
v 1 13 1
v 1 14 1
v 2 0 1
v 2 1 1
v 2 2 1
v 2 3 1
v 2 5 1
v 2 6 1
v 2 8 1
v 2 9 1
v 2 11 1
v 2 12 1
v 2 13 1
v 2 14 1
v -2 0 -1
v -2 1 -1
v -2 2 -1
v -2 3 -1
v -2 5 -1
v -2 6 -1
v -2 8 -1
v -2 9 -1
v -2 11 -1
v -2 12 -1
v -2 13 -1
v -2 14 -1
v -1 0 -1
v -1 1 -1
v -1 2 -1
v -1 3 -1
v -1 5 -1
v -1 6 -1
v -1 7 -1
v -1 8 -1
v -1 9 -1
v -1 11 -1
v -1 12 -1
v -1 13 -1
v -1 14 -1
v 0 6 -1
v 0 7 -1
v 0 8 -1
v 1 0 -1
v 1 1 -1
v 1 2 -1
v 1 3 -1
v 1 5 -1
v 1 6 -1
v 1 7 -1
v 1 8 -1
v 1 9 -1
v 1 11 -1
v 1 12 -1
v 1 13 -1
v 1 14 -1
v 2 0 -1
v 2 1 -1
v 2 2 -1
v 2 3 -1
v 2 5 -1
v 2 6 -1
v 2 8 -1
v 2 9 -1
v 2 11 -1
v 2 12 -1
v 2 13 -1
v 2 14 -1
v -1 0 -2
v -1 1 -2
v -1 2 -2
v -1 3 -2
v -1 5 -2
v -1 6 -2
v -1 8 -2
v -1 9 -2
v -1 11 -2
v -1 12 -2
v -1 13 -2
v -1 14 -2
v 1 0 -2
v 1 1 -2
v 1 2 -2
v 1 3 -2
v 1 5 -2
v 1 6 -2
v 1 8 -2
v 1 9 -2
v 1 11 -2
v 1 12 -2
v 1 13 -2
v 1 14 -2
v -1 0 2
v 1 0 2
v -2 0 1
v -1 0 1
v 1 0 1
v 2 0 1
v -2 0 -1
v -1 0 -1
v 1 0 -1
v 2 0 -1
v -1 0 -2
v 1 0 -2
v -1 5 2
v 1 5 2
v -2 5 1
v -1 5 1
v 1 5 1
v 2 5 1
v -2 5 -1
v -1 5 -1
v 1 5 -1
v 2 5 -1
v -1 5 -2
v 1 5 -2
v -1 8 2
v 1 8 2
v -2 8 1
v -1 8 1
v 0 8 1
v 1 8 1
v 2 8 1
v -1 8 -0
v 1 8 -0
v -2 8 -1
v -1 8 -1
v 0 8 -1
v 1 8 -1
v 2 8 -1
v -1 8 -2
v 1 8 -2
v -1 11 2
v 1 11 2
v -2 11 1
v -1 11 1
v 1 11 1
v 2 11 1
v -2 11 -1
v -1 11 -1
v 1 11 -1
v 2 11 -1
v -1 11 -2
v 1 11 -2
v -1 3 2
v 1 3 2
v -2 3 1
v -1 3 1
v 1 3 1
v 2 3 1
v -2 3 -1
v -1 3 -1
v 1 3 -1
v 2 3 -1
v -1 3 -2
v 1 3 -2
v -1 6 2
v 1 6 2
v -2 6 1
v -1 6 1
v 0 6 1
v 1 6 1
v 2 6 1
v -1 6 -0
v 1 6 -0
v -2 6 -1
v -1 6 -1
v 0 6 -1
v 1 6 -1
v 2 6 -1
v -1 6 -2
v 1 6 -2
v -1 9 2
v 1 9 2
v -2 9 1
v -1 9 1
v 1 9 1
v 2 9 1
v -2 9 -1
v -1 9 -1
v 1 9 -1
v 2 9 -1
v -1 9 -2
v 1 9 -2
v -1 14 2
v 1 14 2
v -2 14 1
v -1 14 1
v 1 14 1
v 2 14 1
v -2 14 -1
v -1 14 -1
v 1 14 -1
v 2 14 -1
v -1 14 -2
v 1 14 -2

# faces
f 3/2/1 2/2/1 1/2/1
f 4/2/1 2/2/1 3/2/1
f 5/4/1 4/4/1 3/4/1
f 6/4/1 4/4/1 5/4/1
f 7/2/1 6/2/1 5/2/1
f 8/2/1 6/2/1 7/2/1
f 11/3/1 10/3/1 9/3/1
f 12/3/1 10/3/1 11/3/1
f 15/3/1 14/3/1 13/3/1
f 16/3/1 14/3/1 15/3/1
f 19/2/1 18/2/1 17/2/1
f 20/2/1 18/2/1 19/2/1
f 21/4/1 20/4/1 19/4/1
f 22/4/1 20/4/1 21/4/1
f 23/2/1 22/2/1 21/2/1
f 24/2/1 22/2/1 23/2/1
f 29/2/1 26/2/1 25/2/1
f 30/2/1 26/2/1 29/2/1
f 31/2/1 28/2/1 27/2/1
f 32/2/1 28/2/1 31/2/1
f 33/4/1 30/4/1 29/4/1
f 34/4/1 30/4/1 33/4/1
f 35/4/1 32/4/1 31/4/1
f 36/4/1 32/4/1 35/4/1
f 37/2/1 34/2/1 33/2/1
f 38/2/1 34/2/1 37/2/1
f 39/2/1 36/2/1 35/2/1
f 40/2/1 36/2/1 39/2/1
f 42/5/1 39/5/1 38/5/1
f 43/5/1 39/5/1 42/5/1
f 45/3/1 42/3/1 41/3/1
f 46/3/1 42/3/1 45/3/1
f 48/3/1 44/3/1 43/3/1
f 49/3/1 44/3/1 48/3/1
f 50/2/1 47/2/1 46/2/1
f 51/1/1 48/1/1 47/1/1
f 51/2/1 47/2/1 50/2/1
f 52/1/1 48/1/1 51/1/1
f 54/1/1 51/1/1 50/1/1
f 55/2/1 52/2/1 51/2/1
f 55/1/1 51/1/1 54/1/1
f 56/2/1 52/2/1 55/2/1
f 58/3/1 54/3/1 53/3/1
f 59/3/1 54/3/1 58/3/1
f 60/3/1 57/3/1 56/3/1
f 61/3/1 57/3/1 60/3/1
f 63/5/1 60/5/1 59/5/1
f 64/5/1 60/5/1 63/5/1
f 66/2/1 63/2/1 62/2/1
f 67/2/1 63/2/1 66/2/1
f 68/2/1 65/2/1 64/2/1
f 69/2/1 65/2/1 68/2/1
f 70/4/1 67/4/1 66/4/1
f 71/4/1 67/4/1 70/4/1
f 72/4/1 69/4/1 68/4/1
f 73/4/1 69/4/1 72/4/1
f 74/2/1 71/2/1 70/2/1
f 75/2/1 71/2/1 74/2/1
f 76/2/1 73/2/1 72/2/1
f 77/2/1 73/2/1 76/2/1
f 78/2/2 79/2/2 82/2/2
f 82/2/2 79/2/2 83/2/2
f 80/2/2 81/2/2 84/2/2
f 84/2/2 81/2/2 85/2/2
f 82/4/2 83/4/2 86/4/2
f 86/4/2 83/4/2 87/4/2
f 84/4/2 85/4/2 88/4/2
f 88/4/2 85/4/2 89/4/2
f 86/2/2 87/2/2 90/2/2
f 90/2/2 87/2/2 91/2/2
f 88/2/2 89/2/2 92/2/2
f 92/2/2 89/2/2 93/2/2
f 91/5/2 92/5/2 95/5/2
f 95/5/2 92/5/2 96/5/2
f 94/3/2 95/3/2 98/3/2
f 98/3/2 95/3/2 99/3/2
f 96/3/2 97/3/2 101/3/2
f 101/3/2 97/3/2 102/3/2
f 99/1/2 100/1/2 103/1/2
f 100/2/2 101/2/2 104/2/2
f 103/1/2 100/1/2 104/1/2
f 104/2/2 101/2/2 105/2/2
f 103/2/2 104/2/2 107/2/2
f 104/1/2 105/1/2 108/1/2
f 107/2/2 104/2/2 108/2/2
f 108/1/2 105/1/2 109/1/2
f 106/3/2 107/3/2 111/3/2
f 111/3/2 107/3/2 112/3/2
f 109/3/2 110/3/2 113/3/2
f 113/3/2 110/3/2 114/3/2
f 112/5/2 113/5/2 116/5/2
f 116/5/2 113/5/2 117/5/2
f 115/2/2 116/2/2 119/2/2
f 119/2/2 116/2/2 120/2/2
f 117/2/2 118/2/2 121/2/2
f 121/2/2 118/2/2 122/2/2
f 119/4/2 120/4/2 123/4/2
f 123/4/2 120/4/2 124/4/2
f 121/4/2 122/4/2 125/4/2
f 125/4/2 122/4/2 126/4/2
f 123/2/2 124/2/2 127/2/2
f 127/2/2 124/2/2 128/2/2
f 125/2/2 126/2/2 129/2/2
f 129/2/2 126/2/2 130/2/2
f 131/2/2 132/2/2 133/2/2
f 133/2/2 132/2/2 134/2/2
f 133/4/2 134/4/2 135/4/2
f 135/4/2 134/4/2 136/4/2
f 135/2/2 136/2/2 137/2/2
f 137/2/2 136/2/2 138/2/2
f 139/3/2 140/3/2 141/3/2
f 141/3/2 140/3/2 142/3/2
f 143/3/2 144/3/2 145/3/2
f 145/3/2 144/3/2 146/3/2
f 147/2/2 148/2/2 149/2/2
f 149/2/2 148/2/2 150/2/2
f 149/4/2 150/4/2 151/4/2
f 151/4/2 150/4/2 152/4/2
f 151/2/2 152/2/2 153/2/2
f 153/2/2 152/2/2 154/2/2
f 167/2/3 156/2/3 155/2/3
f 168/4/3 157/4/3 156/4/3
f 168/2/3 156/2/3 167/2/3
f 169/2/3 158/2/3 157/2/3
f 169/4/3 157/4/3 168/4/3
f 170/2/3 158/2/3 169/2/3
f 171/3/3 160/3/3 159/3/3
f 172/3/3 160/3/3 171/3/3
f 173/3/3 162/3/3 161/3/3
f 174/3/3 162/3/3 173/3/3
f 175/2/3 164/2/3 163/2/3
f 176/4/3 165/4/3 164/4/3
f 176/2/3 164/2/3 175/2/3
f 177/2/3 166/2/3 165/2/3
f 177/4/3 165/4/3 176/4/3
f 178/2/3 166/2/3 177/2/3
f 191/2/3 180/2/3 179/2/3
f 192/4/3 181/4/3 180/4/3
f 192/2/3 180/2/3 191/2/3
f 193/2/3 182/2/3 181/2/3
f 193/4/3 181/4/3 192/4/3
f 194/2/3 182/2/3 193/2/3
f 195/3/3 184/3/3 183/3/3
f 196/3/3 184/3/3 195/3/3
f 198/3/3 186/3/3 185/3/3
f 199/3/3 186/3/3 198/3/3
f 200/2/3 188/2/3 187/2/3
f 201/4/3 189/4/3 188/4/3
f 201/2/3 188/2/3 200/2/3
f 202/2/3 190/2/3 189/2/3
f 202/4/3 189/4/3 201/4/3
f 203/2/3 190/2/3 202/2/3
f 204/2/3 197/2/3 196/2/3
f 205/1/3 198/1/3 197/1/3
f 205/2/3 197/2/3 204/2/3
f 206/1/3 198/1/3 205/1/3
f 210/5/3 195/5/3 194/5/3
f 211/5/3 195/5/3 210/5/3
f 212/1/3 205/1/3 204/1/3
f 213/2/3 206/2/3 205/2/3
f 213/1/3 205/1/3 212/1/3
f 214/2/3 206/2/3 213/2/3
f 215/5/3 200/5/3 199/5/3
f 216/5/3 200/5/3 215/5/3
f 220/2/3 208/2/3 207/2/3
f 221/4/3 209/4/3 208/4/3
f 221/2/3 208/2/3 220/2/3
f 222/2/3 210/2/3 209/2/3
f 222/4/3 209/4/3 221/4/3
f 223/2/3 210/2/3 222/2/3
f 224/3/3 212/3/3 211/3/3
f 225/3/3 212/3/3 224/3/3
f 226/3/3 215/3/3 214/3/3
f 227/3/3 215/3/3 226/3/3
f 228/2/3 217/2/3 216/2/3
f 229/4/3 218/4/3 217/4/3
f 229/2/3 217/2/3 228/2/3
f 230/2/3 219/2/3 218/2/3
f 230/4/3 218/4/3 229/4/3
f 231/2/3 219/2/3 230/2/3
f 232/2/4 233/2/4 244/2/4
f 233/4/4 234/4/4 245/4/4
f 244/2/4 233/2/4 245/2/4
f 234/2/4 235/2/4 246/2/4
f 245/4/4 234/4/4 246/4/4
f 246/2/4 235/2/4 247/2/4
f 236/3/4 237/3/4 248/3/4
f 248/3/4 237/3/4 249/3/4
f 238/3/4 239/3/4 251/3/4
f 251/3/4 239/3/4 252/3/4
f 240/2/4 241/2/4 253/2/4
f 241/4/4 242/4/4 254/4/4
f 253/2/4 241/2/4 254/2/4
f 242/2/4 243/2/4 255/2/4
f 254/4/4 242/4/4 255/4/4
f 255/2/4 243/2/4 256/2/4
f 249/1/4 250/1/4 257/1/4
f 250/2/4 251/2/4 258/2/4
f 257/1/4 250/1/4 258/1/4
f 258/2/4 251/2/4 259/2/4
f 247/5/4 248/5/4 263/5/4
f 263/5/4 248/5/4 264/5/4
f 257/2/4 258/2/4 265/2/4
f 258/1/4 259/1/4 266/1/4
f 265/2/4 258/2/4 266/2/4
f 266/1/4 259/1/4 267/1/4
f 252/5/4 253/5/4 268/5/4
f 268/5/4 253/5/4 269/5/4
f 260/2/4 261/2/4 273/2/4
f 261/4/4 262/4/4 274/4/4
f 273/2/4 261/2/4 274/2/4
f 262/2/4 263/2/4 275/2/4
f 274/4/4 262/4/4 275/4/4
f 275/2/4 263/2/4 276/2/4
f 264/3/4 265/3/4 277/3/4
f 277/3/4 265/3/4 278/3/4
f 267/3/4 268/3/4 279/3/4
f 279/3/4 268/3/4 280/3/4
f 269/2/4 270/2/4 281/2/4
f 270/4/4 271/4/4 282/4/4
f 281/2/4 270/2/4 282/2/4
f 271/2/4 272/2/4 283/2/4
f 282/4/4 271/4/4 283/4/4
f 283/2/4 272/2/4 284/2/4
f 285/2/4 286/2/4 297/2/4
f 286/4/4 287/4/4 298/4/4
f 297/2/4 286/2/4 298/2/4
f 287/2/4 288/2/4 299/2/4
f 298/4/4 287/4/4 299/4/4
f 299/2/4 288/2/4 300/2/4
f 289/3/4 290/3/4 301/3/4
f 301/3/4 290/3/4 302/3/4
f 291/3/4 292/3/4 303/3/4
f 303/3/4 292/3/4 304/3/4
f 293/2/4 294/2/4 305/2/4
f 294/4/4 295/4/4 306/4/4
f 305/2/4 294/2/4 306/2/4
f 295/2/4 296/2/4 307/2/4
f 306/4/4 295/4/4 307/4/4
f 307/2/4 296/2/4 308/2/4
f 312/2/5 310/2/5 309/2/5
f 313/2/5 310/2/5 312/2/5
f 315/2/5 312/2/5 311/2/5
f 315/2/5 314/2/5 313/2/5
f 315/2/5 313/2/5 312/2/5
f 316/2/5 314/2/5 315/2/5
f 317/2/5 314/2/5 316/2/5
f 318/2/5 314/2/5 317/2/5
f 319/2/5 317/2/5 316/2/5
f 320/2/5 317/2/5 319/2/5
f 324/3/5 322/3/5 321/3/5
f 325/3/5 322/3/5 324/3/5
f 327/3/5 324/3/5 323/3/5
f 328/3/5 324/3/5 327/3/5
f 329/3/5 326/3/5 325/3/5
f 330/3/5 326/3/5 329/3/5
f 331/3/5 329/3/5 328/3/5
f 332/3/5 329/3/5 331/3/5
f 336/3/5 334/3/5 333/3/5
f 337/3/5 334/3/5 336/3/5
f 338/3/5 334/3/5 337/3/5
f 340/3/5 336/3/5 335/3/5
f 341/3/5 339/3/5 338/3/5
f 342/3/5 340/3/5 335/3/5
f 343/3/5 340/3/5 342/3/5
f 345/3/5 339/3/5 341/3/5
f 346/3/5 339/3/5 345/3/5
f 347/3/5 344/3/5 343/3/5
f 347/3/5 345/3/5 344/3/5
f 348/3/5 345/3/5 347/3/5
f 352/2/5 350/2/5 349/2/5
f 353/2/5 350/2/5 352/2/5
f 355/2/5 352/2/5 351/2/5
f 356/2/5 352/2/5 355/2/5
f 357/2/5 354/2/5 353/2/5
f 358/2/5 354/2/5 357/2/5
f 359/2/5 357/2/5 356/2/5
f 360/2/5 357/2/5 359/2/5
f 361/2/6 362/2/6 364/2/6
f 364/2/6 362/2/6 365/2/6
f 363/2/6 364/2/6 367/2/6
f 367/2/6 364/2/6 368/2/6
f 365/2/6 366/2/6 369/2/6
f 369/2/6 366/2/6 370/2/6
f 368/2/6 369/2/6 371/2/6
f 371/2/6 369/2/6 372/2/6
f 373/3/6 374/3/6 376/3/6
f 376/3/6 374/3/6 377/3/6
f 377/3/6 374/3/6 378/3/6
f 375/3/6 376/3/6 380/3/6
f 378/3/6 379/3/6 381/3/6
f 375/3/6 380/3/6 382/3/6
f 382/3/6 380/3/6 383/3/6
f 381/3/6 379/3/6 385/3/6
f 385/3/6 379/3/6 386/3/6
f 383/3/6 384/3/6 387/3/6
f 384/3/6 385/3/6 387/3/6
f 387/3/6 385/3/6 388/3/6
f 389/3/6 390/3/6 392/3/6
f 392/3/6 390/3/6 393/3/6
f 391/3/6 392/3/6 395/3/6
f 395/3/6 392/3/6 396/3/6
f 393/3/6 394/3/6 397/3/6
f 397/3/6 394/3/6 398/3/6
f 396/3/6 397/3/6 399/3/6
f 399/3/6 397/3/6 400/3/6
f 401/2/6 402/2/6 404/2/6
f 404/2/6 402/2/6 405/2/6
f 403/2/6 404/2/6 407/2/6
f 404/1/6 405/1/6 408/1/6
f 407/2/6 404/2/6 408/2/6
f 405/2/6 406/2/6 409/2/6
f 408/1/6 405/1/6 409/1/6
f 409/2/6 406/2/6 410/2/6
f 408/2/6 409/2/6 411/2/6
f 411/2/6 409/2/6 412/2/6
