# MagicaVoxel @ Ephtracy

# group
g Door

# material
mtllib Door.mtl
usemtl palette

# normals
vn -1 0 0
vn 1 0 0
vn 0 0 1
vn 0 0 -1
vn 0 -1 0
vn 0 1 0

# texcoords
vt 0.912109 0.5
vt 0.919922 0.5
vt 0.978516 0.5

# verts
v -3 0 1
v -3 0 -1
v -3 10 1
v -3 10 -1
v 3 0 1
v 3 0 -1
v 3 10 1
v 3 10 -1
v -3 0 1
v -3 10 1
v -2 1 1
v -2 2 1
v -2 4 1
v -2 6 1
v -2 8 1
v -2 9 1
v -1 3 1
v -1 4 1
v -1 6 1
v -1 7 1
v 1 3 1
v 1 4 1
v 1 6 1
v 1 7 1
v 2 1 1
v 2 2 1
v 2 4 1
v 2 6 1
v 2 8 1
v 2 9 1
v 3 0 1
v 3 10 1
v -3 0 -1
v -3 10 -1
v -2 1 -1
v -2 2 -1
v -2 4 -1
v -2 6 -1
v -2 8 -1
v -2 9 -1
v -1 3 -1
v -1 4 -1
v -1 6 -1
v -1 7 -1
v 1 3 -1
v 1 4 -1
v 1 6 -1
v 1 7 -1
v 2 1 -1
v 2 2 -1
v 2 4 -1
v 2 6 -1
v 2 8 -1
v 2 9 -1
v 3 0 -1
v 3 10 -1
v -3 0 1
v 3 0 1
v -3 0 -1
v 3 0 -1
v -3 10 1
v 3 10 1
v -3 10 -1
v 3 10 -1

# faces
f 3/3/1 2/3/1 1/3/1
f 4/3/1 2/3/1 3/3/1
f 5/3/2 6/3/2 7/3/2
f 7/3/2 6/3/2 8/3/2
f 11/3/3 10/3/3 9/3/3
f 12/3/3 10/3/3 11/3/3
f 13/3/3 10/3/3 12/3/3
f 14/3/3 10/3/3 13/3/3
f 15/3/3 10/3/3 14/3/3
f 16/3/3 10/3/3 15/3/3
f 17/2/3 13/2/3 12/2/3
f 18/1/3 14/1/3 13/1/3
f 18/2/3 13/2/3 17/2/3
f 19/2/3 15/2/3 14/2/3
f 19/1/3 14/1/3 18/1/3
f 20/2/3 15/2/3 19/2/3
f 21/2/3 17/2/3 12/2/3
f 21/1/3 18/1/3 17/1/3
f 22/2/3 19/2/3 18/2/3
f 22/1/3 18/1/3 21/1/3
f 23/1/3 20/1/3 19/1/3
f 23/2/3 19/2/3 22/2/3
f 24/2/3 15/2/3 20/2/3
f 24/1/3 20/1/3 23/1/3
f 25/3/3 11/3/3 9/3/3
f 25/1/3 12/1/3 11/1/3
f 26/2/3 22/2/3 21/2/3
f 26/1/3 12/1/3 25/1/3
f 26/2/3 21/2/3 12/2/3
f 27/1/3 23/1/3 22/1/3
f 27/2/3 22/2/3 26/2/3
f 28/2/3 24/2/3 23/2/3
f 28/1/3 23/1/3 27/1/3
f 29/2/3 15/2/3 24/2/3
f 29/2/3 24/2/3 28/2/3
f 29/1/3 16/1/3 15/1/3
f 30/3/3 10/3/3 16/3/3
f 30/1/3 16/1/3 29/1/3
f 31/3/3 28/3/3 27/3/3
f 31/3/3 27/3/3 26/3/3
f 31/3/3 30/3/3 29/3/3
f 31/3/3 25/3/3 9/3/3
f 31/3/3 26/3/3 25/3/3
f 31/3/3 29/3/3 28/3/3
f 32/3/3 10/3/3 30/3/3
f 32/3/3 30/3/3 31/3/3
f 33/3/4 34/3/4 35/3/4
f 35/3/4 34/3/4 36/3/4
f 36/3/4 34/3/4 37/3/4
f 37/3/4 34/3/4 38/3/4
f 38/3/4 34/3/4 39/3/4
f 39/3/4 34/3/4 40/3/4
f 36/2/4 37/2/4 41/2/4
f 37/1/4 38/1/4 42/1/4
f 41/2/4 37/2/4 42/2/4
f 38/2/4 39/2/4 43/2/4
f 42/1/4 38/1/4 43/1/4
f 43/2/4 39/2/4 44/2/4
f 36/2/4 41/2/4 45/2/4
f 41/1/4 42/1/4 45/1/4
f 42/2/4 43/2/4 46/2/4
f 45/1/4 42/1/4 46/1/4
f 43/1/4 44/1/4 47/1/4
f 46/2/4 43/2/4 47/2/4
f 44/2/4 39/2/4 48/2/4
f 47/1/4 44/1/4 48/1/4
f 33/3/4 35/3/4 49/3/4
f 35/1/4 36/1/4 49/1/4
f 45/2/4 46/2/4 50/2/4
f 49/1/4 36/1/4 50/1/4
f 36/2/4 45/2/4 50/2/4
f 46/1/4 47/1/4 51/1/4
f 50/2/4 46/2/4 51/2/4
f 47/2/4 48/2/4 52/2/4
f 51/1/4 47/1/4 52/1/4
f 48/2/4 39/2/4 53/2/4
f 52/2/4 48/2/4 53/2/4
f 39/1/4 40/1/4 53/1/4
f 40/3/4 34/3/4 54/3/4
f 53/1/4 40/1/4 54/1/4
f 51/3/4 52/3/4 55/3/4
f 50/3/4 51/3/4 55/3/4
f 53/3/4 54/3/4 55/3/4
f 33/3/4 49/3/4 55/3/4
f 49/3/4 50/3/4 55/3/4
f 52/3/4 53/3/4 55/3/4
f 54/3/4 34/3/4 56/3/4
f 55/3/4 54/3/4 56/3/4
f 59/3/5 58/3/5 57/3/5
f 60/3/5 58/3/5 59/3/5
f 61/3/6 62/3/6 63/3/6
f 63/3/6 62/3/6 64/3/6
