# MagicaVoxel @ Ephtracy

# group
g Room_Default_C

# material
mtllib Room_Default_C.mtl
usemtl palette

# normals
vn -1 0 0
vn 1 0 0
vn 0 0 1
vn 0 0 -1
vn 0 -1 0
vn 0 1 0

# texcoords
vt 0.373047 0.5
vt 0.912109 0.5
vt 0.970703 0.5
vt 0.974609 0.5
vt 0.978516 0.5
vt 0.982422 0.5

# verts
v -13 0 13
v -13 0 -13
v -13 6 2
v -13 6 -6
v -13 12 2
v -13 12 -6
v -13 13 13
v -13 13 -13
v -13 14 13
v -13 14 -13
v -12 6 2
v -12 6 -6
v -12 12 2
v -12 12 -6
v -4 7 11
v -4 7 10
v -4 11 11
v -4 11 10
v -2 8 11
v -2 8 10
v -2 10 11
v -2 10 10
v 0 8 11
v 0 8 10
v 0 10 11
v 0 10 10
v 5 8 11
v 5 8 10
v 5 10 11
v 5 10 10
v 6 6 13
v 6 6 12
v 6 12 13
v 6 12 12
v 7 7 11
v 7 7 10
v 7 11 11
v 7 11 10
v 9 8 11
v 9 8 10
v 9 10 11
v 9 10 10
v -11 7 9
v -11 7 4
v -11 7 3
v -11 7 -7
v -11 7 -8
v -11 7 -13
v -11 8 9
v -11 8 5
v -11 8 2
v -11 8 1
v -11 8 -0
v -11 8 -4
v -11 8 -5
v -11 8 -6
v -11 8 -9
v -11 8 -13
v -11 10 9
v -11 10 5
v -11 10 2
v -11 10 1
v -11 10 -0
v -11 10 -4
v -11 10 -5
v -11 10 -6
v -11 10 -9
v -11 10 -13
v -11 11 9
v -11 11 4
v -11 11 3
v -11 11 -7
v -11 11 -8
v -11 11 -13
v -10 6 9
v -10 6 -13
v -10 7 9
v -10 7 4
v -10 7 3
v -10 7 -7
v -10 7 -8
v -10 7 -13
v -10 8 9
v -10 8 5
v -10 8 2
v -10 8 1
v -10 8 -0
v -10 8 -4
v -10 8 -5
v -10 8 -6
v -10 8 -9
v -10 8 -13
v -10 10 9
v -10 10 5
v -10 10 2
v -10 10 1
v -10 10 -0
v -10 10 -4
v -10 10 -5
v -10 10 -6
v -10 10 -9
v -10 10 -13
v -10 11 9
v -10 11 4
v -10 11 3
v -10 11 -7
v -10 11 -8
v -10 11 -13
v -10 12 9
v -10 12 -13
v -9 4 9
v -9 4 -13
v -9 6 10
v -9 6 9
v -9 6 -13
v -9 7 11
v -9 7 10
v -9 8 11
v -9 8 10
v -9 10 11
v -9 10 10
v -9 11 11
v -9 11 10
v -9 12 10
v -9 12 9
v -9 12 -13
v -9 13 9
v -9 13 -13
v -9 14 9
v -9 14 -13
v -5 8 11
v -5 8 10
v -5 10 11
v -5 10 10
v -3 7 11
v -3 7 10
v -3 11 11
v -3 11 10
v -2 6 13
v -2 6 12
v -2 12 13
v -2 12 12
v -1 8 11
v -1 8 10
v -1 10 11
v -1 10 10
v 4 8 11
v 4 8 10
v 4 10 11
v 4 10 10
v 6 8 11
v 6 8 10
v 6 10 11
v 6 10 10
v 8 7 11
v 8 7 10
v 8 11 11
v 8 11 10
v 13 0 13
v 13 0 -13
v 13 4 9
v 13 4 -13
v 13 6 10
v 13 6 9
v 13 7 11
v 13 7 10
v 13 8 11
v 13 8 10
v 13 10 11
v 13 10 10
v 13 11 11
v 13 11 10
v 13 12 10
v 13 12 9
v 13 13 13
v 13 13 9
v 13 14 13
v 13 14 9
v -13 0 13
v -13 13 13
v -13 14 13
v -2 6 13
v -2 12 13
v 6 6 13
v 6 12 13
v 13 0 13
v 13 13 13
v 13 14 13
v -2 6 12
v -2 12 12
v 6 6 12
v 6 12 12
v -11 7 4
v -11 11 4
v -10 7 4
v -10 11 4
v -11 8 2
v -11 10 2
v -10 8 2
v -10 10 2
v -11 8 -0
v -11 10 -0
v -10 8 -0
v -10 10 -0
v -11 8 -5
v -11 10 -5
v -10 8 -5
v -10 10 -5
v -13 6 -6
v -13 12 -6
v -12 6 -6
v -12 12 -6
v -11 7 -7
v -11 11 -7
v -10 7 -7
v -10 11 -7
v -11 8 -9
v -11 10 -9
v -10 8 -9
v -10 10 -9
v -9 7 11
v -9 8 11
v -9 10 11
v -9 11 11
v -5 8 11
v -5 10 11
v -4 7 11
v -4 11 11
v -3 7 11
v -3 11 11
v -2 8 11
v -2 10 11
v -1 8 11
v -1 10 11
v 0 8 11
v 0 10 11
v 4 8 11
v 4 10 11
v 5 8 11
v 5 10 11
v 6 8 11
v 6 10 11
v 7 7 11
v 7 11 11
v 8 7 11
v 8 11 11
v 9 8 11
v 9 10 11
v 13 7 11
v 13 8 11
v 13 10 11
v 13 11 11
v -9 6 10
v -9 7 10
v -9 8 10
v -9 10 10
v -9 11 10
v -9 12 10
v -5 8 10
v -5 10 10
v -4 7 10
v -4 11 10
v -3 7 10
v -3 11 10
v -2 8 10
v -2 10 10
v -1 8 10
v -1 10 10
v 0 8 10
v 0 10 10
v 4 8 10
v 4 10 10
v 5 8 10
v 5 10 10
v 6 8 10
v 6 10 10
v 7 7 10
v 7 11 10
v 8 7 10
v 8 11 10
v 9 8 10
v 9 10 10
v 13 6 10
v 13 7 10
v 13 8 10
v 13 10 10
v 13 11 10
v 13 12 10
v -11 7 9
v -11 8 9
v -11 10 9
v -11 11 9
v -10 6 9
v -10 7 9
v -10 8 9
v -10 10 9
v -10 11 9
v -10 12 9
v -9 4 9
v -9 6 9
v -9 12 9
v -9 13 9
v -9 14 9
v 13 4 9
v 13 6 9
v 13 12 9
v 13 13 9
v 13 14 9
v -11 8 5
v -11 10 5
v -10 8 5
v -10 10 5
v -11 7 3
v -11 11 3
v -10 7 3
v -10 11 3
v -13 6 2
v -13 12 2
v -12 6 2
v -12 12 2
v -11 8 1
v -11 10 1
v -10 8 1
v -10 10 1
v -11 8 -4
v -11 10 -4
v -10 8 -4
v -10 10 -4
v -11 8 -6
v -11 10 -6
v -10 8 -6
v -10 10 -6
v -11 7 -8
v -11 11 -8
v -10 7 -8
v -10 11 -8
v -13 0 -13
v -13 13 -13
v -13 14 -13
v -11 7 -13
v -11 8 -13
v -11 10 -13
v -11 11 -13
v -10 6 -13
v -10 7 -13
v -10 8 -13
v -10 10 -13
v -10 11 -13
v -10 12 -13
v -9 4 -13
v -9 6 -13
v -9 12 -13
v -9 13 -13
v -9 14 -13
v 13 0 -13
v 13 4 -13
v -13 0 13
v 13 0 13
v -3 0 12
v -1 0 12
v 5 0 12
v 7 0 12
v -3 0 11
v -2 0 11
v 6 0 11
v 7 0 11
v -2 0 10
v -1 0 10
v 5 0 10
v 6 0 10
v -12 0 3
v -11 0 3
v -12 0 2
v -11 0 2
v -12 0 -6
v -11 0 -6
v -12 0 -7
v -11 0 -7
v -13 0 -13
v 13 0 -13
v -9 8 11
v -5 8 11
v -2 8 11
v -1 8 11
v 0 8 11
v 4 8 11
v 5 8 11
v 6 8 11
v 9 8 11
v 13 8 11
v -9 8 10
v -5 8 10
v -2 8 10
v -1 8 10
v 0 8 10
v 4 8 10
v 5 8 10
v 6 8 10
v 9 8 10
v 13 8 10
v -11 8 9
v -10 8 9
v -11 8 5
v -10 8 5
v -11 8 2
v -10 8 2
v -11 8 1
v -10 8 1
v -11 8 -0
v -10 8 -0
v -11 8 -4
v -10 8 -4
v -11 8 -5
v -10 8 -5
v -11 8 -6
v -10 8 -6
v -11 8 -9
v -10 8 -9
v -11 8 -13
v -10 8 -13
v -9 11 11
v -4 11 11
v -3 11 11
v 7 11 11
v 8 11 11
v 13 11 11
v -9 11 10
v -4 11 10
v -3 11 10
v 7 11 10
v 8 11 10
v 13 11 10
v -11 11 9
v -10 11 9
v -11 11 4
v -10 11 4
v -11 11 3
v -10 11 3
v -11 11 -7
v -10 11 -7
v -11 11 -8
v -10 11 -8
v -11 11 -13
v -10 11 -13
v -2 12 13
v 6 12 13
v -2 12 12
v 6 12 12
v -9 12 10
v 13 12 10
v -10 12 9
v -9 12 9
v 13 12 9
v -13 12 2
v -12 12 2
v -13 12 -6
v -12 12 -6
v -10 12 -13
v -9 12 -13
v -9 4 9
v 13 4 9
v -7 4 7
v -3 4 7
v -2 4 7
v -1 4 7
v 5 4 7
v 6 4 7
v 7 4 7
v 11 4 7
v -5 4 5
v -3 4 5
v -2 4 5
v -1 4 5
v 5 4 5
v 6 4 5
v 7 4 5
v 9 4 5
v -7 4 3
v -5 4 3
v 9 4 3
v 11 4 3
v -7 4 2
v -5 4 2
v 9 4 2
v 11 4 2
v -7 4 1
v -5 4 1
v 9 4 1
v 11 4 1
v -7 4 -5
v -5 4 -5
v 9 4 -5
v 11 4 -5
v -7 4 -6
v -5 4 -6
v 9 4 -6
v 11 4 -6
v -7 4 -7
v -5 4 -7
v 9 4 -7
v 11 4 -7
v -5 4 -9
v -3 4 -9
v -2 4 -9
v -1 4 -9
v 5 4 -9
v 6 4 -9
v 7 4 -9
v 9 4 -9
v -7 4 -11
v -3 4 -11
v -2 4 -11
v -1 4 -11
v 5 4 -11
v 6 4 -11
v 7 4 -11
v 11 4 -11
v -9 4 -13
v 13 4 -13
v -2 6 13
v 6 6 13
v -2 6 12
v 6 6 12
v -9 6 10
v 13 6 10
v -10 6 9
v -9 6 9
v 13 6 9
v -13 6 2
v -12 6 2
v -13 6 -6
v -12 6 -6
v -10 6 -13
v -9 6 -13
v -9 7 11
v -4 7 11
v -3 7 11
v 7 7 11
v 8 7 11
v 13 7 11
v -9 7 10
v -4 7 10
v -3 7 10
v 7 7 10
v 8 7 10
v 13 7 10
v -11 7 9
v -10 7 9
v -11 7 4
v -10 7 4
v -11 7 3
v -10 7 3
v -11 7 -7
v -10 7 -7
v -11 7 -8
v -10 7 -8
v -11 7 -13
v -10 7 -13
v -9 10 11
v -5 10 11
v -2 10 11
v -1 10 11
v 0 10 11
v 4 10 11
v 5 10 11
v 6 10 11
v 9 10 11
v 13 10 11
v -9 10 10
v -5 10 10
v -2 10 10
v -1 10 10
v 0 10 10
v 4 10 10
v 5 10 10
v 6 10 10
v 9 10 10
v 13 10 10
v -11 10 9
v -10 10 9
v -11 10 5
v -10 10 5
v -11 10 2
v -10 10 2
v -11 10 1
v -10 10 1
v -11 10 -0
v -10 10 -0
v -11 10 -4
v -10 10 -4
v -11 10 -5
v -10 10 -5
v -11 10 -6
v -10 10 -6
v -11 10 -9
v -10 10 -9
v -11 10 -13
v -10 10 -13
v -13 14 13
v 13 14 13
v -9 14 9
v 13 14 9
v -13 14 -13
v -9 14 -13

# faces
f 3/2/1 2/2/1 1/2/1
f 4/2/1 2/2/1 3/2/1
f 5/2/1 3/2/1 1/2/1
f 6/2/1 2/2/1 4/2/1
f 7/2/1 5/2/1 1/2/1
f 7/2/1 6/2/1 5/2/1
f 8/2/1 2/2/1 6/2/1
f 8/2/1 6/2/1 7/2/1
f 9/4/1 8/4/1 7/4/1
f 10/4/1 8/4/1 9/4/1
f 13/2/1 12/2/1 11/2/1
f 14/2/1 12/2/1 13/2/1
f 17/2/1 16/2/1 15/2/1
f 18/2/1 16/2/1 17/2/1
f 21/2/1 20/2/1 19/2/1
f 22/2/1 20/2/1 21/2/1
f 25/2/1 24/2/1 23/2/1
f 26/2/1 24/2/1 25/2/1
f 29/2/1 28/2/1 27/2/1
f 30/2/1 28/2/1 29/2/1
f 33/2/1 32/2/1 31/2/1
f 34/2/1 32/2/1 33/2/1
f 37/2/1 36/2/1 35/2/1
f 38/2/1 36/2/1 37/2/1
f 41/2/1 40/2/1 39/2/1
f 42/2/1 40/2/1 41/2/1
f 43/2/2 44/2/2 49/2/2
f 49/2/2 44/2/2 50/2/2
f 45/2/2 46/2/2 51/2/2
f 51/2/2 46/2/2 52/2/2
f 52/2/2 46/2/2 53/2/2
f 53/2/2 46/2/2 54/2/2
f 54/2/2 46/2/2 55/2/2
f 55/2/2 46/2/2 56/2/2
f 47/2/2 48/2/2 57/2/2
f 57/2/2 48/2/2 58/2/2
f 50/2/2 44/2/2 60/2/2
f 45/2/2 51/2/2 61/2/2
f 52/2/2 53/2/2 62/2/2
f 62/2/2 53/2/2 63/2/2
f 54/2/2 55/2/2 64/2/2
f 64/2/2 55/2/2 65/2/2
f 56/2/2 46/2/2 66/2/2
f 47/2/2 57/2/2 67/2/2
f 59/2/2 60/2/2 69/2/2
f 60/2/2 44/2/2 70/2/2
f 69/2/2 60/2/2 70/2/2
f 64/2/2 65/2/2 71/2/2
f 62/2/2 63/2/2 71/2/2
f 65/2/2 66/2/2 71/2/2
f 45/2/2 61/2/2 71/2/2
f 61/2/2 62/2/2 71/2/2
f 63/2/2 64/2/2 71/2/2
f 66/2/2 46/2/2 72/2/2
f 71/2/2 66/2/2 72/2/2
f 47/2/2 67/2/2 73/2/2
f 67/2/2 68/2/2 73/2/2
f 73/2/2 68/2/2 74/2/2
f 75/2/2 76/2/2 77/2/2
f 77/2/2 76/2/2 78/2/2
f 78/2/2 76/2/2 79/2/2
f 79/2/2 76/2/2 80/2/2
f 80/2/2 76/2/2 81/2/2
f 81/2/2 76/2/2 82/2/2
f 83/2/2 84/2/2 93/2/2
f 93/2/2 84/2/2 94/2/2
f 85/2/2 86/2/2 95/2/2
f 95/2/2 86/2/2 96/2/2
f 87/2/2 88/2/2 97/2/2
f 97/2/2 88/2/2 98/2/2
f 89/2/2 90/2/2 99/2/2
f 99/2/2 90/2/2 100/2/2
f 91/2/2 92/2/2 101/2/2
f 101/2/2 92/2/2 102/2/2
f 78/2/2 79/2/2 104/2/2
f 104/2/2 79/2/2 105/2/2
f 80/2/2 81/2/2 106/2/2
f 106/2/2 81/2/2 107/2/2
f 104/2/2 105/2/2 109/2/2
f 107/2/2 108/2/2 109/2/2
f 106/2/2 107/2/2 109/2/2
f 105/2/2 106/2/2 109/2/2
f 103/2/2 104/2/2 109/2/2
f 109/2/2 108/2/2 110/2/2
f 111/2/2 112/2/2 114/2/2
f 114/2/2 112/2/2 115/2/2
f 113/2/2 114/2/2 117/2/2
f 116/2/2 117/2/2 118/2/2
f 117/2/2 114/2/2 119/2/2
f 118/2/2 117/2/2 119/2/2
f 119/2/2 114/2/2 121/2/2
f 120/2/2 121/2/2 122/2/2
f 121/2/2 114/2/2 123/2/2
f 122/2/2 121/2/2 123/2/2
f 123/2/2 114/2/2 124/2/2
f 124/2/2 114/2/2 125/2/2
f 125/2/2 126/2/2 127/2/2
f 127/2/2 126/2/2 128/2/2
f 127/4/2 128/4/2 129/4/2
f 129/4/2 128/4/2 130/4/2
f 131/2/2 132/2/2 133/2/2
f 133/2/2 132/2/2 134/2/2
f 135/2/2 136/2/2 137/2/2
f 137/2/2 136/2/2 138/2/2
f 139/2/2 140/2/2 141/2/2
f 141/2/2 140/2/2 142/2/2
f 143/2/2 144/2/2 145/2/2
f 145/2/2 144/2/2 146/2/2
f 147/2/2 148/2/2 149/2/2
f 149/2/2 148/2/2 150/2/2
f 151/2/2 152/2/2 153/2/2
f 153/2/2 152/2/2 154/2/2
f 155/2/2 156/2/2 157/2/2
f 157/2/2 156/2/2 158/2/2
f 159/2/2 160/2/2 161/2/2
f 161/2/2 160/2/2 162/2/2
f 159/2/2 161/2/2 163/2/2
f 163/2/2 161/2/2 164/2/2
f 159/2/2 163/2/2 165/2/2
f 165/2/2 163/2/2 166/2/2
f 159/2/2 165/2/2 167/2/2
f 159/2/2 167/2/2 169/2/2
f 167/2/2 168/2/2 169/2/2
f 169/2/2 168/2/2 170/2/2
f 159/2/2 169/2/2 171/2/2
f 171/2/2 172/2/2 173/2/2
f 171/2/2 173/2/2 175/2/2
f 173/2/2 174/2/2 175/2/2
f 159/2/2 171/2/2 175/2/2
f 175/2/2 174/2/2 176/2/2
f 175/4/2 176/4/2 177/4/2
f 177/4/2 176/4/2 178/4/2
f 182/2/3 180/2/3 179/2/3
f 183/2/3 180/2/3 182/2/3
f 184/2/3 182/2/3 179/2/3
f 185/2/3 180/2/3 183/2/3
f 186/2/3 184/2/3 179/2/3
f 186/2/3 185/2/3 184/2/3
f 187/4/3 181/4/3 180/4/3
f 187/2/3 185/2/3 186/2/3
f 187/2/3 180/2/3 185/2/3
f 188/4/3 181/4/3 187/4/3
f 191/2/3 190/2/3 189/2/3
f 192/2/3 190/2/3 191/2/3
f 195/2/3 194/2/3 193/2/3
f 196/2/3 194/2/3 195/2/3
f 199/2/3 198/2/3 197/2/3
f 200/2/3 198/2/3 199/2/3
f 203/2/3 202/2/3 201/2/3
f 204/2/3 202/2/3 203/2/3
f 207/2/3 206/2/3 205/2/3
f 208/2/3 206/2/3 207/2/3
f 211/2/3 210/2/3 209/2/3
f 212/2/3 210/2/3 211/2/3
f 215/2/3 214/2/3 213/2/3
f 216/2/3 214/2/3 215/2/3
f 219/2/3 218/2/3 217/2/3
f 220/2/3 218/2/3 219/2/3
f 221/2/4 222/2/4 225/2/4
f 223/2/4 224/2/4 226/2/4
f 221/2/4 225/2/4 227/2/4
f 225/2/4 226/2/4 227/2/4
f 226/2/4 224/2/4 228/2/4
f 227/2/4 226/2/4 228/2/4
f 229/2/4 230/2/4 231/2/4
f 231/2/4 230/2/4 232/2/4
f 229/2/4 231/2/4 233/2/4
f 232/2/4 230/2/4 234/2/4
f 229/2/4 233/2/4 235/2/4
f 233/2/4 234/2/4 235/2/4
f 234/2/4 230/2/4 236/2/4
f 235/2/4 234/2/4 236/2/4
f 229/2/4 235/2/4 237/2/4
f 236/2/4 230/2/4 238/2/4
f 229/2/4 237/2/4 239/2/4
f 237/2/4 238/2/4 239/2/4
f 238/2/4 230/2/4 240/2/4
f 239/2/4 238/2/4 240/2/4
f 229/2/4 239/2/4 241/2/4
f 240/2/4 230/2/4 242/2/4
f 229/2/4 241/2/4 243/2/4
f 241/2/4 242/2/4 243/2/4
f 242/2/4 230/2/4 244/2/4
f 243/2/4 242/2/4 244/2/4
f 245/2/4 246/2/4 247/2/4
f 247/2/4 246/2/4 248/2/4
f 245/2/4 247/2/4 249/2/4
f 249/2/4 247/2/4 250/2/4
f 248/2/4 246/2/4 251/2/4
f 251/2/4 246/2/4 252/2/4
f 255/2/4 256/2/4 259/2/4
f 259/2/4 256/2/4 260/2/4
f 253/2/4 254/2/4 261/2/4
f 257/2/4 258/2/4 262/2/4
f 253/2/4 261/2/4 263/2/4
f 261/2/4 262/2/4 263/2/4
f 262/2/4 258/2/4 264/2/4
f 263/2/4 262/2/4 264/2/4
f 265/2/4 266/2/4 267/2/4
f 267/2/4 266/2/4 268/2/4
f 269/2/4 270/2/4 271/2/4
f 271/2/4 270/2/4 272/2/4
f 273/2/4 274/2/4 275/2/4
f 275/2/4 274/2/4 276/2/4
f 253/2/4 263/2/4 277/2/4
f 264/2/4 258/2/4 278/2/4
f 253/2/4 277/2/4 279/2/4
f 277/2/4 278/2/4 279/2/4
f 278/2/4 258/2/4 280/2/4
f 279/2/4 278/2/4 280/2/4
f 253/2/4 279/2/4 283/2/4
f 283/2/4 279/2/4 284/2/4
f 281/2/4 282/2/4 285/2/4
f 285/2/4 282/2/4 286/2/4
f 280/2/4 258/2/4 287/2/4
f 287/2/4 258/2/4 288/2/4
f 289/2/4 290/2/4 294/2/4
f 294/2/4 290/2/4 295/2/4
f 291/2/4 292/2/4 296/2/4
f 296/2/4 292/2/4 297/2/4
f 294/2/4 295/2/4 300/2/4
f 297/2/4 298/2/4 300/2/4
f 296/2/4 297/2/4 300/2/4
f 295/2/4 296/2/4 300/2/4
f 293/2/4 294/2/4 300/2/4
f 300/2/4 298/2/4 301/2/4
f 299/2/4 300/2/4 304/2/4
f 304/2/4 300/2/4 305/2/4
f 301/2/4 302/2/4 306/2/4
f 302/4/4 303/4/4 307/4/4
f 306/2/4 302/2/4 307/2/4
f 307/4/4 303/4/4 308/4/4
f 309/2/4 310/2/4 311/2/4
f 311/2/4 310/2/4 312/2/4
f 313/2/4 314/2/4 315/2/4
f 315/2/4 314/2/4 316/2/4
f 317/2/4 318/2/4 319/2/4
f 319/2/4 318/2/4 320/2/4
f 321/2/4 322/2/4 323/2/4
f 323/2/4 322/2/4 324/2/4
f 325/2/4 326/2/4 327/2/4
f 327/2/4 326/2/4 328/2/4
f 329/2/4 330/2/4 331/2/4
f 331/2/4 330/2/4 332/2/4
f 333/2/4 334/2/4 335/2/4
f 335/2/4 334/2/4 336/2/4
f 337/2/4 338/2/4 340/2/4
f 340/2/4 338/2/4 341/2/4
f 341/2/4 338/2/4 342/2/4
f 342/2/4 338/2/4 343/2/4
f 337/2/4 340/2/4 344/2/4
f 344/2/4 340/2/4 345/2/4
f 341/2/4 342/2/4 346/2/4
f 346/2/4 342/2/4 347/2/4
f 343/2/4 338/2/4 348/2/4
f 348/2/4 338/2/4 349/2/4
f 337/2/4 344/2/4 350/2/4
f 350/2/4 344/2/4 351/2/4
f 349/2/4 338/2/4 352/2/4
f 338/4/4 339/4/4 353/4/4
f 352/2/4 338/2/4 353/2/4
f 353/4/4 339/4/4 354/4/4
f 337/2/4 350/2/4 355/2/4
f 355/2/4 350/2/4 356/2/4
f 359/2/5 358/2/5 357/2/5
f 360/2/5 358/2/5 359/2/5
f 361/2/5 358/2/5 360/2/5
f 362/2/5 358/2/5 361/2/5
f 363/2/5 359/2/5 357/2/5
f 363/1/5 360/1/5 359/1/5
f 364/1/5 360/1/5 363/1/5
f 365/1/5 362/1/5 361/1/5
f 366/2/5 358/2/5 362/2/5
f 366/1/5 362/1/5 365/1/5
f 367/1/5 360/1/5 364/1/5
f 367/2/5 364/2/5 363/2/5
f 368/2/5 361/2/5 360/2/5
f 368/1/5 360/1/5 367/1/5
f 369/1/5 365/1/5 361/1/5
f 369/2/5 361/2/5 368/2/5
f 370/2/5 366/2/5 365/2/5
f 370/1/5 365/1/5 369/1/5
f 371/2/5 368/2/5 367/2/5
f 371/2/5 367/2/5 363/2/5
f 371/2/5 370/2/5 369/2/5
f 371/2/5 369/2/5 368/2/5
f 371/2/5 363/2/5 357/2/5
f 372/2/5 370/2/5 371/2/5
f 373/2/5 371/2/5 357/2/5
f 373/1/5 372/1/5 371/1/5
f 374/2/5 370/2/5 372/2/5
f 374/1/5 372/1/5 373/1/5
f 375/2/5 373/2/5 357/2/5
f 375/2/5 374/2/5 373/2/5
f 376/2/5 370/2/5 374/2/5
f 376/2/5 374/2/5 375/2/5
f 377/2/5 375/2/5 357/2/5
f 377/1/5 376/1/5 375/1/5
f 378/2/5 370/2/5 376/2/5
f 378/1/5 376/1/5 377/1/5
f 379/2/5 377/2/5 357/2/5
f 379/2/5 378/2/5 377/2/5
f 380/2/5 366/2/5 370/2/5
f 380/2/5 378/2/5 379/2/5
f 380/2/5 358/2/5 366/2/5
f 380/2/5 370/2/5 378/2/5
f 391/2/5 382/2/5 381/2/5
f 392/2/5 382/2/5 391/2/5
f 393/2/5 384/2/5 383/2/5
f 394/2/5 384/2/5 393/2/5
f 395/2/5 386/2/5 385/2/5
f 396/2/5 386/2/5 395/2/5
f 397/2/5 388/2/5 387/2/5
f 398/2/5 388/2/5 397/2/5
f 399/2/5 390/2/5 389/2/5
f 400/2/5 390/2/5 399/2/5
f 403/2/5 402/2/5 401/2/5
f 404/2/5 402/2/5 403/2/5
f 407/2/5 406/2/5 405/2/5
f 408/2/5 406/2/5 407/2/5
f 411/2/5 410/2/5 409/2/5
f 412/2/5 410/2/5 411/2/5
f 415/2/5 414/2/5 413/2/5
f 416/2/5 414/2/5 415/2/5
f 419/2/5 418/2/5 417/2/5
f 420/2/5 418/2/5 419/2/5
f 427/2/5 422/2/5 421/2/5
f 428/2/5 422/2/5 427/2/5
f 429/2/5 424/2/5 423/2/5
f 430/2/5 424/2/5 429/2/5
f 431/2/5 426/2/5 425/2/5
f 432/2/5 426/2/5 431/2/5
f 435/2/5 434/2/5 433/2/5
f 436/2/5 434/2/5 435/2/5
f 439/2/5 438/2/5 437/2/5
f 440/2/5 438/2/5 439/2/5
f 443/2/5 442/2/5 441/2/5
f 444/2/5 442/2/5 443/2/5
f 447/2/5 446/2/5 445/2/5
f 448/2/5 446/2/5 447/2/5
f 452/2/5 450/2/5 449/2/5
f 453/2/5 450/2/5 452/2/5
f 456/2/5 455/2/5 454/2/5
f 457/2/5 455/2/5 456/2/5
f 458/2/5 452/2/5 451/2/5
f 459/2/5 452/2/5 458/2/5
f 460/2/6 461/2/6 462/2/6
f 462/2/6 461/2/6 463/2/6
f 463/2/6 461/2/6 464/2/6
f 464/2/6 461/2/6 465/2/6
f 465/2/6 461/2/6 466/2/6
f 466/2/6 461/2/6 467/2/6
f 467/2/6 461/2/6 468/2/6
f 468/2/6 461/2/6 469/2/6
f 462/3/6 463/3/6 470/3/6
f 463/2/6 464/2/6 471/2/6
f 470/3/6 463/3/6 471/3/6
f 464/3/6 465/3/6 472/3/6
f 471/2/6 464/2/6 472/2/6
f 465/2/6 466/2/6 473/2/6
f 472/3/6 465/3/6 473/3/6
f 466/3/6 467/3/6 474/3/6
f 473/2/6 466/2/6 474/2/6
f 467/2/6 468/2/6 475/2/6
f 474/3/6 467/3/6 475/3/6
f 468/3/6 469/3/6 476/3/6
f 475/2/6 468/2/6 476/2/6
f 476/3/6 469/3/6 477/3/6
f 460/2/6 462/2/6 478/2/6
f 462/3/6 470/3/6 478/3/6
f 476/2/6 477/2/6 479/2/6
f 478/3/6 470/3/6 479/3/6
f 470/2/6 471/2/6 479/2/6
f 475/2/6 476/2/6 479/2/6
f 474/2/6 475/2/6 479/2/6
f 473/2/6 474/2/6 479/2/6
f 472/2/6 473/2/6 479/2/6
f 471/2/6 472/2/6 479/2/6
f 477/3/6 469/3/6 480/3/6
f 479/2/6 477/2/6 480/2/6
f 469/2/6 461/2/6 481/2/6
f 480/3/6 469/3/6 481/3/6
f 478/2/6 479/2/6 482/2/6
f 479/2/6 480/2/6 482/2/6
f 480/2/6 481/2/6 482/2/6
f 460/2/6 478/2/6 482/2/6
f 482/2/6 481/2/6 483/2/6
f 483/2/6 481/2/6 484/2/6
f 481/2/6 461/2/6 485/2/6
f 484/2/6 481/2/6 485/2/6
f 460/2/6 482/2/6 486/2/6
f 482/3/6 483/3/6 486/3/6
f 483/2/6 484/2/6 487/2/6
f 486/3/6 483/3/6 487/3/6
f 484/3/6 485/3/6 488/3/6
f 487/2/6 484/2/6 488/2/6
f 485/2/6 461/2/6 489/2/6
f 488/3/6 485/3/6 489/3/6
f 460/2/6 486/2/6 490/2/6
f 487/2/6 488/2/6 490/2/6
f 488/2/6 489/2/6 490/2/6
f 486/2/6 487/2/6 490/2/6
f 490/2/6 489/2/6 491/2/6
f 491/2/6 489/2/6 492/2/6
f 489/2/6 461/2/6 493/2/6
f 492/2/6 489/2/6 493/2/6
f 460/2/6 490/2/6 494/2/6
f 490/3/6 491/3/6 494/3/6
f 491/2/6 492/2/6 495/2/6
f 494/3/6 491/3/6 495/3/6
f 492/3/6 493/3/6 496/3/6
f 495/2/6 492/2/6 496/2/6
f 493/2/6 461/2/6 497/2/6
f 496/3/6 493/3/6 497/3/6
f 460/2/6 494/2/6 498/2/6
f 495/2/6 496/2/6 498/2/6
f 496/2/6 497/2/6 498/2/6
f 494/2/6 495/2/6 498/2/6
f 498/2/6 497/2/6 499/2/6
f 499/2/6 497/2/6 500/2/6
f 497/2/6 461/2/6 501/2/6
f 500/2/6 497/2/6 501/2/6
f 499/2/6 500/2/6 502/2/6
f 498/3/6 499/3/6 502/3/6
f 502/2/6 500/2/6 503/2/6
f 503/2/6 500/2/6 504/2/6
f 504/2/6 500/2/6 505/2/6
f 505/2/6 500/2/6 506/2/6
f 506/2/6 500/2/6 507/2/6
f 507/2/6 500/2/6 508/2/6
f 500/3/6 501/3/6 509/3/6
f 508/2/6 500/2/6 509/2/6
f 460/2/6 498/2/6 510/2/6
f 498/3/6 502/3/6 510/3/6
f 502/3/6 503/3/6 510/3/6
f 503/2/6 504/2/6 511/2/6
f 510/3/6 503/3/6 511/3/6
f 504/3/6 505/3/6 512/3/6
f 511/2/6 504/2/6 512/2/6
f 505/2/6 506/2/6 513/2/6
f 512/3/6 505/3/6 513/3/6
f 506/3/6 507/3/6 514/3/6
f 513/2/6 506/2/6 514/2/6
f 507/2/6 508/2/6 515/2/6
f 514/3/6 507/3/6 515/3/6
f 508/3/6 509/3/6 516/3/6
f 515/2/6 508/2/6 516/2/6
f 501/2/6 461/2/6 517/2/6
f 516/3/6 509/3/6 517/3/6
f 509/3/6 501/3/6 517/3/6
f 515/2/6 516/2/6 518/2/6
f 511/2/6 512/2/6 518/2/6
f 516/2/6 517/2/6 518/2/6
f 510/2/6 511/2/6 518/2/6
f 460/2/6 510/2/6 518/2/6
f 512/2/6 513/2/6 518/2/6
f 514/2/6 515/2/6 518/2/6
f 513/2/6 514/2/6 518/2/6
f 517/2/6 461/2/6 519/2/6
f 518/2/6 517/2/6 519/2/6
f 520/2/6 521/2/6 522/2/6
f 522/2/6 521/2/6 523/2/6
f 524/2/6 525/2/6 527/2/6
f 527/2/6 525/2/6 528/2/6
f 529/2/6 530/2/6 531/2/6
f 531/2/6 530/2/6 532/2/6
f 526/2/6 527/2/6 533/2/6
f 533/2/6 527/2/6 534/2/6
f 535/2/6 536/2/6 541/2/6
f 541/2/6 536/2/6 542/2/6
f 537/2/6 538/2/6 543/2/6
f 543/2/6 538/2/6 544/2/6
f 539/2/6 540/2/6 545/2/6
f 545/2/6 540/2/6 546/2/6
f 547/2/6 548/2/6 549/2/6
f 549/2/6 548/2/6 550/2/6
f 551/2/6 552/2/6 553/2/6
f 553/2/6 552/2/6 554/2/6
f 555/2/6 556/2/6 557/2/6
f 557/2/6 556/2/6 558/2/6
f 559/2/6 560/2/6 569/2/6
f 569/2/6 560/2/6 570/2/6
f 561/2/6 562/2/6 571/2/6
f 571/2/6 562/2/6 572/2/6
f 563/2/6 564/2/6 573/2/6
f 573/2/6 564/2/6 574/2/6
f 565/2/6 566/2/6 575/2/6
f 575/2/6 566/2/6 576/2/6
f 567/2/6 568/2/6 577/2/6
f 577/2/6 568/2/6 578/2/6
f 579/2/6 580/2/6 581/2/6
f 581/2/6 580/2/6 582/2/6
f 583/2/6 584/2/6 585/2/6
f 585/2/6 584/2/6 586/2/6
f 587/2/6 588/2/6 589/2/6
f 589/2/6 588/2/6 590/2/6
f 591/2/6 592/2/6 593/2/6
f 593/2/6 592/2/6 594/2/6
f 595/2/6 596/2/6 597/2/6
f 597/2/6 596/2/6 598/2/6
f 599/4/6 600/4/6 601/4/6
f 601/4/6 600/4/6 602/4/6
f 599/4/6 601/4/6 603/4/6
f 603/4/6 601/4/6 604/4/6
