# MagicaVoxel @ Ephtracy

# group
g Room_Default_R

# material
mtllib Room_Default_R.mtl
usemtl palette

# normals
vn -1 0 0
vn 1 0 0
vn 0 0 1
vn 0 0 -1
vn 0 -1 0
vn 0 1 0

# texcoords
vt 0.373047 0.5
vt 0.912109 0.5
vt 0.970703 0.5
vt 0.978516 0.5
vt 0.982422 0.5

# verts
v -13 0 13
v -13 0 -13
v -13 6 2
v -13 6 -6
v -13 12 2
v -13 12 -6
v -13 14 13
v -13 14 -13
v -12 6 2
v -12 6 -6
v -12 12 2
v -12 12 -6
v -4 7 11
v -4 7 10
v -4 11 11
v -4 11 10
v -3 6 10
v -3 6 9
v -3 12 10
v -3 12 9
v 5 0 12
v 5 0 10
v 5 2 12
v 5 2 10
v 5 4 13
v 5 4 12
v 5 4 10
v 5 4 9
v 5 6 13
v 5 6 12
v 5 6 10
v 5 6 9
v 5 8 12
v 5 8 10
v 5 10 12
v 5 10 10
v 5 12 13
v 5 12 12
v 5 12 10
v 5 12 9
v 5 14 13
v 5 14 12
v 5 14 10
v 5 14 9
v 6 6 13
v 6 6 12
v 6 6 10
v 6 6 9
v 6 8 12
v 6 8 10
v 6 10 12
v 6 10 10
v 6 12 13
v 6 12 12
v 6 12 10
v 6 12 9
v 9 8 11
v 9 8 10
v 9 10 11
v 9 10 10
v -11 7 9
v -11 7 4
v -11 7 3
v -11 7 -7
v -11 7 -8
v -11 7 -13
v -11 8 9
v -11 8 5
v -11 8 2
v -11 8 1
v -11 8 -0
v -11 8 -4
v -11 8 -5
v -11 8 -6
v -11 8 -9
v -11 8 -13
v -11 10 9
v -11 10 5
v -11 10 2
v -11 10 1
v -11 10 -0
v -11 10 -4
v -11 10 -5
v -11 10 -6
v -11 10 -9
v -11 10 -13
v -11 11 9
v -11 11 4
v -11 11 3
v -11 11 -7
v -11 11 -8
v -11 11 -13
v -10 6 9
v -10 6 -13
v -10 7 9
v -10 7 4
v -10 7 3
v -10 7 -7
v -10 7 -8
v -10 7 -13
v -10 8 9
v -10 8 5
v -10 8 2
v -10 8 1
v -10 8 -0
v -10 8 -4
v -10 8 -5
v -10 8 -6
v -10 8 -9
v -10 8 -13
v -10 10 9
v -10 10 5
v -10 10 2
v -10 10 1
v -10 10 -0
v -10 10 -4
v -10 10 -5
v -10 10 -6
v -10 10 -9
v -10 10 -13
v -10 11 9
v -10 11 4
v -10 11 3
v -10 11 -7
v -10 11 -8
v -10 11 -13
v -10 12 9
v -10 12 -13
v -9 4 9
v -9 4 -13
v -9 6 10
v -9 6 9
v -9 6 -13
v -9 7 11
v -9 7 10
v -9 8 11
v -9 8 10
v -9 10 11
v -9 10 10
v -9 11 11
v -9 11 10
v -9 12 10
v -9 12 9
v -9 12 -13
v -9 14 9
v -9 14 -13
v -5 8 11
v -5 8 10
v -5 10 11
v -5 10 10
v -2 6 13
v -2 6 12
v -2 6 10
v -2 6 9
v -2 8 12
v -2 8 10
v -2 10 12
v -2 10 10
v -2 12 13
v -2 12 12
v -2 12 10
v -2 12 9
v -1 0 12
v -1 0 10
v -1 2 12
v -1 2 10
v -1 4 13
v -1 4 12
v -1 4 10
v -1 4 9
v -1 6 13
v -1 6 12
v -1 6 10
v -1 6 9
v -1 8 12
v -1 8 10
v -1 10 12
v -1 10 10
v -1 12 13
v -1 12 12
v -1 12 10
v -1 12 9
v -1 14 13
v -1 14 12
v -1 14 10
v -1 14 9
v 7 6 10
v 7 6 9
v 7 12 10
v 7 12 9
v 8 7 11
v 8 7 10
v 8 11 11
v 8 11 10
v 13 0 13
v 13 0 -13
v 13 4 9
v 13 4 -13
v 13 6 10
v 13 6 9
v 13 7 11
v 13 7 10
v 13 8 11
v 13 8 10
v 13 10 11
v 13 10 10
v 13 11 11
v 13 11 10
v 13 12 10
v 13 12 9
v 13 14 13
v 13 14 9
v -13 0 13
v -13 14 13
v -2 6 13
v -2 12 13
v -1 4 13
v -1 6 13
v -1 12 13
v -1 14 13
v 5 4 13
v 5 6 13
v 5 12 13
v 5 14 13
v 6 6 13
v 6 12 13
v 13 0 13
v 13 14 13
v -2 6 12
v -2 8 12
v -2 10 12
v -2 12 12
v -1 6 12
v -1 8 12
v -1 10 12
v -1 12 12
v 5 6 12
v 5 8 12
v 5 10 12
v 5 12 12
v 6 6 12
v 6 8 12
v 6 10 12
v 6 12 12
v -1 0 10
v -1 2 10
v -1 4 10
v 5 0 10
v 5 2 10
v 5 4 10
v -11 7 4
v -11 11 4
v -10 7 4
v -10 11 4
v -11 8 2
v -11 10 2
v -10 8 2
v -10 10 2
v -11 8 -0
v -11 10 -0
v -10 8 -0
v -10 10 -0
v -11 8 -5
v -11 10 -5
v -10 8 -5
v -10 10 -5
v -13 6 -6
v -13 12 -6
v -12 6 -6
v -12 12 -6
v -11 7 -7
v -11 11 -7
v -10 7 -7
v -10 11 -7
v -11 8 -9
v -11 10 -9
v -10 8 -9
v -10 10 -9
v -1 0 12
v -1 2 12
v -1 4 12
v 5 0 12
v 5 2 12
v 5 4 12
v -9 7 11
v -9 8 11
v -9 10 11
v -9 11 11
v -5 8 11
v -5 10 11
v -4 7 11
v -4 11 11
v 8 7 11
v 8 11 11
v 9 8 11
v 9 10 11
v 13 7 11
v 13 8 11
v 13 10 11
v 13 11 11
v -9 6 10
v -9 7 10
v -9 8 10
v -9 10 10
v -9 11 10
v -9 12 10
v -5 8 10
v -5 10 10
v -4 7 10
v -4 11 10
v -3 6 10
v -3 12 10
v -2 6 10
v -2 8 10
v -2 10 10
v -2 12 10
v -1 6 10
v -1 8 10
v -1 10 10
v -1 12 10
v 5 6 10
v 5 8 10
v 5 10 10
v 5 12 10
v 6 6 10
v 6 8 10
v 6 10 10
v 6 12 10
v 7 6 10
v 7 12 10
v 8 7 10
v 8 11 10
v 9 8 10
v 9 10 10
v 13 6 10
v 13 7 10
v 13 8 10
v 13 10 10
v 13 11 10
v 13 12 10
v -11 7 9
v -11 8 9
v -11 10 9
v -11 11 9
v -10 6 9
v -10 7 9
v -10 8 9
v -10 10 9
v -10 11 9
v -10 12 9
v -9 4 9
v -9 6 9
v -9 12 9
v -9 14 9
v -3 6 9
v -3 12 9
v -2 6 9
v -2 12 9
v -1 4 9
v -1 6 9
v -1 12 9
v -1 14 9
v 5 4 9
v 5 6 9
v 5 12 9
v 5 14 9
v 6 6 9
v 6 12 9
v 7 6 9
v 7 12 9
v 13 4 9
v 13 6 9
v 13 12 9
v 13 14 9
v -11 8 5
v -11 10 5
v -10 8 5
v -10 10 5
v -11 7 3
v -11 11 3
v -10 7 3
v -10 11 3
v -13 6 2
v -13 12 2
v -12 6 2
v -12 12 2
v -11 8 1
v -11 10 1
v -10 8 1
v -10 10 1
v -11 8 -4
v -11 10 -4
v -10 8 -4
v -10 10 -4
v -11 8 -6
v -11 10 -6
v -10 8 -6
v -10 10 -6
v -11 7 -8
v -11 11 -8
v -10 7 -8
v -10 11 -8
v -13 0 -13
v -13 14 -13
v -11 7 -13
v -11 8 -13
v -11 10 -13
v -11 11 -13
v -10 6 -13
v -10 7 -13
v -10 8 -13
v -10 10 -13
v -10 11 -13
v -10 12 -13
v -9 4 -13
v -9 6 -13
v -9 12 -13
v -9 14 -13
v 13 0 -13
v 13 4 -13
v -13 0 13
v 13 0 13
v -3 0 12
v -1 0 12
v 5 0 12
v 7 0 12
v -3 0 11
v -2 0 11
v 6 0 11
v 7 0 11
v -2 0 10
v -1 0 10
v 5 0 10
v 6 0 10
v -12 0 3
v -11 0 3
v -12 0 2
v -11 0 2
v -12 0 -6
v -11 0 -6
v -12 0 -7
v -11 0 -7
v -13 0 -13
v 13 0 -13
v -9 8 11
v -5 8 11
v 9 8 11
v 13 8 11
v -9 8 10
v -5 8 10
v 9 8 10
v 13 8 10
v -11 8 9
v -10 8 9
v -11 8 5
v -10 8 5
v -11 8 2
v -10 8 2
v -11 8 1
v -10 8 1
v -11 8 -0
v -10 8 -0
v -11 8 -4
v -10 8 -4
v -11 8 -5
v -10 8 -5
v -11 8 -6
v -10 8 -6
v -11 8 -9
v -10 8 -9
v -11 8 -13
v -10 8 -13
v -9 11 11
v -4 11 11
v 8 11 11
v 13 11 11
v -9 11 10
v -4 11 10
v 8 11 10
v 13 11 10
v -11 11 9
v -10 11 9
v -11 11 4
v -10 11 4
v -11 11 3
v -10 11 3
v -11 11 -7
v -10 11 -7
v -11 11 -8
v -10 11 -8
v -11 11 -13
v -10 11 -13
v -2 12 13
v -1 12 13
v 5 12 13
v 6 12 13
v -2 12 12
v -1 12 12
v 5 12 12
v 6 12 12
v -9 12 10
v -3 12 10
v -2 12 10
v -1 12 10
v 5 12 10
v 6 12 10
v 7 12 10
v 13 12 10
v -10 12 9
v -9 12 9
v -3 12 9
v -2 12 9
v -1 12 9
v 5 12 9
v 6 12 9
v 7 12 9
v 13 12 9
v -13 12 2
v -12 12 2
v -13 12 -6
v -12 12 -6
v -10 12 -13
v -9 12 -13
v -1 4 13
v 5 4 13
v -1 4 12
v 5 4 12
v -1 4 10
v 5 4 10
v -9 4 9
v -1 4 9
v 5 4 9
v 13 4 9
v -7 4 7
v -3 4 7
v -2 4 7
v -1 4 7
v 5 4 7
v 6 4 7
v 7 4 7
v 11 4 7
v -5 4 5
v -3 4 5
v -2 4 5
v -1 4 5
v 5 4 5
v 6 4 5
v 7 4 5
v 9 4 5
v -7 4 3
v -5 4 3
v 9 4 3
v 11 4 3
v -7 4 2
v -5 4 2
v 9 4 2
v 11 4 2
v -7 4 1
v -5 4 1
v 9 4 1
v 11 4 1
v -7 4 -5
v -5 4 -5
v 9 4 -5
v 11 4 -5
v -7 4 -6
v -5 4 -6
v 9 4 -6
v 11 4 -6
v -7 4 -7
v -5 4 -7
v 9 4 -7
v 11 4 -7
v -5 4 -9
v -3 4 -9
v -2 4 -9
v -1 4 -9
v 5 4 -9
v 6 4 -9
v 7 4 -9
v 9 4 -9
v -7 4 -11
v -3 4 -11
v -2 4 -11
v -1 4 -11
v 5 4 -11
v 6 4 -11
v 7 4 -11
v 11 4 -11
v -9 4 -13
v 13 4 -13
v -2 6 13
v -1 6 13
v 5 6 13
v 6 6 13
v -2 6 12
v -1 6 12
v 5 6 12
v 6 6 12
v -9 6 10
v -3 6 10
v -2 6 10
v -1 6 10
v 5 6 10
v 6 6 10
v 7 6 10
v 13 6 10
v -10 6 9
v -9 6 9
v -3 6 9
v -2 6 9
v -1 6 9
v 5 6 9
v 6 6 9
v 7 6 9
v 13 6 9
v -13 6 2
v -12 6 2
v -13 6 -6
v -12 6 -6
v -10 6 -13
v -9 6 -13
v -9 7 11
v -4 7 11
v 8 7 11
v 13 7 11
v -9 7 10
v -4 7 10
v 8 7 10
v 13 7 10
v -11 7 9
v -10 7 9
v -11 7 4
v -10 7 4
v -11 7 3
v -10 7 3
v -11 7 -7
v -10 7 -7
v -11 7 -8
v -10 7 -8
v -11 7 -13
v -10 7 -13
v -9 10 11
v -5 10 11
v 9 10 11
v 13 10 11
v -9 10 10
v -5 10 10
v 9 10 10
v 13 10 10
v -11 10 9
v -10 10 9
v -11 10 5
v -10 10 5
v -11 10 2
v -10 10 2
v -11 10 1
v -10 10 1
v -11 10 -0
v -10 10 -0
v -11 10 -4
v -10 10 -4
v -11 10 -5
v -10 10 -5
v -11 10 -6
v -10 10 -6
v -11 10 -9
v -10 10 -9
v -11 10 -13
v -10 10 -13
v -13 14 13
v -1 14 13
v 5 14 13
v 13 14 13
v -3 14 12
v -1 14 12
v 5 14 12
v 7 14 12
v -3 14 10
v -1 14 10
v 5 14 10
v 7 14 10
v -9 14 9
v -1 14 9
v 5 14 9
v 13 14 9
v -13 14 -13
v -9 14 -13

# faces
f 3/2/1 2/2/1 1/2/1
f 4/2/1 2/2/1 3/2/1
f 5/2/1 3/2/1 1/2/1
f 6/2/1 2/2/1 4/2/1
f 7/2/1 5/2/1 1/2/1
f 7/2/1 6/2/1 5/2/1
f 8/2/1 2/2/1 6/2/1
f 8/2/1 6/2/1 7/2/1
f 11/2/1 10/2/1 9/2/1
f 12/2/1 10/2/1 11/2/1
f 15/2/1 14/2/1 13/2/1
f 16/2/1 14/2/1 15/2/1
f 19/2/1 18/2/1 17/2/1
f 20/2/1 18/2/1 19/2/1
f 23/1/1 22/1/1 21/1/1
f 24/1/1 22/1/1 23/1/1
f 26/5/1 24/5/1 23/5/1
f 27/5/1 24/5/1 26/5/1
f 29/2/1 26/2/1 25/2/1
f 30/1/1 27/1/1 26/1/1
f 30/2/1 26/2/1 29/2/1
f 31/2/1 28/2/1 27/2/1
f 31/1/1 27/1/1 30/1/1
f 32/2/1 28/2/1 31/2/1
f 33/5/1 31/5/1 30/5/1
f 34/5/1 31/5/1 33/5/1
f 35/1/1 34/1/1 33/1/1
f 36/1/1 34/1/1 35/1/1
f 38/5/1 36/5/1 35/5/1
f 39/5/1 36/5/1 38/5/1
f 41/2/1 38/2/1 37/2/1
f 42/4/1 39/4/1 38/4/1
f 42/2/1 38/2/1 41/2/1
f 43/2/1 40/2/1 39/2/1
f 43/4/1 39/4/1 42/4/1
f 44/2/1 40/2/1 43/2/1
f 49/2/1 46/2/1 45/2/1
f 50/2/1 48/2/1 47/2/1
f 51/2/1 49/2/1 45/2/1
f 52/2/1 48/2/1 50/2/1
f 53/2/1 51/2/1 45/2/1
f 54/2/1 51/2/1 53/2/1
f 55/2/1 48/2/1 52/2/1
f 56/2/1 48/2/1 55/2/1
f 59/2/1 58/2/1 57/2/1
f 60/2/1 58/2/1 59/2/1
f 61/2/2 62/2/2 67/2/2
f 67/2/2 62/2/2 68/2/2
f 63/2/2 64/2/2 69/2/2
f 69/2/2 64/2/2 70/2/2
f 70/2/2 64/2/2 71/2/2
f 71/2/2 64/2/2 72/2/2
f 72/2/2 64/2/2 73/2/2
f 73/2/2 64/2/2 74/2/2
f 65/2/2 66/2/2 75/2/2
f 75/2/2 66/2/2 76/2/2
f 68/2/2 62/2/2 78/2/2
f 63/2/2 69/2/2 79/2/2
f 70/2/2 71/2/2 80/2/2
f 80/2/2 71/2/2 81/2/2
f 72/2/2 73/2/2 82/2/2
f 82/2/2 73/2/2 83/2/2
f 74/2/2 64/2/2 84/2/2
f 65/2/2 75/2/2 85/2/2
f 77/2/2 78/2/2 87/2/2
f 78/2/2 62/2/2 88/2/2
f 87/2/2 78/2/2 88/2/2
f 82/2/2 83/2/2 89/2/2
f 80/2/2 81/2/2 89/2/2
f 83/2/2 84/2/2 89/2/2
f 63/2/2 79/2/2 89/2/2
f 79/2/2 80/2/2 89/2/2
f 81/2/2 82/2/2 89/2/2
f 84/2/2 64/2/2 90/2/2
f 89/2/2 84/2/2 90/2/2
f 65/2/2 85/2/2 91/2/2
f 85/2/2 86/2/2 91/2/2
f 91/2/2 86/2/2 92/2/2
f 93/2/2 94/2/2 95/2/2
f 95/2/2 94/2/2 96/2/2
f 96/2/2 94/2/2 97/2/2
f 97/2/2 94/2/2 98/2/2
f 98/2/2 94/2/2 99/2/2
f 99/2/2 94/2/2 100/2/2
f 101/2/2 102/2/2 111/2/2
f 111/2/2 102/2/2 112/2/2
f 103/2/2 104/2/2 113/2/2
f 113/2/2 104/2/2 114/2/2
f 105/2/2 106/2/2 115/2/2
f 115/2/2 106/2/2 116/2/2
f 107/2/2 108/2/2 117/2/2
f 117/2/2 108/2/2 118/2/2
f 109/2/2 110/2/2 119/2/2
f 119/2/2 110/2/2 120/2/2
f 96/2/2 97/2/2 122/2/2
f 122/2/2 97/2/2 123/2/2
f 98/2/2 99/2/2 124/2/2
f 124/2/2 99/2/2 125/2/2
f 122/2/2 123/2/2 127/2/2
f 125/2/2 126/2/2 127/2/2
f 124/2/2 125/2/2 127/2/2
f 123/2/2 124/2/2 127/2/2
f 121/2/2 122/2/2 127/2/2
f 127/2/2 126/2/2 128/2/2
f 129/2/2 130/2/2 132/2/2
f 132/2/2 130/2/2 133/2/2
f 131/2/2 132/2/2 135/2/2
f 134/2/2 135/2/2 136/2/2
f 135/2/2 132/2/2 137/2/2
f 136/2/2 135/2/2 137/2/2
f 137/2/2 132/2/2 139/2/2
f 138/2/2 139/2/2 140/2/2
f 139/2/2 132/2/2 141/2/2
f 140/2/2 139/2/2 141/2/2
f 141/2/2 132/2/2 142/2/2
f 142/2/2 132/2/2 143/2/2
f 143/2/2 144/2/2 145/2/2
f 145/2/2 144/2/2 146/2/2
f 147/2/2 148/2/2 149/2/2
f 149/2/2 148/2/2 150/2/2
f 151/2/2 152/2/2 155/2/2
f 153/2/2 154/2/2 156/2/2
f 151/2/2 155/2/2 157/2/2
f 156/2/2 154/2/2 158/2/2
f 151/2/2 157/2/2 159/2/2
f 159/2/2 157/2/2 160/2/2
f 158/2/2 154/2/2 161/2/2
f 161/2/2 154/2/2 162/2/2
f 163/1/2 164/1/2 165/1/2
f 165/1/2 164/1/2 166/1/2
f 165/5/2 166/5/2 168/5/2
f 168/5/2 166/5/2 169/5/2
f 167/2/2 168/2/2 171/2/2
f 168/1/2 169/1/2 172/1/2
f 171/2/2 168/2/2 172/2/2
f 169/2/2 170/2/2 173/2/2
f 172/1/2 169/1/2 173/1/2
f 173/2/2 170/2/2 174/2/2
f 172/5/2 173/5/2 175/5/2
f 175/5/2 173/5/2 176/5/2
f 175/1/2 176/1/2 177/1/2
f 177/1/2 176/1/2 178/1/2
f 177/5/2 178/5/2 180/5/2
f 180/5/2 178/5/2 181/5/2
f 179/2/2 180/2/2 183/2/2
f 180/4/2 181/4/2 184/4/2
f 183/2/2 180/2/2 184/2/2
f 181/2/2 182/2/2 185/2/2
f 184/4/2 181/4/2 185/4/2
f 185/2/2 182/2/2 186/2/2
f 187/2/2 188/2/2 189/2/2
f 189/2/2 188/2/2 190/2/2
f 191/2/2 192/2/2 193/2/2
f 193/2/2 192/2/2 194/2/2
f 195/2/2 196/2/2 197/2/2
f 197/2/2 196/2/2 198/2/2
f 195/2/2 197/2/2 199/2/2
f 199/2/2 197/2/2 200/2/2
f 195/2/2 199/2/2 201/2/2
f 201/2/2 199/2/2 202/2/2
f 195/2/2 201/2/2 203/2/2
f 195/2/2 203/2/2 205/2/2
f 203/2/2 204/2/2 205/2/2
f 205/2/2 204/2/2 206/2/2
f 195/2/2 205/2/2 207/2/2
f 207/2/2 208/2/2 209/2/2
f 207/2/2 209/2/2 211/2/2
f 209/2/2 210/2/2 211/2/2
f 195/2/2 207/2/2 211/2/2
f 211/2/2 210/2/2 212/2/2
f 215/2/3 214/2/3 213/2/3
f 216/2/3 214/2/3 215/2/3
f 217/2/3 215/2/3 213/2/3
f 218/2/3 215/2/3 217/2/3
f 219/2/3 214/2/3 216/2/3
f 220/2/3 214/2/3 219/2/3
f 221/2/3 217/2/3 213/2/3
f 225/2/3 222/2/3 221/2/3
f 226/2/3 224/2/3 223/2/3
f 227/2/3 221/2/3 213/2/3
f 227/2/3 226/2/3 225/2/3
f 227/2/3 225/2/3 221/2/3
f 228/2/3 224/2/3 226/2/3
f 228/2/3 226/2/3 227/2/3
f 233/5/3 230/5/3 229/5/3
f 234/1/3 231/1/3 230/1/3
f 234/5/3 230/5/3 233/5/3
f 235/5/3 232/5/3 231/5/3
f 235/1/3 231/1/3 234/1/3
f 236/5/3 232/5/3 235/5/3
f 241/5/3 238/5/3 237/5/3
f 242/1/3 239/1/3 238/1/3
f 242/5/3 238/5/3 241/5/3
f 243/5/3 240/5/3 239/5/3
f 243/1/3 239/1/3 242/1/3
f 244/5/3 240/5/3 243/5/3
f 248/2/3 246/2/3 245/2/3
f 248/2/3 247/2/3 246/2/3
f 249/2/3 247/2/3 248/2/3
f 250/2/3 247/2/3 249/2/3
f 253/2/3 252/2/3 251/2/3
f 254/2/3 252/2/3 253/2/3
f 257/2/3 256/2/3 255/2/3
f 258/2/3 256/2/3 257/2/3
f 261/2/3 260/2/3 259/2/3
f 262/2/3 260/2/3 261/2/3
f 265/2/3 264/2/3 263/2/3
f 266/2/3 264/2/3 265/2/3
f 269/2/3 268/2/3 267/2/3
f 270/2/3 268/2/3 269/2/3
f 273/2/3 272/2/3 271/2/3
f 274/2/3 272/2/3 273/2/3
f 277/2/3 276/2/3 275/2/3
f 278/2/3 276/2/3 277/2/3
f 279/2/4 280/2/4 282/2/4
f 280/2/4 281/2/4 282/2/4
f 282/2/4 281/2/4 283/2/4
f 283/2/4 281/2/4 284/2/4
f 285/2/4 286/2/4 289/2/4
f 287/2/4 288/2/4 290/2/4
f 285/2/4 289/2/4 291/2/4
f 289/2/4 290/2/4 291/2/4
f 290/2/4 288/2/4 292/2/4
f 291/2/4 290/2/4 292/2/4
f 293/2/4 294/2/4 295/2/4
f 295/2/4 294/2/4 296/2/4
f 293/2/4 295/2/4 297/2/4
f 297/2/4 295/2/4 298/2/4
f 296/2/4 294/2/4 299/2/4
f 299/2/4 294/2/4 300/2/4
f 303/2/4 304/2/4 307/2/4
f 307/2/4 304/2/4 308/2/4
f 301/2/4 302/2/4 309/2/4
f 305/2/4 306/2/4 310/2/4
f 301/2/4 309/2/4 311/2/4
f 309/2/4 310/2/4 311/2/4
f 310/2/4 306/2/4 312/2/4
f 311/2/4 310/2/4 312/2/4
f 313/5/4 314/5/4 317/5/4
f 314/1/4 315/1/4 318/1/4
f 317/5/4 314/5/4 318/5/4
f 315/5/4 316/5/4 319/5/4
f 318/1/4 315/1/4 319/1/4
f 319/5/4 316/5/4 320/5/4
f 321/5/4 322/5/4 325/5/4
f 322/1/4 323/1/4 326/1/4
f 325/5/4 322/5/4 326/5/4
f 323/5/4 324/5/4 327/5/4
f 326/1/4 323/1/4 327/1/4
f 327/5/4 324/5/4 328/5/4
f 329/2/4 330/2/4 331/2/4
f 331/2/4 330/2/4 332/2/4
f 329/2/4 331/2/4 335/2/4
f 335/2/4 331/2/4 336/2/4
f 333/2/4 334/2/4 337/2/4
f 337/2/4 334/2/4 338/2/4
f 332/2/4 330/2/4 339/2/4
f 339/2/4 330/2/4 340/2/4
f 341/2/4 342/2/4 346/2/4
f 346/2/4 342/2/4 347/2/4
f 343/2/4 344/2/4 348/2/4
f 348/2/4 344/2/4 349/2/4
f 346/2/4 347/2/4 352/2/4
f 349/2/4 350/2/4 352/2/4
f 348/2/4 349/2/4 352/2/4
f 347/2/4 348/2/4 352/2/4
f 345/2/4 346/2/4 352/2/4
f 352/2/4 350/2/4 353/2/4
f 351/2/4 352/2/4 355/2/4
f 353/2/4 354/2/4 356/2/4
f 351/2/4 355/2/4 357/2/4
f 355/2/4 356/2/4 357/2/4
f 356/2/4 354/2/4 358/2/4
f 357/2/4 356/2/4 358/2/4
f 351/2/4 357/2/4 359/2/4
f 359/2/4 357/2/4 360/2/4
f 358/2/4 354/2/4 361/2/4
f 361/2/4 354/2/4 362/2/4
f 363/2/4 364/2/4 367/2/4
f 365/2/4 366/2/4 368/2/4
f 363/2/4 367/2/4 369/2/4
f 367/2/4 368/2/4 369/2/4
f 368/2/4 366/2/4 370/2/4
f 369/2/4 368/2/4 370/2/4
f 363/2/4 369/2/4 371/2/4
f 371/2/4 369/2/4 372/2/4
f 370/2/4 366/2/4 373/2/4
f 373/2/4 366/2/4 374/2/4
f 375/2/4 376/2/4 377/2/4
f 377/2/4 376/2/4 378/2/4
f 379/2/4 380/2/4 381/2/4
f 381/2/4 380/2/4 382/2/4
f 383/2/4 384/2/4 385/2/4
f 385/2/4 384/2/4 386/2/4
f 387/2/4 388/2/4 389/2/4
f 389/2/4 388/2/4 390/2/4
f 391/2/4 392/2/4 393/2/4
f 393/2/4 392/2/4 394/2/4
f 395/2/4 396/2/4 397/2/4
f 397/2/4 396/2/4 398/2/4
f 399/2/4 400/2/4 401/2/4
f 401/2/4 400/2/4 402/2/4
f 403/2/4 404/2/4 405/2/4
f 405/2/4 404/2/4 406/2/4
f 406/2/4 404/2/4 407/2/4
f 407/2/4 404/2/4 408/2/4
f 403/2/4 405/2/4 409/2/4
f 409/2/4 405/2/4 410/2/4
f 406/2/4 407/2/4 411/2/4
f 411/2/4 407/2/4 412/2/4
f 408/2/4 404/2/4 413/2/4
f 413/2/4 404/2/4 414/2/4
f 403/2/4 409/2/4 415/2/4
f 415/2/4 409/2/4 416/2/4
f 414/2/4 404/2/4 417/2/4
f 417/2/4 404/2/4 418/2/4
f 403/2/4 415/2/4 419/2/4
f 419/2/4 415/2/4 420/2/4
f 423/2/5 422/2/5 421/2/5
f 424/2/5 422/2/5 423/2/5
f 425/2/5 422/2/5 424/2/5
f 426/2/5 422/2/5 425/2/5
f 427/2/5 423/2/5 421/2/5
f 427/1/5 424/1/5 423/1/5
f 428/1/5 424/1/5 427/1/5
f 429/1/5 426/1/5 425/1/5
f 430/2/5 422/2/5 426/2/5
f 430/1/5 426/1/5 429/1/5
f 431/1/5 424/1/5 428/1/5
f 431/2/5 428/2/5 427/2/5
f 432/1/5 424/1/5 431/1/5
f 433/1/5 429/1/5 425/1/5
f 434/2/5 430/2/5 429/2/5
f 434/1/5 429/1/5 433/1/5
f 435/2/5 432/2/5 431/2/5
f 435/2/5 427/2/5 421/2/5
f 435/2/5 434/2/5 433/2/5
f 435/2/5 433/2/5 432/2/5
f 435/2/5 431/2/5 427/2/5
f 436/2/5 434/2/5 435/2/5
f 437/2/5 435/2/5 421/2/5
f 437/1/5 436/1/5 435/1/5
f 438/2/5 434/2/5 436/2/5
f 438/1/5 436/1/5 437/1/5
f 439/2/5 437/2/5 421/2/5
f 439/2/5 438/2/5 437/2/5
f 440/2/5 434/2/5 438/2/5
f 440/2/5 438/2/5 439/2/5
f 441/2/5 439/2/5 421/2/5
f 441/1/5 440/1/5 439/1/5
f 442/2/5 434/2/5 440/2/5
f 442/1/5 440/1/5 441/1/5
f 443/2/5 441/2/5 421/2/5
f 443/2/5 442/2/5 441/2/5
f 444/2/5 430/2/5 434/2/5
f 444/2/5 442/2/5 443/2/5
f 444/2/5 422/2/5 430/2/5
f 444/2/5 434/2/5 442/2/5
f 449/2/5 446/2/5 445/2/5
f 450/2/5 446/2/5 449/2/5
f 451/2/5 448/2/5 447/2/5
f 452/2/5 448/2/5 451/2/5
f 455/2/5 454/2/5 453/2/5
f 456/2/5 454/2/5 455/2/5
f 459/2/5 458/2/5 457/2/5
f 460/2/5 458/2/5 459/2/5
f 463/2/5 462/2/5 461/2/5
f 464/2/5 462/2/5 463/2/5
f 467/2/5 466/2/5 465/2/5
f 468/2/5 466/2/5 467/2/5
f 471/2/5 470/2/5 469/2/5
f 472/2/5 470/2/5 471/2/5
f 477/2/5 474/2/5 473/2/5
f 478/2/5 474/2/5 477/2/5
f 479/2/5 476/2/5 475/2/5
f 480/2/5 476/2/5 479/2/5
f 483/2/5 482/2/5 481/2/5
f 484/2/5 482/2/5 483/2/5
f 487/2/5 486/2/5 485/2/5
f 488/2/5 486/2/5 487/2/5
f 491/2/5 490/2/5 489/2/5
f 492/2/5 490/2/5 491/2/5
f 497/2/5 494/2/5 493/2/5
f 498/2/5 494/2/5 497/2/5
f 499/2/5 496/2/5 495/2/5
f 500/2/5 496/2/5 499/2/5
f 510/2/5 502/2/5 501/2/5
f 511/2/5 502/2/5 510/2/5
f 512/2/5 504/2/5 503/2/5
f 513/2/5 504/2/5 512/2/5
f 514/2/5 506/2/5 505/2/5
f 515/2/5 506/2/5 514/2/5
f 516/2/5 508/2/5 507/2/5
f 517/2/5 508/2/5 516/2/5
f 520/2/5 519/2/5 518/2/5
f 521/2/5 519/2/5 520/2/5
f 522/2/5 510/2/5 509/2/5
f 523/2/5 510/2/5 522/2/5
f 524/2/6 525/2/6 526/2/6
f 526/2/6 525/2/6 527/2/6
f 528/2/6 529/2/6 531/2/6
f 531/2/6 529/2/6 532/2/6
f 531/2/6 532/2/6 534/2/6
f 532/2/6 533/2/6 534/2/6
f 530/2/6 531/2/6 534/2/6
f 534/2/6 533/2/6 535/2/6
f 535/2/6 533/2/6 536/2/6
f 536/2/6 533/2/6 537/2/6
f 537/2/6 533/2/6 538/2/6
f 538/2/6 533/2/6 539/2/6
f 539/2/6 533/2/6 540/2/6
f 540/2/6 533/2/6 541/2/6
f 534/3/6 535/3/6 542/3/6
f 535/2/6 536/2/6 543/2/6
f 542/3/6 535/3/6 543/3/6
f 536/3/6 537/3/6 544/3/6
f 543/2/6 536/2/6 544/2/6
f 537/2/6 538/2/6 545/2/6
f 544/3/6 537/3/6 545/3/6
f 538/3/6 539/3/6 546/3/6
f 545/2/6 538/2/6 546/2/6
f 539/2/6 540/2/6 547/2/6
f 546/3/6 539/3/6 547/3/6
f 540/3/6 541/3/6 548/3/6
f 547/2/6 540/2/6 548/2/6
f 548/3/6 541/3/6 549/3/6
f 530/2/6 534/2/6 550/2/6
f 534/3/6 542/3/6 550/3/6
f 548/2/6 549/2/6 551/2/6
f 550/3/6 542/3/6 551/3/6
f 542/2/6 543/2/6 551/2/6
f 547/2/6 548/2/6 551/2/6
f 546/2/6 547/2/6 551/2/6
f 545/2/6 546/2/6 551/2/6
f 544/2/6 545/2/6 551/2/6
f 543/2/6 544/2/6 551/2/6
f 549/3/6 541/3/6 552/3/6
f 551/2/6 549/2/6 552/2/6
f 541/2/6 533/2/6 553/2/6
f 552/3/6 541/3/6 553/3/6
f 550/2/6 551/2/6 554/2/6
f 551/2/6 552/2/6 554/2/6
f 552/2/6 553/2/6 554/2/6
f 530/2/6 550/2/6 554/2/6
f 554/2/6 553/2/6 555/2/6
f 555/2/6 553/2/6 556/2/6
f 553/2/6 533/2/6 557/2/6
f 556/2/6 553/2/6 557/2/6
f 530/2/6 554/2/6 558/2/6
f 554/3/6 555/3/6 558/3/6
f 555/2/6 556/2/6 559/2/6
f 558/3/6 555/3/6 559/3/6
f 556/3/6 557/3/6 560/3/6
f 559/2/6 556/2/6 560/2/6
f 557/2/6 533/2/6 561/2/6
f 560/3/6 557/3/6 561/3/6
f 530/2/6 558/2/6 562/2/6
f 559/2/6 560/2/6 562/2/6
f 560/2/6 561/2/6 562/2/6
f 558/2/6 559/2/6 562/2/6
f 562/2/6 561/2/6 563/2/6
f 563/2/6 561/2/6 564/2/6
f 561/2/6 533/2/6 565/2/6
f 564/2/6 561/2/6 565/2/6
f 530/2/6 562/2/6 566/2/6
f 562/3/6 563/3/6 566/3/6
f 563/2/6 564/2/6 567/2/6
f 566/3/6 563/3/6 567/3/6
f 564/3/6 565/3/6 568/3/6
f 567/2/6 564/2/6 568/2/6
f 565/2/6 533/2/6 569/2/6
f 568/3/6 565/3/6 569/3/6
f 530/2/6 566/2/6 570/2/6
f 567/2/6 568/2/6 570/2/6
f 568/2/6 569/2/6 570/2/6
f 566/2/6 567/2/6 570/2/6
f 570/2/6 569/2/6 571/2/6
f 571/2/6 569/2/6 572/2/6
f 569/2/6 533/2/6 573/2/6
f 572/2/6 569/2/6 573/2/6
f 571/2/6 572/2/6 574/2/6
f 570/3/6 571/3/6 574/3/6
f 574/2/6 572/2/6 575/2/6
f 575/2/6 572/2/6 576/2/6
f 576/2/6 572/2/6 577/2/6
f 577/2/6 572/2/6 578/2/6
f 578/2/6 572/2/6 579/2/6
f 579/2/6 572/2/6 580/2/6
f 572/3/6 573/3/6 581/3/6
f 580/2/6 572/2/6 581/2/6
f 530/2/6 570/2/6 582/2/6
f 570/3/6 574/3/6 582/3/6
f 574/3/6 575/3/6 582/3/6
f 575/2/6 576/2/6 583/2/6
f 582/3/6 575/3/6 583/3/6
f 576/3/6 577/3/6 584/3/6
f 583/2/6 576/2/6 584/2/6
f 577/2/6 578/2/6 585/2/6
f 584/3/6 577/3/6 585/3/6
f 578/3/6 579/3/6 586/3/6
f 585/2/6 578/2/6 586/2/6
f 579/2/6 580/2/6 587/2/6
f 586/3/6 579/3/6 587/3/6
f 580/3/6 581/3/6 588/3/6
f 587/2/6 580/2/6 588/2/6
f 573/2/6 533/2/6 589/2/6
f 588/3/6 581/3/6 589/3/6
f 581/3/6 573/3/6 589/3/6
f 587/2/6 588/2/6 590/2/6
f 583/2/6 584/2/6 590/2/6
f 588/2/6 589/2/6 590/2/6
f 582/2/6 583/2/6 590/2/6
f 530/2/6 582/2/6 590/2/6
f 584/2/6 585/2/6 590/2/6
f 586/2/6 587/2/6 590/2/6
f 585/2/6 586/2/6 590/2/6
f 589/2/6 533/2/6 591/2/6
f 590/2/6 589/2/6 591/2/6
f 592/2/6 593/2/6 596/2/6
f 596/2/6 593/2/6 597/2/6
f 594/2/6 595/2/6 598/2/6
f 598/2/6 595/2/6 599/2/6
f 600/2/6 601/2/6 609/2/6
f 609/2/6 601/2/6 610/2/6
f 602/2/6 603/2/6 611/2/6
f 611/2/6 603/2/6 612/2/6
f 604/2/6 605/2/6 613/2/6
f 613/2/6 605/2/6 614/2/6
f 606/2/6 607/2/6 615/2/6
f 615/2/6 607/2/6 616/2/6
f 617/2/6 618/2/6 619/2/6
f 619/2/6 618/2/6 620/2/6
f 608/2/6 609/2/6 621/2/6
f 621/2/6 609/2/6 622/2/6
f 623/2/6 624/2/6 627/2/6
f 627/2/6 624/2/6 628/2/6
f 625/2/6 626/2/6 629/2/6
f 629/2/6 626/2/6 630/2/6
f 631/2/6 632/2/6 633/2/6
f 633/2/6 632/2/6 634/2/6
f 635/2/6 636/2/6 637/2/6
f 637/2/6 636/2/6 638/2/6
f 639/2/6 640/2/6 641/2/6
f 641/2/6 640/2/6 642/2/6
f 643/2/6 644/2/6 647/2/6
f 647/2/6 644/2/6 648/2/6
f 645/2/6 646/2/6 649/2/6
f 649/2/6 646/2/6 650/2/6
f 651/2/6 652/2/6 653/2/6
f 653/2/6 652/2/6 654/2/6
f 655/2/6 656/2/6 657/2/6
f 657/2/6 656/2/6 658/2/6
f 659/2/6 660/2/6 661/2/6
f 661/2/6 660/2/6 662/2/6
f 663/2/6 664/2/6 665/2/6
f 665/2/6 664/2/6 666/2/6
f 667/2/6 668/2/6 669/2/6
f 669/2/6 668/2/6 670/2/6
f 671/2/6 672/2/6 675/2/6
f 675/2/6 672/2/6 676/2/6
f 673/2/6 674/2/6 677/2/6
f 677/2/6 674/2/6 678/2/6
f 675/4/6 676/4/6 679/4/6
f 671/2/6 675/2/6 679/2/6
f 679/4/6 676/4/6 680/4/6
f 677/4/6 678/4/6 681/4/6
f 678/2/6 674/2/6 682/2/6
f 681/4/6 678/4/6 682/4/6
f 679/2/6 680/2/6 683/2/6
f 671/2/6 679/2/6 683/2/6
f 683/2/6 680/2/6 684/2/6
f 681/2/6 682/2/6 685/2/6
f 682/2/6 674/2/6 686/2/6
f 685/2/6 682/2/6 686/2/6
f 671/2/6 683/2/6 687/2/6
f 687/2/6 683/2/6 688/2/6
