# MagicaVoxel @ Ephtracy

# group
g Room_Default_L

# material
mtllib Room_Default_L.mtl
usemtl palette

# normals
vn -1 0 0
vn 1 0 0
vn 0 0 1
vn 0 0 -1
vn 0 -1 0
vn 0 1 0

# texcoords
vt 0.373047 0.5
vt 0.912109 0.5
vt 0.970703 0.5
vt 0.978516 0.5
vt 0.982422 0.5

# verts
v -13 0 13
v -13 0 -13
v -13 4 1
v -13 4 -5
v -13 6 2
v -13 6 1
v -13 6 -5
v -13 6 -6
v -13 12 2
v -13 12 1
v -13 12 -5
v -13 12 -6
v -13 14 13
v -13 14 1
v -13 14 -5
v -13 14 -13
v -12 6 2
v -12 6 1
v -12 6 -5
v -12 6 -6
v -12 8 2
v -12 8 1
v -12 8 -5
v -12 8 -6
v -12 10 2
v -12 10 1
v -12 10 -5
v -12 10 -6
v -12 12 2
v -12 12 1
v -12 12 -5
v -12 12 -6
v -10 0 1
v -10 0 -5
v -10 2 1
v -10 2 -5
v -10 4 1
v -10 4 -5
v -4 7 11
v -4 7 10
v -4 11 11
v -4 11 10
v -2 8 11
v -2 8 10
v -2 10 11
v -2 10 10
v 0 8 11
v 0 8 10
v 0 10 11
v 0 10 10
v 5 8 11
v 5 8 10
v 5 10 11
v 5 10 10
v 7 7 11
v 7 7 10
v 7 11 11
v 7 11 10
v 9 8 11
v 9 8 10
v 9 10 11
v 9 10 10
v -12 0 1
v -12 0 -5
v -12 2 1
v -12 2 -5
v -12 4 1
v -12 4 -5
v -11 7 9
v -11 7 4
v -11 7 -8
v -11 7 -13
v -11 8 9
v -11 8 5
v -11 8 -9
v -11 8 -13
v -11 10 9
v -11 10 5
v -11 10 -9
v -11 10 -13
v -11 11 9
v -11 11 4
v -11 11 -8
v -11 11 -13
v -10 6 9
v -10 6 3
v -10 6 2
v -10 6 1
v -10 6 -5
v -10 6 -6
v -10 6 -7
v -10 6 -13
v -10 7 9
v -10 7 4
v -10 7 -8
v -10 7 -13
v -10 8 9
v -10 8 5
v -10 8 2
v -10 8 1
v -10 8 -5
v -10 8 -6
v -10 8 -9
v -10 8 -13
v -10 10 9
v -10 10 5
v -10 10 2
v -10 10 1
v -10 10 -5
v -10 10 -6
v -10 10 -9
v -10 10 -13
v -10 11 9
v -10 11 4
v -10 11 -8
v -10 11 -13
v -10 12 9
v -10 12 3
v -10 12 2
v -10 12 1
v -10 12 -5
v -10 12 -6
v -10 12 -7
v -10 12 -13
v -9 4 9
v -9 4 1
v -9 4 -5
v -9 4 -13
v -9 6 10
v -9 6 9
v -9 6 3
v -9 6 2
v -9 6 1
v -9 6 -5
v -9 6 -6
v -9 6 -7
v -9 6 -13
v -9 7 11
v -9 7 10
v -9 8 11
v -9 8 10
v -9 10 11
v -9 10 10
v -9 11 11
v -9 11 10
v -9 12 10
v -9 12 9
v -9 12 3
v -9 12 2
v -9 12 1
v -9 12 -5
v -9 12 -6
v -9 12 -7
v -9 12 -13
v -9 14 9
v -9 14 1
v -9 14 -5
v -9 14 -13
v -5 8 11
v -5 8 10
v -5 10 11
v -5 10 10
v -3 7 11
v -3 7 10
v -3 11 11
v -3 11 10
v -1 8 11
v -1 8 10
v -1 10 11
v -1 10 10
v 4 8 11
v 4 8 10
v 4 10 11
v 4 10 10
v 6 8 11
v 6 8 10
v 6 10 11
v 6 10 10
v 8 7 11
v 8 7 10
v 8 11 11
v 8 11 10
v 13 0 13
v 13 0 -13
v 13 4 9
v 13 4 -13
v 13 6 10
v 13 6 9
v 13 7 11
v 13 7 10
v 13 8 11
v 13 8 10
v 13 10 11
v 13 10 10
v 13 11 11
v 13 11 10
v 13 12 10
v 13 12 9
v 13 14 13
v 13 14 9
v -13 0 13
v -13 14 13
v 13 0 13
v 13 14 13
v -11 7 4
v -11 11 4
v -10 7 4
v -10 11 4
v -10 6 3
v -10 12 3
v -9 6 3
v -9 12 3
v -13 4 -5
v -13 6 -5
v -13 12 -5
v -13 14 -5
v -12 0 -5
v -12 2 -5
v -12 4 -5
v -12 6 -5
v -12 8 -5
v -12 10 -5
v -12 12 -5
v -12 14 -5
v -10 0 -5
v -10 2 -5
v -10 4 -5
v -10 6 -5
v -10 8 -5
v -10 10 -5
v -10 12 -5
v -10 14 -5
v -9 4 -5
v -9 6 -5
v -9 12 -5
v -9 14 -5
v -13 6 -6
v -13 12 -6
v -12 6 -6
v -12 8 -6
v -12 10 -6
v -12 12 -6
v -10 6 -6
v -10 8 -6
v -10 10 -6
v -10 12 -6
v -9 6 -6
v -9 12 -6
v -11 8 -9
v -11 10 -9
v -10 8 -9
v -10 10 -9
v -9 7 11
v -9 8 11
v -9 10 11
v -9 11 11
v -5 8 11
v -5 10 11
v -4 7 11
v -4 11 11
v -3 7 11
v -3 11 11
v -2 8 11
v -2 10 11
v -1 8 11
v -1 10 11
v 0 8 11
v 0 10 11
v 4 8 11
v 4 10 11
v 5 8 11
v 5 10 11
v 6 8 11
v 6 10 11
v 7 7 11
v 7 11 11
v 8 7 11
v 8 11 11
v 9 8 11
v 9 10 11
v 13 7 11
v 13 8 11
v 13 10 11
v 13 11 11
v -9 6 10
v -9 7 10
v -9 8 10
v -9 10 10
v -9 11 10
v -9 12 10
v -5 8 10
v -5 10 10
v -4 7 10
v -4 11 10
v -3 7 10
v -3 11 10
v -2 8 10
v -2 10 10
v -1 8 10
v -1 10 10
v 0 8 10
v 0 10 10
v 4 8 10
v 4 10 10
v 5 8 10
v 5 10 10
v 6 8 10
v 6 10 10
v 7 7 10
v 7 11 10
v 8 7 10
v 8 11 10
v 9 8 10
v 9 10 10
v 13 6 10
v 13 7 10
v 13 8 10
v 13 10 10
v 13 11 10
v 13 12 10
v -11 7 9
v -11 8 9
v -11 10 9
v -11 11 9
v -10 6 9
v -10 7 9
v -10 8 9
v -10 10 9
v -10 11 9
v -10 12 9
v -9 4 9
v -9 6 9
v -9 12 9
v -9 14 9
v 13 4 9
v 13 6 9
v 13 12 9
v 13 14 9
v -11 8 5
v -11 10 5
v -10 8 5
v -10 10 5
v -13 6 2
v -13 12 2
v -12 6 2
v -12 8 2
v -12 10 2
v -12 12 2
v -10 6 2
v -10 8 2
v -10 10 2
v -10 12 2
v -9 6 2
v -9 12 2
v -13 4 1
v -13 6 1
v -13 12 1
v -13 14 1
v -12 0 1
v -12 2 1
v -12 4 1
v -12 6 1
v -12 8 1
v -12 10 1
v -12 12 1
v -12 14 1
v -10 0 1
v -10 2 1
v -10 4 1
v -10 6 1
v -10 8 1
v -10 10 1
v -10 12 1
v -10 14 1
v -9 4 1
v -9 6 1
v -9 12 1
v -9 14 1
v -10 6 -7
v -10 12 -7
v -9 6 -7
v -9 12 -7
v -11 7 -8
v -11 11 -8
v -10 7 -8
v -10 11 -8
v -13 0 -13
v -13 14 -13
v -11 7 -13
v -11 8 -13
v -11 10 -13
v -11 11 -13
v -10 6 -13
v -10 7 -13
v -10 8 -13
v -10 10 -13
v -10 11 -13
v -10 12 -13
v -9 4 -13
v -9 6 -13
v -9 12 -13
v -9 14 -13
v 13 0 -13
v 13 4 -13
v -13 0 13
v 13 0 13
v -12 0 3
v -11 0 3
v -11 0 2
v -10 0 2
v -12 0 1
v -10 0 1
v -12 0 -5
v -10 0 -5
v -11 0 -6
v -10 0 -6
v -12 0 -7
v -11 0 -7
v -13 0 -13
v 13 0 -13
v -9 8 11
v -5 8 11
v -2 8 11
v -1 8 11
v 0 8 11
v 4 8 11
v 5 8 11
v 6 8 11
v 9 8 11
v 13 8 11
v -9 8 10
v -5 8 10
v -2 8 10
v -1 8 10
v 0 8 10
v 4 8 10
v 5 8 10
v 6 8 10
v 9 8 10
v 13 8 10
v -11 8 9
v -10 8 9
v -11 8 5
v -10 8 5
v -11 8 -9
v -10 8 -9
v -11 8 -13
v -10 8 -13
v -9 11 11
v -4 11 11
v -3 11 11
v 7 11 11
v 8 11 11
v 13 11 11
v -9 11 10
v -4 11 10
v -3 11 10
v 7 11 10
v 8 11 10
v 13 11 10
v -11 11 9
v -10 11 9
v -11 11 4
v -10 11 4
v -11 11 -8
v -10 11 -8
v -11 11 -13
v -10 11 -13
v -9 12 10
v 13 12 10
v -10 12 9
v -9 12 9
v 13 12 9
v -10 12 3
v -9 12 3
v -13 12 2
v -12 12 2
v -10 12 2
v -9 12 2
v -13 12 1
v -12 12 1
v -10 12 1
v -9 12 1
v -13 12 -5
v -12 12 -5
v -10 12 -5
v -9 12 -5
v -13 12 -6
v -12 12 -6
v -10 12 -6
v -9 12 -6
v -10 12 -7
v -9 12 -7
v -10 12 -13
v -9 12 -13
v -9 4 9
v 13 4 9
v -7 4 7
v -3 4 7
v -2 4 7
v -1 4 7
v 5 4 7
v 6 4 7
v 7 4 7
v 11 4 7
v -5 4 5
v -3 4 5
v -2 4 5
v -1 4 5
v 5 4 5
v 6 4 5
v 7 4 5
v 9 4 5
v -7 4 3
v -5 4 3
v 9 4 3
v 11 4 3
v -7 4 2
v -5 4 2
v 9 4 2
v 11 4 2
v -13 4 1
v -12 4 1
v -10 4 1
v -9 4 1
v -7 4 1
v -5 4 1
v 9 4 1
v 11 4 1
v -13 4 -5
v -12 4 -5
v -10 4 -5
v -9 4 -5
v -7 4 -5
v -5 4 -5
v 9 4 -5
v 11 4 -5
v -7 4 -6
v -5 4 -6
v 9 4 -6
v 11 4 -6
v -7 4 -7
v -5 4 -7
v 9 4 -7
v 11 4 -7
v -5 4 -9
v -3 4 -9
v -2 4 -9
v -1 4 -9
v 5 4 -9
v 6 4 -9
v 7 4 -9
v 9 4 -9
v -7 4 -11
v -3 4 -11
v -2 4 -11
v -1 4 -11
v 5 4 -11
v 6 4 -11
v 7 4 -11
v 11 4 -11
v -9 4 -13
v 13 4 -13
v -9 6 10
v 13 6 10
v -10 6 9
v -9 6 9
v 13 6 9
v -10 6 3
v -9 6 3
v -13 6 2
v -12 6 2
v -10 6 2
v -9 6 2
v -13 6 1
v -12 6 1
v -10 6 1
v -9 6 1
v -13 6 -5
v -12 6 -5
v -10 6 -5
v -9 6 -5
v -13 6 -6
v -12 6 -6
v -10 6 -6
v -9 6 -6
v -10 6 -7
v -9 6 -7
v -10 6 -13
v -9 6 -13
v -9 7 11
v -4 7 11
v -3 7 11
v 7 7 11
v 8 7 11
v 13 7 11
v -9 7 10
v -4 7 10
v -3 7 10
v 7 7 10
v 8 7 10
v 13 7 10
v -11 7 9
v -10 7 9
v -11 7 4
v -10 7 4
v -11 7 -8
v -10 7 -8
v -11 7 -13
v -10 7 -13
v -9 10 11
v -5 10 11
v -2 10 11
v -1 10 11
v 0 10 11
v 4 10 11
v 5 10 11
v 6 10 11
v 9 10 11
v 13 10 11
v -9 10 10
v -5 10 10
v -2 10 10
v -1 10 10
v 0 10 10
v 4 10 10
v 5 10 10
v 6 10 10
v 9 10 10
v 13 10 10
v -11 10 9
v -10 10 9
v -11 10 5
v -10 10 5
v -11 10 -9
v -10 10 -9
v -11 10 -13
v -10 10 -13
v -13 14 13
v 13 14 13
v -9 14 9
v 13 14 9
v -12 14 3
v -10 14 3
v -13 14 1
v -12 14 1
v -10 14 1
v -9 14 1
v -13 14 -5
v -12 14 -5
v -10 14 -5
v -9 14 -5
v -12 14 -7
v -10 14 -7
v -13 14 -13
v -9 14 -13

# faces
f 3/2/1 2/2/1 1/2/1
f 4/2/1 2/2/1 3/2/1
f 5/2/1 3/2/1 1/2/1
f 6/2/1 3/2/1 5/2/1
f 7/2/1 2/2/1 4/2/1
f 8/2/1 2/2/1 7/2/1
f 9/2/1 5/2/1 1/2/1
f 12/2/1 2/2/1 8/2/1
f 13/2/1 10/2/1 9/2/1
f 13/2/1 9/2/1 1/2/1
f 14/2/1 10/2/1 13/2/1
f 15/2/1 12/2/1 11/2/1
f 16/2/1 2/2/1 12/2/1
f 16/2/1 12/2/1 15/2/1
f 21/5/1 18/5/1 17/5/1
f 22/5/1 18/5/1 21/5/1
f 23/5/1 20/5/1 19/5/1
f 24/5/1 20/5/1 23/5/1
f 25/1/1 22/1/1 21/1/1
f 26/1/1 22/1/1 25/1/1
f 27/1/1 24/1/1 23/1/1
f 28/1/1 24/1/1 27/1/1
f 29/5/1 26/5/1 25/5/1
f 30/5/1 26/5/1 29/5/1
f 31/5/1 28/5/1 27/5/1
f 32/5/1 28/5/1 31/5/1
f 35/2/1 34/2/1 33/2/1
f 36/2/1 34/2/1 35/2/1
f 37/2/1 36/2/1 35/2/1
f 38/2/1 36/2/1 37/2/1
f 41/2/1 40/2/1 39/2/1
f 42/2/1 40/2/1 41/2/1
f 45/2/1 44/2/1 43/2/1
f 46/2/1 44/2/1 45/2/1
f 49/2/1 48/2/1 47/2/1
f 50/2/1 48/2/1 49/2/1
f 53/2/1 52/2/1 51/2/1
f 54/2/1 52/2/1 53/2/1
f 57/2/1 56/2/1 55/2/1
f 58/2/1 56/2/1 57/2/1
f 61/2/1 60/2/1 59/2/1
f 62/2/1 60/2/1 61/2/1
f 63/2/2 64/2/2 65/2/2
f 65/2/2 64/2/2 66/2/2
f 65/2/2 66/2/2 67/2/2
f 67/2/2 66/2/2 68/2/2
f 69/2/2 70/2/2 73/2/2
f 73/2/2 70/2/2 74/2/2
f 71/2/2 72/2/2 75/2/2
f 75/2/2 72/2/2 76/2/2
f 74/2/2 70/2/2 78/2/2
f 71/2/2 75/2/2 79/2/2
f 77/2/2 78/2/2 81/2/2
f 78/2/2 70/2/2 82/2/2
f 81/2/2 78/2/2 82/2/2
f 79/2/2 80/2/2 83/2/2
f 71/2/2 79/2/2 83/2/2
f 83/2/2 80/2/2 84/2/2
f 85/2/2 86/2/2 93/2/2
f 93/2/2 86/2/2 94/2/2
f 91/2/2 92/2/2 95/2/2
f 95/2/2 92/2/2 96/2/2
f 87/5/2 88/5/2 99/5/2
f 99/5/2 88/5/2 100/5/2
f 89/5/2 90/5/2 101/5/2
f 101/5/2 90/5/2 102/5/2
f 97/2/2 98/2/2 105/2/2
f 105/2/2 98/2/2 106/2/2
f 99/1/2 100/1/2 107/1/2
f 107/1/2 100/1/2 108/1/2
f 101/1/2 102/1/2 109/1/2
f 109/1/2 102/1/2 110/1/2
f 103/2/2 104/2/2 111/2/2
f 111/2/2 104/2/2 112/2/2
f 94/2/2 86/2/2 114/2/2
f 91/2/2 95/2/2 115/2/2
f 113/2/2 114/2/2 117/2/2
f 114/2/2 86/2/2 118/2/2
f 117/2/2 114/2/2 118/2/2
f 107/5/2 108/5/2 119/5/2
f 119/5/2 108/5/2 120/5/2
f 109/5/2 110/5/2 121/5/2
f 121/5/2 110/5/2 122/5/2
f 115/2/2 116/2/2 123/2/2
f 91/2/2 115/2/2 123/2/2
f 123/2/2 116/2/2 124/2/2
f 125/2/2 126/2/2 130/2/2
f 130/2/2 126/2/2 131/2/2
f 131/2/2 126/2/2 132/2/2
f 132/2/2 126/2/2 133/2/2
f 127/2/2 128/2/2 134/2/2
f 134/2/2 128/2/2 135/2/2
f 135/2/2 128/2/2 136/2/2
f 136/2/2 128/2/2 137/2/2
f 129/2/2 130/2/2 139/2/2
f 138/2/2 139/2/2 140/2/2
f 139/2/2 130/2/2 141/2/2
f 140/2/2 139/2/2 141/2/2
f 141/2/2 130/2/2 143/2/2
f 142/2/2 143/2/2 144/2/2
f 143/2/2 130/2/2 145/2/2
f 144/2/2 143/2/2 145/2/2
f 145/2/2 130/2/2 146/2/2
f 146/2/2 130/2/2 147/2/2
f 131/2/2 132/2/2 148/2/2
f 148/2/2 132/2/2 149/2/2
f 135/2/2 136/2/2 152/2/2
f 152/2/2 136/2/2 153/2/2
f 149/2/2 150/2/2 155/2/2
f 147/2/2 148/2/2 155/2/2
f 148/2/2 149/2/2 155/2/2
f 155/2/2 150/2/2 156/2/2
f 153/2/2 154/2/2 157/2/2
f 152/2/2 153/2/2 157/2/2
f 151/2/2 152/2/2 157/2/2
f 157/2/2 154/2/2 158/2/2
f 159/2/2 160/2/2 161/2/2
f 161/2/2 160/2/2 162/2/2
f 163/2/2 164/2/2 165/2/2
f 165/2/2 164/2/2 166/2/2
f 167/2/2 168/2/2 169/2/2
f 169/2/2 168/2/2 170/2/2
f 171/2/2 172/2/2 173/2/2
f 173/2/2 172/2/2 174/2/2
f 175/2/2 176/2/2 177/2/2
f 177/2/2 176/2/2 178/2/2
f 179/2/2 180/2/2 181/2/2
f 181/2/2 180/2/2 182/2/2
f 183/2/2 184/2/2 185/2/2
f 185/2/2 184/2/2 186/2/2
f 183/2/2 185/2/2 187/2/2
f 187/2/2 185/2/2 188/2/2
f 183/2/2 187/2/2 189/2/2
f 189/2/2 187/2/2 190/2/2
f 183/2/2 189/2/2 191/2/2
f 183/2/2 191/2/2 193/2/2
f 191/2/2 192/2/2 193/2/2
f 193/2/2 192/2/2 194/2/2
f 183/2/2 193/2/2 195/2/2
f 195/2/2 196/2/2 197/2/2
f 195/2/2 197/2/2 199/2/2
f 197/2/2 198/2/2 199/2/2
f 183/2/2 195/2/2 199/2/2
f 199/2/2 198/2/2 200/2/2
f 203/2/3 202/2/3 201/2/3
f 204/2/3 202/2/3 203/2/3
f 207/2/3 206/2/3 205/2/3
f 208/2/3 206/2/3 207/2/3
f 211/2/3 210/2/3 209/2/3
f 212/2/3 210/2/3 211/2/3
f 219/2/3 214/2/3 213/2/3
f 220/2/3 214/2/3 219/2/3
f 223/2/3 216/2/3 215/2/3
f 224/2/3 216/2/3 223/2/3
f 225/1/3 218/1/3 217/1/3
f 226/5/3 219/5/3 218/5/3
f 226/1/3 218/1/3 225/1/3
f 227/1/3 220/1/3 219/1/3
f 227/5/3 219/5/3 226/5/3
f 228/5/3 221/5/3 220/5/3
f 228/1/3 220/1/3 227/1/3
f 229/1/3 222/1/3 221/1/3
f 229/5/3 221/5/3 228/5/3
f 230/5/3 223/5/3 222/5/3
f 230/1/3 222/1/3 229/1/3
f 231/4/3 224/4/3 223/4/3
f 231/5/3 223/5/3 230/5/3
f 232/4/3 224/4/3 231/4/3
f 233/2/3 228/2/3 227/2/3
f 234/2/3 228/2/3 233/2/3
f 235/2/3 232/2/3 231/2/3
f 236/2/3 232/2/3 235/2/3
f 239/2/3 238/2/3 237/2/3
f 240/2/3 238/2/3 239/2/3
f 241/2/3 238/2/3 240/2/3
f 242/2/3 238/2/3 241/2/3
f 247/2/3 244/2/3 243/2/3
f 247/2/3 246/2/3 245/2/3
f 247/2/3 245/2/3 244/2/3
f 248/2/3 246/2/3 247/2/3
f 251/2/3 250/2/3 249/2/3
f 252/2/3 250/2/3 251/2/3
f 253/2/4 254/2/4 257/2/4
f 255/2/4 256/2/4 258/2/4
f 253/2/4 257/2/4 259/2/4
f 257/2/4 258/2/4 259/2/4
f 258/2/4 256/2/4 260/2/4
f 259/2/4 258/2/4 260/2/4
f 261/2/4 262/2/4 263/2/4
f 263/2/4 262/2/4 264/2/4
f 261/2/4 263/2/4 265/2/4
f 264/2/4 262/2/4 266/2/4
f 261/2/4 265/2/4 267/2/4
f 265/2/4 266/2/4 267/2/4
f 266/2/4 262/2/4 268/2/4
f 267/2/4 266/2/4 268/2/4
f 261/2/4 267/2/4 269/2/4
f 268/2/4 262/2/4 270/2/4
f 261/2/4 269/2/4 271/2/4
f 269/2/4 270/2/4 271/2/4
f 270/2/4 262/2/4 272/2/4
f 271/2/4 270/2/4 272/2/4
f 261/2/4 271/2/4 273/2/4
f 272/2/4 262/2/4 274/2/4
f 261/2/4 273/2/4 275/2/4
f 273/2/4 274/2/4 275/2/4
f 274/2/4 262/2/4 276/2/4
f 275/2/4 274/2/4 276/2/4
f 277/2/4 278/2/4 279/2/4
f 279/2/4 278/2/4 280/2/4
f 277/2/4 279/2/4 281/2/4
f 281/2/4 279/2/4 282/2/4
f 280/2/4 278/2/4 283/2/4
f 283/2/4 278/2/4 284/2/4
f 287/2/4 288/2/4 291/2/4
f 291/2/4 288/2/4 292/2/4
f 285/2/4 286/2/4 293/2/4
f 289/2/4 290/2/4 294/2/4
f 285/2/4 293/2/4 295/2/4
f 293/2/4 294/2/4 295/2/4
f 294/2/4 290/2/4 296/2/4
f 295/2/4 294/2/4 296/2/4
f 297/2/4 298/2/4 299/2/4
f 299/2/4 298/2/4 300/2/4
f 301/2/4 302/2/4 303/2/4
f 303/2/4 302/2/4 304/2/4
f 305/2/4 306/2/4 307/2/4
f 307/2/4 306/2/4 308/2/4
f 285/2/4 295/2/4 309/2/4
f 296/2/4 290/2/4 310/2/4
f 285/2/4 309/2/4 311/2/4
f 309/2/4 310/2/4 311/2/4
f 310/2/4 290/2/4 312/2/4
f 311/2/4 310/2/4 312/2/4
f 285/2/4 311/2/4 315/2/4
f 315/2/4 311/2/4 316/2/4
f 313/2/4 314/2/4 317/2/4
f 317/2/4 314/2/4 318/2/4
f 312/2/4 290/2/4 319/2/4
f 319/2/4 290/2/4 320/2/4
f 321/2/4 322/2/4 326/2/4
f 326/2/4 322/2/4 327/2/4
f 323/2/4 324/2/4 328/2/4
f 328/2/4 324/2/4 329/2/4
f 326/2/4 327/2/4 332/2/4
f 329/2/4 330/2/4 332/2/4
f 328/2/4 329/2/4 332/2/4
f 327/2/4 328/2/4 332/2/4
f 325/2/4 326/2/4 332/2/4
f 332/2/4 330/2/4 333/2/4
f 331/2/4 332/2/4 335/2/4
f 335/2/4 332/2/4 336/2/4
f 333/2/4 334/2/4 337/2/4
f 337/2/4 334/2/4 338/2/4
f 339/2/4 340/2/4 341/2/4
f 341/2/4 340/2/4 342/2/4
f 343/2/4 344/2/4 345/2/4
f 345/2/4 344/2/4 346/2/4
f 346/2/4 344/2/4 347/2/4
f 347/2/4 344/2/4 348/2/4
f 349/2/4 350/2/4 353/2/4
f 351/2/4 352/2/4 353/2/4
f 350/2/4 351/2/4 353/2/4
f 353/2/4 352/2/4 354/2/4
f 355/2/4 356/2/4 361/2/4
f 361/2/4 356/2/4 362/2/4
f 357/2/4 358/2/4 365/2/4
f 365/2/4 358/2/4 366/2/4
f 359/1/4 360/1/4 367/1/4
f 360/5/4 361/5/4 368/5/4
f 367/1/4 360/1/4 368/1/4
f 361/1/4 362/1/4 369/1/4
f 368/5/4 361/5/4 369/5/4
f 362/5/4 363/5/4 370/5/4
f 369/1/4 362/1/4 370/1/4
f 363/1/4 364/1/4 371/1/4
f 370/5/4 363/5/4 371/5/4
f 364/5/4 365/5/4 372/5/4
f 371/1/4 364/1/4 372/1/4
f 365/4/4 366/4/4 373/4/4
f 372/5/4 365/5/4 373/5/4
f 373/4/4 366/4/4 374/4/4
f 369/2/4 370/2/4 375/2/4
f 375/2/4 370/2/4 376/2/4
f 373/2/4 374/2/4 377/2/4
f 377/2/4 374/2/4 378/2/4
f 379/2/4 380/2/4 381/2/4
f 381/2/4 380/2/4 382/2/4
f 383/2/4 384/2/4 385/2/4
f 385/2/4 384/2/4 386/2/4
f 387/2/4 388/2/4 389/2/4
f 389/2/4 388/2/4 390/2/4
f 390/2/4 388/2/4 391/2/4
f 391/2/4 388/2/4 392/2/4
f 387/2/4 389/2/4 393/2/4
f 393/2/4 389/2/4 394/2/4
f 390/2/4 391/2/4 395/2/4
f 395/2/4 391/2/4 396/2/4
f 392/2/4 388/2/4 397/2/4
f 397/2/4 388/2/4 398/2/4
f 387/2/4 393/2/4 399/2/4
f 399/2/4 393/2/4 400/2/4
f 398/2/4 388/2/4 401/2/4
f 401/2/4 388/2/4 402/2/4
f 387/2/4 399/2/4 403/2/4
f 403/2/4 399/2/4 404/2/4
f 407/2/5 406/2/5 405/2/5
f 408/2/5 406/2/5 407/2/5
f 409/1/5 408/1/5 407/1/5
f 409/2/5 406/2/5 408/2/5
f 410/2/5 406/2/5 409/2/5
f 411/2/5 407/2/5 405/2/5
f 411/1/5 409/1/5 407/1/5
f 411/1/5 410/1/5 409/1/5
f 412/2/5 406/2/5 410/2/5
f 412/1/5 410/1/5 411/1/5
f 413/2/5 411/2/5 405/2/5
f 414/2/5 406/2/5 412/2/5
f 415/1/5 414/1/5 413/1/5
f 416/2/5 406/2/5 414/2/5
f 416/1/5 414/1/5 415/1/5
f 417/2/5 413/2/5 405/2/5
f 417/1/5 415/1/5 413/1/5
f 418/2/5 416/2/5 415/2/5
f 418/1/5 415/1/5 417/1/5
f 419/2/5 417/2/5 405/2/5
f 419/2/5 418/2/5 417/2/5
f 420/2/5 406/2/5 416/2/5
f 420/2/5 418/2/5 419/2/5
f 420/2/5 416/2/5 418/2/5
f 431/2/5 422/2/5 421/2/5
f 432/2/5 422/2/5 431/2/5
f 433/2/5 424/2/5 423/2/5
f 434/2/5 424/2/5 433/2/5
f 435/2/5 426/2/5 425/2/5
f 436/2/5 426/2/5 435/2/5
f 437/2/5 428/2/5 427/2/5
f 438/2/5 428/2/5 437/2/5
f 439/2/5 430/2/5 429/2/5
f 440/2/5 430/2/5 439/2/5
f 443/2/5 442/2/5 441/2/5
f 444/2/5 442/2/5 443/2/5
f 447/2/5 446/2/5 445/2/5
f 448/2/5 446/2/5 447/2/5
f 455/2/5 450/2/5 449/2/5
f 456/2/5 450/2/5 455/2/5
f 457/2/5 452/2/5 451/2/5
f 458/2/5 452/2/5 457/2/5
f 459/2/5 454/2/5 453/2/5
f 460/2/5 454/2/5 459/2/5
f 463/2/5 462/2/5 461/2/5
f 464/2/5 462/2/5 463/2/5
f 467/2/5 466/2/5 465/2/5
f 468/2/5 466/2/5 467/2/5
f 472/2/5 470/2/5 469/2/5
f 473/2/5 470/2/5 472/2/5
f 474/2/5 472/2/5 471/2/5
f 475/2/5 472/2/5 474/2/5
f 480/2/5 477/2/5 476/2/5
f 481/2/5 477/2/5 480/2/5
f 482/2/5 479/2/5 478/2/5
f 483/2/5 479/2/5 482/2/5
f 488/2/5 485/2/5 484/2/5
f 489/2/5 485/2/5 488/2/5
f 490/2/5 487/2/5 486/2/5
f 491/2/5 487/2/5 490/2/5
f 494/2/5 493/2/5 492/2/5
f 495/2/5 493/2/5 494/2/5
f 496/2/6 497/2/6 498/2/6
f 498/2/6 497/2/6 499/2/6
f 499/2/6 497/2/6 500/2/6
f 500/2/6 497/2/6 501/2/6
f 501/2/6 497/2/6 502/2/6
f 502/2/6 497/2/6 503/2/6
f 503/2/6 497/2/6 504/2/6
f 504/2/6 497/2/6 505/2/6
f 498/3/6 499/3/6 506/3/6
f 499/2/6 500/2/6 507/2/6
f 506/3/6 499/3/6 507/3/6
f 500/3/6 501/3/6 508/3/6
f 507/2/6 500/2/6 508/2/6
f 501/2/6 502/2/6 509/2/6
f 508/3/6 501/3/6 509/3/6
f 502/3/6 503/3/6 510/3/6
f 509/2/6 502/2/6 510/2/6
f 503/2/6 504/2/6 511/2/6
f 510/3/6 503/3/6 511/3/6
f 504/3/6 505/3/6 512/3/6
f 511/2/6 504/2/6 512/2/6
f 512/3/6 505/3/6 513/3/6
f 496/2/6 498/2/6 514/2/6
f 498/3/6 506/3/6 514/3/6
f 512/2/6 513/2/6 515/2/6
f 514/3/6 506/3/6 515/3/6
f 506/2/6 507/2/6 515/2/6
f 511/2/6 512/2/6 515/2/6
f 510/2/6 511/2/6 515/2/6
f 509/2/6 510/2/6 515/2/6
f 508/2/6 509/2/6 515/2/6
f 507/2/6 508/2/6 515/2/6
f 513/3/6 505/3/6 516/3/6
f 515/2/6 513/2/6 516/2/6
f 505/2/6 497/2/6 517/2/6
f 516/3/6 505/3/6 517/3/6
f 514/2/6 515/2/6 518/2/6
f 515/2/6 516/2/6 518/2/6
f 516/2/6 517/2/6 518/2/6
f 496/2/6 514/2/6 518/2/6
f 518/2/6 517/2/6 519/2/6
f 519/2/6 517/2/6 520/2/6
f 517/2/6 497/2/6 521/2/6
f 520/2/6 517/2/6 521/2/6
f 496/2/6 518/2/6 525/2/6
f 518/3/6 519/3/6 526/3/6
f 525/2/6 518/2/6 526/2/6
f 519/2/6 520/2/6 527/2/6
f 526/3/6 519/3/6 527/3/6
f 520/3/6 521/3/6 528/3/6
f 527/2/6 520/2/6 528/2/6
f 521/2/6 497/2/6 529/2/6
f 528/3/6 521/3/6 529/3/6
f 522/2/6 523/2/6 530/2/6
f 530/2/6 523/2/6 531/2/6
f 525/2/6 526/2/6 532/2/6
f 524/2/6 525/2/6 532/2/6
f 526/2/6 527/2/6 532/2/6
f 528/2/6 529/2/6 532/2/6
f 527/2/6 528/2/6 532/2/6
f 532/2/6 529/2/6 533/2/6
f 533/2/6 529/2/6 534/2/6
f 534/2/6 529/2/6 535/2/6
f 535/2/6 529/2/6 536/2/6
f 529/2/6 497/2/6 537/2/6
f 536/2/6 529/2/6 537/2/6
f 533/2/6 534/2/6 538/2/6
f 534/3/6 535/3/6 538/3/6
f 535/2/6 536/2/6 539/2/6
f 538/3/6 535/3/6 539/3/6
f 536/3/6 537/3/6 540/3/6
f 539/2/6 536/2/6 540/2/6
f 537/2/6 497/2/6 541/2/6
f 540/3/6 537/3/6 541/3/6
f 539/2/6 540/2/6 542/2/6
f 533/2/6 538/2/6 542/2/6
f 540/2/6 541/2/6 542/2/6
f 538/2/6 539/2/6 542/2/6
f 542/2/6 541/2/6 543/2/6
f 543/2/6 541/2/6 544/2/6
f 541/2/6 497/2/6 545/2/6
f 544/2/6 541/2/6 545/2/6
f 543/2/6 544/2/6 546/2/6
f 542/3/6 543/3/6 546/3/6
f 546/2/6 544/2/6 547/2/6
f 547/2/6 544/2/6 548/2/6
f 548/2/6 544/2/6 549/2/6
f 549/2/6 544/2/6 550/2/6
f 550/2/6 544/2/6 551/2/6
f 551/2/6 544/2/6 552/2/6
f 544/3/6 545/3/6 553/3/6
f 552/2/6 544/2/6 553/2/6
f 533/2/6 542/2/6 554/2/6
f 542/3/6 546/3/6 554/3/6
f 546/3/6 547/3/6 554/3/6
f 547/2/6 548/2/6 555/2/6
f 554/3/6 547/3/6 555/3/6
f 548/3/6 549/3/6 556/3/6
f 555/2/6 548/2/6 556/2/6
f 549/2/6 550/2/6 557/2/6
f 556/3/6 549/3/6 557/3/6
f 550/3/6 551/3/6 558/3/6
f 557/2/6 550/2/6 558/2/6
f 551/2/6 552/2/6 559/2/6
f 558/3/6 551/3/6 559/3/6
f 552/3/6 553/3/6 560/3/6
f 559/2/6 552/2/6 560/2/6
f 545/2/6 497/2/6 561/2/6
f 560/3/6 553/3/6 561/3/6
f 553/3/6 545/3/6 561/3/6
f 559/2/6 560/2/6 562/2/6
f 555/2/6 556/2/6 562/2/6
f 560/2/6 561/2/6 562/2/6
f 554/2/6 555/2/6 562/2/6
f 533/2/6 554/2/6 562/2/6
f 556/2/6 557/2/6 562/2/6
f 558/2/6 559/2/6 562/2/6
f 557/2/6 558/2/6 562/2/6
f 561/2/6 497/2/6 563/2/6
f 562/2/6 561/2/6 563/2/6
f 564/2/6 565/2/6 567/2/6
f 567/2/6 565/2/6 568/2/6
f 566/2/6 567/2/6 569/2/6
f 569/2/6 567/2/6 570/2/6
f 571/2/6 572/2/6 575/2/6
f 575/2/6 572/2/6 576/2/6
f 573/2/6 574/2/6 577/2/6
f 577/2/6 574/2/6 578/2/6
f 579/2/6 580/2/6 583/2/6
f 583/2/6 580/2/6 584/2/6
f 581/2/6 582/2/6 585/2/6
f 585/2/6 582/2/6 586/2/6
f 587/2/6 588/2/6 589/2/6
f 589/2/6 588/2/6 590/2/6
f 591/2/6 592/2/6 597/2/6
f 597/2/6 592/2/6 598/2/6
f 593/2/6 594/2/6 599/2/6
f 599/2/6 594/2/6 600/2/6
f 595/2/6 596/2/6 601/2/6
f 601/2/6 596/2/6 602/2/6
f 603/2/6 604/2/6 605/2/6
f 605/2/6 604/2/6 606/2/6
f 607/2/6 608/2/6 609/2/6
f 609/2/6 608/2/6 610/2/6
f 611/2/6 612/2/6 621/2/6
f 621/2/6 612/2/6 622/2/6
f 613/2/6 614/2/6 623/2/6
f 623/2/6 614/2/6 624/2/6
f 615/2/6 616/2/6 625/2/6
f 625/2/6 616/2/6 626/2/6
f 617/2/6 618/2/6 627/2/6
f 627/2/6 618/2/6 628/2/6
f 619/2/6 620/2/6 629/2/6
f 629/2/6 620/2/6 630/2/6
f 631/2/6 632/2/6 633/2/6
f 633/2/6 632/2/6 634/2/6
f 635/2/6 636/2/6 637/2/6
f 637/2/6 636/2/6 638/2/6
f 639/2/6 640/2/6 641/2/6
f 641/2/6 640/2/6 642/2/6
f 639/2/6 641/2/6 643/2/6
f 643/2/6 641/2/6 644/2/6
f 639/2/6 643/2/6 645/2/6
f 643/4/6 644/4/6 646/4/6
f 645/2/6 643/2/6 646/2/6
f 644/2/6 641/2/6 647/2/6
f 646/4/6 644/4/6 647/4/6
f 647/2/6 641/2/6 648/2/6
f 649/2/6 650/2/6 653/2/6
f 650/4/6 651/4/6 653/4/6
f 651/2/6 652/2/6 654/2/6
f 653/4/6 651/4/6 654/4/6
f 649/2/6 653/2/6 655/2/6
f 653/2/6 654/2/6 655/2/6
f 654/2/6 652/2/6 656/2/6
f 655/2/6 654/2/6 656/2/6
