# MagicaVoxel @ Ephtracy

# group
g Female1.2

# material
mtllib Female1.2.mtl
usemtl palette

# normals
vn -1 0 0
vn 1 0 0
vn 0 0 1
vn 0 0 -1
vn 0 -1 0
vn 0 1 0

# texcoords
vt 0.0332031 0.5
vt 0.0371094 0.5
vt 0.0449219 0.5
vt 0.0917969 0.5
vt 0.279297 0.5
vt 0.306641 0.5
vt 0.560547 0.5
vt 0.892578 0.5
vt 0.958984 0.5
vt 0.962891 0.5
vt 0.966797 0.5
vt 0.978516 0.5
vt 0.982422 0.5
vt 0.994141 0.5

# verts
v -4 2 2
v -4 2 -0
v -4 2 -1
v -4 2 -3
v -4 5 2
v -4 5 -0
v -4 5 -1
v -4 5 -3
v -4 9 1
v -4 9 -2
v -4 10 1
v -4 10 -1
v -4 10 -2
v -4 11 1
v -4 11 -1
v -4 11 -2
v -4 12 -1
v -4 12 -2
v -4 13 1
v -4 13 -1
v -4 13 -2
v -3 8 1
v -3 8 -0
v -3 8 -1
v -3 8 -2
v -3 9 1
v -3 9 -0
v -3 9 -1
v -3 9 -2
v -3 15 1
v -3 15 -2
v -3 16 -0
v -3 16 -1
v -3 17 -0
v -3 17 -1
v -3 18 1
v -3 18 -2
v -2 6 2
v -2 6 -3
v -2 8 2
v -2 8 1
v -2 8 -0
v -2 8 -1
v -2 8 -2
v -2 8 -3
v -2 9 2
v -2 9 1
v -2 9 -0
v -2 9 -1
v -2 9 -2
v -2 9 -3
v -2 13 2
v -2 13 1
v -2 13 -2
v -2 13 -3
v -2 14 2
v -2 14 -3
v -2 15 1
v -2 15 -2
v -2 16 -0
v -2 16 -1
v -2 17 -0
v -2 17 -1
v -2 18 1
v -2 18 -2
v -2 19 2
v -2 19 -3
v -1 5 2
v -1 5 -0
v -1 5 -1
v -1 5 -3
v -1 6 2
v -1 6 -0
v -1 6 -1
v -1 6 -3
v -1 9 3
v -1 9 2
v -1 9 -3
v -1 9 -4
v -1 13 3
v -1 13 2
v -1 13 -0
v -1 13 -1
v -1 13 -3
v -1 13 -4
v -1 14 -0
v -1 14 -1
v -3 2 2
v -3 2 -0
v -3 2 -1
v -3 2 -3
v -3 3 2
v -3 3 -0
v -3 3 -1
v -3 3 -3
v 0 3 2
v 0 3 -0
v 0 3 -1
v 0 3 -3
v 0 4 2
v 0 4 -0
v 0 4 -1
v 0 4 -3
v 0 10 3
v 0 10 2
v 0 10 -3
v 0 10 -4
v 0 13 3
v 0 13 2
v 0 13 -0
v 0 13 -1
v 0 13 -3
v 0 13 -4
v 0 14 -0
v 0 14 -1
v 1 4 2
v 1 4 -0
v 1 4 -1
v 1 4 -3
v 1 6 -0
v 1 6 -1
v 1 7 1
v 1 7 -2
v 1 8 2
v 1 8 1
v 1 8 -2
v 1 8 -3
v 1 9 2
v 1 9 1
v 1 9 -2
v 1 9 -3
v 1 10 2
v 1 10 1
v 1 10 -2
v 1 10 -3
v 1 11 1
v 1 11 -2
v 1 12 1
v 1 12 -0
v 1 12 -1
v 1 12 -2
v 1 13 2
v 1 13 1
v 1 13 -0
v 1 13 -1
v 1 13 -2
v 1 13 -3
v 2 9 3
v 2 9 2
v 2 9 1
v 2 9 -2
v 2 9 -3
v 2 9 -4
v 2 10 3
v 2 10 2
v 2 10 1
v 2 10 -0
v 2 10 -2
v 2 10 -3
v 2 10 -4
v 2 11 1
v 2 11 -0
v 2 11 -2
v 2 12 1
v 2 12 -0
v 2 12 -2
v 2 14 2
v 2 14 -3
v 2 15 -0
v 2 15 -1
v 2 16 1
v 2 16 -0
v 2 16 -1
v 2 16 -2
v 2 17 2
v 2 17 1
v 2 17 -0
v 2 17 -1
v 2 17 -2
v 2 17 -3
v 2 18 1
v 2 18 -2
v 2 19 2
v 2 19 -3
v 3 15 -0
v 3 15 -1
v 3 16 -0
v 3 16 -1
v -1 9 3
v -1 13 3
v 0 9 3
v 0 10 3
v 0 13 3
v 2 9 3
v 2 10 3
v -4 2 2
v -4 5 2
v -3 2 2
v -3 3 2
v -2 3 2
v -2 5 2
v -2 6 2
v -2 8 2
v -2 9 2
v -2 13 2
v -2 14 2
v -2 19 2
v -1 5 2
v -1 6 2
v -1 9 2
v -1 13 2
v -1 14 2
v -1 15 2
v 0 3 2
v 0 4 2
v 0 9 2
v 0 10 2
v 0 13 2
v 0 15 2
v 0 16 2
v 1 4 2
v 1 8 2
v 1 9 2
v 1 10 2
v 1 13 2
v 1 16 2
v 1 17 2
v 2 14 2
v 2 17 2
v 2 19 2
v -4 9 1
v -4 10 1
v -4 11 1
v -4 13 1
v -3 8 1
v -3 9 1
v -3 10 1
v -3 11 1
v -3 13 1
v -3 15 1
v -3 18 1
v -2 8 1
v -2 9 1
v -2 13 1
v -2 15 1
v -2 18 1
v 1 9 1
v 1 10 1
v 1 11 1
v 1 12 1
v 2 9 1
v 2 10 1
v 2 11 1
v 2 12 1
v -1 13 -0
v -1 14 -0
v 0 13 -0
v 0 14 -0
v 2 15 -0
v 2 16 -0
v 3 15 -0
v 3 16 -0
v -4 2 -1
v -4 5 -1
v -3 2 -1
v -3 3 -1
v -3 8 -1
v -3 9 -1
v -3 16 -1
v -3 17 -1
v -2 3 -1
v -2 5 -1
v -2 8 -1
v -2 9 -1
v -2 16 -1
v -2 17 -1
v -1 5 -1
v -1 6 -1
v 0 3 -1
v 0 4 -1
v 1 4 -1
v 1 6 -1
v 1 9 -3
v 1 10 -3
v 2 9 -3
v 2 10 -3
v 1 9 2
v 1 10 2
v 2 9 2
v 2 10 2
v -4 2 -0
v -4 5 -0
v -3 2 -0
v -3 3 -0
v -3 8 -0
v -3 9 -0
v -3 16 -0
v -3 17 -0
v -2 3 -0
v -2 5 -0
v -2 8 -0
v -2 9 -0
v -2 16 -0
v -2 17 -0
v -1 5 -0
v -1 6 -0
v 0 3 -0
v 0 4 -0
v 1 4 -0
v 1 6 -0
v -1 13 -1
v -1 14 -1
v 0 13 -1
v 0 14 -1
v 2 15 -1
v 2 16 -1
v 3 15 -1
v 3 16 -1
v -4 9 -2
v -4 10 -2
v -4 11 -2
v -4 12 -2
v -4 13 -2
v -3 8 -2
v -3 9 -2
v -3 10 -2
v -3 11 -2
v -3 12 -2
v -3 13 -2
v -3 15 -2
v -3 18 -2
v -2 8 -2
v -2 9 -2
v -2 13 -2
v -2 15 -2
v -2 18 -2
v 1 9 -2
v 1 10 -2
v 1 11 -2
v 1 12 -2
v 2 9 -2
v 2 10 -2
v 2 11 -2
v 2 12 -2
v -4 2 -3
v -4 5 -3
v -3 2 -3
v -3 3 -3
v -2 3 -3
v -2 5 -3
v -2 6 -3
v -2 8 -3
v -2 9 -3
v -2 13 -3
v -2 14 -3
v -2 19 -3
v -1 5 -3
v -1 6 -3
v -1 9 -3
v -1 13 -3
v -1 14 -3
v -1 15 -3
v 0 3 -3
v 0 4 -3
v 0 9 -3
v 0 10 -3
v 0 13 -3
v 0 15 -3
v 0 16 -3
v 1 4 -3
v 1 8 -3
v 1 9 -3
v 1 10 -3
v 1 13 -3
v 1 16 -3
v 1 17 -3
v 2 14 -3
v 2 17 -3
v 2 19 -3
v -1 9 -4
v -1 13 -4
v 0 9 -4
v 0 10 -4
v 0 13 -4
v 2 9 -4
v 2 10 -4
v -4 2 2
v -3 2 2
v -4 2 -0
v -3 2 -0
v -4 2 -1
v -3 2 -1
v -4 2 -3
v -3 2 -3
v -3 3 2
v -2 3 2
v 0 3 2
v -3 3 -0
v -2 3 -0
v 0 3 -0
v -3 3 -1
v -2 3 -1
v 0 3 -1
v -3 3 -3
v -2 3 -3
v 0 3 -3
v 0 4 2
v 1 4 2
v 0 4 -0
v 1 4 -0
v 0 4 -1
v 1 4 -1
v 0 4 -3
v 1 4 -3
v -2 6 2
v -1 6 2
v -1 6 -0
v 1 6 -0
v -1 6 -1
v 1 6 -1
v -2 6 -3
v -1 6 -3
v -3 8 1
v -2 8 1
v -3 8 -0
v -2 8 -0
v -3 8 -1
v -2 8 -1
v -3 8 -2
v -2 8 -2
v -1 9 3
v 0 9 3
v 2 9 3
v -1 9 2
v 0 9 2
v 1 9 2
v 2 9 2
v -4 9 1
v -3 9 1
v 1 9 1
v 2 9 1
v -3 9 -0
v -2 9 -0
v -3 9 -1
v -2 9 -1
v -4 9 -2
v -3 9 -2
v 1 9 -2
v 2 9 -2
v -1 9 -3
v 0 9 -3
v 1 9 -3
v 2 9 -3
v -1 9 -4
v 0 9 -4
v 2 9 -4
v -2 14 2
v -1 14 2
v 2 14 2
v -1 14 -0
v 0 14 -0
v -1 14 -1
v 0 14 -1
v -2 14 -3
v -1 14 -3
v 2 14 -3
v -3 15 1
v -2 15 1
v 2 15 -0
v 3 15 -0
v 2 15 -1
v 3 15 -1
v -3 15 -2
v -2 15 -2
v -3 17 -0
v -2 17 -0
v -3 17 -1
v -2 17 -1
v -4 5 2
v -2 5 2
v -1 5 2
v -4 5 -0
v -2 5 -0
v -1 5 -0
v -4 5 -1
v -2 5 -1
v -1 5 -1
v -4 5 -3
v -2 5 -3
v -1 5 -3
v 0 10 3
v 2 10 3
v 0 10 2
v 1 10 2
v 2 10 2
v 0 10 -3
v 1 10 -3
v 2 10 -3
v 0 10 -4
v 2 10 -4
v 1 12 1
v 2 12 1
v 1 12 -0
v 2 12 -0
v 1 12 -1
v 1 12 -2
v 2 12 -2
v -1 13 3
v 0 13 3
v -2 13 2
v -1 13 2
v 0 13 2
v 1 13 2
v -4 13 1
v -3 13 1
v -2 13 1
v 1 13 1
v -2 13 -0
v -1 13 -0
v 0 13 -0
v 1 13 -0
v -4 13 -1
v -3 13 -1
v -2 13 -1
v -1 13 -1
v 0 13 -1
v 1 13 -1
v -4 13 -2
v -3 13 -2
v -2 13 -2
v 1 13 -2
v -2 13 -3
v -1 13 -3
v 0 13 -3
v 1 13 -3
v -1 13 -4
v 0 13 -4
v -3 16 -0
v -2 16 -0
v 2 16 -0
v 3 16 -0
v -3 16 -1
v -2 16 -1
v 2 16 -1
v 3 16 -1
v -3 18 1
v -2 18 1
v -3 18 -2
v -2 18 -2
v -2 19 2
v 2 19 2
v -2 19 -3
v 2 19 -3

# faces
f 5/13/1 2/13/1 1/13/1
f 6/13/1 2/13/1 5/13/1
f 7/13/1 4/13/1 3/13/1
f 8/13/1 4/13/1 7/13/1
f 11/2/1 10/2/1 9/2/1
f 12/2/1 10/2/1 11/2/1
f 13/2/1 10/2/1 12/2/1
f 14/4/1 12/4/1 11/4/1
f 15/8/1 13/8/1 12/8/1
f 15/4/1 12/4/1 14/4/1
f 16/8/1 13/8/1 15/8/1
f 17/10/1 15/10/1 14/10/1
f 17/3/1 16/3/1 15/3/1
f 18/3/1 16/3/1 17/3/1
f 19/10/1 17/10/1 14/10/1
f 20/5/1 18/5/1 17/5/1
f 20/10/1 17/10/1 19/10/1
f 21/5/1 18/5/1 20/5/1
f 26/2/1 23/2/1 22/2/1
f 27/2/1 23/2/1 26/2/1
f 28/2/1 25/2/1 24/2/1
f 29/2/1 25/2/1 28/2/1
f 32/7/1 31/7/1 30/7/1
f 33/7/1 31/7/1 32/7/1
f 34/7/1 32/7/1 30/7/1
f 35/7/1 31/7/1 33/7/1
f 36/7/1 34/7/1 30/7/1
f 36/7/1 35/7/1 34/7/1
f 37/7/1 31/7/1 35/7/1
f 37/7/1 35/7/1 36/7/1
f 40/6/1 39/6/1 38/6/1
f 41/6/1 39/6/1 40/6/1
f 42/6/1 39/6/1 41/6/1
f 43/6/1 39/6/1 42/6/1
f 44/6/1 39/6/1 43/6/1
f 45/6/1 39/6/1 44/6/1
f 46/2/1 41/2/1 40/2/1
f 47/2/1 41/2/1 46/2/1
f 48/2/1 43/2/1 42/2/1
f 49/2/1 43/2/1 48/2/1
f 50/2/1 45/2/1 44/2/1
f 51/2/1 45/2/1 50/2/1
f 52/6/1 47/6/1 46/6/1
f 53/6/1 47/6/1 52/6/1
f 54/6/1 51/6/1 50/6/1
f 55/6/1 51/6/1 54/6/1
f 58/7/1 57/7/1 56/7/1
f 59/7/1 57/7/1 58/7/1
f 62/7/1 61/7/1 60/7/1
f 63/7/1 61/7/1 62/7/1
f 64/7/1 58/7/1 56/7/1
f 65/7/1 57/7/1 59/7/1
f 66/7/1 64/7/1 56/7/1
f 66/7/1 65/7/1 64/7/1
f 67/7/1 57/7/1 65/7/1
f 67/7/1 65/7/1 66/7/1
f 72/6/1 69/6/1 68/6/1
f 73/6/1 69/6/1 72/6/1
f 74/6/1 71/6/1 70/6/1
f 75/6/1 71/6/1 74/6/1
f 80/6/1 77/6/1 76/6/1
f 81/6/1 77/6/1 80/6/1
f 84/6/1 79/6/1 78/6/1
f 85/6/1 79/6/1 84/6/1
f 86/1/1 83/1/1 82/1/1
f 87/1/1 83/1/1 86/1/1
f 88/13/2 89/13/2 92/13/2
f 92/13/2 89/13/2 93/13/2
f 90/13/2 91/13/2 94/13/2
f 94/13/2 91/13/2 95/13/2
f 96/6/2 97/6/2 100/6/2
f 100/6/2 97/6/2 101/6/2
f 98/6/2 99/6/2 102/6/2
f 102/6/2 99/6/2 103/6/2
f 104/6/2 105/6/2 108/6/2
f 108/6/2 105/6/2 109/6/2
f 106/6/2 107/6/2 112/6/2
f 112/6/2 107/6/2 113/6/2
f 110/1/2 111/1/2 114/1/2
f 114/1/2 111/1/2 115/1/2
f 116/6/2 117/6/2 120/6/2
f 118/6/2 119/6/2 121/6/2
f 116/6/2 120/6/2 122/6/2
f 120/6/2 121/6/2 122/6/2
f 121/6/2 119/6/2 123/6/2
f 122/6/2 121/6/2 123/6/2
f 116/6/2 122/6/2 124/6/2
f 122/2/2 123/2/2 125/2/2
f 124/6/2 122/6/2 125/6/2
f 123/6/2 119/6/2 126/6/2
f 125/2/2 123/2/2 126/2/2
f 126/6/2 119/6/2 127/6/2
f 124/2/2 125/2/2 128/2/2
f 125/2/2 126/2/2 128/2/2
f 126/2/2 127/2/2 128/2/2
f 128/2/2 127/2/2 129/2/2
f 129/2/2 127/2/2 130/2/2
f 130/2/2 127/2/2 131/2/2
f 128/6/2 129/6/2 132/6/2
f 132/6/2 129/6/2 133/6/2
f 130/6/2 131/6/2 134/6/2
f 134/6/2 131/6/2 135/6/2
f 132/6/2 133/6/2 136/6/2
f 134/6/2 135/6/2 137/6/2
f 132/6/2 136/6/2 138/6/2
f 137/6/2 135/6/2 141/6/2
f 132/6/2 138/6/2 142/6/2
f 138/2/2 139/2/2 143/2/2
f 142/6/2 138/6/2 143/6/2
f 139/6/2 140/6/2 144/6/2
f 143/2/2 139/2/2 144/2/2
f 140/2/2 141/2/2 145/2/2
f 144/6/2 140/6/2 145/6/2
f 141/6/2 135/6/2 146/6/2
f 145/2/2 141/2/2 146/2/2
f 146/6/2 135/6/2 147/6/2
f 148/1/2 149/1/2 154/1/2
f 154/1/2 149/1/2 155/1/2
f 150/12/2 151/12/2 156/12/2
f 156/12/2 151/12/2 157/12/2
f 157/12/2 151/12/2 158/12/2
f 152/1/2 153/1/2 159/1/2
f 159/1/2 153/1/2 160/1/2
f 156/5/2 157/5/2 161/5/2
f 157/10/2 158/10/2 162/10/2
f 161/5/2 157/5/2 162/5/2
f 162/10/2 158/10/2 163/10/2
f 161/8/2 162/8/2 164/8/2
f 162/9/2 163/9/2 165/9/2
f 164/8/2 162/8/2 165/8/2
f 165/9/2 163/9/2 166/9/2
f 167/1/2 168/1/2 169/1/2
f 169/1/2 168/1/2 170/1/2
f 167/1/2 169/1/2 171/1/2
f 171/1/2 169/1/2 172/1/2
f 170/1/2 168/1/2 173/1/2
f 173/1/2 168/1/2 174/1/2
f 167/1/2 171/1/2 175/1/2
f 171/14/2 172/14/2 176/14/2
f 175/1/2 171/1/2 176/1/2
f 172/1/2 173/1/2 177/1/2
f 176/14/2 172/14/2 177/14/2
f 173/14/2 174/14/2 178/14/2
f 177/1/2 173/1/2 178/1/2
f 174/1/2 168/1/2 179/1/2
f 178/14/2 174/14/2 179/14/2
f 179/1/2 168/1/2 180/1/2
f 177/1/2 178/1/2 181/1/2
f 175/7/2 176/7/2 181/7/2
f 176/1/2 177/1/2 181/1/2
f 178/1/2 179/1/2 181/1/2
f 179/7/2 180/7/2 182/7/2
f 181/1/2 179/1/2 182/1/2
f 175/7/2 181/7/2 183/7/2
f 181/7/2 182/7/2 183/7/2
f 182/7/2 180/7/2 184/7/2
f 183/7/2 182/7/2 184/7/2
f 185/1/2 186/1/2 187/1/2
f 187/1/2 186/1/2 188/1/2
f 191/6/3 190/6/3 189/6/3
f 192/6/3 190/6/3 191/6/3
f 193/6/3 190/6/3 192/6/3
f 194/1/3 192/1/3 191/1/3
f 195/1/3 192/1/3 194/1/3
f 198/13/3 197/13/3 196/13/3
f 199/13/3 197/13/3 198/13/3
f 200/13/3 197/13/3 199/13/3
f 201/13/3 197/13/3 200/13/3
f 208/6/3 201/6/3 200/6/3
f 209/6/3 203/6/3 202/6/3
f 210/2/3 204/2/3 203/2/3
f 210/6/3 205/6/3 204/6/3
f 211/6/3 205/6/3 210/6/3
f 212/7/3 207/7/3 206/7/3
f 213/7/3 207/7/3 212/7/3
f 214/6/3 208/6/3 200/6/3
f 214/6/3 209/6/3 208/6/3
f 215/6/3 209/6/3 214/6/3
f 216/2/3 210/2/3 203/2/3
f 219/7/3 207/7/3 213/7/3
f 219/1/3 213/1/3 212/1/3
f 220/7/3 207/7/3 219/7/3
f 221/6/3 209/6/3 215/6/3
f 222/2/3 216/2/3 203/2/3
f 222/6/3 209/6/3 221/6/3
f 222/6/3 203/6/3 209/6/3
f 223/2/3 216/2/3 222/2/3
f 224/6/3 218/6/3 217/6/3
f 225/6/3 218/6/3 224/6/3
f 226/7/3 207/7/3 220/7/3
f 226/1/3 220/1/3 219/1/3
f 227/7/3 207/7/3 226/7/3
f 228/1/3 219/1/3 212/1/3
f 228/1/3 227/1/3 226/1/3
f 228/1/3 226/1/3 219/1/3
f 229/7/3 207/7/3 227/7/3
f 229/1/3 227/1/3 228/1/3
f 230/7/3 207/7/3 229/7/3
f 236/2/3 232/2/3 231/2/3
f 237/4/3 233/4/3 232/4/3
f 237/2/3 232/2/3 236/2/3
f 238/10/3 234/10/3 233/10/3
f 238/4/3 233/4/3 237/4/3
f 239/10/3 234/10/3 238/10/3
f 242/2/3 237/2/3 236/2/3
f 242/2/3 236/2/3 235/2/3
f 242/2/3 239/2/3 238/2/3
f 242/2/3 238/2/3 237/2/3
f 243/2/3 239/2/3 242/2/3
f 244/2/3 239/2/3 243/2/3
f 245/7/3 241/7/3 240/7/3
f 246/7/3 241/7/3 245/7/3
f 251/12/3 248/12/3 247/12/3
f 252/5/3 249/5/3 248/5/3
f 252/12/3 248/12/3 251/12/3
f 253/8/3 250/8/3 249/8/3
f 253/5/3 249/5/3 252/5/3
f 254/8/3 250/8/3 253/8/3
f 257/1/3 256/1/3 255/1/3
f 258/1/3 256/1/3 257/1/3
f 261/1/3 260/1/3 259/1/3
f 262/1/3 260/1/3 261/1/3
f 265/13/3 264/13/3 263/13/3
f 266/13/3 264/13/3 265/13/3
f 271/13/3 264/13/3 266/13/3
f 272/13/3 264/13/3 271/13/3
f 273/2/3 268/2/3 267/2/3
f 274/2/3 268/2/3 273/2/3
f 275/7/3 270/7/3 269/7/3
f 276/7/3 270/7/3 275/7/3
f 277/6/3 272/6/3 271/6/3
f 279/6/3 277/6/3 271/6/3
f 279/6/3 278/6/3 277/6/3
f 280/6/3 278/6/3 279/6/3
f 281/6/3 278/6/3 280/6/3
f 282/6/3 278/6/3 281/6/3
f 285/1/3 284/1/3 283/1/3
f 286/1/3 284/1/3 285/1/3
f 287/1/4 288/1/4 289/1/4
f 289/1/4 288/1/4 290/1/4
f 291/13/4 292/13/4 293/13/4
f 293/13/4 292/13/4 294/13/4
f 294/13/4 292/13/4 299/13/4
f 299/13/4 292/13/4 300/13/4
f 295/2/4 296/2/4 301/2/4
f 301/2/4 296/2/4 302/2/4
f 297/7/4 298/7/4 303/7/4
f 303/7/4 298/7/4 304/7/4
f 299/6/4 300/6/4 305/6/4
f 299/6/4 305/6/4 307/6/4
f 305/6/4 306/6/4 307/6/4
f 307/6/4 306/6/4 308/6/4
f 308/6/4 306/6/4 309/6/4
f 309/6/4 306/6/4 310/6/4
f 311/1/4 312/1/4 313/1/4
f 313/1/4 312/1/4 314/1/4
f 315/1/4 316/1/4 317/1/4
f 317/1/4 316/1/4 318/1/4
f 319/2/4 320/2/4 325/2/4
f 320/8/4 321/8/4 326/8/4
f 325/2/4 320/2/4 326/2/4
f 321/3/4 322/3/4 327/3/4
f 326/8/4 321/8/4 327/8/4
f 322/5/4 323/5/4 328/5/4
f 327/3/4 322/3/4 328/3/4
f 328/5/4 323/5/4 329/5/4
f 326/2/4 327/2/4 332/2/4
f 324/2/4 325/2/4 332/2/4
f 328/2/4 329/2/4 332/2/4
f 327/2/4 328/2/4 332/2/4
f 325/2/4 326/2/4 332/2/4
f 332/2/4 329/2/4 333/2/4
f 333/2/4 329/2/4 334/2/4
f 330/7/4 331/7/4 335/7/4
f 335/7/4 331/7/4 336/7/4
f 337/12/4 338/12/4 341/12/4
f 338/10/4 339/10/4 342/10/4
f 341/12/4 338/12/4 342/12/4
f 339/9/4 340/9/4 343/9/4
f 342/10/4 339/10/4 343/10/4
f 343/9/4 340/9/4 344/9/4
f 345/13/4 346/13/4 347/13/4
f 347/13/4 346/13/4 348/13/4
f 348/13/4 346/13/4 349/13/4
f 349/13/4 346/13/4 350/13/4
f 349/6/4 350/6/4 357/6/4
f 351/6/4 352/6/4 358/6/4
f 352/2/4 353/2/4 359/2/4
f 353/6/4 354/6/4 359/6/4
f 359/6/4 354/6/4 360/6/4
f 355/7/4 356/7/4 361/7/4
f 361/7/4 356/7/4 362/7/4
f 349/6/4 357/6/4 363/6/4
f 357/6/4 358/6/4 363/6/4
f 363/6/4 358/6/4 364/6/4
f 352/2/4 359/2/4 365/2/4
f 362/7/4 356/7/4 368/7/4
f 361/1/4 362/1/4 368/1/4
f 368/7/4 356/7/4 369/7/4
f 364/6/4 358/6/4 370/6/4
f 352/2/4 365/2/4 371/2/4
f 370/6/4 358/6/4 371/6/4
f 358/6/4 352/6/4 371/6/4
f 371/2/4 365/2/4 372/2/4
f 366/6/4 367/6/4 373/6/4
f 373/6/4 367/6/4 374/6/4
f 369/7/4 356/7/4 375/7/4
f 368/1/4 369/1/4 375/1/4
f 375/7/4 356/7/4 376/7/4
f 361/1/4 368/1/4 377/1/4
f 375/1/4 376/1/4 377/1/4
f 368/1/4 375/1/4 377/1/4
f 376/7/4 356/7/4 378/7/4
f 377/1/4 376/1/4 378/1/4
f 378/7/4 356/7/4 379/7/4
f 380/6/4 381/6/4 382/6/4
f 382/6/4 381/6/4 383/6/4
f 383/6/4 381/6/4 384/6/4
f 382/1/4 383/1/4 385/1/4
f 385/1/4 383/1/4 386/1/4
f 389/13/5 388/13/5 387/13/5
f 390/13/5 388/13/5 389/13/5
f 393/13/5 392/13/5 391/13/5
f 394/13/5 392/13/5 393/13/5
f 398/13/5 396/13/5 395/13/5
f 399/6/5 397/6/5 396/6/5
f 399/13/5 396/13/5 398/13/5
f 400/6/5 397/6/5 399/6/5
f 404/13/5 402/13/5 401/13/5
f 405/6/5 403/6/5 402/6/5
f 405/13/5 402/13/5 404/13/5
f 406/6/5 403/6/5 405/6/5
f 409/6/5 408/6/5 407/6/5
f 410/6/5 408/6/5 409/6/5
f 413/6/5 412/6/5 411/6/5
f 414/6/5 412/6/5 413/6/5
f 417/6/5 416/6/5 415/6/5
f 419/6/5 417/6/5 415/6/5
f 419/6/5 418/6/5 417/6/5
f 420/6/5 418/6/5 419/6/5
f 421/6/5 419/6/5 415/6/5
f 422/6/5 419/6/5 421/6/5
f 425/2/5 424/2/5 423/2/5
f 426/2/5 424/2/5 425/2/5
f 429/2/5 428/2/5 427/2/5
f 430/2/5 428/2/5 429/2/5
f 434/6/5 432/6/5 431/6/5
f 435/1/5 433/1/5 432/1/5
f 435/6/5 432/6/5 434/6/5
f 436/1/5 433/1/5 435/1/5
f 437/1/5 433/1/5 436/1/5
f 442/2/5 439/2/5 438/2/5
f 444/2/5 442/2/5 438/2/5
f 444/2/5 443/2/5 442/2/5
f 445/2/5 443/2/5 444/2/5
f 446/2/5 444/2/5 438/2/5
f 447/2/5 444/2/5 446/2/5
f 448/12/5 441/12/5 440/12/5
f 449/12/5 441/12/5 448/12/5
f 454/6/5 451/6/5 450/6/5
f 455/1/5 453/1/5 452/1/5
f 455/6/5 451/6/5 454/6/5
f 455/1/5 452/1/5 451/1/5
f 456/1/5 453/1/5 455/1/5
f 460/7/5 458/7/5 457/7/5
f 460/1/5 459/1/5 458/1/5
f 461/1/5 459/1/5 460/1/5
f 462/7/5 460/7/5 457/7/5
f 463/1/5 459/1/5 461/1/5
f 464/7/5 462/7/5 457/7/5
f 465/1/5 463/1/5 462/1/5
f 465/7/5 462/7/5 464/7/5
f 466/1/5 459/1/5 463/1/5
f 466/1/5 463/1/5 465/1/5
f 471/1/5 470/1/5 469/1/5
f 472/1/5 470/1/5 471/1/5
f 473/7/5 468/7/5 467/7/5
f 474/7/5 468/7/5 473/7/5
f 477/7/5 476/7/5 475/7/5
f 478/7/5 476/7/5 477/7/5
f 479/13/6 480/13/6 482/13/6
f 480/6/6 481/6/6 483/6/6
f 482/13/6 480/13/6 483/13/6
f 483/6/6 481/6/6 484/6/6
f 485/13/6 486/13/6 488/13/6
f 486/6/6 487/6/6 489/6/6
f 488/13/6 486/13/6 489/13/6
f 489/6/6 487/6/6 490/6/6
f 491/1/6 492/1/6 493/1/6
f 493/1/6 492/1/6 494/1/6
f 494/1/6 492/1/6 495/1/6
f 496/1/6 497/1/6 499/1/6
f 497/1/6 498/1/6 499/1/6
f 499/1/6 498/1/6 500/1/6
f 501/8/6 502/8/6 503/8/6
f 503/8/6 502/8/6 504/8/6
f 503/9/6 504/9/6 505/9/6
f 505/9/6 504/9/6 506/9/6
f 506/9/6 504/9/6 507/9/6
f 508/6/6 509/6/6 511/6/6
f 511/6/6 509/6/6 512/6/6
f 510/6/6 511/6/6 516/6/6
f 511/6/6 512/6/6 516/6/6
f 512/6/6 513/6/6 516/6/6
f 516/6/6 513/6/6 517/6/6
f 515/2/6 516/2/6 518/2/6
f 516/2/6 517/2/6 518/2/6
f 518/2/6 517/2/6 519/2/6
f 519/2/6 517/2/6 520/2/6
f 520/2/6 517/2/6 521/2/6
f 514/10/6 515/10/6 522/10/6
f 515/2/6 518/2/6 523/2/6
f 522/10/6 515/10/6 523/10/6
f 518/6/6 519/6/6 524/6/6
f 523/2/6 518/2/6 524/2/6
f 524/6/6 519/6/6 525/6/6
f 520/6/6 521/6/6 526/6/6
f 526/6/6 521/6/6 527/6/6
f 522/5/6 523/5/6 528/5/6
f 524/2/6 525/2/6 529/2/6
f 528/5/6 523/5/6 529/5/6
f 523/2/6 524/2/6 529/2/6
f 526/2/6 527/2/6 529/2/6
f 525/2/6 526/2/6 529/2/6
f 529/2/6 527/2/6 530/2/6
f 530/2/6 527/2/6 531/2/6
f 530/6/6 531/6/6 532/6/6
f 532/6/6 531/6/6 533/6/6
f 533/6/6 531/6/6 534/6/6
f 534/6/6 531/6/6 535/6/6
f 533/6/6 534/6/6 536/6/6
f 536/6/6 534/6/6 537/6/6
f 538/7/6 539/7/6 542/7/6
f 542/7/6 539/7/6 543/7/6
f 540/1/6 541/1/6 544/1/6
f 544/1/6 541/1/6 545/1/6
f 546/7/6 547/7/6 548/7/6
f 548/7/6 547/7/6 549/7/6
f 550/7/6 551/7/6 552/7/6
f 552/7/6 551/7/6 553/7/6
