# MagicaVoxel @ Ephtracy

# group
g Female2.2

# material
mtllib Female2.2.mtl
usemtl palette

# normals
vn -1 0 0
vn 1 0 0
vn 0 0 1
vn 0 0 -1
vn 0 -1 0
vn 0 1 0

# texcoords
vt 0.0332031 0.5
vt 0.0371094 0.5
vt 0.0449219 0.5
vt 0.0917969 0.5
vt 0.279297 0.5
vt 0.306641 0.5
vt 0.892578 0.5
vt 0.958984 0.5
vt 0.962891 0.5
vt 0.966797 0.5
vt 0.978516 0.5
vt 0.982422 0.5
vt 0.994141 0.5

# verts
v -4 2 2
v -4 2 -0
v -4 2 -1
v -4 2 -3
v -4 5 2
v -4 5 -0
v -4 5 -1
v -4 5 -3
v -4 9 1
v -4 9 -2
v -4 10 1
v -4 10 -1
v -4 10 -2
v -4 11 1
v -4 11 -1
v -4 11 -2
v -4 12 -1
v -4 12 -2
v -4 13 1
v -4 13 -1
v -4 13 -2
v -3 8 1
v -3 8 -0
v -3 8 -1
v -3 8 -2
v -3 9 1
v -3 9 -0
v -3 9 -1
v -3 9 -2
v -3 14 2
v -3 14 -2
v -3 15 -2
v -3 15 -3
v -3 19 2
v -3 19 -3
v -2 6 2
v -2 6 -3
v -2 8 2
v -2 8 1
v -2 8 -0
v -2 8 -1
v -2 8 -2
v -2 8 -3
v -2 9 2
v -2 9 1
v -2 9 -0
v -2 9 -1
v -2 9 -2
v -2 9 -3
v -2 13 2
v -2 13 1
v -2 13 -2
v -2 13 -3
v -2 14 -2
v -2 14 -3
v -2 15 3
v -2 15 2
v -2 15 -2
v -2 15 -3
v -2 15 -4
v -2 18 3
v -2 18 2
v -2 18 -3
v -2 18 -4
v -1 5 2
v -1 5 -0
v -1 5 -1
v -1 5 -3
v -1 6 2
v -1 6 -0
v -1 6 -1
v -1 6 -3
v -1 9 3
v -1 9 2
v -1 9 -3
v -1 9 -4
v -1 13 3
v -1 13 2
v -1 13 -0
v -1 13 -1
v -1 13 -3
v -1 13 -4
v -1 14 -0
v -1 14 -1
v 0 16 3
v 0 16 2
v 0 16 -3
v 0 16 -4
v 0 17 3
v 0 17 2
v 0 17 -3
v 0 17 -4
v -3 2 2
v -3 2 -0
v -3 2 -1
v -3 2 -3
v -3 3 2
v -3 3 -0
v -3 3 -1
v -3 3 -3
v -1 16 3
v -1 16 2
v -1 16 -3
v -1 16 -4
v -1 17 3
v -1 17 2
v -1 17 -3
v -1 17 -4
v 0 3 2
v 0 3 -0
v 0 3 -1
v 0 3 -3
v 0 4 2
v 0 4 -0
v 0 4 -1
v 0 4 -3
v 0 10 3
v 0 10 2
v 0 10 -3
v 0 10 -4
v 0 13 3
v 0 13 2
v 0 13 -0
v 0 13 -1
v 0 13 -3
v 0 13 -4
v 0 14 -0
v 0 14 -1
v 1 4 2
v 1 4 -0
v 1 4 -1
v 1 4 -3
v 1 6 -0
v 1 6 -1
v 1 7 1
v 1 7 -2
v 1 8 2
v 1 8 1
v 1 8 -2
v 1 8 -3
v 1 9 2
v 1 9 1
v 1 9 -2
v 1 9 -3
v 1 10 2
v 1 10 1
v 1 10 -2
v 1 10 -3
v 1 11 1
v 1 11 -2
v 1 12 1
v 1 12 -0
v 1 12 -1
v 1 12 -2
v 1 13 2
v 1 13 1
v 1 13 -0
v 1 13 -1
v 1 13 -2
v 1 13 -3
v 1 15 3
v 1 15 2
v 1 15 -3
v 1 15 -4
v 1 17 2
v 1 17 -3
v 1 18 3
v 1 18 2
v 1 18 -3
v 1 18 -4
v 2 9 3
v 2 9 2
v 2 9 1
v 2 9 -2
v 2 9 -3
v 2 9 -4
v 2 10 3
v 2 10 2
v 2 10 1
v 2 10 -0
v 2 10 -2
v 2 10 -3
v 2 10 -4
v 2 11 1
v 2 11 -0
v 2 11 -2
v 2 12 1
v 2 12 -0
v 2 12 -2
v 2 14 2
v 2 14 -3
v 2 15 -0
v 2 15 -1
v 2 16 1
v 2 16 -0
v 2 16 -1
v 2 16 -2
v 2 17 2
v 2 17 1
v 2 17 -0
v 2 17 -1
v 2 17 -2
v 2 17 -3
v 2 18 1
v 2 18 -2
v 2 19 2
v 2 19 -3
v 3 15 -0
v 3 15 -1
v 3 16 -0
v 3 16 -1
v -2 15 3
v -2 18 3
v -1 9 3
v -1 13 3
v -1 16 3
v -1 17 3
v 0 9 3
v 0 10 3
v 0 13 3
v 0 16 3
v 0 17 3
v 1 15 3
v 1 18 3
v 2 9 3
v 2 10 3
v -4 2 2
v -4 5 2
v -3 2 2
v -3 3 2
v -3 14 2
v -3 19 2
v -2 3 2
v -2 5 2
v -2 6 2
v -2 8 2
v -2 9 2
v -2 13 2
v -2 15 2
v -2 18 2
v -1 5 2
v -1 6 2
v -1 7 2
v -1 8 2
v -1 9 2
v -1 13 2
v -1 14 2
v -1 15 2
v -1 16 2
v -1 17 2
v 0 3 2
v 0 4 2
v 0 7 2
v 0 8 2
v 0 9 2
v 0 10 2
v 0 13 2
v 0 16 2
v 0 17 2
v 1 4 2
v 1 8 2
v 1 9 2
v 1 10 2
v 1 13 2
v 1 15 2
v 1 17 2
v 1 18 2
v 2 14 2
v 2 17 2
v 2 19 2
v -4 9 1
v -4 10 1
v -4 11 1
v -4 13 1
v -3 8 1
v -3 9 1
v -3 10 1
v -3 11 1
v -3 13 1
v -2 8 1
v -2 9 1
v -2 13 1
v 1 9 1
v 1 10 1
v 1 11 1
v 1 12 1
v 2 9 1
v 2 10 1
v 2 11 1
v 2 12 1
v -1 13 -0
v -1 14 -0
v 0 13 -0
v 0 14 -0
v 2 15 -0
v 2 16 -0
v 3 15 -0
v 3 16 -0
v -4 2 -1
v -4 5 -1
v -3 2 -1
v -3 3 -1
v -3 8 -1
v -3 9 -1
v -2 3 -1
v -2 5 -1
v -2 8 -1
v -2 9 -1
v -1 5 -1
v -1 6 -1
v 0 3 -1
v 0 4 -1
v 1 4 -1
v 1 6 -1
v 1 9 -3
v 1 10 -3
v 2 9 -3
v 2 10 -3
v 1 9 2
v 1 10 2
v 2 9 2
v 2 10 2
v -4 2 -0
v -4 5 -0
v -3 2 -0
v -3 3 -0
v -3 8 -0
v -3 9 -0
v -2 3 -0
v -2 5 -0
v -2 8 -0
v -2 9 -0
v -1 5 -0
v -1 6 -0
v 0 3 -0
v 0 4 -0
v 1 4 -0
v 1 6 -0
v -1 13 -1
v -1 14 -1
v 0 13 -1
v 0 14 -1
v 2 15 -1
v 2 16 -1
v 3 15 -1
v 3 16 -1
v -4 9 -2
v -4 10 -2
v -4 11 -2
v -4 12 -2
v -4 13 -2
v -3 8 -2
v -3 9 -2
v -3 10 -2
v -3 11 -2
v -3 12 -2
v -3 13 -2
v -3 14 -2
v -3 15 -2
v -2 8 -2
v -2 9 -2
v -2 13 -2
v -2 14 -2
v -2 15 -2
v 1 9 -2
v 1 10 -2
v 1 11 -2
v 1 12 -2
v 2 9 -2
v 2 10 -2
v 2 11 -2
v 2 12 -2
v -4 2 -3
v -4 5 -3
v -3 2 -3
v -3 3 -3
v -3 15 -3
v -3 19 -3
v -2 3 -3
v -2 5 -3
v -2 6 -3
v -2 8 -3
v -2 9 -3
v -2 13 -3
v -2 14 -3
v -2 15 -3
v -2 18 -3
v -1 5 -3
v -1 6 -3
v -1 7 -3
v -1 8 -3
v -1 9 -3
v -1 13 -3
v -1 14 -3
v -1 15 -3
v -1 16 -3
v -1 17 -3
v 0 3 -3
v 0 4 -3
v 0 7 -3
v 0 8 -3
v 0 9 -3
v 0 10 -3
v 0 13 -3
v 0 16 -3
v 0 17 -3
v 1 4 -3
v 1 8 -3
v 1 9 -3
v 1 10 -3
v 1 13 -3
v 1 15 -3
v 1 17 -3
v 1 18 -3
v 2 14 -3
v 2 17 -3
v 2 19 -3
v -2 15 -4
v -2 18 -4
v -1 9 -4
v -1 13 -4
v -1 16 -4
v -1 17 -4
v 0 9 -4
v 0 10 -4
v 0 13 -4
v 0 16 -4
v 0 17 -4
v 1 15 -4
v 1 18 -4
v 2 9 -4
v 2 10 -4
v -4 2 2
v -3 2 2
v -4 2 -0
v -3 2 -0
v -4 2 -1
v -3 2 -1
v -4 2 -3
v -3 2 -3
v -3 3 2
v -2 3 2
v 0 3 2
v -3 3 -0
v -2 3 -0
v 0 3 -0
v -3 3 -1
v -2 3 -1
v 0 3 -1
v -3 3 -3
v -2 3 -3
v 0 3 -3
v 0 4 2
v 1 4 2
v 0 4 -0
v 1 4 -0
v 0 4 -1
v 1 4 -1
v 0 4 -3
v 1 4 -3
v -2 6 2
v -1 6 2
v -1 6 -0
v 1 6 -0
v -1 6 -1
v 1 6 -1
v -2 6 -3
v -1 6 -3
v -3 8 1
v -2 8 1
v -3 8 -0
v -2 8 -0
v -3 8 -1
v -2 8 -1
v -3 8 -2
v -2 8 -2
v -1 9 3
v 0 9 3
v 2 9 3
v -1 9 2
v 0 9 2
v 1 9 2
v 2 9 2
v -4 9 1
v -3 9 1
v 1 9 1
v 2 9 1
v -3 9 -0
v -2 9 -0
v -3 9 -1
v -2 9 -1
v -4 9 -2
v -3 9 -2
v 1 9 -2
v 2 9 -2
v -1 9 -3
v 0 9 -3
v 1 9 -3
v 2 9 -3
v -1 9 -4
v 0 9 -4
v 2 9 -4
v -3 14 2
v -1 14 2
v 2 14 2
v -1 14 -0
v 0 14 -0
v -1 14 -1
v 0 14 -1
v -3 14 -2
v -2 14 -2
v -2 14 -3
v -1 14 -3
v 2 14 -3
v -2 15 3
v 1 15 3
v -2 15 2
v -1 15 2
v 1 15 2
v 2 15 -0
v 3 15 -0
v 2 15 -1
v 3 15 -1
v -3 15 -2
v -2 15 -2
v -3 15 -3
v -2 15 -3
v -1 15 -3
v 1 15 -3
v -2 15 -4
v 1 15 -4
v -1 17 3
v 0 17 3
v -1 17 2
v 0 17 2
v -1 17 -3
v 0 17 -3
v -1 17 -4
v 0 17 -4
v -4 5 2
v -2 5 2
v -1 5 2
v -4 5 -0
v -2 5 -0
v -1 5 -0
v -4 5 -1
v -2 5 -1
v -1 5 -1
v -4 5 -3
v -2 5 -3
v -1 5 -3
v 0 10 3
v 2 10 3
v 0 10 2
v 1 10 2
v 2 10 2
v 0 10 -3
v 1 10 -3
v 2 10 -3
v 0 10 -4
v 2 10 -4
v 1 12 1
v 2 12 1
v 1 12 -0
v 2 12 -0
v 1 12 -1
v 1 12 -2
v 2 12 -2
v -1 13 3
v 0 13 3
v -2 13 2
v -1 13 2
v 0 13 2
v 1 13 2
v -4 13 1
v -3 13 1
v -2 13 1
v 1 13 1
v -2 13 -0
v -1 13 -0
v 0 13 -0
v 1 13 -0
v -4 13 -1
v -3 13 -1
v -2 13 -1
v -1 13 -1
v 0 13 -1
v 1 13 -1
v -4 13 -2
v -3 13 -2
v -2 13 -2
v 1 13 -2
v -2 13 -3
v -1 13 -3
v 0 13 -3
v 1 13 -3
v -1 13 -4
v 0 13 -4
v -1 16 3
v 0 16 3
v -1 16 2
v 0 16 2
v 2 16 -0
v 3 16 -0
v 2 16 -1
v 3 16 -1
v -1 16 -3
v 0 16 -3
v -1 16 -4
v 0 16 -4
v -2 18 3
v 1 18 3
v -2 18 2
v 1 18 2
v -2 18 -3
v 1 18 -3
v -2 18 -4
v 1 18 -4
v -3 19 2
v 2 19 2
v -3 19 -3
v 2 19 -3

# faces
f 5/12/1 2/12/1 1/12/1
f 6/12/1 2/12/1 5/12/1
f 7/12/1 4/12/1 3/12/1
f 8/12/1 4/12/1 7/12/1
f 11/2/1 10/2/1 9/2/1
f 12/2/1 10/2/1 11/2/1
f 13/2/1 10/2/1 12/2/1
f 14/4/1 12/4/1 11/4/1
f 15/7/1 13/7/1 12/7/1
f 15/4/1 12/4/1 14/4/1
f 16/7/1 13/7/1 15/7/1
f 17/9/1 15/9/1 14/9/1
f 17/3/1 16/3/1 15/3/1
f 18/3/1 16/3/1 17/3/1
f 19/9/1 17/9/1 14/9/1
f 20/5/1 18/5/1 17/5/1
f 20/9/1 17/9/1 19/9/1
f 21/5/1 18/5/1 20/5/1
f 26/2/1 23/2/1 22/2/1
f 27/2/1 23/2/1 26/2/1
f 28/2/1 25/2/1 24/2/1
f 29/2/1 25/2/1 28/2/1
f 32/4/1 31/4/1 30/4/1
f 34/4/1 32/4/1 30/4/1
f 34/4/1 33/4/1 32/4/1
f 35/4/1 33/4/1 34/4/1
f 38/6/1 37/6/1 36/6/1
f 39/6/1 37/6/1 38/6/1
f 40/6/1 37/6/1 39/6/1
f 41/6/1 37/6/1 40/6/1
f 42/6/1 37/6/1 41/6/1
f 43/6/1 37/6/1 42/6/1
f 44/2/1 39/2/1 38/2/1
f 45/2/1 39/2/1 44/2/1
f 46/2/1 41/2/1 40/2/1
f 47/2/1 41/2/1 46/2/1
f 48/2/1 43/2/1 42/2/1
f 49/2/1 43/2/1 48/2/1
f 50/6/1 45/6/1 44/6/1
f 51/6/1 45/6/1 50/6/1
f 52/6/1 49/6/1 48/6/1
f 53/6/1 49/6/1 52/6/1
f 58/4/1 55/4/1 54/4/1
f 59/4/1 55/4/1 58/4/1
f 61/4/1 57/4/1 56/4/1
f 62/4/1 57/4/1 61/4/1
f 63/4/1 60/4/1 59/4/1
f 64/4/1 60/4/1 63/4/1
f 69/6/1 66/6/1 65/6/1
f 70/6/1 66/6/1 69/6/1
f 71/6/1 68/6/1 67/6/1
f 72/6/1 68/6/1 71/6/1
f 77/6/1 74/6/1 73/6/1
f 78/6/1 74/6/1 77/6/1
f 81/6/1 76/6/1 75/6/1
f 82/6/1 76/6/1 81/6/1
f 83/1/1 80/1/1 79/1/1
f 84/1/1 80/1/1 83/1/1
f 89/4/1 86/4/1 85/4/1
f 90/4/1 86/4/1 89/4/1
f 91/4/1 88/4/1 87/4/1
f 92/4/1 88/4/1 91/4/1
f 93/12/2 94/12/2 97/12/2
f 97/12/2 94/12/2 98/12/2
f 95/12/2 96/12/2 99/12/2
f 99/12/2 96/12/2 100/12/2
f 101/4/2 102/4/2 105/4/2
f 105/4/2 102/4/2 106/4/2
f 103/4/2 104/4/2 107/4/2
f 107/4/2 104/4/2 108/4/2
f 109/6/2 110/6/2 113/6/2
f 113/6/2 110/6/2 114/6/2
f 111/6/2 112/6/2 115/6/2
f 115/6/2 112/6/2 116/6/2
f 117/6/2 118/6/2 121/6/2
f 121/6/2 118/6/2 122/6/2
f 119/6/2 120/6/2 125/6/2
f 125/6/2 120/6/2 126/6/2
f 123/1/2 124/1/2 127/1/2
f 127/1/2 124/1/2 128/1/2
f 129/6/2 130/6/2 133/6/2
f 131/6/2 132/6/2 134/6/2
f 129/6/2 133/6/2 135/6/2
f 133/6/2 134/6/2 135/6/2
f 134/6/2 132/6/2 136/6/2
f 135/6/2 134/6/2 136/6/2
f 129/6/2 135/6/2 137/6/2
f 135/2/2 136/2/2 138/2/2
f 137/6/2 135/6/2 138/6/2
f 136/6/2 132/6/2 139/6/2
f 138/2/2 136/2/2 139/2/2
f 139/6/2 132/6/2 140/6/2
f 137/2/2 138/2/2 141/2/2
f 138/2/2 139/2/2 141/2/2
f 139/2/2 140/2/2 141/2/2
f 141/2/2 140/2/2 142/2/2
f 142/2/2 140/2/2 143/2/2
f 143/2/2 140/2/2 144/2/2
f 141/6/2 142/6/2 145/6/2
f 145/6/2 142/6/2 146/6/2
f 143/6/2 144/6/2 147/6/2
f 147/6/2 144/6/2 148/6/2
f 145/6/2 146/6/2 149/6/2
f 147/6/2 148/6/2 150/6/2
f 145/6/2 149/6/2 151/6/2
f 150/6/2 148/6/2 154/6/2
f 145/6/2 151/6/2 155/6/2
f 151/2/2 152/2/2 156/2/2
f 155/6/2 151/6/2 156/6/2
f 152/6/2 153/6/2 157/6/2
f 156/2/2 152/2/2 157/2/2
f 153/2/2 154/2/2 158/2/2
f 157/6/2 153/6/2 158/6/2
f 154/6/2 148/6/2 159/6/2
f 158/2/2 154/2/2 159/2/2
f 159/6/2 148/6/2 160/6/2
f 161/4/2 162/4/2 165/4/2
f 163/4/2 164/4/2 166/4/2
f 161/4/2 165/4/2 167/4/2
f 167/4/2 165/4/2 168/4/2
f 166/4/2 164/4/2 169/4/2
f 169/4/2 164/4/2 170/4/2
f 171/1/2 172/1/2 177/1/2
f 177/1/2 172/1/2 178/1/2
f 173/11/2 174/11/2 179/11/2
f 179/11/2 174/11/2 180/11/2
f 180/11/2 174/11/2 181/11/2
f 175/1/2 176/1/2 182/1/2
f 182/1/2 176/1/2 183/1/2
f 179/5/2 180/5/2 184/5/2
f 180/9/2 181/9/2 185/9/2
f 184/5/2 180/5/2 185/5/2
f 185/9/2 181/9/2 186/9/2
f 184/7/2 185/7/2 187/7/2
f 185/8/2 186/8/2 188/8/2
f 187/7/2 185/7/2 188/7/2
f 188/8/2 186/8/2 189/8/2
f 190/1/2 191/1/2 192/1/2
f 192/1/2 191/1/2 193/1/2
f 190/1/2 192/1/2 194/1/2
f 194/1/2 192/1/2 195/1/2
f 193/1/2 191/1/2 196/1/2
f 196/1/2 191/1/2 197/1/2
f 190/1/2 194/1/2 198/1/2
f 194/13/2 195/13/2 199/13/2
f 198/1/2 194/1/2 199/1/2
f 195/1/2 196/1/2 200/1/2
f 199/13/2 195/13/2 200/13/2
f 196/13/2 197/13/2 201/13/2
f 200/1/2 196/1/2 201/1/2
f 197/1/2 191/1/2 202/1/2
f 201/13/2 197/13/2 202/13/2
f 202/1/2 191/1/2 203/1/2
f 200/1/2 201/1/2 204/1/2
f 198/4/2 199/4/2 204/4/2
f 199/1/2 200/1/2 204/1/2
f 201/1/2 202/1/2 204/1/2
f 202/4/2 203/4/2 205/4/2
f 204/1/2 202/1/2 205/1/2
f 198/4/2 204/4/2 206/4/2
f 204/4/2 205/4/2 206/4/2
f 205/4/2 203/4/2 207/4/2
f 206/4/2 205/4/2 207/4/2
f 208/1/2 209/1/2 210/1/2
f 210/1/2 209/1/2 211/1/2
f 216/4/3 213/4/3 212/4/3
f 217/4/3 213/4/3 216/4/3
f 218/6/3 215/6/3 214/6/3
f 219/6/3 215/6/3 218/6/3
f 220/6/3 215/6/3 219/6/3
f 221/4/3 216/4/3 212/4/3
f 222/4/3 213/4/3 217/4/3
f 223/4/3 221/4/3 212/4/3
f 223/4/3 222/4/3 221/4/3
f 224/4/3 213/4/3 222/4/3
f 224/4/3 222/4/3 223/4/3
f 225/1/3 219/1/3 218/1/3
f 226/1/3 219/1/3 225/1/3
f 229/12/3 228/12/3 227/12/3
f 230/12/3 228/12/3 229/12/3
f 233/12/3 228/12/3 230/12/3
f 234/12/3 228/12/3 233/12/3
f 239/4/3 232/4/3 231/4/3
f 240/4/3 232/4/3 239/4/3
f 241/6/3 234/6/3 233/6/3
f 242/6/3 236/6/3 235/6/3
f 243/6/3 236/6/3 242/6/3
f 244/2/3 237/2/3 236/2/3
f 244/6/3 236/6/3 243/6/3
f 245/6/3 238/6/3 237/6/3
f 245/2/3 237/2/3 244/2/3
f 246/6/3 238/6/3 245/6/3
f 247/4/3 239/4/3 231/4/3
f 248/4/3 239/4/3 247/4/3
f 251/6/3 241/6/3 233/6/3
f 251/6/3 243/6/3 242/6/3
f 251/6/3 242/6/3 241/6/3
f 252/6/3 243/6/3 251/6/3
f 253/1/3 244/1/3 243/1/3
f 253/6/3 243/6/3 252/6/3
f 253/1/3 245/1/3 244/1/3
f 254/1/3 245/1/3 253/1/3
f 255/1/3 245/1/3 254/1/3
f 258/4/3 250/4/3 249/4/3
f 259/4/3 250/4/3 258/4/3
f 260/6/3 253/6/3 252/6/3
f 260/6/3 254/6/3 253/6/3
f 261/2/3 255/2/3 254/2/3
f 261/6/3 254/6/3 260/6/3
f 262/2/3 255/2/3 261/2/3
f 263/6/3 257/6/3 256/6/3
f 264/6/3 257/6/3 263/6/3
f 265/1/3 248/1/3 247/1/3
f 267/4/3 232/4/3 240/4/3
f 268/1/3 266/1/3 265/1/3
f 268/1/3 265/1/3 247/1/3
f 269/4/3 267/4/3 266/4/3
f 269/1/3 266/1/3 268/1/3
f 270/4/3 232/4/3 267/4/3
f 270/4/3 267/4/3 269/4/3
f 276/2/3 272/2/3 271/2/3
f 277/4/3 273/4/3 272/4/3
f 277/2/3 272/2/3 276/2/3
f 278/9/3 274/9/3 273/9/3
f 278/4/3 273/4/3 277/4/3
f 279/9/3 274/9/3 278/9/3
f 280/2/3 277/2/3 276/2/3
f 280/2/3 276/2/3 275/2/3
f 280/2/3 279/2/3 278/2/3
f 280/2/3 278/2/3 277/2/3
f 281/2/3 279/2/3 280/2/3
f 282/2/3 279/2/3 281/2/3
f 287/11/3 284/11/3 283/11/3
f 288/5/3 285/5/3 284/5/3
f 288/11/3 284/11/3 287/11/3
f 289/7/3 286/7/3 285/7/3
f 289/5/3 285/5/3 288/5/3
f 290/7/3 286/7/3 289/7/3
f 293/1/3 292/1/3 291/1/3
f 294/1/3 292/1/3 293/1/3
f 297/1/3 296/1/3 295/1/3
f 298/1/3 296/1/3 297/1/3
f 301/12/3 300/12/3 299/12/3
f 302/12/3 300/12/3 301/12/3
f 305/12/3 300/12/3 302/12/3
f 306/12/3 300/12/3 305/12/3
f 307/2/3 304/2/3 303/2/3
f 308/2/3 304/2/3 307/2/3
f 309/6/3 306/6/3 305/6/3
f 311/6/3 309/6/3 305/6/3
f 311/6/3 310/6/3 309/6/3
f 312/6/3 310/6/3 311/6/3
f 313/6/3 310/6/3 312/6/3
f 314/6/3 310/6/3 313/6/3
f 317/1/3 316/1/3 315/1/3
f 318/1/3 316/1/3 317/1/3
f 319/1/4 320/1/4 321/1/4
f 321/1/4 320/1/4 322/1/4
f 323/12/4 324/12/4 325/12/4
f 325/12/4 324/12/4 326/12/4
f 326/12/4 324/12/4 329/12/4
f 329/12/4 324/12/4 330/12/4
f 327/2/4 328/2/4 331/2/4
f 331/2/4 328/2/4 332/2/4
f 329/6/4 330/6/4 333/6/4
f 329/6/4 333/6/4 335/6/4
f 333/6/4 334/6/4 335/6/4
f 335/6/4 334/6/4 336/6/4
f 336/6/4 334/6/4 337/6/4
f 337/6/4 334/6/4 338/6/4
f 339/1/4 340/1/4 341/1/4
f 341/1/4 340/1/4 342/1/4
f 343/1/4 344/1/4 345/1/4
f 345/1/4 344/1/4 346/1/4
f 347/2/4 348/2/4 353/2/4
f 348/7/4 349/7/4 354/7/4
f 353/2/4 348/2/4 354/2/4
f 349/3/4 350/3/4 355/3/4
f 354/7/4 349/7/4 355/7/4
f 350/5/4 351/5/4 356/5/4
f 355/3/4 350/3/4 356/3/4
f 356/5/4 351/5/4 357/5/4
f 354/2/4 355/2/4 360/2/4
f 352/2/4 353/2/4 360/2/4
f 356/2/4 357/2/4 360/2/4
f 355/2/4 356/2/4 360/2/4
f 353/2/4 354/2/4 360/2/4
f 360/2/4 357/2/4 361/2/4
f 361/2/4 357/2/4 362/2/4
f 358/4/4 359/4/4 363/4/4
f 363/4/4 359/4/4 364/4/4
f 365/11/4 366/11/4 369/11/4
f 366/9/4 367/9/4 370/9/4
f 369/11/4 366/11/4 370/11/4
f 367/8/4 368/8/4 371/8/4
f 370/9/4 367/9/4 371/9/4
f 371/8/4 368/8/4 372/8/4
f 373/12/4 374/12/4 375/12/4
f 375/12/4 374/12/4 376/12/4
f 376/12/4 374/12/4 379/12/4
f 379/12/4 374/12/4 380/12/4
f 377/4/4 378/4/4 386/4/4
f 386/4/4 378/4/4 387/4/4
f 379/6/4 380/6/4 388/6/4
f 381/6/4 382/6/4 389/6/4
f 389/6/4 382/6/4 390/6/4
f 382/2/4 383/2/4 391/2/4
f 390/6/4 382/6/4 391/6/4
f 383/6/4 384/6/4 392/6/4
f 391/2/4 383/2/4 392/2/4
f 392/6/4 384/6/4 393/6/4
f 385/4/4 386/4/4 394/4/4
f 394/4/4 386/4/4 395/4/4
f 379/6/4 388/6/4 398/6/4
f 389/6/4 390/6/4 398/6/4
f 388/6/4 389/6/4 398/6/4
f 398/6/4 390/6/4 399/6/4
f 390/1/4 391/1/4 400/1/4
f 399/6/4 390/6/4 400/6/4
f 391/1/4 392/1/4 400/1/4
f 400/1/4 392/1/4 401/1/4
f 401/1/4 392/1/4 402/1/4
f 396/4/4 397/4/4 405/4/4
f 405/4/4 397/4/4 406/4/4
f 399/6/4 400/6/4 407/6/4
f 400/6/4 401/6/4 407/6/4
f 401/2/4 402/2/4 408/2/4
f 407/6/4 401/6/4 408/6/4
f 408/2/4 402/2/4 409/2/4
f 403/6/4 404/6/4 410/6/4
f 410/6/4 404/6/4 411/6/4
f 394/1/4 395/1/4 412/1/4
f 387/4/4 378/4/4 414/4/4
f 412/1/4 413/1/4 415/1/4
f 394/1/4 412/1/4 415/1/4
f 413/4/4 414/4/4 416/4/4
f 415/1/4 413/1/4 416/1/4
f 414/4/4 378/4/4 417/4/4
f 416/4/4 414/4/4 417/4/4
f 418/4/4 419/4/4 422/4/4
f 422/4/4 419/4/4 423/4/4
f 420/6/4 421/6/4 424/6/4
f 424/6/4 421/6/4 425/6/4
f 425/6/4 421/6/4 426/6/4
f 418/4/4 422/4/4 427/4/4
f 423/4/4 419/4/4 428/4/4
f 418/4/4 427/4/4 429/4/4
f 427/4/4 428/4/4 429/4/4
f 428/4/4 419/4/4 430/4/4
f 429/4/4 428/4/4 430/4/4
f 424/1/4 425/1/4 431/1/4
f 431/1/4 425/1/4 432/1/4
f 435/12/5 434/12/5 433/12/5
f 436/12/5 434/12/5 435/12/5
f 439/12/5 438/12/5 437/12/5
f 440/12/5 438/12/5 439/12/5
f 444/12/5 442/12/5 441/12/5
f 445/6/5 443/6/5 442/6/5
f 445/12/5 442/12/5 444/12/5
f 446/6/5 443/6/5 445/6/5
f 450/12/5 448/12/5 447/12/5
f 451/6/5 449/6/5 448/6/5
f 451/12/5 448/12/5 450/12/5
f 452/6/5 449/6/5 451/6/5
f 455/6/5 454/6/5 453/6/5
f 456/6/5 454/6/5 455/6/5
f 459/6/5 458/6/5 457/6/5
f 460/6/5 458/6/5 459/6/5
f 463/6/5 462/6/5 461/6/5
f 465/6/5 463/6/5 461/6/5
f 465/6/5 464/6/5 463/6/5
f 466/6/5 464/6/5 465/6/5
f 467/6/5 465/6/5 461/6/5
f 468/6/5 465/6/5 467/6/5
f 471/2/5 470/2/5 469/2/5
f 472/2/5 470/2/5 471/2/5
f 475/2/5 474/2/5 473/2/5
f 476/2/5 474/2/5 475/2/5
f 480/6/5 478/6/5 477/6/5
f 481/1/5 479/1/5 478/1/5
f 481/6/5 478/6/5 480/6/5
f 482/1/5 479/1/5 481/1/5
f 483/1/5 479/1/5 482/1/5
f 488/2/5 485/2/5 484/2/5
f 490/2/5 488/2/5 484/2/5
f 490/2/5 489/2/5 488/2/5
f 491/2/5 489/2/5 490/2/5
f 492/2/5 490/2/5 484/2/5
f 493/2/5 490/2/5 492/2/5
f 494/11/5 487/11/5 486/11/5
f 495/11/5 487/11/5 494/11/5
f 500/6/5 497/6/5 496/6/5
f 501/1/5 499/1/5 498/1/5
f 501/6/5 497/6/5 500/6/5
f 501/1/5 498/1/5 497/1/5
f 502/1/5 499/1/5 501/1/5
f 506/4/5 504/4/5 503/4/5
f 506/1/5 505/1/5 504/1/5
f 507/1/5 505/1/5 506/1/5
f 508/4/5 506/4/5 503/4/5
f 509/1/5 505/1/5 507/1/5
f 510/4/5 508/4/5 503/4/5
f 511/4/5 508/4/5 510/4/5
f 512/4/5 508/4/5 511/4/5
f 513/1/5 509/1/5 508/1/5
f 513/4/5 508/4/5 512/4/5
f 514/1/5 505/1/5 509/1/5
f 514/1/5 509/1/5 513/1/5
f 517/4/5 516/4/5 515/4/5
f 518/4/5 516/4/5 517/4/5
f 519/4/5 516/4/5 518/4/5
f 522/1/5 521/1/5 520/1/5
f 523/1/5 521/1/5 522/1/5
f 526/4/5 525/4/5 524/4/5
f 527/4/5 525/4/5 526/4/5
f 530/4/5 529/4/5 528/4/5
f 530/4/5 528/4/5 527/4/5
f 531/4/5 529/4/5 530/4/5
f 534/4/5 533/4/5 532/4/5
f 535/4/5 533/4/5 534/4/5
f 538/4/5 537/4/5 536/4/5
f 539/4/5 537/4/5 538/4/5
f 540/12/6 541/12/6 543/12/6
f 541/6/6 542/6/6 544/6/6
f 543/12/6 541/12/6 544/12/6
f 544/6/6 542/6/6 545/6/6
f 546/12/6 547/12/6 549/12/6
f 547/6/6 548/6/6 550/6/6
f 549/12/6 547/12/6 550/12/6
f 550/6/6 548/6/6 551/6/6
f 552/1/6 553/1/6 554/1/6
f 554/1/6 553/1/6 555/1/6
f 555/1/6 553/1/6 556/1/6
f 557/1/6 558/1/6 560/1/6
f 558/1/6 559/1/6 560/1/6
f 560/1/6 559/1/6 561/1/6
f 562/7/6 563/7/6 564/7/6
f 564/7/6 563/7/6 565/7/6
f 564/8/6 565/8/6 566/8/6
f 566/8/6 565/8/6 567/8/6
f 567/8/6 565/8/6 568/8/6
f 569/6/6 570/6/6 572/6/6
f 572/6/6 570/6/6 573/6/6
f 571/6/6 572/6/6 577/6/6
f 572/6/6 573/6/6 577/6/6
f 573/6/6 574/6/6 577/6/6
f 577/6/6 574/6/6 578/6/6
f 576/2/6 577/2/6 579/2/6
f 577/2/6 578/2/6 579/2/6
f 579/2/6 578/2/6 580/2/6
f 580/2/6 578/2/6 581/2/6
f 581/2/6 578/2/6 582/2/6
f 575/9/6 576/9/6 583/9/6
f 576/2/6 579/2/6 584/2/6
f 583/9/6 576/9/6 584/9/6
f 579/6/6 580/6/6 585/6/6
f 584/2/6 579/2/6 585/2/6
f 585/6/6 580/6/6 586/6/6
f 581/6/6 582/6/6 587/6/6
f 587/6/6 582/6/6 588/6/6
f 583/5/6 584/5/6 589/5/6
f 585/2/6 586/2/6 590/2/6
f 589/5/6 584/5/6 590/5/6
f 584/2/6 585/2/6 590/2/6
f 587/2/6 588/2/6 590/2/6
f 586/2/6 587/2/6 590/2/6
f 590/2/6 588/2/6 591/2/6
f 591/2/6 588/2/6 592/2/6
f 591/6/6 592/6/6 593/6/6
f 593/6/6 592/6/6 594/6/6
f 594/6/6 592/6/6 595/6/6
f 595/6/6 592/6/6 596/6/6
f 594/6/6 595/6/6 597/6/6
f 597/6/6 595/6/6 598/6/6
f 599/4/6 600/4/6 601/4/6
f 601/4/6 600/4/6 602/4/6
f 603/1/6 604/1/6 605/1/6
f 605/1/6 604/1/6 606/1/6
f 607/4/6 608/4/6 609/4/6
f 609/4/6 608/4/6 610/4/6
f 611/4/6 612/4/6 613/4/6
f 613/4/6 612/4/6 614/4/6
f 615/4/6 616/4/6 617/4/6
f 617/4/6 616/4/6 618/4/6
f 619/4/6 620/4/6 621/4/6
f 621/4/6 620/4/6 622/4/6
