# MagicaVoxel @ Ephtracy

# group
g Female2.1

# material
mtllib Female2.1.mtl
usemtl palette

# normals
vn -1 0 0
vn 1 0 0
vn 0 0 1
vn 0 0 -1
vn 0 -1 0
vn 0 1 0

# texcoords
vt 0.0332031 0.5
vt 0.0371094 0.5
vt 0.0449219 0.5
vt 0.0917969 0.5
vt 0.279297 0.5
vt 0.306641 0.5
vt 0.892578 0.5
vt 0.958984 0.5
vt 0.962891 0.5
vt 0.966797 0.5
vt 0.978516 0.5
vt 0.982422 0.5
vt 0.994141 0.5

# verts
v -4 9 1
v -4 9 -2
v -4 10 1
v -4 10 -1
v -4 10 -2
v -4 11 1
v -4 11 -1
v -4 11 -2
v -4 12 -1
v -4 12 -2
v -4 13 1
v -4 13 -1
v -4 13 -2
v -3 8 1
v -3 8 -0
v -3 8 -1
v -3 8 -2
v -3 9 1
v -3 9 -0
v -3 9 -1
v -3 9 -2
v -3 14 2
v -3 14 -2
v -3 15 -2
v -3 15 -3
v -3 19 2
v -3 19 -3
v -2 0 2
v -2 0 -0
v -2 0 -1
v -2 0 -3
v -2 2 2
v -2 2 -0
v -2 2 -1
v -2 2 -3
v -2 4 2
v -2 4 -0
v -2 4 -1
v -2 4 -3
v -2 6 2
v -2 6 -3
v -2 8 2
v -2 8 1
v -2 8 -0
v -2 8 -1
v -2 8 -2
v -2 8 -3
v -2 9 2
v -2 9 1
v -2 9 -0
v -2 9 -1
v -2 9 -2
v -2 9 -3
v -2 13 2
v -2 13 1
v -2 13 -2
v -2 13 -3
v -2 14 -2
v -2 14 -3
v -2 15 3
v -2 15 2
v -2 15 -2
v -2 15 -3
v -2 15 -4
v -2 18 3
v -2 18 2
v -2 18 -3
v -2 18 -4
v -1 4 2
v -1 4 -0
v -1 4 -1
v -1 4 -3
v -1 6 2
v -1 6 -0
v -1 6 -1
v -1 6 -3
v -1 7 3
v -1 7 2
v -1 7 -3
v -1 7 -4
v -1 8 2
v -1 8 -3
v -1 9 3
v -1 9 2
v -1 9 -3
v -1 9 -4
v -1 13 3
v -1 13 2
v -1 13 -0
v -1 13 -1
v -1 13 -3
v -1 13 -4
v -1 14 -0
v -1 14 -1
v 0 16 3
v 0 16 2
v 0 16 -3
v 0 16 -4
v 0 17 3
v 0 17 2
v 0 17 -3
v 0 17 -4
v -1 16 3
v -1 16 2
v -1 16 -3
v -1 16 -4
v -1 17 3
v -1 17 2
v -1 17 -3
v -1 17 -4
v 0 1 2
v 0 1 -0
v 0 1 -1
v 0 1 -3
v 0 2 2
v 0 2 -0
v 0 2 -1
v 0 2 -3
v 0 4 2
v 0 4 -0
v 0 4 -1
v 0 4 -3
v 0 7 3
v 0 7 2
v 0 7 -3
v 0 7 -4
v 0 8 2
v 0 8 -3
v 0 9 3
v 0 9 2
v 0 9 -3
v 0 9 -4
v 0 13 3
v 0 13 2
v 0 13 -0
v 0 13 -1
v 0 13 -3
v 0 13 -4
v 0 14 -0
v 0 14 -1
v 1 0 2
v 1 0 -0
v 1 0 -1
v 1 0 -3
v 1 1 2
v 1 1 -0
v 1 1 -1
v 1 1 -3
v 1 4 2
v 1 4 -0
v 1 4 -1
v 1 4 -3
v 1 6 -0
v 1 6 -1
v 1 7 1
v 1 7 -2
v 1 8 2
v 1 8 1
v 1 8 -2
v 1 8 -3
v 1 9 2
v 1 9 1
v 1 9 -2
v 1 9 -3
v 1 10 1
v 1 10 -2
v 1 11 1
v 1 11 -2
v 1 12 1
v 1 12 -0
v 1 12 -1
v 1 12 -2
v 1 13 2
v 1 13 1
v 1 13 -0
v 1 13 -1
v 1 13 -2
v 1 13 -3
v 1 15 3
v 1 15 2
v 1 15 -3
v 1 15 -4
v 1 17 2
v 1 17 -3
v 1 18 3
v 1 18 2
v 1 18 -3
v 1 18 -4
v 2 9 1
v 2 9 -2
v 2 10 1
v 2 10 -0
v 2 10 -2
v 2 11 1
v 2 11 -0
v 2 11 -2
v 2 12 1
v 2 12 -0
v 2 12 -2
v 2 14 2
v 2 14 -3
v 2 15 -0
v 2 15 -1
v 2 16 1
v 2 16 -0
v 2 16 -1
v 2 16 -2
v 2 17 2
v 2 17 1
v 2 17 -0
v 2 17 -1
v 2 17 -2
v 2 17 -3
v 2 18 1
v 2 18 -2
v 2 19 2
v 2 19 -3
v 3 15 -0
v 3 15 -1
v 3 16 -0
v 3 16 -1
v -2 15 3
v -2 18 3
v -1 7 3
v -1 9 3
v -1 13 3
v -1 16 3
v -1 17 3
v 0 7 3
v 0 9 3
v 0 13 3
v 0 16 3
v 0 17 3
v 1 15 3
v 1 18 3
v -3 14 2
v -3 19 2
v -2 0 2
v -2 2 2
v -2 4 2
v -2 6 2
v -2 8 2
v -2 9 2
v -2 13 2
v -2 15 2
v -2 18 2
v -1 4 2
v -1 6 2
v -1 7 2
v -1 8 2
v -1 9 2
v -1 13 2
v -1 14 2
v -1 15 2
v -1 16 2
v -1 17 2
v 0 1 2
v 0 2 2
v 0 4 2
v 0 7 2
v 0 8 2
v 0 9 2
v 0 13 2
v 0 16 2
v 0 17 2
v 1 0 2
v 1 1 2
v 1 4 2
v 1 8 2
v 1 9 2
v 1 13 2
v 1 15 2
v 1 17 2
v 1 18 2
v 2 14 2
v 2 17 2
v 2 19 2
v -4 9 1
v -4 10 1
v -4 11 1
v -4 13 1
v -3 8 1
v -3 9 1
v -3 10 1
v -3 11 1
v -3 13 1
v -2 8 1
v -2 9 1
v -2 13 1
v 1 9 1
v 1 10 1
v 1 11 1
v 1 12 1
v 2 9 1
v 2 10 1
v 2 11 1
v 2 12 1
v -1 13 -0
v -1 14 -0
v 0 13 -0
v 0 14 -0
v 2 15 -0
v 2 16 -0
v 3 15 -0
v 3 16 -0
v -3 8 -1
v -3 9 -1
v -2 0 -1
v -2 2 -1
v -2 4 -1
v -2 8 -1
v -2 9 -1
v -1 4 -1
v -1 6 -1
v 0 1 -1
v 0 2 -1
v 0 4 -1
v 1 0 -1
v 1 1 -1
v 1 4 -1
v 1 6 -1
v -3 8 -0
v -3 9 -0
v -2 0 -0
v -2 2 -0
v -2 4 -0
v -2 8 -0
v -2 9 -0
v -1 4 -0
v -1 6 -0
v 0 1 -0
v 0 2 -0
v 0 4 -0
v 1 0 -0
v 1 1 -0
v 1 4 -0
v 1 6 -0
v -1 13 -1
v -1 14 -1
v 0 13 -1
v 0 14 -1
v 2 15 -1
v 2 16 -1
v 3 15 -1
v 3 16 -1
v -4 9 -2
v -4 10 -2
v -4 11 -2
v -4 12 -2
v -4 13 -2
v -3 8 -2
v -3 9 -2
v -3 10 -2
v -3 11 -2
v -3 12 -2
v -3 13 -2
v -3 14 -2
v -3 15 -2
v -2 8 -2
v -2 9 -2
v -2 13 -2
v -2 14 -2
v -2 15 -2
v 1 9 -2
v 1 10 -2
v 1 11 -2
v 1 12 -2
v 2 9 -2
v 2 10 -2
v 2 11 -2
v 2 12 -2
v -3 15 -3
v -3 19 -3
v -2 0 -3
v -2 2 -3
v -2 4 -3
v -2 6 -3
v -2 8 -3
v -2 9 -3
v -2 13 -3
v -2 14 -3
v -2 15 -3
v -2 18 -3
v -1 4 -3
v -1 6 -3
v -1 7 -3
v -1 8 -3
v -1 9 -3
v -1 13 -3
v -1 14 -3
v -1 15 -3
v -1 16 -3
v -1 17 -3
v 0 1 -3
v 0 2 -3
v 0 4 -3
v 0 7 -3
v 0 8 -3
v 0 9 -3
v 0 13 -3
v 0 16 -3
v 0 17 -3
v 1 0 -3
v 1 1 -3
v 1 4 -3
v 1 8 -3
v 1 9 -3
v 1 13 -3
v 1 15 -3
v 1 17 -3
v 1 18 -3
v 2 14 -3
v 2 17 -3
v 2 19 -3
v -2 15 -4
v -2 18 -4
v -1 7 -4
v -1 9 -4
v -1 13 -4
v -1 16 -4
v -1 17 -4
v 0 7 -4
v 0 9 -4
v 0 13 -4
v 0 16 -4
v 0 17 -4
v 1 15 -4
v 1 18 -4
v -2 0 2
v 1 0 2
v -2 0 -0
v 1 0 -0
v -2 0 -1
v 1 0 -1
v -2 0 -3
v 1 0 -3
v 0 4 2
v 1 4 2
v 0 4 -0
v 1 4 -0
v 0 4 -1
v 1 4 -1
v 0 4 -3
v 1 4 -3
v -2 6 2
v -1 6 2
v -1 6 -0
v 1 6 -0
v -1 6 -1
v 1 6 -1
v -2 6 -3
v -1 6 -3
v -1 7 3
v 0 7 3
v -1 7 2
v 0 7 2
v -1 7 -3
v 0 7 -3
v -1 7 -4
v 0 7 -4
v -3 8 1
v -2 8 1
v -3 8 -0
v -2 8 -0
v -3 8 -1
v -2 8 -1
v -3 8 -2
v -2 8 -2
v -4 9 1
v -3 9 1
v 1 9 1
v 2 9 1
v -3 9 -0
v -2 9 -0
v -3 9 -1
v -2 9 -1
v -4 9 -2
v -3 9 -2
v 1 9 -2
v 2 9 -2
v -3 14 2
v -1 14 2
v 2 14 2
v -1 14 -0
v 0 14 -0
v -1 14 -1
v 0 14 -1
v -3 14 -2
v -2 14 -2
v -2 14 -3
v -1 14 -3
v 2 14 -3
v -2 15 3
v 1 15 3
v -2 15 2
v -1 15 2
v 1 15 2
v 2 15 -0
v 3 15 -0
v 2 15 -1
v 3 15 -1
v -3 15 -2
v -2 15 -2
v -3 15 -3
v -2 15 -3
v -1 15 -3
v 1 15 -3
v -2 15 -4
v 1 15 -4
v -1 17 3
v 0 17 3
v -1 17 2
v 0 17 2
v -1 17 -3
v 0 17 -3
v -1 17 -4
v 0 17 -4
v 0 1 2
v 1 1 2
v 0 1 -0
v 1 1 -0
v 0 1 -1
v 1 1 -1
v 0 1 -3
v 1 1 -3
v -2 4 2
v -1 4 2
v -2 4 -0
v -1 4 -0
v -2 4 -1
v -1 4 -1
v -2 4 -3
v -1 4 -3
v 1 12 1
v 2 12 1
v 1 12 -0
v 2 12 -0
v 1 12 -1
v 1 12 -2
v 2 12 -2
v -1 13 3
v 0 13 3
v -2 13 2
v -1 13 2
v 0 13 2
v 1 13 2
v -4 13 1
v -3 13 1
v -2 13 1
v 1 13 1
v -2 13 -0
v -1 13 -0
v 0 13 -0
v 1 13 -0
v -4 13 -1
v -3 13 -1
v -2 13 -1
v -1 13 -1
v 0 13 -1
v 1 13 -1
v -4 13 -2
v -3 13 -2
v -2 13 -2
v 1 13 -2
v -2 13 -3
v -1 13 -3
v 0 13 -3
v 1 13 -3
v -1 13 -4
v 0 13 -4
v -1 16 3
v 0 16 3
v -1 16 2
v 0 16 2
v 2 16 -0
v 3 16 -0
v 2 16 -1
v 3 16 -1
v -1 16 -3
v 0 16 -3
v -1 16 -4
v 0 16 -4
v -2 18 3
v 1 18 3
v -2 18 2
v 1 18 2
v -2 18 -3
v 1 18 -3
v -2 18 -4
v 1 18 -4
v -3 19 2
v 2 19 2
v -3 19 -3
v 2 19 -3

# faces
f 3/2/1 2/2/1 1/2/1
f 4/2/1 2/2/1 3/2/1
f 5/2/1 2/2/1 4/2/1
f 6/4/1 4/4/1 3/4/1
f 7/7/1 5/7/1 4/7/1
f 7/4/1 4/4/1 6/4/1
f 8/7/1 5/7/1 7/7/1
f 9/9/1 7/9/1 6/9/1
f 9/3/1 8/3/1 7/3/1
f 10/3/1 8/3/1 9/3/1
f 11/9/1 9/9/1 6/9/1
f 12/5/1 10/5/1 9/5/1
f 12/9/1 9/9/1 11/9/1
f 13/5/1 10/5/1 12/5/1
f 18/2/1 15/2/1 14/2/1
f 19/2/1 15/2/1 18/2/1
f 20/2/1 17/2/1 16/2/1
f 21/2/1 17/2/1 20/2/1
f 24/4/1 23/4/1 22/4/1
f 26/4/1 24/4/1 22/4/1
f 26/4/1 25/4/1 24/4/1
f 27/4/1 25/4/1 26/4/1
f 32/12/1 29/12/1 28/12/1
f 33/12/1 29/12/1 32/12/1
f 34/12/1 31/12/1 30/12/1
f 35/12/1 31/12/1 34/12/1
f 36/6/1 33/6/1 32/6/1
f 37/6/1 33/6/1 36/6/1
f 38/6/1 35/6/1 34/6/1
f 39/6/1 35/6/1 38/6/1
f 42/6/1 41/6/1 40/6/1
f 43/6/1 41/6/1 42/6/1
f 44/6/1 41/6/1 43/6/1
f 45/6/1 41/6/1 44/6/1
f 46/6/1 41/6/1 45/6/1
f 47/6/1 41/6/1 46/6/1
f 48/2/1 43/2/1 42/2/1
f 49/2/1 43/2/1 48/2/1
f 50/2/1 45/2/1 44/2/1
f 51/2/1 45/2/1 50/2/1
f 52/2/1 47/2/1 46/2/1
f 53/2/1 47/2/1 52/2/1
f 54/6/1 49/6/1 48/6/1
f 55/6/1 49/6/1 54/6/1
f 56/6/1 53/6/1 52/6/1
f 57/6/1 53/6/1 56/6/1
f 62/4/1 59/4/1 58/4/1
f 63/4/1 59/4/1 62/4/1
f 65/4/1 61/4/1 60/4/1
f 66/4/1 61/4/1 65/4/1
f 67/4/1 64/4/1 63/4/1
f 68/4/1 64/4/1 67/4/1
f 73/6/1 70/6/1 69/6/1
f 74/6/1 70/6/1 73/6/1
f 75/6/1 72/6/1 71/6/1
f 76/6/1 72/6/1 75/6/1
f 81/1/1 78/1/1 77/1/1
f 82/1/1 80/1/1 79/1/1
f 83/1/1 81/1/1 77/1/1
f 84/1/1 81/1/1 83/1/1
f 85/1/1 80/1/1 82/1/1
f 86/1/1 80/1/1 85/1/1
f 87/6/1 84/6/1 83/6/1
f 88/6/1 84/6/1 87/6/1
f 91/6/1 86/6/1 85/6/1
f 92/6/1 86/6/1 91/6/1
f 93/1/1 90/1/1 89/1/1
f 94/1/1 90/1/1 93/1/1
f 99/4/1 96/4/1 95/4/1
f 100/4/1 96/4/1 99/4/1
f 101/4/1 98/4/1 97/4/1
f 102/4/1 98/4/1 101/4/1
f 103/4/2 104/4/2 107/4/2
f 107/4/2 104/4/2 108/4/2
f 105/4/2 106/4/2 109/4/2
f 109/4/2 106/4/2 110/4/2
f 111/12/2 112/12/2 115/12/2
f 115/12/2 112/12/2 116/12/2
f 113/12/2 114/12/2 117/12/2
f 117/12/2 114/12/2 118/12/2
f 115/6/2 116/6/2 119/6/2
f 119/6/2 116/6/2 120/6/2
f 117/6/2 118/6/2 121/6/2
f 121/6/2 118/6/2 122/6/2
f 123/1/2 124/1/2 127/1/2
f 125/1/2 126/1/2 128/1/2
f 123/1/2 127/1/2 129/1/2
f 129/1/2 127/1/2 130/1/2
f 128/1/2 126/1/2 131/1/2
f 131/1/2 126/1/2 132/1/2
f 129/6/2 130/6/2 133/6/2
f 133/6/2 130/6/2 134/6/2
f 131/6/2 132/6/2 137/6/2
f 137/6/2 132/6/2 138/6/2
f 135/1/2 136/1/2 139/1/2
f 139/1/2 136/1/2 140/1/2
f 141/12/2 142/12/2 145/12/2
f 145/12/2 142/12/2 146/12/2
f 143/12/2 144/12/2 147/12/2
f 147/12/2 144/12/2 148/12/2
f 149/6/2 150/6/2 153/6/2
f 151/6/2 152/6/2 154/6/2
f 149/6/2 153/6/2 155/6/2
f 153/6/2 154/6/2 155/6/2
f 154/6/2 152/6/2 156/6/2
f 155/6/2 154/6/2 156/6/2
f 149/6/2 155/6/2 157/6/2
f 155/2/2 156/2/2 158/2/2
f 157/6/2 155/6/2 158/6/2
f 156/6/2 152/6/2 159/6/2
f 158/2/2 156/2/2 159/2/2
f 159/6/2 152/6/2 160/6/2
f 157/2/2 158/2/2 161/2/2
f 158/2/2 159/2/2 161/2/2
f 159/2/2 160/2/2 161/2/2
f 161/2/2 160/2/2 162/2/2
f 162/2/2 160/2/2 163/2/2
f 163/2/2 160/2/2 164/2/2
f 161/6/2 162/6/2 165/6/2
f 163/6/2 164/6/2 166/6/2
f 161/6/2 165/6/2 167/6/2
f 166/6/2 164/6/2 168/6/2
f 161/6/2 167/6/2 169/6/2
f 168/6/2 164/6/2 172/6/2
f 161/6/2 169/6/2 173/6/2
f 169/2/2 170/2/2 174/2/2
f 173/6/2 169/6/2 174/6/2
f 170/6/2 171/6/2 175/6/2
f 174/2/2 170/2/2 175/2/2
f 171/2/2 172/2/2 176/2/2
f 175/6/2 171/6/2 176/6/2
f 172/6/2 164/6/2 177/6/2
f 176/2/2 172/2/2 177/2/2
f 177/6/2 164/6/2 178/6/2
f 179/4/2 180/4/2 183/4/2
f 181/4/2 182/4/2 184/4/2
f 179/4/2 183/4/2 185/4/2
f 185/4/2 183/4/2 186/4/2
f 184/4/2 182/4/2 187/4/2
f 187/4/2 182/4/2 188/4/2
f 189/11/2 190/11/2 191/11/2
f 191/11/2 190/11/2 192/11/2
f 192/11/2 190/11/2 193/11/2
f 191/5/2 192/5/2 194/5/2
f 192/9/2 193/9/2 195/9/2
f 194/5/2 192/5/2 195/5/2
f 195/9/2 193/9/2 196/9/2
f 194/7/2 195/7/2 197/7/2
f 195/8/2 196/8/2 198/8/2
f 197/7/2 195/7/2 198/7/2
f 198/8/2 196/8/2 199/8/2
f 200/1/2 201/1/2 202/1/2
f 202/1/2 201/1/2 203/1/2
f 200/1/2 202/1/2 204/1/2
f 204/1/2 202/1/2 205/1/2
f 203/1/2 201/1/2 206/1/2
f 206/1/2 201/1/2 207/1/2
f 200/1/2 204/1/2 208/1/2
f 204/13/2 205/13/2 209/13/2
f 208/1/2 204/1/2 209/1/2
f 205/1/2 206/1/2 210/1/2
f 209/13/2 205/13/2 210/13/2
f 206/13/2 207/13/2 211/13/2
f 210/1/2 206/1/2 211/1/2
f 207/1/2 201/1/2 212/1/2
f 211/13/2 207/13/2 212/13/2
f 212/1/2 201/1/2 213/1/2
f 210/1/2 211/1/2 214/1/2
f 208/4/2 209/4/2 214/4/2
f 209/1/2 210/1/2 214/1/2
f 211/1/2 212/1/2 214/1/2
f 212/4/2 213/4/2 215/4/2
f 214/1/2 212/1/2 215/1/2
f 208/4/2 214/4/2 216/4/2
f 214/4/2 215/4/2 216/4/2
f 215/4/2 213/4/2 217/4/2
f 216/4/2 215/4/2 217/4/2
f 218/1/2 219/1/2 220/1/2
f 220/1/2 219/1/2 221/1/2
f 227/4/3 223/4/3 222/4/3
f 228/4/3 223/4/3 227/4/3
f 229/1/3 225/1/3 224/1/3
f 230/6/3 226/6/3 225/6/3
f 230/1/3 225/1/3 229/1/3
f 231/6/3 226/6/3 230/6/3
f 232/4/3 227/4/3 222/4/3
f 233/4/3 223/4/3 228/4/3
f 234/4/3 232/4/3 222/4/3
f 234/4/3 233/4/3 232/4/3
f 235/4/3 223/4/3 233/4/3
f 235/4/3 233/4/3 234/4/3
f 245/4/3 237/4/3 236/4/3
f 246/4/3 237/4/3 245/4/3
f 247/6/3 240/6/3 239/6/3
f 248/6/3 242/6/3 241/6/3
f 249/6/3 242/6/3 248/6/3
f 250/2/3 243/2/3 242/2/3
f 250/6/3 242/6/3 249/6/3
f 251/6/3 244/6/3 243/6/3
f 251/2/3 243/2/3 250/2/3
f 252/6/3 244/6/3 251/6/3
f 253/4/3 245/4/3 236/4/3
f 254/4/3 245/4/3 253/4/3
f 257/12/3 239/12/3 238/12/3
f 258/6/3 247/6/3 239/6/3
f 258/12/3 239/12/3 257/12/3
f 258/6/3 249/6/3 248/6/3
f 258/6/3 248/6/3 247/6/3
f 259/6/3 249/6/3 258/6/3
f 260/6/3 249/6/3 259/6/3
f 264/4/3 256/4/3 255/4/3
f 265/4/3 256/4/3 264/4/3
f 266/12/3 257/12/3 238/12/3
f 267/12/3 257/12/3 266/12/3
f 268/6/3 260/6/3 259/6/3
f 268/6/3 261/6/3 260/6/3
f 269/2/3 262/2/3 261/2/3
f 269/6/3 261/6/3 268/6/3
f 270/6/3 263/6/3 262/6/3
f 270/2/3 262/2/3 269/2/3
f 271/6/3 263/6/3 270/6/3
f 272/1/3 254/1/3 253/1/3
f 274/4/3 237/4/3 246/4/3
f 275/1/3 273/1/3 272/1/3
f 275/1/3 272/1/3 253/1/3
f 276/4/3 274/4/3 273/4/3
f 276/1/3 273/1/3 275/1/3
f 277/4/3 237/4/3 274/4/3
f 277/4/3 274/4/3 276/4/3
f 283/2/3 279/2/3 278/2/3
f 284/4/3 280/4/3 279/4/3
f 284/2/3 279/2/3 283/2/3
f 285/9/3 281/9/3 280/9/3
f 285/4/3 280/4/3 284/4/3
f 286/9/3 281/9/3 285/9/3
f 287/2/3 284/2/3 283/2/3
f 287/2/3 283/2/3 282/2/3
f 287/2/3 286/2/3 285/2/3
f 287/2/3 285/2/3 284/2/3
f 288/2/3 286/2/3 287/2/3
f 289/2/3 286/2/3 288/2/3
f 294/11/3 291/11/3 290/11/3
f 295/5/3 292/5/3 291/5/3
f 295/11/3 291/11/3 294/11/3
f 296/7/3 293/7/3 292/7/3
f 296/5/3 292/5/3 295/5/3
f 297/7/3 293/7/3 296/7/3
f 300/1/3 299/1/3 298/1/3
f 301/1/3 299/1/3 300/1/3
f 304/1/3 303/1/3 302/1/3
f 305/1/3 303/1/3 304/1/3
f 311/2/3 307/2/3 306/2/3
f 312/2/3 307/2/3 311/2/3
f 313/6/3 310/6/3 309/6/3
f 315/12/3 309/12/3 308/12/3
f 316/6/3 314/6/3 313/6/3
f 316/12/3 309/12/3 315/12/3
f 316/6/3 313/6/3 309/6/3
f 317/6/3 314/6/3 316/6/3
f 318/12/3 315/12/3 308/12/3
f 319/12/3 315/12/3 318/12/3
f 320/6/3 314/6/3 317/6/3
f 321/6/3 314/6/3 320/6/3
f 322/2/4 323/2/4 327/2/4
f 327/2/4 323/2/4 328/2/4
f 325/6/4 326/6/4 329/6/4
f 324/12/4 325/12/4 331/12/4
f 329/6/4 330/6/4 332/6/4
f 331/12/4 325/12/4 332/12/4
f 325/6/4 329/6/4 332/6/4
f 332/6/4 330/6/4 333/6/4
f 324/12/4 331/12/4 334/12/4
f 334/12/4 331/12/4 335/12/4
f 333/6/4 330/6/4 336/6/4
f 336/6/4 330/6/4 337/6/4
f 338/1/4 339/1/4 340/1/4
f 340/1/4 339/1/4 341/1/4
f 342/1/4 343/1/4 344/1/4
f 344/1/4 343/1/4 345/1/4
f 346/2/4 347/2/4 352/2/4
f 347/7/4 348/7/4 353/7/4
f 352/2/4 347/2/4 353/2/4
f 348/3/4 349/3/4 354/3/4
f 353/7/4 348/7/4 354/7/4
f 349/5/4 350/5/4 355/5/4
f 354/3/4 349/3/4 355/3/4
f 355/5/4 350/5/4 356/5/4
f 353/2/4 354/2/4 359/2/4
f 351/2/4 352/2/4 359/2/4
f 355/2/4 356/2/4 359/2/4
f 354/2/4 355/2/4 359/2/4
f 352/2/4 353/2/4 359/2/4
f 359/2/4 356/2/4 360/2/4
f 360/2/4 356/2/4 361/2/4
f 357/4/4 358/4/4 362/4/4
f 362/4/4 358/4/4 363/4/4
f 364/11/4 365/11/4 368/11/4
f 365/9/4 366/9/4 369/9/4
f 368/11/4 365/11/4 369/11/4
f 366/8/4 367/8/4 370/8/4
f 369/9/4 366/9/4 370/9/4
f 370/8/4 367/8/4 371/8/4
f 372/4/4 373/4/4 382/4/4
f 382/4/4 373/4/4 383/4/4
f 375/6/4 376/6/4 384/6/4
f 377/6/4 378/6/4 385/6/4
f 385/6/4 378/6/4 386/6/4
f 378/2/4 379/2/4 387/2/4
f 386/6/4 378/6/4 387/6/4
f 379/6/4 380/6/4 388/6/4
f 387/2/4 379/2/4 388/2/4
f 388/6/4 380/6/4 389/6/4
f 381/4/4 382/4/4 390/4/4
f 390/4/4 382/4/4 391/4/4
f 374/12/4 375/12/4 394/12/4
f 375/6/4 384/6/4 395/6/4
f 394/12/4 375/12/4 395/12/4
f 385/6/4 386/6/4 395/6/4
f 384/6/4 385/6/4 395/6/4
f 395/6/4 386/6/4 396/6/4
f 396/6/4 386/6/4 397/6/4
f 392/4/4 393/4/4 401/4/4
f 401/4/4 393/4/4 402/4/4
f 374/12/4 394/12/4 403/12/4
f 403/12/4 394/12/4 404/12/4
f 396/6/4 397/6/4 405/6/4
f 397/6/4 398/6/4 405/6/4
f 398/2/4 399/2/4 406/2/4
f 405/6/4 398/6/4 406/6/4
f 399/6/4 400/6/4 407/6/4
f 406/2/4 399/2/4 407/2/4
f 407/6/4 400/6/4 408/6/4
f 390/1/4 391/1/4 409/1/4
f 383/4/4 373/4/4 411/4/4
f 409/1/4 410/1/4 412/1/4
f 390/1/4 409/1/4 412/1/4
f 410/4/4 411/4/4 413/4/4
f 412/1/4 410/1/4 413/1/4
f 411/4/4 373/4/4 414/4/4
f 413/4/4 411/4/4 414/4/4
f 415/4/4 416/4/4 420/4/4
f 420/4/4 416/4/4 421/4/4
f 417/1/4 418/1/4 422/1/4
f 418/6/4 419/6/4 423/6/4
f 422/1/4 418/1/4 423/1/4
f 423/6/4 419/6/4 424/6/4
f 415/4/4 420/4/4 425/4/4
f 421/4/4 416/4/4 426/4/4
f 415/4/4 425/4/4 427/4/4
f 425/4/4 426/4/4 427/4/4
f 426/4/4 416/4/4 428/4/4
f 427/4/4 426/4/4 428/4/4
f 431/12/5 430/12/5 429/12/5
f 432/12/5 430/12/5 431/12/5
f 435/12/5 434/12/5 433/12/5
f 436/12/5 434/12/5 435/12/5
f 439/6/5 438/6/5 437/6/5
f 440/6/5 438/6/5 439/6/5
f 443/6/5 442/6/5 441/6/5
f 444/6/5 442/6/5 443/6/5
f 447/6/5 446/6/5 445/6/5
f 449/6/5 447/6/5 445/6/5
f 449/6/5 448/6/5 447/6/5
f 450/6/5 448/6/5 449/6/5
f 451/6/5 449/6/5 445/6/5
f 452/6/5 449/6/5 451/6/5
f 455/1/5 454/1/5 453/1/5
f 456/1/5 454/1/5 455/1/5
f 459/1/5 458/1/5 457/1/5
f 460/1/5 458/1/5 459/1/5
f 463/2/5 462/2/5 461/2/5
f 464/2/5 462/2/5 463/2/5
f 467/2/5 466/2/5 465/2/5
f 468/2/5 466/2/5 467/2/5
f 473/2/5 470/2/5 469/2/5
f 475/2/5 473/2/5 469/2/5
f 475/2/5 474/2/5 473/2/5
f 476/2/5 474/2/5 475/2/5
f 477/2/5 475/2/5 469/2/5
f 478/2/5 475/2/5 477/2/5
f 479/11/5 472/11/5 471/11/5
f 480/11/5 472/11/5 479/11/5
f 484/4/5 482/4/5 481/4/5
f 484/1/5 483/1/5 482/1/5
f 485/1/5 483/1/5 484/1/5
f 486/4/5 484/4/5 481/4/5
f 487/1/5 483/1/5 485/1/5
f 488/4/5 486/4/5 481/4/5
f 489/4/5 486/4/5 488/4/5
f 490/4/5 486/4/5 489/4/5
f 491/1/5 487/1/5 486/1/5
f 491/4/5 486/4/5 490/4/5
f 492/1/5 483/1/5 487/1/5
f 492/1/5 487/1/5 491/1/5
f 495/4/5 494/4/5 493/4/5
f 496/4/5 494/4/5 495/4/5
f 497/4/5 494/4/5 496/4/5
f 500/1/5 499/1/5 498/1/5
f 501/1/5 499/1/5 500/1/5
f 504/4/5 503/4/5 502/4/5
f 505/4/5 503/4/5 504/4/5
f 508/4/5 507/4/5 506/4/5
f 508/4/5 506/4/5 505/4/5
f 509/4/5 507/4/5 508/4/5
f 512/4/5 511/4/5 510/4/5
f 513/4/5 511/4/5 512/4/5
f 516/4/5 515/4/5 514/4/5
f 517/4/5 515/4/5 516/4/5
f 518/12/6 519/12/6 520/12/6
f 520/12/6 519/12/6 521/12/6
f 522/12/6 523/12/6 524/12/6
f 524/12/6 523/12/6 525/12/6
f 526/6/6 527/6/6 528/6/6
f 528/6/6 527/6/6 529/6/6
f 530/6/6 531/6/6 532/6/6
f 532/6/6 531/6/6 533/6/6
f 534/7/6 535/7/6 536/7/6
f 536/7/6 535/7/6 537/7/6
f 536/8/6 537/8/6 538/8/6
f 538/8/6 537/8/6 539/8/6
f 539/8/6 537/8/6 540/8/6
f 541/6/6 542/6/6 544/6/6
f 544/6/6 542/6/6 545/6/6
f 543/6/6 544/6/6 549/6/6
f 544/6/6 545/6/6 549/6/6
f 545/6/6 546/6/6 549/6/6
f 549/6/6 546/6/6 550/6/6
f 548/2/6 549/2/6 551/2/6
f 549/2/6 550/2/6 551/2/6
f 551/2/6 550/2/6 552/2/6
f 552/2/6 550/2/6 553/2/6
f 553/2/6 550/2/6 554/2/6
f 547/9/6 548/9/6 555/9/6
f 548/2/6 551/2/6 556/2/6
f 555/9/6 548/9/6 556/9/6
f 551/6/6 552/6/6 557/6/6
f 556/2/6 551/2/6 557/2/6
f 557/6/6 552/6/6 558/6/6
f 553/6/6 554/6/6 559/6/6
f 559/6/6 554/6/6 560/6/6
f 555/5/6 556/5/6 561/5/6
f 557/2/6 558/2/6 562/2/6
f 561/5/6 556/5/6 562/5/6
f 556/2/6 557/2/6 562/2/6
f 559/2/6 560/2/6 562/2/6
f 558/2/6 559/2/6 562/2/6
f 562/2/6 560/2/6 563/2/6
f 563/2/6 560/2/6 564/2/6
f 563/6/6 564/6/6 565/6/6
f 565/6/6 564/6/6 566/6/6
f 566/6/6 564/6/6 567/6/6
f 567/6/6 564/6/6 568/6/6
f 566/6/6 567/6/6 569/6/6
f 569/6/6 567/6/6 570/6/6
f 571/4/6 572/4/6 573/4/6
f 573/4/6 572/4/6 574/4/6
f 575/1/6 576/1/6 577/1/6
f 577/1/6 576/1/6 578/1/6
f 579/4/6 580/4/6 581/4/6
f 581/4/6 580/4/6 582/4/6
f 583/4/6 584/4/6 585/4/6
f 585/4/6 584/4/6 586/4/6
f 587/4/6 588/4/6 589/4/6
f 589/4/6 588/4/6 590/4/6
f 591/4/6 592/4/6 593/4/6
f 593/4/6 592/4/6 594/4/6
