# MagicaVoxel @ Ephtracy

# group
g Female1.1

# material
mtllib Female1.1.mtl
usemtl palette

# normals
vn -1 0 0
vn 1 0 0
vn 0 0 1
vn 0 0 -1
vn 0 -1 0
vn 0 1 0

# texcoords
vt 0.0332031 0.5
vt 0.0371094 0.5
vt 0.0449219 0.5
vt 0.0917969 0.5
vt 0.279297 0.5
vt 0.306641 0.5
vt 0.560547 0.5
vt 0.892578 0.5
vt 0.958984 0.5
vt 0.962891 0.5
vt 0.966797 0.5
vt 0.978516 0.5
vt 0.982422 0.5
vt 0.994141 0.5

# verts
v -4 9 1
v -4 9 -2
v -4 10 1
v -4 10 -1
v -4 10 -2
v -4 11 1
v -4 11 -1
v -4 11 -2
v -4 12 -1
v -4 12 -2
v -4 13 1
v -4 13 -1
v -4 13 -2
v -3 8 1
v -3 8 -0
v -3 8 -1
v -3 8 -2
v -3 9 1
v -3 9 -0
v -3 9 -1
v -3 9 -2
v -3 15 1
v -3 15 -2
v -3 16 -0
v -3 16 -1
v -3 17 -0
v -3 17 -1
v -3 18 1
v -3 18 -2
v -2 0 2
v -2 0 -0
v -2 0 -1
v -2 0 -3
v -2 2 2
v -2 2 -0
v -2 2 -1
v -2 2 -3
v -2 4 2
v -2 4 -0
v -2 4 -1
v -2 4 -3
v -2 6 2
v -2 6 -3
v -2 8 2
v -2 8 1
v -2 8 -0
v -2 8 -1
v -2 8 -2
v -2 8 -3
v -2 9 2
v -2 9 1
v -2 9 -0
v -2 9 -1
v -2 9 -2
v -2 9 -3
v -2 13 2
v -2 13 1
v -2 13 -2
v -2 13 -3
v -2 14 2
v -2 14 -3
v -2 15 1
v -2 15 -2
v -2 16 -0
v -2 16 -1
v -2 17 -0
v -2 17 -1
v -2 18 1
v -2 18 -2
v -2 19 2
v -2 19 -3
v -1 4 2
v -1 4 -0
v -1 4 -1
v -1 4 -3
v -1 6 2
v -1 6 -0
v -1 6 -1
v -1 6 -3
v -1 7 3
v -1 7 2
v -1 7 -3
v -1 7 -4
v -1 8 2
v -1 8 -3
v -1 9 3
v -1 9 2
v -1 9 -3
v -1 9 -4
v -1 13 3
v -1 13 2
v -1 13 -0
v -1 13 -1
v -1 13 -3
v -1 13 -4
v -1 14 -0
v -1 14 -1
v 0 1 2
v 0 1 -0
v 0 1 -1
v 0 1 -3
v 0 2 2
v 0 2 -0
v 0 2 -1
v 0 2 -3
v 0 4 2
v 0 4 -0
v 0 4 -1
v 0 4 -3
v 0 7 3
v 0 7 2
v 0 7 -3
v 0 7 -4
v 0 8 2
v 0 8 -3
v 0 9 3
v 0 9 2
v 0 9 -3
v 0 9 -4
v 0 13 3
v 0 13 2
v 0 13 -0
v 0 13 -1
v 0 13 -3
v 0 13 -4
v 0 14 -0
v 0 14 -1
v 1 0 2
v 1 0 -0
v 1 0 -1
v 1 0 -3
v 1 1 2
v 1 1 -0
v 1 1 -1
v 1 1 -3
v 1 4 2
v 1 4 -0
v 1 4 -1
v 1 4 -3
v 1 6 -0
v 1 6 -1
v 1 7 1
v 1 7 -2
v 1 8 2
v 1 8 1
v 1 8 -2
v 1 8 -3
v 1 9 2
v 1 9 1
v 1 9 -2
v 1 9 -3
v 1 10 1
v 1 10 -2
v 1 11 1
v 1 11 -2
v 1 12 1
v 1 12 -0
v 1 12 -1
v 1 12 -2
v 1 13 2
v 1 13 1
v 1 13 -0
v 1 13 -1
v 1 13 -2
v 1 13 -3
v 2 9 1
v 2 9 -2
v 2 10 1
v 2 10 -0
v 2 10 -2
v 2 11 1
v 2 11 -0
v 2 11 -2
v 2 12 1
v 2 12 -0
v 2 12 -2
v 2 14 2
v 2 14 -3
v 2 15 -0
v 2 15 -1
v 2 16 1
v 2 16 -0
v 2 16 -1
v 2 16 -2
v 2 17 2
v 2 17 1
v 2 17 -0
v 2 17 -1
v 2 17 -2
v 2 17 -3
v 2 18 1
v 2 18 -2
v 2 19 2
v 2 19 -3
v 3 15 -0
v 3 15 -1
v 3 16 -0
v 3 16 -1
v -1 7 3
v -1 9 3
v -1 13 3
v 0 7 3
v 0 9 3
v 0 13 3
v -2 0 2
v -2 2 2
v -2 4 2
v -2 6 2
v -2 8 2
v -2 9 2
v -2 13 2
v -2 14 2
v -2 19 2
v -1 4 2
v -1 6 2
v -1 7 2
v -1 8 2
v -1 9 2
v -1 13 2
v -1 14 2
v -1 15 2
v 0 1 2
v 0 2 2
v 0 4 2
v 0 7 2
v 0 8 2
v 0 9 2
v 0 13 2
v 0 15 2
v 0 16 2
v 1 0 2
v 1 1 2
v 1 4 2
v 1 8 2
v 1 9 2
v 1 13 2
v 1 16 2
v 1 17 2
v 2 14 2
v 2 17 2
v 2 19 2
v -4 9 1
v -4 10 1
v -4 11 1
v -4 13 1
v -3 8 1
v -3 9 1
v -3 10 1
v -3 11 1
v -3 13 1
v -3 15 1
v -3 18 1
v -2 8 1
v -2 9 1
v -2 13 1
v -2 15 1
v -2 18 1
v 1 9 1
v 1 10 1
v 1 11 1
v 1 12 1
v 2 9 1
v 2 10 1
v 2 11 1
v 2 12 1
v -1 13 -0
v -1 14 -0
v 0 13 -0
v 0 14 -0
v 2 15 -0
v 2 16 -0
v 3 15 -0
v 3 16 -0
v -3 8 -1
v -3 9 -1
v -3 16 -1
v -3 17 -1
v -2 0 -1
v -2 2 -1
v -2 4 -1
v -2 8 -1
v -2 9 -1
v -2 16 -1
v -2 17 -1
v -1 4 -1
v -1 6 -1
v 0 1 -1
v 0 2 -1
v 0 4 -1
v 1 0 -1
v 1 1 -1
v 1 4 -1
v 1 6 -1
v -3 8 -0
v -3 9 -0
v -3 16 -0
v -3 17 -0
v -2 0 -0
v -2 2 -0
v -2 4 -0
v -2 8 -0
v -2 9 -0
v -2 16 -0
v -2 17 -0
v -1 4 -0
v -1 6 -0
v 0 1 -0
v 0 2 -0
v 0 4 -0
v 1 0 -0
v 1 1 -0
v 1 4 -0
v 1 6 -0
v -1 13 -1
v -1 14 -1
v 0 13 -1
v 0 14 -1
v 2 15 -1
v 2 16 -1
v 3 15 -1
v 3 16 -1
v -4 9 -2
v -4 10 -2
v -4 11 -2
v -4 12 -2
v -4 13 -2
v -3 8 -2
v -3 9 -2
v -3 10 -2
v -3 11 -2
v -3 12 -2
v -3 13 -2
v -3 15 -2
v -3 18 -2
v -2 8 -2
v -2 9 -2
v -2 13 -2
v -2 15 -2
v -2 18 -2
v 1 9 -2
v 1 10 -2
v 1 11 -2
v 1 12 -2
v 2 9 -2
v 2 10 -2
v 2 11 -2
v 2 12 -2
v -2 0 -3
v -2 2 -3
v -2 4 -3
v -2 6 -3
v -2 8 -3
v -2 9 -3
v -2 13 -3
v -2 14 -3
v -2 19 -3
v -1 4 -3
v -1 6 -3
v -1 7 -3
v -1 8 -3
v -1 9 -3
v -1 13 -3
v -1 14 -3
v -1 15 -3
v 0 1 -3
v 0 2 -3
v 0 4 -3
v 0 7 -3
v 0 8 -3
v 0 9 -3
v 0 13 -3
v 0 15 -3
v 0 16 -3
v 1 0 -3
v 1 1 -3
v 1 4 -3
v 1 8 -3
v 1 9 -3
v 1 13 -3
v 1 16 -3
v 1 17 -3
v 2 14 -3
v 2 17 -3
v 2 19 -3
v -1 7 -4
v -1 9 -4
v -1 13 -4
v 0 7 -4
v 0 9 -4
v 0 13 -4
v -2 0 2
v 1 0 2
v -2 0 -0
v 1 0 -0
v -2 0 -1
v 1 0 -1
v -2 0 -3
v 1 0 -3
v 0 4 2
v 1 4 2
v 0 4 -0
v 1 4 -0
v 0 4 -1
v 1 4 -1
v 0 4 -3
v 1 4 -3
v -2 6 2
v -1 6 2
v -1 6 -0
v 1 6 -0
v -1 6 -1
v 1 6 -1
v -2 6 -3
v -1 6 -3
v -1 7 3
v 0 7 3
v -1 7 2
v 0 7 2
v -1 7 -3
v 0 7 -3
v -1 7 -4
v 0 7 -4
v -3 8 1
v -2 8 1
v -3 8 -0
v -2 8 -0
v -3 8 -1
v -2 8 -1
v -3 8 -2
v -2 8 -2
v -4 9 1
v -3 9 1
v 1 9 1
v 2 9 1
v -3 9 -0
v -2 9 -0
v -3 9 -1
v -2 9 -1
v -4 9 -2
v -3 9 -2
v 1 9 -2
v 2 9 -2
v -2 14 2
v -1 14 2
v 2 14 2
v -1 14 -0
v 0 14 -0
v -1 14 -1
v 0 14 -1
v -2 14 -3
v -1 14 -3
v 2 14 -3
v -3 15 1
v -2 15 1
v 2 15 -0
v 3 15 -0
v 2 15 -1
v 3 15 -1
v -3 15 -2
v -2 15 -2
v -3 17 -0
v -2 17 -0
v -3 17 -1
v -2 17 -1
v 0 1 2
v 1 1 2
v 0 1 -0
v 1 1 -0
v 0 1 -1
v 1 1 -1
v 0 1 -3
v 1 1 -3
v -2 4 2
v -1 4 2
v -2 4 -0
v -1 4 -0
v -2 4 -1
v -1 4 -1
v -2 4 -3
v -1 4 -3
v 1 12 1
v 2 12 1
v 1 12 -0
v 2 12 -0
v 1 12 -1
v 1 12 -2
v 2 12 -2
v -1 13 3
v 0 13 3
v -2 13 2
v -1 13 2
v 0 13 2
v 1 13 2
v -4 13 1
v -3 13 1
v -2 13 1
v 1 13 1
v -2 13 -0
v -1 13 -0
v 0 13 -0
v 1 13 -0
v -4 13 -1
v -3 13 -1
v -2 13 -1
v -1 13 -1
v 0 13 -1
v 1 13 -1
v -4 13 -2
v -3 13 -2
v -2 13 -2
v 1 13 -2
v -2 13 -3
v -1 13 -3
v 0 13 -3
v 1 13 -3
v -1 13 -4
v 0 13 -4
v -3 16 -0
v -2 16 -0
v 2 16 -0
v 3 16 -0
v -3 16 -1
v -2 16 -1
v 2 16 -1
v 3 16 -1
v -3 18 1
v -2 18 1
v -3 18 -2
v -2 18 -2
v -2 19 2
v 2 19 2
v -2 19 -3
v 2 19 -3

# faces
f 3/2/1 2/2/1 1/2/1
f 4/2/1 2/2/1 3/2/1
f 5/2/1 2/2/1 4/2/1
f 6/4/1 4/4/1 3/4/1
f 7/8/1 5/8/1 4/8/1
f 7/4/1 4/4/1 6/4/1
f 8/8/1 5/8/1 7/8/1
f 9/10/1 7/10/1 6/10/1
f 9/3/1 8/3/1 7/3/1
f 10/3/1 8/3/1 9/3/1
f 11/10/1 9/10/1 6/10/1
f 12/5/1 10/5/1 9/5/1
f 12/10/1 9/10/1 11/10/1
f 13/5/1 10/5/1 12/5/1
f 18/2/1 15/2/1 14/2/1
f 19/2/1 15/2/1 18/2/1
f 20/2/1 17/2/1 16/2/1
f 21/2/1 17/2/1 20/2/1
f 24/7/1 23/7/1 22/7/1
f 25/7/1 23/7/1 24/7/1
f 26/7/1 24/7/1 22/7/1
f 27/7/1 23/7/1 25/7/1
f 28/7/1 26/7/1 22/7/1
f 28/7/1 27/7/1 26/7/1
f 29/7/1 23/7/1 27/7/1
f 29/7/1 27/7/1 28/7/1
f 34/13/1 31/13/1 30/13/1
f 35/13/1 31/13/1 34/13/1
f 36/13/1 33/13/1 32/13/1
f 37/13/1 33/13/1 36/13/1
f 38/6/1 35/6/1 34/6/1
f 39/6/1 35/6/1 38/6/1
f 40/6/1 37/6/1 36/6/1
f 41/6/1 37/6/1 40/6/1
f 44/6/1 43/6/1 42/6/1
f 45/6/1 43/6/1 44/6/1
f 46/6/1 43/6/1 45/6/1
f 47/6/1 43/6/1 46/6/1
f 48/6/1 43/6/1 47/6/1
f 49/6/1 43/6/1 48/6/1
f 50/2/1 45/2/1 44/2/1
f 51/2/1 45/2/1 50/2/1
f 52/2/1 47/2/1 46/2/1
f 53/2/1 47/2/1 52/2/1
f 54/2/1 49/2/1 48/2/1
f 55/2/1 49/2/1 54/2/1
f 56/6/1 51/6/1 50/6/1
f 57/6/1 51/6/1 56/6/1
f 58/6/1 55/6/1 54/6/1
f 59/6/1 55/6/1 58/6/1
f 62/7/1 61/7/1 60/7/1
f 63/7/1 61/7/1 62/7/1
f 66/7/1 65/7/1 64/7/1
f 67/7/1 65/7/1 66/7/1
f 68/7/1 62/7/1 60/7/1
f 69/7/1 61/7/1 63/7/1
f 70/7/1 68/7/1 60/7/1
f 70/7/1 69/7/1 68/7/1
f 71/7/1 61/7/1 69/7/1
f 71/7/1 69/7/1 70/7/1
f 76/6/1 73/6/1 72/6/1
f 77/6/1 73/6/1 76/6/1
f 78/6/1 75/6/1 74/6/1
f 79/6/1 75/6/1 78/6/1
f 84/1/1 81/1/1 80/1/1
f 85/1/1 83/1/1 82/1/1
f 86/1/1 84/1/1 80/1/1
f 87/1/1 84/1/1 86/1/1
f 88/1/1 83/1/1 85/1/1
f 89/1/1 83/1/1 88/1/1
f 90/6/1 87/6/1 86/6/1
f 91/6/1 87/6/1 90/6/1
f 94/6/1 89/6/1 88/6/1
f 95/6/1 89/6/1 94/6/1
f 96/1/1 93/1/1 92/1/1
f 97/1/1 93/1/1 96/1/1
f 98/13/2 99/13/2 102/13/2
f 102/13/2 99/13/2 103/13/2
f 100/13/2 101/13/2 104/13/2
f 104/13/2 101/13/2 105/13/2
f 102/6/2 103/6/2 106/6/2
f 106/6/2 103/6/2 107/6/2
f 104/6/2 105/6/2 108/6/2
f 108/6/2 105/6/2 109/6/2
f 110/1/2 111/1/2 114/1/2
f 112/1/2 113/1/2 115/1/2
f 110/1/2 114/1/2 116/1/2
f 116/1/2 114/1/2 117/1/2
f 115/1/2 113/1/2 118/1/2
f 118/1/2 113/1/2 119/1/2
f 116/6/2 117/6/2 120/6/2
f 120/6/2 117/6/2 121/6/2
f 118/6/2 119/6/2 124/6/2
f 124/6/2 119/6/2 125/6/2
f 122/1/2 123/1/2 126/1/2
f 126/1/2 123/1/2 127/1/2
f 128/13/2 129/13/2 132/13/2
f 132/13/2 129/13/2 133/13/2
f 130/13/2 131/13/2 134/13/2
f 134/13/2 131/13/2 135/13/2
f 136/6/2 137/6/2 140/6/2
f 138/6/2 139/6/2 141/6/2
f 136/6/2 140/6/2 142/6/2
f 140/6/2 141/6/2 142/6/2
f 141/6/2 139/6/2 143/6/2
f 142/6/2 141/6/2 143/6/2
f 136/6/2 142/6/2 144/6/2
f 142/2/2 143/2/2 145/2/2
f 144/6/2 142/6/2 145/6/2
f 143/6/2 139/6/2 146/6/2
f 145/2/2 143/2/2 146/2/2
f 146/6/2 139/6/2 147/6/2
f 144/2/2 145/2/2 148/2/2
f 145/2/2 146/2/2 148/2/2
f 146/2/2 147/2/2 148/2/2
f 148/2/2 147/2/2 149/2/2
f 149/2/2 147/2/2 150/2/2
f 150/2/2 147/2/2 151/2/2
f 148/6/2 149/6/2 152/6/2
f 150/6/2 151/6/2 153/6/2
f 148/6/2 152/6/2 154/6/2
f 153/6/2 151/6/2 155/6/2
f 148/6/2 154/6/2 156/6/2
f 155/6/2 151/6/2 159/6/2
f 148/6/2 156/6/2 160/6/2
f 156/2/2 157/2/2 161/2/2
f 160/6/2 156/6/2 161/6/2
f 157/6/2 158/6/2 162/6/2
f 161/2/2 157/2/2 162/2/2
f 158/2/2 159/2/2 163/2/2
f 162/6/2 158/6/2 163/6/2
f 159/6/2 151/6/2 164/6/2
f 163/2/2 159/2/2 164/2/2
f 164/6/2 151/6/2 165/6/2
f 166/12/2 167/12/2 168/12/2
f 168/12/2 167/12/2 169/12/2
f 169/12/2 167/12/2 170/12/2
f 168/5/2 169/5/2 171/5/2
f 169/10/2 170/10/2 172/10/2
f 171/5/2 169/5/2 172/5/2
f 172/10/2 170/10/2 173/10/2
f 171/8/2 172/8/2 174/8/2
f 172/9/2 173/9/2 175/9/2
f 174/8/2 172/8/2 175/8/2
f 175/9/2 173/9/2 176/9/2
f 177/1/2 178/1/2 179/1/2
f 179/1/2 178/1/2 180/1/2
f 177/1/2 179/1/2 181/1/2
f 181/1/2 179/1/2 182/1/2
f 180/1/2 178/1/2 183/1/2
f 183/1/2 178/1/2 184/1/2
f 177/1/2 181/1/2 185/1/2
f 181/14/2 182/14/2 186/14/2
f 185/1/2 181/1/2 186/1/2
f 182/1/2 183/1/2 187/1/2
f 186/14/2 182/14/2 187/14/2
f 183/14/2 184/14/2 188/14/2
f 187/1/2 183/1/2 188/1/2
f 184/1/2 178/1/2 189/1/2
f 188/14/2 184/14/2 189/14/2
f 189/1/2 178/1/2 190/1/2
f 187/1/2 188/1/2 191/1/2
f 185/7/2 186/7/2 191/7/2
f 186/1/2 187/1/2 191/1/2
f 188/1/2 189/1/2 191/1/2
f 189/7/2 190/7/2 192/7/2
f 191/1/2 189/1/2 192/1/2
f 185/7/2 191/7/2 193/7/2
f 191/7/2 192/7/2 193/7/2
f 192/7/2 190/7/2 194/7/2
f 193/7/2 192/7/2 194/7/2
f 195/1/2 196/1/2 197/1/2
f 197/1/2 196/1/2 198/1/2
f 202/1/3 200/1/3 199/1/3
f 203/6/3 201/6/3 200/6/3
f 203/1/3 200/1/3 202/1/3
f 204/6/3 201/6/3 203/6/3
f 214/6/3 207/6/3 206/6/3
f 215/6/3 209/6/3 208/6/3
f 216/6/3 209/6/3 215/6/3
f 217/2/3 210/2/3 209/2/3
f 217/6/3 209/6/3 216/6/3
f 218/6/3 211/6/3 210/6/3
f 218/2/3 210/2/3 217/2/3
f 219/6/3 211/6/3 218/6/3
f 220/7/3 213/7/3 212/7/3
f 221/7/3 213/7/3 220/7/3
f 222/13/3 206/13/3 205/13/3
f 223/6/3 214/6/3 206/6/3
f 223/13/3 206/13/3 222/13/3
f 223/6/3 216/6/3 215/6/3
f 223/6/3 215/6/3 214/6/3
f 224/6/3 216/6/3 223/6/3
f 225/6/3 216/6/3 224/6/3
f 229/7/3 213/7/3 221/7/3
f 229/1/3 221/1/3 220/1/3
f 230/7/3 213/7/3 229/7/3
f 231/13/3 222/13/3 205/13/3
f 232/13/3 222/13/3 231/13/3
f 233/6/3 225/6/3 224/6/3
f 233/6/3 226/6/3 225/6/3
f 234/2/3 227/2/3 226/2/3
f 234/6/3 226/6/3 233/6/3
f 235/6/3 228/6/3 227/6/3
f 235/2/3 227/2/3 234/2/3
f 236/6/3 228/6/3 235/6/3
f 237/7/3 213/7/3 230/7/3
f 237/1/3 230/1/3 229/1/3
f 238/7/3 213/7/3 237/7/3
f 239/1/3 238/1/3 237/1/3
f 239/1/3 237/1/3 229/1/3
f 239/1/3 229/1/3 220/1/3
f 240/7/3 213/7/3 238/7/3
f 240/1/3 238/1/3 239/1/3
f 241/7/3 213/7/3 240/7/3
f 247/2/3 243/2/3 242/2/3
f 248/4/3 244/4/3 243/4/3
f 248/2/3 243/2/3 247/2/3
f 249/10/3 245/10/3 244/10/3
f 249/4/3 244/4/3 248/4/3
f 250/10/3 245/10/3 249/10/3
f 253/2/3 248/2/3 247/2/3
f 253/2/3 247/2/3 246/2/3
f 253/2/3 250/2/3 249/2/3
f 253/2/3 249/2/3 248/2/3
f 254/2/3 250/2/3 253/2/3
f 255/2/3 250/2/3 254/2/3
f 256/7/3 252/7/3 251/7/3
f 257/7/3 252/7/3 256/7/3
f 262/12/3 259/12/3 258/12/3
f 263/5/3 260/5/3 259/5/3
f 263/12/3 259/12/3 262/12/3
f 264/8/3 261/8/3 260/8/3
f 264/5/3 260/5/3 263/5/3
f 265/8/3 261/8/3 264/8/3
f 268/1/3 267/1/3 266/1/3
f 269/1/3 267/1/3 268/1/3
f 272/1/3 271/1/3 270/1/3
f 273/1/3 271/1/3 272/1/3
f 281/2/3 275/2/3 274/2/3
f 282/2/3 275/2/3 281/2/3
f 283/7/3 277/7/3 276/7/3
f 284/7/3 277/7/3 283/7/3
f 285/6/3 280/6/3 279/6/3
f 287/13/3 279/13/3 278/13/3
f 288/6/3 286/6/3 285/6/3
f 288/13/3 279/13/3 287/13/3
f 288/6/3 285/6/3 279/6/3
f 289/6/3 286/6/3 288/6/3
f 290/13/3 287/13/3 278/13/3
f 291/13/3 287/13/3 290/13/3
f 292/6/3 286/6/3 289/6/3
f 293/6/3 286/6/3 292/6/3
f 294/2/4 295/2/4 301/2/4
f 301/2/4 295/2/4 302/2/4
f 296/7/4 297/7/4 303/7/4
f 303/7/4 297/7/4 304/7/4
f 299/6/4 300/6/4 305/6/4
f 298/13/4 299/13/4 307/13/4
f 305/6/4 306/6/4 308/6/4
f 307/13/4 299/13/4 308/13/4
f 299/6/4 305/6/4 308/6/4
f 308/6/4 306/6/4 309/6/4
f 298/13/4 307/13/4 310/13/4
f 310/13/4 307/13/4 311/13/4
f 309/6/4 306/6/4 312/6/4
f 312/6/4 306/6/4 313/6/4
f 314/1/4 315/1/4 316/1/4
f 316/1/4 315/1/4 317/1/4
f 318/1/4 319/1/4 320/1/4
f 320/1/4 319/1/4 321/1/4
f 322/2/4 323/2/4 328/2/4
f 323/8/4 324/8/4 329/8/4
f 328/2/4 323/2/4 329/2/4
f 324/3/4 325/3/4 330/3/4
f 329/8/4 324/8/4 330/8/4
f 325/5/4 326/5/4 331/5/4
f 330/3/4 325/3/4 331/3/4
f 331/5/4 326/5/4 332/5/4
f 329/2/4 330/2/4 335/2/4
f 327/2/4 328/2/4 335/2/4
f 331/2/4 332/2/4 335/2/4
f 330/2/4 331/2/4 335/2/4
f 328/2/4 329/2/4 335/2/4
f 335/2/4 332/2/4 336/2/4
f 336/2/4 332/2/4 337/2/4
f 333/7/4 334/7/4 338/7/4
f 338/7/4 334/7/4 339/7/4
f 340/12/4 341/12/4 344/12/4
f 341/10/4 342/10/4 345/10/4
f 344/12/4 341/12/4 345/12/4
f 342/9/4 343/9/4 346/9/4
f 345/10/4 342/10/4 346/10/4
f 346/9/4 343/9/4 347/9/4
f 349/6/4 350/6/4 357/6/4
f 351/6/4 352/6/4 358/6/4
f 358/6/4 352/6/4 359/6/4
f 352/2/4 353/2/4 360/2/4
f 359/6/4 352/6/4 360/6/4
f 353/6/4 354/6/4 361/6/4
f 360/2/4 353/2/4 361/2/4
f 361/6/4 354/6/4 362/6/4
f 355/7/4 356/7/4 363/7/4
f 363/7/4 356/7/4 364/7/4
f 348/13/4 349/13/4 365/13/4
f 349/6/4 357/6/4 366/6/4
f 365/13/4 349/13/4 366/13/4
f 358/6/4 359/6/4 366/6/4
f 357/6/4 358/6/4 366/6/4
f 366/6/4 359/6/4 367/6/4
f 367/6/4 359/6/4 368/6/4
f 364/7/4 356/7/4 372/7/4
f 363/1/4 364/1/4 372/1/4
f 372/7/4 356/7/4 373/7/4
f 348/13/4 365/13/4 374/13/4
f 374/13/4 365/13/4 375/13/4
f 367/6/4 368/6/4 376/6/4
f 368/6/4 369/6/4 376/6/4
f 369/2/4 370/2/4 377/2/4
f 376/6/4 369/6/4 377/6/4
f 370/6/4 371/6/4 378/6/4
f 377/2/4 370/2/4 378/2/4
f 378/6/4 371/6/4 379/6/4
f 373/7/4 356/7/4 380/7/4
f 372/1/4 373/1/4 380/1/4
f 380/7/4 356/7/4 381/7/4
f 380/1/4 381/1/4 382/1/4
f 372/1/4 380/1/4 382/1/4
f 363/1/4 372/1/4 382/1/4
f 381/7/4 356/7/4 383/7/4
f 382/1/4 381/1/4 383/1/4
f 383/7/4 356/7/4 384/7/4
f 385/1/4 386/1/4 388/1/4
f 386/6/4 387/6/4 389/6/4
f 388/1/4 386/1/4 389/1/4
f 389/6/4 387/6/4 390/6/4
f 393/13/5 392/13/5 391/13/5
f 394/13/5 392/13/5 393/13/5
f 397/13/5 396/13/5 395/13/5
f 398/13/5 396/13/5 397/13/5
f 401/6/5 400/6/5 399/6/5
f 402/6/5 400/6/5 401/6/5
f 405/6/5 404/6/5 403/6/5
f 406/6/5 404/6/5 405/6/5
f 409/6/5 408/6/5 407/6/5
f 411/6/5 409/6/5 407/6/5
f 411/6/5 410/6/5 409/6/5
f 412/6/5 410/6/5 411/6/5
f 413/6/5 411/6/5 407/6/5
f 414/6/5 411/6/5 413/6/5
f 417/1/5 416/1/5 415/1/5
f 418/1/5 416/1/5 417/1/5
f 421/1/5 420/1/5 419/1/5
f 422/1/5 420/1/5 421/1/5
f 425/2/5 424/2/5 423/2/5
f 426/2/5 424/2/5 425/2/5
f 429/2/5 428/2/5 427/2/5
f 430/2/5 428/2/5 429/2/5
f 435/2/5 432/2/5 431/2/5
f 437/2/5 435/2/5 431/2/5
f 437/2/5 436/2/5 435/2/5
f 438/2/5 436/2/5 437/2/5
f 439/2/5 437/2/5 431/2/5
f 440/2/5 437/2/5 439/2/5
f 441/12/5 434/12/5 433/12/5
f 442/12/5 434/12/5 441/12/5
f 446/7/5 444/7/5 443/7/5
f 446/1/5 445/1/5 444/1/5
f 447/1/5 445/1/5 446/1/5
f 448/7/5 446/7/5 443/7/5
f 449/1/5 445/1/5 447/1/5
f 450/7/5 448/7/5 443/7/5
f 451/1/5 449/1/5 448/1/5
f 451/7/5 448/7/5 450/7/5
f 452/1/5 445/1/5 449/1/5
f 452/1/5 449/1/5 451/1/5
f 457/1/5 456/1/5 455/1/5
f 458/1/5 456/1/5 457/1/5
f 459/7/5 454/7/5 453/7/5
f 460/7/5 454/7/5 459/7/5
f 463/7/5 462/7/5 461/7/5
f 464/7/5 462/7/5 463/7/5
f 465/13/6 466/13/6 467/13/6
f 467/13/6 466/13/6 468/13/6
f 469/13/6 470/13/6 471/13/6
f 471/13/6 470/13/6 472/13/6
f 473/6/6 474/6/6 475/6/6
f 475/6/6 474/6/6 476/6/6
f 477/6/6 478/6/6 479/6/6
f 479/6/6 478/6/6 480/6/6
f 481/8/6 482/8/6 483/8/6
f 483/8/6 482/8/6 484/8/6
f 483/9/6 484/9/6 485/9/6
f 485/9/6 484/9/6 486/9/6
f 486/9/6 484/9/6 487/9/6
f 488/6/6 489/6/6 491/6/6
f 491/6/6 489/6/6 492/6/6
f 490/6/6 491/6/6 496/6/6
f 491/6/6 492/6/6 496/6/6
f 492/6/6 493/6/6 496/6/6
f 496/6/6 493/6/6 497/6/6
f 495/2/6 496/2/6 498/2/6
f 496/2/6 497/2/6 498/2/6
f 498/2/6 497/2/6 499/2/6
f 499/2/6 497/2/6 500/2/6
f 500/2/6 497/2/6 501/2/6
f 494/10/6 495/10/6 502/10/6
f 495/2/6 498/2/6 503/2/6
f 502/10/6 495/10/6 503/10/6
f 498/6/6 499/6/6 504/6/6
f 503/2/6 498/2/6 504/2/6
f 504/6/6 499/6/6 505/6/6
f 500/6/6 501/6/6 506/6/6
f 506/6/6 501/6/6 507/6/6
f 502/5/6 503/5/6 508/5/6
f 504/2/6 505/2/6 509/2/6
f 508/5/6 503/5/6 509/5/6
f 503/2/6 504/2/6 509/2/6
f 506/2/6 507/2/6 509/2/6
f 505/2/6 506/2/6 509/2/6
f 509/2/6 507/2/6 510/2/6
f 510/2/6 507/2/6 511/2/6
f 510/6/6 511/6/6 512/6/6
f 512/6/6 511/6/6 513/6/6
f 513/6/6 511/6/6 514/6/6
f 514/6/6 511/6/6 515/6/6
f 513/6/6 514/6/6 516/6/6
f 516/6/6 514/6/6 517/6/6
f 518/7/6 519/7/6 522/7/6
f 522/7/6 519/7/6 523/7/6
f 520/1/6 521/1/6 524/1/6
f 524/1/6 521/1/6 525/1/6
f 526/7/6 527/7/6 528/7/6
f 528/7/6 527/7/6 529/7/6
f 530/7/6 531/7/6 532/7/6
f 532/7/6 531/7/6 533/7/6
