# MagicaVoxel @ Ephtracy

# group
g Halen

# material
mtllib Halen.mtl
usemtl palette

# normals
vn -1 0 0
vn 1 0 0
vn 0 0 1
vn 0 0 -1
vn 0 -1 0
vn 0 1 0

# texcoords
vt 0.0332031 0.5
vt 0.0371094 0.5
vt 0.0644531 0.5
vt 0.0917969 0.5
vt 0.705078 0.5
vt 0.861328 0.5
vt 0.970703 0.5
vt 0.974609 0.5
vt 0.978516 0.5
vt 0.986328 0.5
vt 0.990234 0.5

# verts
v -3 7 1
v -3 7 -1
v -3 13 1
v -3 13 -1
v -3 14 2
v -3 14 -3
v -3 15 1
v -3 15 -0
v -3 15 -1
v -3 15 -2
v -3 16 1
v -3 16 -0
v -3 16 -1
v -3 16 -2
v -3 17 1
v -3 17 -0
v -3 17 -1
v -3 17 -2
v -3 18 1
v -3 18 -0
v -3 18 -1
v -3 18 -2
v -3 19 2
v -3 19 1
v -3 19 -2
v -3 19 -3
v -2 0 2
v -2 0 -0
v -2 0 -1
v -2 0 -3
v -2 1 2
v -2 1 -0
v -2 1 -1
v -2 1 -3
v -2 2 2
v -2 2 -0
v -2 2 -1
v -2 2 -3
v -2 3 2
v -2 3 -0
v -2 3 -1
v -2 3 -3
v -2 4 2
v -2 4 -0
v -2 4 -1
v -2 4 -3
v -2 6 2
v -2 6 -3
v -2 7 2
v -2 7 1
v -2 7 -1
v -2 7 -2
v -2 7 -3
v -2 8 2
v -2 8 1
v -2 8 -1
v -2 8 -2
v -2 8 -3
v -2 9 2
v -2 9 1
v -2 9 -1
v -2 9 -2
v -2 9 -3
v -2 10 2
v -2 10 1
v -2 10 -1
v -2 10 -2
v -2 10 -3
v -2 11 -1
v -2 11 -2
v -2 12 2
v -2 12 1
v -2 12 -2
v -2 12 -3
v -2 13 2
v -2 13 1
v -2 13 -1
v -2 13 -2
v -2 13 -3
v -2 14 2
v -2 14 -3
v -1 4 2
v -1 4 -0
v -1 4 -1
v -1 4 -3
v -1 6 2
v -1 6 -0
v -1 6 -1
v -1 6 -3
v -1 7 3
v -1 7 2
v -1 7 -3
v -1 7 -4
v -1 8 3
v -1 8 2
v -1 8 -3
v -1 9 3
v -1 9 2
v -1 9 -3
v -1 10 2
v -1 10 -3
v -1 11 3
v -1 11 2
v -1 12 2
v -1 12 -3
v -1 13 3
v -1 13 2
v -1 13 -3
v -1 13 -4
v -1 17 3
v -1 17 2
v -1 17 -3
v -1 17 -4
v -1 19 2
v -1 19 -3
v -1 20 3
v -1 20 2
v -1 20 -3
v -1 20 -4
v 0 1 2
v 0 1 -0
v 0 1 -1
v 0 1 -3
v 0 2 2
v 0 2 -0
v 0 2 -1
v 0 2 -3
v 0 3 2
v 0 3 -0
v 0 3 -1
v 0 3 -3
v 0 4 2
v 0 4 -0
v 0 4 -1
v 0 4 -3
v 0 7 3
v 0 7 2
v 0 7 -3
v 0 7 -4
v 0 8 3
v 0 8 2
v 0 8 -3
v 0 9 3
v 0 9 2
v 0 9 -3
v 0 10 2
v 0 10 -3
v 0 11 3
v 0 11 2
v 0 12 -3
v 0 13 3
v 0 13 2
v 0 13 -3
v 0 13 -4
v 0 17 3
v 0 17 2
v 0 17 -3
v 0 17 -4
v 0 19 2
v 0 19 -3
v 0 20 3
v 0 20 2
v 0 20 -3
v 0 20 -4
v 1 4 2
v 1 4 -0
v 1 4 -1
v 1 4 -3
v 1 5 2
v 1 5 -0
v 1 5 -1
v 1 5 -3
v 1 6 2
v 1 6 -0
v 1 6 -1
v 1 6 -3
v 1 7 2
v 1 7 1
v 1 7 -2
v 1 7 -3
v 1 8 2
v 1 8 1
v 1 8 -2
v 1 8 -3
v 1 9 2
v 1 9 1
v 1 9 -2
v 1 9 -3
v 1 10 2
v 1 10 1
v 1 10 -0
v 1 10 -1
v 1 10 -2
v 1 10 -3
v 1 11 2
v 1 11 1
v 1 11 -0
v 1 11 -1
v 1 11 -2
v 1 12 -2
v 1 12 -3
v 1 13 1
v 1 13 -2
v 1 13 -3
v 1 14 2
v 1 14 1
v 1 14 -2
v 1 14 -3
v 2 0 2
v 2 0 -0
v 2 0 -1
v 2 0 -3
v 2 1 2
v 2 1 -0
v 2 1 -1
v 2 1 -3
v 2 14 2
v 2 14 1
v 2 14 -2
v 2 14 -3
v 2 15 1
v 2 15 -2
v 2 16 2
v 2 16 1
v 2 16 -0
v 2 16 -1
v 2 16 -2
v 2 16 -3
v 2 17 1
v 2 17 -0
v 2 17 -1
v 2 17 -2
v 2 18 1
v 2 18 -0
v 2 18 -1
v 2 18 -2
v 2 19 2
v 2 19 1
v 2 19 -0
v 2 19 -1
v 2 19 -2
v 2 19 -3
v -1 7 3
v -1 8 3
v -1 9 3
v -1 11 3
v -1 13 3
v -1 17 3
v -1 20 3
v 0 7 3
v 0 8 3
v 0 9 3
v 0 11 3
v 0 13 3
v 0 17 3
v 0 20 3
v -3 14 2
v -3 19 2
v -2 0 2
v -2 1 2
v -2 2 2
v -2 3 2
v -2 4 2
v -2 6 2
v -2 7 2
v -2 8 2
v -2 9 2
v -2 10 2
v -2 12 2
v -2 13 2
v -2 14 2
v -1 4 2
v -1 6 2
v -1 7 2
v -1 8 2
v -1 9 2
v -1 10 2
v -1 11 2
v -1 12 2
v -1 13 2
v -1 17 2
v -1 19 2
v 0 1 2
v 0 2 2
v 0 3 2
v 0 4 2
v 0 5 2
v 0 7 2
v 0 8 2
v 0 9 2
v 0 10 2
v 0 11 2
v 0 13 2
v 0 17 2
v 0 19 2
v 1 4 2
v 1 5 2
v 1 6 2
v 1 7 2
v 1 8 2
v 1 9 2
v 1 10 2
v 1 11 2
v 1 14 2
v 1 16 2
v 2 0 2
v 2 1 2
v 2 14 2
v 2 16 2
v 2 19 2
v -3 7 1
v -3 13 1
v -2 7 1
v -2 8 1
v -2 9 1
v -2 10 1
v -2 12 1
v -2 13 1
v -2 0 -1
v -2 1 -1
v -2 2 -1
v -2 3 -1
v -2 4 -1
v -1 4 -1
v -1 6 -1
v 0 1 -1
v 0 2 -1
v 0 3 -1
v 0 4 -1
v 0 5 -1
v 0 6 -1
v 1 4 -1
v 1 5 -1
v 1 6 -1
v 2 0 -1
v 2 1 -1
v -1 19 -3
v -1 20 -3
v 0 19 -3
v 0 20 -3
v -1 19 2
v -1 20 2
v 0 19 2
v 0 20 2
v -2 0 -0
v -2 1 -0
v -2 2 -0
v -2 3 -0
v -2 4 -0
v -1 4 -0
v -1 6 -0
v 0 1 -0
v 0 2 -0
v 0 3 -0
v 0 4 -0
v 0 5 -0
v 0 6 -0
v 1 4 -0
v 1 5 -0
v 1 6 -0
v 2 0 -0
v 2 1 -0
v -3 7 -1
v -3 13 -1
v -2 7 -1
v -2 8 -1
v -2 9 -1
v -2 10 -1
v -2 11 -1
v -2 13 -1
v -3 14 -3
v -3 19 -3
v -2 0 -3
v -2 1 -3
v -2 2 -3
v -2 3 -3
v -2 4 -3
v -2 6 -3
v -2 7 -3
v -2 8 -3
v -2 9 -3
v -2 10 -3
v -2 12 -3
v -2 13 -3
v -2 14 -3
v -1 4 -3
v -1 6 -3
v -1 7 -3
v -1 8 -3
v -1 9 -3
v -1 10 -3
v -1 12 -3
v -1 13 -3
v -1 17 -3
v -1 19 -3
v 0 1 -3
v 0 2 -3
v 0 3 -3
v 0 4 -3
v 0 5 -3
v 0 7 -3
v 0 8 -3
v 0 9 -3
v 0 10 -3
v 0 12 -3
v 0 13 -3
v 0 17 -3
v 0 19 -3
v 1 4 -3
v 1 5 -3
v 1 6 -3
v 1 7 -3
v 1 8 -3
v 1 9 -3
v 1 10 -3
v 1 12 -3
v 1 13 -3
v 1 14 -3
v 1 16 -3
v 2 0 -3
v 2 1 -3
v 2 14 -3
v 2 16 -3
v 2 19 -3
v -1 7 -4
v -1 13 -4
v -1 17 -4
v -1 20 -4
v 0 7 -4
v 0 13 -4
v 0 17 -4
v 0 20 -4
v -2 0 2
v 2 0 2
v -2 0 -0
v 2 0 -0
v -2 0 -1
v 2 0 -1
v -2 0 -3
v 2 0 -3
v 0 4 2
v 1 4 2
v 0 4 -0
v 1 4 -0
v 0 4 -1
v 1 4 -1
v 0 4 -3
v 1 4 -3
v -2 6 2
v -1 6 2
v -1 6 -0
v 0 6 -0
v 1 6 -0
v -1 6 -1
v 0 6 -1
v 1 6 -1
v -2 6 -3
v -1 6 -3
v -1 7 3
v 0 7 3
v -1 7 2
v 0 7 2
v -3 7 1
v -2 7 1
v -3 7 -1
v -2 7 -1
v -1 7 -3
v 0 7 -3
v -1 7 -4
v 0 7 -4
v -3 14 2
v -2 14 2
v 1 14 2
v 2 14 2
v 1 14 1
v 2 14 1
v 1 14 -2
v 2 14 -2
v -3 14 -3
v -2 14 -3
v 1 14 -3
v 2 14 -3
v -1 17 3
v 0 17 3
v -1 17 2
v 0 17 2
v -1 17 -3
v 0 17 -3
v -1 17 -4
v 0 17 -4
v 0 1 2
v 2 1 2
v 0 1 -0
v 2 1 -0
v 0 1 -1
v 2 1 -1
v 0 1 -3
v 2 1 -3
v -2 4 2
v -1 4 2
v -2 4 -0
v -1 4 -0
v -2 4 -1
v -1 4 -1
v -2 4 -3
v -1 4 -3
v -1 13 3
v 0 13 3
v -1 13 2
v 0 13 2
v -3 13 1
v -2 13 1
v -3 13 -1
v -2 13 -1
v -1 13 -3
v 0 13 -3
v -1 13 -4
v 0 13 -4
v -3 19 2
v -1 19 2
v 0 19 2
v 2 19 2
v -3 19 1
v 2 19 1
v 1 19 -0
v 2 19 -0
v 1 19 -1
v 2 19 -1
v -3 19 -2
v 2 19 -2
v -3 19 -3
v -1 19 -3
v 0 19 -3
v 2 19 -3
v -1 20 3
v 0 20 3
v -1 20 2
v 0 20 2
v -1 20 -3
v 0 20 -3
v -1 20 -4
v 0 20 -4

# faces
f 3/3/1 2/3/1 1/3/1
f 4/3/1 2/3/1 3/3/1
f 7/7/1 6/7/1 5/7/1
f 8/7/1 6/7/1 7/7/1
f 9/7/1 6/7/1 8/7/1
f 10/7/1 6/7/1 9/7/1
f 11/7/1 7/7/1 5/7/1
f 11/5/1 8/5/1 7/5/1
f 12/9/1 9/9/1 8/9/1
f 12/5/1 8/5/1 11/5/1
f 13/5/1 10/5/1 9/5/1
f 13/9/1 9/9/1 12/9/1
f 14/7/1 6/7/1 10/7/1
f 14/5/1 10/5/1 13/5/1
f 15/9/1 13/9/1 12/9/1
f 15/9/1 12/9/1 11/9/1
f 15/9/1 14/9/1 13/9/1
f 15/7/1 11/7/1 5/7/1
f 16/9/1 14/9/1 15/9/1
f 17/9/1 14/9/1 16/9/1
f 18/7/1 6/7/1 14/7/1
f 18/9/1 14/9/1 17/9/1
f 19/7/1 15/7/1 5/7/1
f 19/5/1 16/5/1 15/5/1
f 20/9/1 17/9/1 16/9/1
f 20/5/1 16/5/1 19/5/1
f 21/5/1 18/5/1 17/5/1
f 21/9/1 17/9/1 20/9/1
f 22/7/1 6/7/1 18/7/1
f 22/5/1 18/5/1 21/5/1
f 23/7/1 19/7/1 5/7/1
f 24/9/1 21/9/1 20/9/1
f 24/7/1 19/7/1 23/7/1
f 24/9/1 20/9/1 19/9/1
f 24/9/1 22/9/1 21/9/1
f 25/7/1 6/7/1 22/7/1
f 25/9/1 22/9/1 24/9/1
f 26/7/1 6/7/1 25/7/1
f 31/9/1 28/9/1 27/9/1
f 32/9/1 28/9/1 31/9/1
f 33/9/1 30/9/1 29/9/1
f 34/9/1 30/9/1 33/9/1
f 35/3/1 32/3/1 31/3/1
f 36/3/1 32/3/1 35/3/1
f 37/3/1 34/3/1 33/3/1
f 38/3/1 34/3/1 37/3/1
f 39/7/1 36/7/1 35/7/1
f 40/7/1 36/7/1 39/7/1
f 41/7/1 38/7/1 37/7/1
f 42/7/1 38/7/1 41/7/1
f 43/3/1 40/3/1 39/3/1
f 44/3/1 40/3/1 43/3/1
f 45/3/1 42/3/1 41/3/1
f 46/3/1 42/3/1 45/3/1
f 49/8/1 48/8/1 47/8/1
f 50/8/1 48/8/1 49/8/1
f 51/8/1 48/8/1 50/8/1
f 52/8/1 48/8/1 51/8/1
f 53/8/1 48/8/1 52/8/1
f 54/7/1 50/7/1 49/7/1
f 55/7/1 50/7/1 54/7/1
f 56/8/1 52/8/1 51/8/1
f 57/7/1 53/7/1 52/7/1
f 57/8/1 52/8/1 56/8/1
f 58/7/1 53/7/1 57/7/1
f 59/11/1 55/11/1 54/11/1
f 60/11/1 55/11/1 59/11/1
f 61/11/1 57/11/1 56/11/1
f 61/11/1 58/11/1 57/11/1
f 62/11/1 58/11/1 61/11/1
f 63/11/1 58/11/1 62/11/1
f 64/5/1 60/5/1 59/5/1
f 65/5/1 60/5/1 64/5/1
f 66/9/1 62/9/1 61/9/1
f 67/5/1 63/5/1 62/5/1
f 67/9/1 62/9/1 66/9/1
f 68/5/1 63/5/1 67/5/1
f 69/5/1 67/5/1 66/5/1
f 70/7/1 68/7/1 67/7/1
f 70/5/1 67/5/1 69/5/1
f 71/7/1 65/7/1 64/7/1
f 72/7/1 65/7/1 71/7/1
f 73/7/1 68/7/1 70/7/1
f 73/7/1 70/7/1 69/7/1
f 74/7/1 68/7/1 73/7/1
f 75/9/1 72/9/1 71/9/1
f 76/9/1 72/9/1 75/9/1
f 77/7/1 73/7/1 69/7/1
f 78/6/1 74/6/1 73/6/1
f 78/7/1 73/7/1 77/7/1
f 79/6/1 74/6/1 78/6/1
f 80/3/1 76/3/1 75/3/1
f 80/3/1 77/3/1 76/3/1
f 80/3/1 79/3/1 78/3/1
f 80/3/1 78/3/1 77/3/1
f 81/3/1 79/3/1 80/3/1
f 86/10/1 83/10/1 82/10/1
f 87/10/1 83/10/1 86/10/1
f 88/10/1 85/10/1 84/10/1
f 89/10/1 85/10/1 88/10/1
f 94/11/1 91/11/1 90/11/1
f 95/11/1 91/11/1 94/11/1
f 96/6/1 93/6/1 92/6/1
f 97/5/1 95/5/1 94/5/1
f 98/5/1 95/5/1 97/5/1
f 99/6/1 93/6/1 96/6/1
f 100/7/1 98/7/1 97/7/1
f 101/6/1 93/6/1 99/6/1
f 102/7/1 100/7/1 97/7/1
f 103/7/1 100/7/1 102/7/1
f 104/9/1 103/9/1 102/9/1
f 105/6/1 93/6/1 101/6/1
f 106/9/1 104/9/1 102/9/1
f 107/9/1 104/9/1 106/9/1
f 108/6/1 93/6/1 105/6/1
f 109/6/1 93/6/1 108/6/1
f 114/9/1 111/9/1 110/9/1
f 115/9/1 113/9/1 112/9/1
f 116/9/1 114/9/1 110/9/1
f 117/9/1 114/9/1 116/9/1
f 118/9/1 113/9/1 115/9/1
f 119/9/1 113/9/1 118/9/1
f 120/3/2 121/3/2 124/3/2
f 124/3/2 121/3/2 125/3/2
f 122/3/2 123/3/2 126/3/2
f 126/3/2 123/3/2 127/3/2
f 124/7/2 125/7/2 128/7/2
f 128/7/2 125/7/2 129/7/2
f 126/7/2 127/7/2 130/7/2
f 130/7/2 127/7/2 131/7/2
f 128/3/2 129/3/2 132/3/2
f 132/3/2 129/3/2 133/3/2
f 130/3/2 131/3/2 134/3/2
f 134/3/2 131/3/2 135/3/2
f 136/11/2 137/11/2 140/11/2
f 140/11/2 137/11/2 141/11/2
f 138/6/2 139/6/2 142/6/2
f 140/5/2 141/5/2 143/5/2
f 143/5/2 141/5/2 144/5/2
f 142/6/2 139/6/2 145/6/2
f 143/7/2 144/7/2 146/7/2
f 145/6/2 139/6/2 147/6/2
f 143/7/2 146/7/2 148/7/2
f 148/7/2 146/7/2 149/7/2
f 147/6/2 139/6/2 150/6/2
f 148/9/2 149/9/2 151/9/2
f 151/9/2 149/9/2 152/9/2
f 150/6/2 139/6/2 153/6/2
f 153/6/2 139/6/2 154/6/2
f 155/9/2 156/9/2 159/9/2
f 157/9/2 158/9/2 160/9/2
f 155/9/2 159/9/2 161/9/2
f 161/9/2 159/9/2 162/9/2
f 160/9/2 158/9/2 163/9/2
f 163/9/2 158/9/2 164/9/2
f 165/7/2 166/7/2 169/7/2
f 169/7/2 166/7/2 170/7/2
f 167/7/2 168/7/2 171/7/2
f 171/7/2 168/7/2 172/7/2
f 169/10/2 170/10/2 173/10/2
f 173/10/2 170/10/2 174/10/2
f 171/10/2 172/10/2 175/10/2
f 175/10/2 172/10/2 176/10/2
f 173/8/2 174/8/2 177/8/2
f 174/8/2 175/8/2 177/8/2
f 175/8/2 176/8/2 177/8/2
f 177/8/2 176/8/2 178/8/2
f 178/8/2 176/8/2 179/8/2
f 179/8/2 176/8/2 180/8/2
f 177/7/2 178/7/2 181/7/2
f 178/8/2 179/8/2 182/8/2
f 181/7/2 178/7/2 182/7/2
f 179/7/2 180/7/2 183/7/2
f 182/8/2 179/8/2 183/8/2
f 183/7/2 180/7/2 184/7/2
f 181/11/2 182/11/2 185/11/2
f 182/11/2 183/11/2 185/11/2
f 183/11/2 184/11/2 185/11/2
f 185/11/2 184/11/2 186/11/2
f 186/11/2 184/11/2 187/11/2
f 187/11/2 184/11/2 188/11/2
f 185/5/2 186/5/2 189/5/2
f 186/3/2 187/3/2 190/3/2
f 189/5/2 186/5/2 190/5/2
f 190/3/2 187/3/2 191/3/2
f 191/3/2 187/3/2 192/3/2
f 187/5/2 188/5/2 193/5/2
f 192/3/2 187/3/2 193/3/2
f 193/5/2 188/5/2 194/5/2
f 189/7/2 190/7/2 195/7/2
f 190/5/2 191/5/2 196/5/2
f 195/7/2 190/7/2 196/7/2
f 191/7/2 192/7/2 197/7/2
f 196/5/2 191/5/2 197/5/2
f 192/5/2 193/5/2 198/5/2
f 197/7/2 192/7/2 198/7/2
f 193/7/2 194/7/2 199/7/2
f 198/5/2 193/5/2 199/5/2
f 196/7/2 197/7/2 200/7/2
f 199/7/2 194/7/2 200/7/2
f 198/7/2 199/7/2 200/7/2
f 197/7/2 198/7/2 200/7/2
f 200/7/2 194/7/2 201/7/2
f 195/3/2 196/3/2 202/3/2
f 196/7/2 200/7/2 202/7/2
f 200/6/2 201/6/2 203/6/2
f 202/7/2 200/7/2 203/7/2
f 203/6/2 201/6/2 204/6/2
f 195/3/2 202/3/2 205/3/2
f 202/3/2 203/3/2 205/3/2
f 203/3/2 204/3/2 205/3/2
f 205/3/2 204/3/2 206/3/2
f 206/3/2 204/3/2 207/3/2
f 207/3/2 204/3/2 208/3/2
f 209/9/2 210/9/2 213/9/2
f 213/9/2 210/9/2 214/9/2
f 211/9/2 212/9/2 215/9/2
f 215/9/2 212/9/2 216/9/2
f 217/3/2 218/3/2 221/3/2
f 218/7/2 219/7/2 221/7/2
f 219/3/2 220/3/2 222/3/2
f 221/7/2 219/7/2 222/7/2
f 217/3/2 221/3/2 223/3/2
f 221/11/2 222/11/2 224/11/2
f 223/3/2 221/3/2 224/3/2
f 224/11/2 222/11/2 225/11/2
f 225/11/2 222/11/2 226/11/2
f 222/3/2 220/3/2 227/3/2
f 226/11/2 222/11/2 227/11/2
f 227/3/2 220/3/2 228/3/2
f 223/7/2 224/7/2 229/7/2
f 224/5/2 225/5/2 229/5/2
f 225/11/2 226/11/2 230/11/2
f 229/5/2 225/5/2 230/5/2
f 226/5/2 227/5/2 231/5/2
f 230/11/2 226/11/2 231/11/2
f 227/7/2 228/7/2 232/7/2
f 231/5/2 227/5/2 232/5/2
f 223/7/2 229/7/2 233/7/2
f 230/11/2 231/11/2 233/11/2
f 231/11/2 232/11/2 233/11/2
f 229/11/2 230/11/2 233/11/2
f 233/11/2 232/11/2 234/11/2
f 234/11/2 232/11/2 235/11/2
f 232/7/2 228/7/2 236/7/2
f 235/11/2 232/11/2 236/11/2
f 223/7/2 233/7/2 237/7/2
f 233/9/2 234/9/2 238/9/2
f 237/7/2 233/7/2 238/7/2
f 234/3/2 235/3/2 239/3/2
f 238/9/2 234/9/2 239/9/2
f 235/9/2 236/9/2 240/9/2
f 239/3/2 235/3/2 240/3/2
f 236/7/2 228/7/2 241/7/2
f 240/9/2 236/9/2 241/9/2
f 241/7/2 228/7/2 242/7/2
f 250/11/3 244/11/3 243/11/3
f 251/5/3 245/5/3 244/5/3
f 251/11/3 244/11/3 250/11/3
f 252/7/3 246/7/3 245/7/3
f 252/5/3 245/5/3 251/5/3
f 253/9/3 247/9/3 246/9/3
f 253/7/3 246/7/3 252/7/3
f 254/9/3 247/9/3 253/9/3
f 255/9/3 249/9/3 248/9/3
f 256/9/3 249/9/3 255/9/3
f 271/7/3 258/7/3 257/7/3
f 272/3/3 263/3/3 262/3/3
f 273/8/3 265/8/3 264/8/3
f 274/7/3 266/7/3 265/7/3
f 274/8/3 265/8/3 273/8/3
f 275/11/3 267/11/3 266/11/3
f 275/7/3 266/7/3 274/7/3
f 276/5/3 268/5/3 267/5/3
f 276/11/3 267/11/3 275/11/3
f 277/7/3 269/7/3 268/7/3
f 277/5/3 268/5/3 276/5/3
f 278/7/3 269/7/3 277/7/3
f 279/9/3 270/9/3 269/9/3
f 279/7/3 269/7/3 278/7/3
f 280/3/3 271/3/3 270/3/3
f 280/9/3 270/9/3 279/9/3
f 281/7/3 258/7/3 271/7/3
f 282/7/3 258/7/3 281/7/3
f 283/9/3 260/9/3 259/9/3
f 283/3/3 261/3/3 260/3/3
f 284/7/3 262/7/3 261/7/3
f 284/3/3 261/3/3 283/3/3
f 285/3/3 272/3/3 262/3/3
f 285/7/3 262/7/3 284/7/3
f 286/10/3 273/10/3 272/10/3
f 286/3/3 272/3/3 285/3/3
f 287/10/3 273/10/3 286/10/3
f 288/8/3 274/8/3 273/8/3
f 293/3/3 271/3/3 280/3/3
f 294/7/3 281/7/3 271/7/3
f 296/7/3 287/7/3 286/7/3
f 297/10/3 273/10/3 287/10/3
f 297/7/3 287/7/3 296/7/3
f 298/8/3 288/8/3 273/8/3
f 298/10/3 273/10/3 297/10/3
f 299/7/3 289/7/3 288/7/3
f 299/8/3 288/8/3 298/8/3
f 300/11/3 290/11/3 289/11/3
f 300/7/3 289/7/3 299/7/3
f 301/5/3 291/5/3 290/5/3
f 301/11/3 290/11/3 300/11/3
f 302/7/3 292/7/3 291/7/3
f 302/5/3 291/5/3 301/5/3
f 303/3/3 293/3/3 292/3/3
f 303/7/3 292/7/3 302/7/3
f 304/7/3 295/7/3 294/7/3
f 304/3/3 293/3/3 303/3/3
f 304/7/3 294/7/3 271/7/3
f 304/3/3 271/3/3 293/3/3
f 305/7/3 295/7/3 304/7/3
f 306/9/3 283/9/3 259/9/3
f 307/9/3 283/9/3 306/9/3
f 308/3/3 305/3/3 304/3/3
f 309/7/3 295/7/3 305/7/3
f 309/3/3 305/3/3 308/3/3
f 310/7/3 295/7/3 309/7/3
f 313/3/3 312/3/3 311/3/3
f 314/3/3 312/3/3 313/3/3
f 315/3/3 312/3/3 314/3/3
f 316/3/3 312/3/3 315/3/3
f 317/3/3 312/3/3 316/3/3
f 318/3/3 312/3/3 317/3/3
f 324/3/3 323/3/3 322/3/3
f 326/9/3 320/9/3 319/9/3
f 326/3/3 321/3/3 320/3/3
f 327/7/3 322/7/3 321/7/3
f 327/3/3 321/3/3 326/3/3
f 328/3/3 324/3/3 322/3/3
f 328/7/3 322/7/3 327/7/3
f 329/10/3 325/10/3 324/10/3
f 329/3/3 324/3/3 328/3/3
f 330/10/3 325/10/3 329/10/3
f 331/10/3 325/10/3 330/10/3
f 332/7/3 330/7/3 329/7/3
f 333/10/3 331/10/3 330/10/3
f 333/7/3 330/7/3 332/7/3
f 334/10/3 331/10/3 333/10/3
f 335/9/3 326/9/3 319/9/3
f 336/9/3 326/9/3 335/9/3
f 339/9/3 338/9/3 337/9/3
f 340/9/3 338/9/3 339/9/3
f 341/9/4 342/9/4 343/9/4
f 343/9/4 342/9/4 344/9/4
f 348/3/4 349/3/4 350/3/4
f 345/9/4 346/9/4 352/9/4
f 346/3/4 347/3/4 352/3/4
f 347/7/4 348/7/4 353/7/4
f 352/3/4 347/3/4 353/3/4
f 348/3/4 350/3/4 354/3/4
f 353/7/4 348/7/4 354/7/4
f 350/10/4 351/10/4 355/10/4
f 354/3/4 350/3/4 355/3/4
f 355/10/4 351/10/4 356/10/4
f 356/10/4 351/10/4 357/10/4
f 355/7/4 356/7/4 358/7/4
f 356/10/4 357/10/4 359/10/4
f 358/7/4 356/7/4 359/7/4
f 359/10/4 357/10/4 360/10/4
f 345/9/4 352/9/4 361/9/4
f 361/9/4 352/9/4 362/9/4
f 363/3/4 364/3/4 365/3/4
f 365/3/4 364/3/4 366/3/4
f 366/3/4 364/3/4 367/3/4
f 367/3/4 364/3/4 368/3/4
f 368/3/4 364/3/4 369/3/4
f 369/3/4 364/3/4 370/3/4
f 371/7/4 372/7/4 385/7/4
f 376/3/4 377/3/4 386/3/4
f 378/8/4 379/8/4 387/8/4
f 379/7/4 380/7/4 388/7/4
f 387/8/4 379/8/4 388/8/4
f 380/11/4 381/11/4 389/11/4
f 388/7/4 380/7/4 389/7/4
f 381/5/4 382/5/4 390/5/4
f 389/11/4 381/11/4 390/11/4
f 382/7/4 383/7/4 391/7/4
f 390/5/4 382/5/4 391/5/4
f 383/6/4 384/6/4 392/6/4
f 391/7/4 383/7/4 392/7/4
f 384/3/4 385/3/4 393/3/4
f 392/6/4 384/6/4 393/6/4
f 385/7/4 372/7/4 394/7/4
f 394/7/4 372/7/4 395/7/4
f 373/9/4 374/9/4 396/9/4
f 374/3/4 375/3/4 396/3/4
f 375/7/4 376/7/4 397/7/4
f 396/3/4 375/3/4 397/3/4
f 376/3/4 386/3/4 398/3/4
f 397/7/4 376/7/4 398/7/4
f 386/10/4 387/10/4 399/10/4
f 398/3/4 386/3/4 399/3/4
f 399/10/4 387/10/4 400/10/4
f 387/8/4 388/8/4 401/8/4
f 393/3/4 385/3/4 406/3/4
f 385/7/4 394/7/4 407/7/4
f 399/7/4 400/7/4 409/7/4
f 400/10/4 387/10/4 410/10/4
f 409/7/4 400/7/4 410/7/4
f 387/8/4 401/8/4 411/8/4
f 410/10/4 387/10/4 411/10/4
f 401/7/4 402/7/4 412/7/4
f 411/8/4 401/8/4 412/8/4
f 402/11/4 403/11/4 413/11/4
f 412/7/4 402/7/4 413/7/4
f 403/5/4 404/5/4 414/5/4
f 413/11/4 403/11/4 414/11/4
f 404/7/4 405/7/4 415/7/4
f 414/5/4 404/5/4 415/5/4
f 405/6/4 406/6/4 416/6/4
f 415/7/4 405/7/4 416/7/4
f 406/3/4 385/3/4 417/3/4
f 416/6/4 406/6/4 417/6/4
f 407/7/4 408/7/4 418/7/4
f 417/3/4 385/3/4 418/3/4
f 385/7/4 407/7/4 418/7/4
f 418/7/4 408/7/4 419/7/4
f 373/9/4 396/9/4 420/9/4
f 420/9/4 396/9/4 421/9/4
f 418/3/4 419/3/4 422/3/4
f 419/7/4 408/7/4 423/7/4
f 422/3/4 419/3/4 423/3/4
f 423/7/4 408/7/4 424/7/4
f 425/6/4 426/6/4 429/6/4
f 429/6/4 426/6/4 430/6/4
f 427/9/4 428/9/4 431/9/4
f 431/9/4 428/9/4 432/9/4
f 435/9/5 434/9/5 433/9/5
f 436/9/5 434/9/5 435/9/5
f 439/9/5 438/9/5 437/9/5
f 440/9/5 438/9/5 439/9/5
f 443/7/5 442/7/5 441/7/5
f 444/7/5 442/7/5 443/7/5
f 447/7/5 446/7/5 445/7/5
f 448/7/5 446/7/5 447/7/5
f 451/8/5 450/8/5 449/8/5
f 454/8/5 451/8/5 449/8/5
f 454/10/5 452/10/5 451/10/5
f 455/8/5 453/8/5 452/8/5
f 455/10/5 452/10/5 454/10/5
f 456/8/5 453/8/5 455/8/5
f 457/8/5 454/8/5 449/8/5
f 458/8/5 454/8/5 457/8/5
f 461/11/5 460/11/5 459/11/5
f 462/11/5 460/11/5 461/11/5
f 465/3/5 464/3/5 463/3/5
f 466/3/5 464/3/5 465/3/5
f 469/6/5 468/6/5 467/6/5
f 470/6/5 468/6/5 469/6/5
f 475/3/5 474/3/5 473/3/5
f 476/3/5 474/3/5 475/3/5
f 477/7/5 476/7/5 475/7/5
f 478/7/5 476/7/5 477/7/5
f 479/7/5 472/7/5 471/7/5
f 480/7/5 472/7/5 479/7/5
f 481/3/5 478/3/5 477/3/5
f 482/3/5 478/3/5 481/3/5
f 485/9/5 484/9/5 483/9/5
f 486/9/5 484/9/5 485/9/5
f 489/9/5 488/9/5 487/9/5
f 490/9/5 488/9/5 489/9/5
f 491/9/6 492/9/6 493/9/6
f 493/9/6 492/9/6 494/9/6
f 495/9/6 496/9/6 497/9/6
f 497/9/6 496/9/6 498/9/6
f 499/3/6 500/3/6 501/3/6
f 501/3/6 500/3/6 502/3/6
f 503/3/6 504/3/6 505/3/6
f 505/3/6 504/3/6 506/3/6
f 507/9/6 508/9/6 509/9/6
f 509/9/6 508/9/6 510/9/6
f 511/3/6 512/3/6 513/3/6
f 513/3/6 512/3/6 514/3/6
f 515/6/6 516/6/6 517/6/6
f 517/6/6 516/6/6 518/6/6
f 519/7/6 520/7/6 523/7/6
f 521/7/6 522/7/6 523/7/6
f 520/7/6 521/7/6 523/7/6
f 523/7/6 522/7/6 524/7/6
f 523/9/6 524/9/6 525/9/6
f 525/9/6 524/9/6 526/9/6
f 523/9/6 525/9/6 527/9/6
f 525/3/6 526/3/6 527/3/6
f 527/3/6 526/3/6 528/3/6
f 523/9/6 527/9/6 529/9/6
f 527/9/6 528/9/6 529/9/6
f 529/9/6 528/9/6 530/9/6
f 529/7/6 530/7/6 531/7/6
f 531/7/6 530/7/6 532/7/6
f 532/7/6 530/7/6 533/7/6
f 533/7/6 530/7/6 534/7/6
f 535/9/6 536/9/6 537/9/6
f 537/9/6 536/9/6 538/9/6
f 539/9/6 540/9/6 541/9/6
f 541/9/6 540/9/6 542/9/6
