# MagicaVoxel @ Ephtracy

# group
g Special1.2

# material
mtllib Special1.2.mtl
usemtl palette

# normals
vn -1 0 0
vn 1 0 0
vn 0 0 1
vn 0 0 -1
vn 0 -1 0
vn 0 1 0

# texcoords
vt 0.0332031 0.5
vt 0.0371094 0.5
vt 0.0410156 0.5
vt 0.0449219 0.5
vt 0.0917969 0.5
vt 0.123047 0.5
vt 0.271484 0.5
vt 0.279297 0.5
vt 0.306641 0.5
vt 0.431641 0.5
vt 0.681641 0.5
vt 0.892578 0.5
vt 0.955078 0.5
vt 0.958984 0.5
vt 0.962891 0.5
vt 0.966797 0.5
vt 0.978516 0.5
vt 0.994141 0.5

# verts
v -4 2 2
v -4 2 -0
v -4 2 -1
v -4 2 -3
v -4 5 2
v -4 5 -0
v -4 5 -1
v -4 5 -3
v -4 9 1
v -4 9 -2
v -4 10 1
v -4 10 -1
v -4 10 -2
v -4 11 1
v -4 11 -1
v -4 11 -2
v -4 12 -1
v -4 12 -2
v -4 13 1
v -4 13 -1
v -4 13 -2
v -3 8 1
v -3 8 -0
v -3 8 -1
v -3 8 -2
v -3 9 1
v -3 9 -0
v -3 9 -1
v -3 9 -2
v -3 14 2
v -3 14 -3
v -3 19 2
v -3 19 -3
v -2 6 2
v -2 6 -0
v -2 6 -1
v -2 6 -3
v -2 7 2
v -2 7 -0
v -2 7 -1
v -2 7 -3
v -2 8 2
v -2 8 1
v -2 8 -0
v -2 8 -1
v -2 8 -2
v -2 8 -3
v -2 9 2
v -2 9 1
v -2 9 -0
v -2 9 -1
v -2 9 -2
v -2 9 -3
v -2 10 2
v -2 10 1
v -2 10 -2
v -2 10 -3
v -2 11 2
v -2 11 1
v -2 11 -2
v -2 11 -3
v -2 12 2
v -2 12 1
v -2 12 -2
v -2 12 -3
v -2 13 2
v -2 13 1
v -2 13 -2
v -2 13 -3
v -1 5 2
v -1 5 -0
v -1 5 -1
v -1 5 -3
v -1 6 2
v -1 6 -0
v -1 6 -1
v -1 6 -3
v -1 9 3
v -1 9 2
v -1 9 -3
v -1 9 -4
v -1 10 3
v -1 10 2
v -1 10 -3
v -1 10 -4
v -1 11 3
v -1 11 2
v -1 11 -3
v -1 11 -4
v -1 12 3
v -1 12 2
v -1 12 -3
v -1 12 -4
v -1 13 3
v -1 13 2
v -1 13 -0
v -1 13 -1
v -1 13 -3
v -1 13 -4
v -1 14 -0
v -1 14 -1
v -3 2 2
v -3 2 -0
v -3 2 -1
v -3 2 -3
v -3 3 2
v -3 3 -0
v -3 3 -1
v -3 3 -3
v 0 3 2
v 0 3 -0
v 0 3 -1
v 0 3 -3
v 0 4 2
v 0 4 -0
v 0 4 -1
v 0 4 -3
v 0 10 3
v 0 10 2
v 0 10 -3
v 0 10 -4
v 0 11 3
v 0 11 2
v 0 11 -3
v 0 11 -4
v 0 12 3
v 0 12 2
v 0 12 -3
v 0 12 -4
v 0 13 3
v 0 13 2
v 0 13 -0
v 0 13 -1
v 0 13 -3
v 0 13 -4
v 0 14 -0
v 0 14 -1
v 1 4 2
v 1 4 -0
v 1 4 -1
v 1 4 -3
v 1 6 -0
v 1 6 -1
v 1 7 2
v 1 7 1
v 1 7 -0
v 1 7 -1
v 1 7 -2
v 1 7 -3
v 1 8 2
v 1 8 1
v 1 8 -2
v 1 8 -3
v 1 9 2
v 1 9 1
v 1 9 -2
v 1 9 -3
v 1 10 2
v 1 10 1
v 1 10 -2
v 1 10 -3
v 1 11 2
v 1 11 1
v 1 11 -2
v 1 11 -3
v 1 12 2
v 1 12 1
v 1 12 -0
v 1 12 -1
v 1 12 -2
v 1 12 -3
v 1 13 2
v 1 13 1
v 1 13 -0
v 1 13 -1
v 1 13 -2
v 1 13 -3
v 2 9 3
v 2 9 2
v 2 9 1
v 2 9 -2
v 2 9 -3
v 2 9 -4
v 2 10 3
v 2 10 2
v 2 10 1
v 2 10 -0
v 2 10 -2
v 2 10 -3
v 2 10 -4
v 2 11 1
v 2 11 -0
v 2 11 -2
v 2 12 1
v 2 12 -0
v 2 12 -2
v 2 14 2
v 2 14 1
v 2 14 -0
v 2 14 -1
v 2 14 -2
v 2 14 -3
v 2 15 1
v 2 15 -0
v 2 15 -1
v 2 15 -2
v 2 16 1
v 2 16 -0
v 2 16 -1
v 2 16 -2
v 2 17 2
v 2 17 1
v 2 17 -0
v 2 17 -1
v 2 17 -2
v 2 17 -3
v 2 18 1
v 2 18 -2
v 2 19 2
v 2 19 -3
v 3 15 -0
v 3 15 -1
v 3 16 -0
v 3 16 -1
v -1 9 3
v -1 10 3
v -1 11 3
v -1 12 3
v -1 13 3
v 0 9 3
v 0 10 3
v 0 11 3
v 0 12 3
v 0 13 3
v 1 9 3
v 1 10 3
v 2 9 3
v 2 10 3
v -4 2 2
v -4 5 2
v -3 2 2
v -3 3 2
v -3 14 2
v -3 19 2
v -2 3 2
v -2 5 2
v -2 6 2
v -2 7 2
v -2 8 2
v -2 9 2
v -2 10 2
v -2 11 2
v -2 12 2
v -2 13 2
v -1 5 2
v -1 6 2
v -1 9 2
v -1 10 2
v -1 11 2
v -1 12 2
v -1 13 2
v -1 14 2
v -1 16 2
v 0 3 2
v 0 4 2
v 0 9 2
v 0 10 2
v 0 11 2
v 0 12 2
v 0 13 2
v 0 16 2
v 0 17 2
v 1 4 2
v 1 7 2
v 1 8 2
v 1 9 2
v 1 10 2
v 1 11 2
v 1 12 2
v 1 13 2
v 2 14 2
v 2 17 2
v 2 19 2
v -4 9 1
v -4 10 1
v -4 11 1
v -4 13 1
v -3 8 1
v -3 9 1
v -3 10 1
v -3 11 1
v -3 13 1
v -2 8 1
v -2 9 1
v -2 10 1
v -2 11 1
v -2 12 1
v -2 13 1
v 1 9 1
v 1 10 1
v 1 11 1
v 1 12 1
v 2 9 1
v 2 10 1
v 2 11 1
v 2 12 1
v -1 13 -0
v -1 14 -0
v 0 13 -0
v 0 14 -0
v 2 15 -0
v 2 16 -0
v 3 15 -0
v 3 16 -0
v -4 2 -1
v -4 5 -1
v -3 2 -1
v -3 3 -1
v -3 8 -1
v -3 9 -1
v -2 3 -1
v -2 5 -1
v -2 8 -1
v -2 9 -1
v -1 5 -1
v -1 6 -1
v 0 3 -1
v 0 4 -1
v 1 4 -1
v 1 6 -1
v 1 9 -3
v 1 10 -3
v 2 9 -3
v 2 10 -3
v 1 9 2
v 1 10 2
v 2 9 2
v 2 10 2
v -4 2 -0
v -4 5 -0
v -3 2 -0
v -3 3 -0
v -3 8 -0
v -3 9 -0
v -2 3 -0
v -2 5 -0
v -2 8 -0
v -2 9 -0
v -1 5 -0
v -1 6 -0
v 0 3 -0
v 0 4 -0
v 1 4 -0
v 1 6 -0
v -1 13 -1
v -1 14 -1
v 0 13 -1
v 0 14 -1
v 2 15 -1
v 2 16 -1
v 3 15 -1
v 3 16 -1
v -4 9 -2
v -4 10 -2
v -4 11 -2
v -4 12 -2
v -4 13 -2
v -3 8 -2
v -3 9 -2
v -3 10 -2
v -3 11 -2
v -3 12 -2
v -3 13 -2
v -2 8 -2
v -2 9 -2
v -2 10 -2
v -2 11 -2
v -2 12 -2
v -2 13 -2
v 1 9 -2
v 1 10 -2
v 1 11 -2
v 1 12 -2
v 2 9 -2
v 2 10 -2
v 2 11 -2
v 2 12 -2
v -4 2 -3
v -4 5 -3
v -3 2 -3
v -3 3 -3
v -3 14 -3
v -3 19 -3
v -2 3 -3
v -2 5 -3
v -2 6 -3
v -2 7 -3
v -2 8 -3
v -2 9 -3
v -2 10 -3
v -2 11 -3
v -2 12 -3
v -2 13 -3
v -1 5 -3
v -1 6 -3
v -1 9 -3
v -1 10 -3
v -1 11 -3
v -1 12 -3
v -1 13 -3
v -1 14 -3
v -1 16 -3
v 0 3 -3
v 0 4 -3
v 0 9 -3
v 0 10 -3
v 0 11 -3
v 0 12 -3
v 0 13 -3
v 0 16 -3
v 0 17 -3
v 1 4 -3
v 1 7 -3
v 1 8 -3
v 1 9 -3
v 1 10 -3
v 1 11 -3
v 1 12 -3
v 1 13 -3
v 2 14 -3
v 2 17 -3
v 2 19 -3
v -1 9 -4
v -1 10 -4
v -1 11 -4
v -1 12 -4
v -1 13 -4
v 0 9 -4
v 0 10 -4
v 0 11 -4
v 0 12 -4
v 0 13 -4
v 1 9 -4
v 1 10 -4
v 2 9 -4
v 2 10 -4
v -4 2 2
v -3 2 2
v -4 2 -0
v -3 2 -0
v -4 2 -1
v -3 2 -1
v -4 2 -3
v -3 2 -3
v -3 3 2
v -2 3 2
v 0 3 2
v -3 3 -0
v -2 3 -0
v 0 3 -0
v -3 3 -1
v -2 3 -1
v 0 3 -1
v -3 3 -3
v -2 3 -3
v 0 3 -3
v 0 4 2
v 1 4 2
v 0 4 -0
v 1 4 -0
v 0 4 -1
v 1 4 -1
v 0 4 -3
v 1 4 -3
v -2 6 2
v -1 6 2
v -2 6 -0
v -1 6 -0
v 1 6 -0
v -2 6 -1
v -1 6 -1
v 1 6 -1
v -2 6 -3
v -1 6 -3
v -3 8 1
v -2 8 1
v -3 8 -0
v -2 8 -0
v -3 8 -1
v -2 8 -1
v -3 8 -2
v -2 8 -2
v -1 9 3
v 0 9 3
v 1 9 3
v 2 9 3
v -1 9 2
v 0 9 2
v 1 9 2
v 2 9 2
v -4 9 1
v -3 9 1
v 1 9 1
v 2 9 1
v -3 9 -0
v -2 9 -0
v -3 9 -1
v -2 9 -1
v -4 9 -2
v -3 9 -2
v 1 9 -2
v 2 9 -2
v -1 9 -3
v 0 9 -3
v 1 9 -3
v 2 9 -3
v -1 9 -4
v 0 9 -4
v 1 9 -4
v 2 9 -4
v -3 14 2
v -1 14 2
v 2 14 2
v 1 14 1
v 2 14 1
v -1 14 -0
v 0 14 -0
v 1 14 -0
v 2 14 -0
v -1 14 -1
v 0 14 -1
v 1 14 -1
v 2 14 -1
v 1 14 -2
v 2 14 -2
v -3 14 -3
v -1 14 -3
v 2 14 -3
v 2 15 -0
v 3 15 -0
v 2 15 -1
v 3 15 -1
v -4 5 2
v -2 5 2
v -1 5 2
v -4 5 -0
v -2 5 -0
v -1 5 -0
v -4 5 -1
v -2 5 -1
v -1 5 -1
v -4 5 -3
v -2 5 -3
v -1 5 -3
v 0 10 3
v 1 10 3
v 2 10 3
v 0 10 2
v 1 10 2
v 2 10 2
v 0 10 -3
v 1 10 -3
v 2 10 -3
v 0 10 -4
v 1 10 -4
v 2 10 -4
v 1 12 1
v 2 12 1
v 1 12 -0
v 2 12 -0
v 1 12 -1
v 1 12 -2
v 2 12 -2
v -1 13 3
v 0 13 3
v -2 13 2
v -1 13 2
v 0 13 2
v 1 13 2
v -4 13 1
v -3 13 1
v -2 13 1
v 1 13 1
v -2 13 -0
v -1 13 -0
v 0 13 -0
v 1 13 -0
v -4 13 -1
v -3 13 -1
v -2 13 -1
v -1 13 -1
v 0 13 -1
v 1 13 -1
v -4 13 -2
v -3 13 -2
v -2 13 -2
v 1 13 -2
v -2 13 -3
v -1 13 -3
v 0 13 -3
v 1 13 -3
v -1 13 -4
v 0 13 -4
v 2 16 -0
v 3 16 -0
v 2 16 -1
v 3 16 -1
v -3 19 2
v 2 19 2
v -3 19 -3
v 2 19 -3

# faces
f 5/7/1 2/7/1 1/7/1
f 6/7/1 2/7/1 5/7/1
f 7/7/1 4/7/1 3/7/1
f 8/7/1 4/7/1 7/7/1
f 11/11/1 10/11/1 9/11/1
f 12/11/1 10/11/1 11/11/1
f 13/11/1 10/11/1 12/11/1
f 14/5/1 12/5/1 11/5/1
f 15/12/1 13/12/1 12/12/1
f 15/5/1 12/5/1 14/5/1
f 16/12/1 13/12/1 15/12/1
f 17/15/1 15/15/1 14/15/1
f 17/4/1 16/4/1 15/4/1
f 18/4/1 16/4/1 17/4/1
f 19/15/1 17/15/1 14/15/1
f 20/8/1 18/8/1 17/8/1
f 20/15/1 17/15/1 19/15/1
f 21/8/1 18/8/1 20/8/1
f 26/11/1 23/11/1 22/11/1
f 27/11/1 23/11/1 26/11/1
f 28/11/1 25/11/1 24/11/1
f 29/11/1 25/11/1 28/11/1
f 32/3/1 31/3/1 30/3/1
f 33/3/1 31/3/1 32/3/1
f 38/6/1 35/6/1 34/6/1
f 39/10/1 36/10/1 35/10/1
f 39/6/1 35/6/1 38/6/1
f 40/6/1 37/6/1 36/6/1
f 40/10/1 36/10/1 39/10/1
f 41/6/1 37/6/1 40/6/1
f 42/10/1 39/10/1 38/10/1
f 42/10/1 40/10/1 39/10/1
f 42/10/1 41/10/1 40/10/1
f 43/10/1 41/10/1 42/10/1
f 44/10/1 41/10/1 43/10/1
f 45/10/1 41/10/1 44/10/1
f 46/10/1 41/10/1 45/10/1
f 47/10/1 41/10/1 46/10/1
f 48/11/1 43/11/1 42/11/1
f 49/11/1 43/11/1 48/11/1
f 50/10/1 45/10/1 44/10/1
f 51/10/1 45/10/1 50/10/1
f 52/11/1 47/11/1 46/11/1
f 53/11/1 47/11/1 52/11/1
f 54/10/1 49/10/1 48/10/1
f 55/10/1 49/10/1 54/10/1
f 56/10/1 53/10/1 52/10/1
f 57/10/1 53/10/1 56/10/1
f 58/13/1 55/13/1 54/13/1
f 59/13/1 55/13/1 58/13/1
f 60/13/1 57/13/1 56/13/1
f 61/13/1 57/13/1 60/13/1
f 62/10/1 59/10/1 58/10/1
f 63/10/1 59/10/1 62/10/1
f 64/10/1 61/10/1 60/10/1
f 65/10/1 61/10/1 64/10/1
f 66/13/1 63/13/1 62/13/1
f 67/13/1 63/13/1 66/13/1
f 68/13/1 65/13/1 64/13/1
f 69/13/1 65/13/1 68/13/1
f 74/6/1 71/6/1 70/6/1
f 75/6/1 71/6/1 74/6/1
f 76/6/1 73/6/1 72/6/1
f 77/6/1 73/6/1 76/6/1
f 82/10/1 79/10/1 78/10/1
f 83/10/1 79/10/1 82/10/1
f 84/10/1 81/10/1 80/10/1
f 85/10/1 81/10/1 84/10/1
f 86/13/1 83/13/1 82/13/1
f 87/13/1 83/13/1 86/13/1
f 88/13/1 85/13/1 84/13/1
f 89/13/1 85/13/1 88/13/1
f 90/10/1 87/10/1 86/10/1
f 91/10/1 87/10/1 90/10/1
f 92/10/1 89/10/1 88/10/1
f 93/10/1 89/10/1 92/10/1
f 94/13/1 91/13/1 90/13/1
f 95/13/1 91/13/1 94/13/1
f 98/13/1 93/13/1 92/13/1
f 99/13/1 93/13/1 98/13/1
f 100/1/1 97/1/1 96/1/1
f 101/1/1 97/1/1 100/1/1
f 102/7/2 103/7/2 106/7/2
f 106/7/2 103/7/2 107/7/2
f 104/7/2 105/7/2 108/7/2
f 108/7/2 105/7/2 109/7/2
f 110/6/2 111/6/2 114/6/2
f 114/6/2 111/6/2 115/6/2
f 112/6/2 113/6/2 116/6/2
f 116/6/2 113/6/2 117/6/2
f 118/13/2 119/13/2 122/13/2
f 122/13/2 119/13/2 123/13/2
f 120/13/2 121/13/2 124/13/2
f 124/13/2 121/13/2 125/13/2
f 122/10/2 123/10/2 126/10/2
f 126/10/2 123/10/2 127/10/2
f 124/10/2 125/10/2 128/10/2
f 128/10/2 125/10/2 129/10/2
f 126/13/2 127/13/2 130/13/2
f 130/13/2 127/13/2 131/13/2
f 128/13/2 129/13/2 134/13/2
f 134/13/2 129/13/2 135/13/2
f 132/1/2 133/1/2 136/1/2
f 136/1/2 133/1/2 137/1/2
f 138/6/2 139/6/2 142/6/2
f 140/6/2 141/6/2 143/6/2
f 138/6/2 142/6/2 144/6/2
f 144/6/2 142/6/2 145/6/2
f 142/10/2 143/10/2 146/10/2
f 145/6/2 142/6/2 146/6/2
f 143/6/2 141/6/2 147/6/2
f 146/10/2 143/10/2 147/10/2
f 147/6/2 141/6/2 148/6/2
f 148/6/2 141/6/2 149/6/2
f 144/10/2 145/10/2 150/10/2
f 145/11/2 146/11/2 151/11/2
f 150/10/2 145/10/2 151/10/2
f 146/11/2 147/11/2 151/11/2
f 147/11/2 148/11/2 151/11/2
f 148/10/2 149/10/2 152/10/2
f 151/11/2 148/11/2 152/11/2
f 152/10/2 149/10/2 153/10/2
f 150/11/2 151/11/2 154/11/2
f 151/11/2 152/11/2 154/11/2
f 152/11/2 153/11/2 154/11/2
f 154/11/2 153/11/2 155/11/2
f 155/11/2 153/11/2 156/11/2
f 156/11/2 153/11/2 157/11/2
f 154/10/2 155/10/2 158/10/2
f 158/10/2 155/10/2 159/10/2
f 156/10/2 157/10/2 160/10/2
f 160/10/2 157/10/2 161/10/2
f 158/13/2 159/13/2 162/13/2
f 162/13/2 159/13/2 163/13/2
f 160/13/2 161/13/2 164/13/2
f 164/13/2 161/13/2 165/13/2
f 162/10/2 163/10/2 166/10/2
f 166/10/2 163/10/2 167/10/2
f 164/10/2 165/10/2 170/10/2
f 170/10/2 165/10/2 171/10/2
f 166/13/2 167/13/2 172/13/2
f 167/11/2 168/11/2 173/11/2
f 172/13/2 167/13/2 173/13/2
f 168/13/2 169/13/2 174/13/2
f 173/11/2 168/11/2 174/11/2
f 169/11/2 170/11/2 175/11/2
f 174/13/2 169/13/2 175/13/2
f 170/13/2 171/13/2 176/13/2
f 175/11/2 170/11/2 176/11/2
f 176/13/2 171/13/2 177/13/2
f 178/1/2 179/1/2 184/1/2
f 184/1/2 179/1/2 185/1/2
f 180/17/2 181/17/2 186/17/2
f 186/17/2 181/17/2 187/17/2
f 187/17/2 181/17/2 188/17/2
f 182/1/2 183/1/2 189/1/2
f 189/1/2 183/1/2 190/1/2
f 186/8/2 187/8/2 191/8/2
f 187/15/2 188/15/2 192/15/2
f 191/8/2 187/8/2 192/8/2
f 192/15/2 188/15/2 193/15/2
f 191/12/2 192/12/2 194/12/2
f 192/14/2 193/14/2 195/14/2
f 194/12/2 192/12/2 195/12/2
f 195/14/2 193/14/2 196/14/2
f 197/1/2 198/1/2 203/1/2
f 198/3/2 199/3/2 203/3/2
f 199/1/2 200/1/2 204/1/2
f 203/3/2 199/3/2 204/3/2
f 200/3/2 201/3/2 205/3/2
f 204/1/2 200/1/2 205/1/2
f 201/1/2 202/1/2 206/1/2
f 205/3/2 201/3/2 206/3/2
f 203/1/2 204/1/2 207/1/2
f 197/1/2 203/1/2 207/1/2
f 207/1/2 204/1/2 208/1/2
f 205/1/2 206/1/2 209/1/2
f 206/1/2 202/1/2 210/1/2
f 209/1/2 206/1/2 210/1/2
f 197/1/2 207/1/2 211/1/2
f 207/18/2 208/18/2 212/18/2
f 211/1/2 207/1/2 212/1/2
f 208/1/2 209/1/2 213/1/2
f 212/18/2 208/18/2 213/18/2
f 209/18/2 210/18/2 214/18/2
f 213/1/2 209/1/2 214/1/2
f 210/1/2 202/1/2 215/1/2
f 214/18/2 210/18/2 215/18/2
f 215/1/2 202/1/2 216/1/2
f 211/3/2 212/3/2 217/3/2
f 213/1/2 214/1/2 217/1/2
f 212/1/2 213/1/2 217/1/2
f 214/1/2 215/1/2 217/1/2
f 215/3/2 216/3/2 218/3/2
f 217/1/2 215/1/2 218/1/2
f 211/3/2 217/3/2 219/3/2
f 217/3/2 218/3/2 219/3/2
f 218/3/2 216/3/2 220/3/2
f 219/3/2 218/3/2 220/3/2
f 221/1/2 222/1/2 223/1/2
f 223/1/2 222/1/2 224/1/2
f 230/10/3 226/10/3 225/10/3
f 231/13/3 227/13/3 226/13/3
f 231/10/3 226/10/3 230/10/3
f 232/10/3 228/10/3 227/10/3
f 232/13/3 227/13/3 231/13/3
f 233/13/3 229/13/3 228/13/3
f 233/10/3 228/10/3 232/10/3
f 234/13/3 229/13/3 233/13/3
f 235/13/3 231/13/3 230/13/3
f 236/13/3 231/13/3 235/13/3
f 237/1/3 236/1/3 235/1/3
f 238/1/3 236/1/3 237/1/3
f 241/7/3 240/7/3 239/7/3
f 242/7/3 240/7/3 241/7/3
f 245/7/3 240/7/3 242/7/3
f 246/7/3 240/7/3 245/7/3
f 255/6/3 246/6/3 245/6/3
f 256/6/3 248/6/3 247/6/3
f 257/11/3 250/11/3 249/11/3
f 257/10/3 251/10/3 250/10/3
f 258/13/3 252/13/3 251/13/3
f 258/10/3 251/10/3 257/10/3
f 259/10/3 253/10/3 252/10/3
f 259/13/3 252/13/3 258/13/3
f 260/13/3 254/13/3 253/13/3
f 260/10/3 253/10/3 259/10/3
f 261/13/3 254/13/3 260/13/3
f 262/3/3 244/3/3 243/3/3
f 263/3/3 244/3/3 262/3/3
f 264/6/3 255/6/3 245/6/3
f 264/6/3 256/6/3 255/6/3
f 265/6/3 256/6/3 264/6/3
f 266/11/3 257/11/3 249/11/3
f 271/3/3 244/3/3 263/3/3
f 271/1/3 263/1/3 262/1/3
f 272/3/3 244/3/3 271/3/3
f 273/6/3 256/6/3 265/6/3
f 274/10/3 249/10/3 248/10/3
f 274/6/3 256/6/3 273/6/3
f 274/6/3 248/6/3 256/6/3
f 275/11/3 266/11/3 249/11/3
f 275/10/3 249/10/3 274/10/3
f 276/11/3 266/11/3 275/11/3
f 277/13/3 268/13/3 267/13/3
f 278/10/3 269/10/3 268/10/3
f 278/13/3 268/13/3 277/13/3
f 279/13/3 270/13/3 269/13/3
f 279/10/3 269/10/3 278/10/3
f 280/13/3 270/13/3 279/13/3
f 281/1/3 272/1/3 271/1/3
f 281/1/3 271/1/3 262/1/3
f 282/3/3 244/3/3 272/3/3
f 282/1/3 272/1/3 281/1/3
f 283/3/3 244/3/3 282/3/3
f 289/11/3 285/11/3 284/11/3
f 290/5/3 286/5/3 285/5/3
f 290/11/3 285/11/3 289/11/3
f 291/15/3 287/15/3 286/15/3
f 291/5/3 286/5/3 290/5/3
f 292/15/3 287/15/3 291/15/3
f 293/11/3 290/11/3 289/11/3
f 293/11/3 289/11/3 288/11/3
f 293/11/3 292/11/3 291/11/3
f 293/11/3 291/11/3 290/11/3
f 294/11/3 292/11/3 293/11/3
f 295/11/3 292/11/3 294/11/3
f 296/11/3 292/11/3 295/11/3
f 297/11/3 292/11/3 296/11/3
f 298/11/3 292/11/3 297/11/3
f 303/17/3 300/17/3 299/17/3
f 304/8/3 301/8/3 300/8/3
f 304/17/3 300/17/3 303/17/3
f 305/12/3 302/12/3 301/12/3
f 305/8/3 301/8/3 304/8/3
f 306/12/3 302/12/3 305/12/3
f 309/1/3 308/1/3 307/1/3
f 310/1/3 308/1/3 309/1/3
f 313/1/3 312/1/3 311/1/3
f 314/1/3 312/1/3 313/1/3
f 317/7/3 316/7/3 315/7/3
f 318/7/3 316/7/3 317/7/3
f 321/7/3 316/7/3 318/7/3
f 322/7/3 316/7/3 321/7/3
f 323/11/3 320/11/3 319/11/3
f 324/11/3 320/11/3 323/11/3
f 325/6/3 322/6/3 321/6/3
f 327/6/3 325/6/3 321/6/3
f 327/6/3 326/6/3 325/6/3
f 328/6/3 326/6/3 327/6/3
f 329/6/3 326/6/3 328/6/3
f 330/6/3 326/6/3 329/6/3
f 333/1/3 332/1/3 331/1/3
f 334/1/3 332/1/3 333/1/3
f 335/1/4 336/1/4 337/1/4
f 337/1/4 336/1/4 338/1/4
f 339/7/4 340/7/4 341/7/4
f 341/7/4 340/7/4 342/7/4
f 342/7/4 340/7/4 345/7/4
f 345/7/4 340/7/4 346/7/4
f 343/11/4 344/11/4 347/11/4
f 347/11/4 344/11/4 348/11/4
f 345/6/4 346/6/4 349/6/4
f 345/6/4 349/6/4 351/6/4
f 349/6/4 350/6/4 351/6/4
f 351/6/4 350/6/4 352/6/4
f 352/6/4 350/6/4 353/6/4
f 353/6/4 350/6/4 354/6/4
f 355/1/4 356/1/4 357/1/4
f 357/1/4 356/1/4 358/1/4
f 359/1/4 360/1/4 361/1/4
f 361/1/4 360/1/4 362/1/4
f 363/11/4 364/11/4 369/11/4
f 364/12/4 365/12/4 370/12/4
f 369/11/4 364/11/4 370/11/4
f 365/4/4 366/4/4 371/4/4
f 370/12/4 365/12/4 371/12/4
f 366/8/4 367/8/4 372/8/4
f 371/4/4 366/4/4 372/4/4
f 372/8/4 367/8/4 373/8/4
f 370/11/4 371/11/4 374/11/4
f 368/11/4 369/11/4 374/11/4
f 372/11/4 373/11/4 374/11/4
f 371/11/4 372/11/4 374/11/4
f 369/11/4 370/11/4 374/11/4
f 374/11/4 373/11/4 375/11/4
f 375/11/4 373/11/4 376/11/4
f 376/11/4 373/11/4 377/11/4
f 377/11/4 373/11/4 378/11/4
f 378/11/4 373/11/4 379/11/4
f 380/17/4 381/17/4 384/17/4
f 381/15/4 382/15/4 385/15/4
f 384/17/4 381/17/4 385/17/4
f 382/14/4 383/14/4 386/14/4
f 385/15/4 382/15/4 386/15/4
f 386/14/4 383/14/4 387/14/4
f 388/7/4 389/7/4 390/7/4
f 390/7/4 389/7/4 391/7/4
f 391/7/4 389/7/4 394/7/4
f 394/7/4 389/7/4 395/7/4
f 394/6/4 395/6/4 404/6/4
f 396/6/4 397/6/4 405/6/4
f 398/11/4 399/11/4 406/11/4
f 399/10/4 400/10/4 406/10/4
f 400/13/4 401/13/4 407/13/4
f 406/10/4 400/10/4 407/10/4
f 401/10/4 402/10/4 408/10/4
f 407/13/4 401/13/4 408/13/4
f 402/13/4 403/13/4 409/13/4
f 408/10/4 402/10/4 409/10/4
f 409/13/4 403/13/4 410/13/4
f 392/3/4 393/3/4 411/3/4
f 411/3/4 393/3/4 412/3/4
f 394/6/4 404/6/4 413/6/4
f 404/6/4 405/6/4 413/6/4
f 413/6/4 405/6/4 414/6/4
f 398/11/4 406/11/4 415/11/4
f 412/3/4 393/3/4 420/3/4
f 411/1/4 412/1/4 420/1/4
f 420/3/4 393/3/4 421/3/4
f 414/6/4 405/6/4 422/6/4
f 397/10/4 398/10/4 423/10/4
f 422/6/4 405/6/4 423/6/4
f 405/6/4 397/6/4 423/6/4
f 398/11/4 415/11/4 424/11/4
f 423/10/4 398/10/4 424/10/4
f 424/11/4 415/11/4 425/11/4
f 416/13/4 417/13/4 426/13/4
f 417/10/4 418/10/4 427/10/4
f 426/13/4 417/13/4 427/13/4
f 418/13/4 419/13/4 428/13/4
f 427/10/4 418/10/4 428/10/4
f 428/13/4 419/13/4 429/13/4
f 420/1/4 421/1/4 430/1/4
f 411/1/4 420/1/4 430/1/4
f 421/3/4 393/3/4 431/3/4
f 430/1/4 421/1/4 431/1/4
f 431/3/4 393/3/4 432/3/4
f 433/10/4 434/10/4 438/10/4
f 434/13/4 435/13/4 439/13/4
f 438/10/4 434/10/4 439/10/4
f 435/10/4 436/10/4 440/10/4
f 439/13/4 435/13/4 440/13/4
f 436/13/4 437/13/4 441/13/4
f 440/10/4 436/10/4 441/10/4
f 441/13/4 437/13/4 442/13/4
f 438/13/4 439/13/4 443/13/4
f 443/13/4 439/13/4 444/13/4
f 443/1/4 444/1/4 445/1/4
f 445/1/4 444/1/4 446/1/4
f 449/7/5 448/7/5 447/7/5
f 450/7/5 448/7/5 449/7/5
f 453/7/5 452/7/5 451/7/5
f 454/7/5 452/7/5 453/7/5
f 458/7/5 456/7/5 455/7/5
f 459/6/5 457/6/5 456/6/5
f 459/7/5 456/7/5 458/7/5
f 460/6/5 457/6/5 459/6/5
f 464/7/5 462/7/5 461/7/5
f 465/6/5 463/6/5 462/6/5
f 465/7/5 462/7/5 464/7/5
f 466/6/5 463/6/5 465/6/5
f 469/6/5 468/6/5 467/6/5
f 470/6/5 468/6/5 469/6/5
f 473/6/5 472/6/5 471/6/5
f 474/6/5 472/6/5 473/6/5
f 477/6/5 476/6/5 475/6/5
f 478/6/5 476/6/5 477/6/5
f 480/10/5 478/10/5 477/10/5
f 480/10/5 479/10/5 478/10/5
f 481/10/5 479/10/5 480/10/5
f 482/10/5 479/10/5 481/10/5
f 483/6/5 481/6/5 480/6/5
f 484/6/5 481/6/5 483/6/5
f 487/11/5 486/11/5 485/11/5
f 488/11/5 486/11/5 487/11/5
f 491/11/5 490/11/5 489/11/5
f 492/11/5 490/11/5 491/11/5
f 497/10/5 494/10/5 493/10/5
f 498/13/5 495/13/5 494/13/5
f 498/10/5 494/10/5 497/10/5
f 499/1/5 496/1/5 495/1/5
f 499/13/5 495/13/5 498/13/5
f 500/1/5 496/1/5 499/1/5
f 505/11/5 502/11/5 501/11/5
f 507/11/5 505/11/5 501/11/5
f 507/11/5 506/11/5 505/11/5
f 508/11/5 506/11/5 507/11/5
f 509/11/5 507/11/5 501/11/5
f 510/11/5 507/11/5 509/11/5
f 511/17/5 504/17/5 503/17/5
f 512/17/5 504/17/5 511/17/5
f 517/10/5 514/10/5 513/10/5
f 518/13/5 515/13/5 514/13/5
f 518/10/5 514/10/5 517/10/5
f 519/1/5 516/1/5 515/1/5
f 519/13/5 515/13/5 518/13/5
f 520/1/5 516/1/5 519/1/5
f 524/1/5 523/1/5 522/1/5
f 525/1/5 523/1/5 524/1/5
f 526/3/5 522/3/5 521/3/5
f 526/1/5 524/1/5 522/1/5
f 527/1/5 524/1/5 526/1/5
f 528/3/5 525/3/5 524/3/5
f 528/1/5 524/1/5 527/1/5
f 529/3/5 525/3/5 528/3/5
f 530/3/5 526/3/5 521/3/5
f 531/1/5 529/1/5 528/1/5
f 531/1/5 528/1/5 527/1/5
f 532/1/5 529/1/5 531/1/5
f 533/1/5 529/1/5 532/1/5
f 534/1/5 531/1/5 530/1/5
f 534/1/5 532/1/5 531/1/5
f 534/3/5 533/3/5 532/3/5
f 535/3/5 533/3/5 534/3/5
f 536/3/5 530/3/5 521/3/5
f 537/1/5 534/1/5 530/1/5
f 537/3/5 530/3/5 536/3/5
f 537/1/5 535/1/5 534/1/5
f 538/1/5 535/1/5 537/1/5
f 541/1/5 540/1/5 539/1/5
f 542/1/5 540/1/5 541/1/5
f 543/7/6 544/7/6 546/7/6
f 544/6/6 545/6/6 547/6/6
f 546/7/6 544/7/6 547/7/6
f 547/6/6 545/6/6 548/6/6
f 549/7/6 550/7/6 552/7/6
f 550/6/6 551/6/6 553/6/6
f 552/7/6 550/7/6 553/7/6
f 553/6/6 551/6/6 554/6/6
f 555/13/6 556/13/6 558/13/6
f 556/1/6 557/1/6 559/1/6
f 558/13/6 556/13/6 559/13/6
f 559/1/6 557/1/6 560/1/6
f 561/13/6 562/13/6 564/13/6
f 562/1/6 563/1/6 565/1/6
f 564/13/6 562/13/6 565/13/6
f 565/1/6 563/1/6 566/1/6
f 567/12/6 568/12/6 569/12/6
f 569/12/6 568/12/6 570/12/6
f 569/14/6 570/14/6 571/14/6
f 571/14/6 570/14/6 572/14/6
f 572/14/6 570/14/6 573/14/6
f 574/13/6 575/13/6 577/13/6
f 577/13/6 575/13/6 578/13/6
f 576/13/6 577/13/6 582/13/6
f 577/13/6 578/13/6 582/13/6
f 578/13/6 579/13/6 582/13/6
f 582/13/6 579/13/6 583/13/6
f 581/11/6 582/11/6 584/11/6
f 582/11/6 583/11/6 584/11/6
f 584/11/6 583/11/6 585/11/6
f 585/11/6 583/11/6 586/11/6
f 586/11/6 583/11/6 587/11/6
f 580/15/6 581/15/6 588/15/6
f 581/11/6 584/11/6 589/11/6
f 588/15/6 581/15/6 589/15/6
f 584/13/6 585/13/6 590/13/6
f 589/11/6 584/11/6 590/11/6
f 590/13/6 585/13/6 591/13/6
f 586/13/6 587/13/6 592/13/6
f 592/13/6 587/13/6 593/13/6
f 588/8/6 589/8/6 594/8/6
f 590/11/6 591/11/6 595/11/6
f 594/8/6 589/8/6 595/8/6
f 589/11/6 590/11/6 595/11/6
f 592/11/6 593/11/6 595/11/6
f 591/11/6 592/11/6 595/11/6
f 595/11/6 593/11/6 596/11/6
f 596/11/6 593/11/6 597/11/6
f 596/13/6 597/13/6 598/13/6
f 598/13/6 597/13/6 599/13/6
f 599/13/6 597/13/6 600/13/6
f 600/13/6 597/13/6 601/13/6
f 599/13/6 600/13/6 602/13/6
f 602/13/6 600/13/6 603/13/6
f 604/1/6 605/1/6 606/1/6
f 606/1/6 605/1/6 607/1/6
f 608/3/6 609/3/6 610/3/6
f 610/3/6 609/3/6 611/3/6
