# MagicaVoxel @ Ephtracy

# group
g Special1.1

# material
mtllib Special1.1.mtl
usemtl palette

# normals
vn -1 0 0
vn 1 0 0
vn 0 0 1
vn 0 0 -1
vn 0 -1 0
vn 0 1 0

# texcoords
vt 0.0332031 0.5
vt 0.0371094 0.5
vt 0.0410156 0.5
vt 0.0449219 0.5
vt 0.0917969 0.5
vt 0.123047 0.5
vt 0.271484 0.5
vt 0.279297 0.5
vt 0.306641 0.5
vt 0.431641 0.5
vt 0.681641 0.5
vt 0.892578 0.5
vt 0.955078 0.5
vt 0.958984 0.5
vt 0.962891 0.5
vt 0.966797 0.5
vt 0.978516 0.5
vt 0.994141 0.5

# verts
v -4 9 1
v -4 9 -2
v -4 10 1
v -4 10 -1
v -4 10 -2
v -4 11 1
v -4 11 -1
v -4 11 -2
v -4 12 -1
v -4 12 -2
v -4 13 1
v -4 13 -1
v -4 13 -2
v -3 8 1
v -3 8 -0
v -3 8 -1
v -3 8 -2
v -3 9 1
v -3 9 -0
v -3 9 -1
v -3 9 -2
v -3 14 2
v -3 14 -3
v -3 19 2
v -3 19 -3
v -2 0 2
v -2 0 -0
v -2 0 -1
v -2 0 -3
v -2 2 2
v -2 2 -0
v -2 2 -1
v -2 2 -3
v -2 4 2
v -2 4 -0
v -2 4 -1
v -2 4 -3
v -2 6 2
v -2 6 -0
v -2 6 -1
v -2 6 -3
v -2 7 2
v -2 7 -0
v -2 7 -1
v -2 7 -3
v -2 8 2
v -2 8 1
v -2 8 -0
v -2 8 -1
v -2 8 -2
v -2 8 -3
v -2 9 2
v -2 9 1
v -2 9 -0
v -2 9 -1
v -2 9 -2
v -2 9 -3
v -2 10 2
v -2 10 1
v -2 10 -2
v -2 10 -3
v -2 11 2
v -2 11 1
v -2 11 -2
v -2 11 -3
v -2 12 2
v -2 12 1
v -2 12 -2
v -2 12 -3
v -2 13 2
v -2 13 1
v -2 13 -2
v -2 13 -3
v -1 4 2
v -1 4 -0
v -1 4 -1
v -1 4 -3
v -1 6 2
v -1 6 -0
v -1 6 -1
v -1 6 -3
v -1 7 3
v -1 7 2
v -1 7 -3
v -1 7 -4
v -1 8 3
v -1 8 2
v -1 8 -3
v -1 8 -4
v -1 9 3
v -1 9 2
v -1 9 -3
v -1 9 -4
v -1 10 3
v -1 10 2
v -1 10 -3
v -1 10 -4
v -1 11 3
v -1 11 2
v -1 11 -3
v -1 11 -4
v -1 12 3
v -1 12 2
v -1 12 -3
v -1 12 -4
v -1 13 3
v -1 13 2
v -1 13 -0
v -1 13 -1
v -1 13 -3
v -1 13 -4
v -1 14 -0
v -1 14 -1
v 0 1 2
v 0 1 -0
v 0 1 -1
v 0 1 -3
v 0 2 2
v 0 2 -0
v 0 2 -1
v 0 2 -3
v 0 4 2
v 0 4 -0
v 0 4 -1
v 0 4 -3
v 0 7 3
v 0 7 2
v 0 7 -3
v 0 7 -4
v 0 8 3
v 0 8 2
v 0 8 -3
v 0 8 -4
v 0 9 3
v 0 9 2
v 0 9 -3
v 0 9 -4
v 0 10 3
v 0 10 2
v 0 10 -3
v 0 10 -4
v 0 11 3
v 0 11 2
v 0 11 -3
v 0 11 -4
v 0 12 3
v 0 12 2
v 0 12 -3
v 0 12 -4
v 0 13 3
v 0 13 2
v 0 13 -0
v 0 13 -1
v 0 13 -3
v 0 13 -4
v 0 14 -0
v 0 14 -1
v 1 0 2
v 1 0 -0
v 1 0 -1
v 1 0 -3
v 1 1 2
v 1 1 -0
v 1 1 -1
v 1 1 -3
v 1 4 2
v 1 4 -0
v 1 4 -1
v 1 4 -3
v 1 6 -0
v 1 6 -1
v 1 7 2
v 1 7 1
v 1 7 -0
v 1 7 -1
v 1 7 -2
v 1 7 -3
v 1 8 2
v 1 8 1
v 1 8 -2
v 1 8 -3
v 1 9 2
v 1 9 1
v 1 9 -2
v 1 9 -3
v 1 10 2
v 1 10 1
v 1 10 -2
v 1 10 -3
v 1 11 2
v 1 11 1
v 1 11 -2
v 1 11 -3
v 1 12 2
v 1 12 1
v 1 12 -0
v 1 12 -1
v 1 12 -2
v 1 12 -3
v 1 13 2
v 1 13 1
v 1 13 -0
v 1 13 -1
v 1 13 -2
v 1 13 -3
v 2 9 1
v 2 9 -2
v 2 10 1
v 2 10 -0
v 2 10 -2
v 2 11 1
v 2 11 -0
v 2 11 -2
v 2 12 1
v 2 12 -0
v 2 12 -2
v 2 14 2
v 2 14 1
v 2 14 -0
v 2 14 -1
v 2 14 -2
v 2 14 -3
v 2 15 1
v 2 15 -0
v 2 15 -1
v 2 15 -2
v 2 16 1
v 2 16 -0
v 2 16 -1
v 2 16 -2
v 2 17 2
v 2 17 1
v 2 17 -0
v 2 17 -1
v 2 17 -2
v 2 17 -3
v 2 18 1
v 2 18 -2
v 2 19 2
v 2 19 -3
v 3 15 -0
v 3 15 -1
v 3 16 -0
v 3 16 -1
v -1 7 3
v -1 8 3
v -1 9 3
v -1 10 3
v -1 11 3
v -1 12 3
v -1 13 3
v 0 7 3
v 0 8 3
v 0 9 3
v 0 10 3
v 0 11 3
v 0 12 3
v 0 13 3
v -3 14 2
v -3 19 2
v -2 0 2
v -2 2 2
v -2 4 2
v -2 6 2
v -2 7 2
v -2 8 2
v -2 9 2
v -2 10 2
v -2 11 2
v -2 12 2
v -2 13 2
v -1 4 2
v -1 6 2
v -1 7 2
v -1 8 2
v -1 9 2
v -1 10 2
v -1 11 2
v -1 12 2
v -1 13 2
v -1 14 2
v -1 16 2
v 0 1 2
v 0 2 2
v 0 4 2
v 0 7 2
v 0 8 2
v 0 9 2
v 0 10 2
v 0 11 2
v 0 12 2
v 0 13 2
v 0 16 2
v 0 17 2
v 1 0 2
v 1 1 2
v 1 4 2
v 1 7 2
v 1 8 2
v 1 9 2
v 1 10 2
v 1 11 2
v 1 12 2
v 1 13 2
v 2 14 2
v 2 17 2
v 2 19 2
v -4 9 1
v -4 10 1
v -4 11 1
v -4 13 1
v -3 8 1
v -3 9 1
v -3 10 1
v -3 11 1
v -3 13 1
v -2 8 1
v -2 9 1
v -2 10 1
v -2 11 1
v -2 12 1
v -2 13 1
v 1 9 1
v 1 10 1
v 1 11 1
v 1 12 1
v 2 9 1
v 2 10 1
v 2 11 1
v 2 12 1
v -1 13 -0
v -1 14 -0
v 0 13 -0
v 0 14 -0
v 2 15 -0
v 2 16 -0
v 3 15 -0
v 3 16 -0
v -3 8 -1
v -3 9 -1
v -2 0 -1
v -2 2 -1
v -2 4 -1
v -2 8 -1
v -2 9 -1
v -1 4 -1
v -1 6 -1
v 0 1 -1
v 0 2 -1
v 0 4 -1
v 1 0 -1
v 1 1 -1
v 1 4 -1
v 1 6 -1
v -3 8 -0
v -3 9 -0
v -2 0 -0
v -2 2 -0
v -2 4 -0
v -2 8 -0
v -2 9 -0
v -1 4 -0
v -1 6 -0
v 0 1 -0
v 0 2 -0
v 0 4 -0
v 1 0 -0
v 1 1 -0
v 1 4 -0
v 1 6 -0
v -1 13 -1
v -1 14 -1
v 0 13 -1
v 0 14 -1
v 2 15 -1
v 2 16 -1
v 3 15 -1
v 3 16 -1
v -4 9 -2
v -4 10 -2
v -4 11 -2
v -4 12 -2
v -4 13 -2
v -3 8 -2
v -3 9 -2
v -3 10 -2
v -3 11 -2
v -3 12 -2
v -3 13 -2
v -2 8 -2
v -2 9 -2
v -2 10 -2
v -2 11 -2
v -2 12 -2
v -2 13 -2
v 1 9 -2
v 1 10 -2
v 1 11 -2
v 1 12 -2
v 2 9 -2
v 2 10 -2
v 2 11 -2
v 2 12 -2
v -3 14 -3
v -3 19 -3
v -2 0 -3
v -2 2 -3
v -2 4 -3
v -2 6 -3
v -2 7 -3
v -2 8 -3
v -2 9 -3
v -2 10 -3
v -2 11 -3
v -2 12 -3
v -2 13 -3
v -1 4 -3
v -1 6 -3
v -1 7 -3
v -1 8 -3
v -1 9 -3
v -1 10 -3
v -1 11 -3
v -1 12 -3
v -1 13 -3
v -1 14 -3
v -1 16 -3
v 0 1 -3
v 0 2 -3
v 0 4 -3
v 0 7 -3
v 0 8 -3
v 0 9 -3
v 0 10 -3
v 0 11 -3
v 0 12 -3
v 0 13 -3
v 0 16 -3
v 0 17 -3
v 1 0 -3
v 1 1 -3
v 1 4 -3
v 1 7 -3
v 1 8 -3
v 1 9 -3
v 1 10 -3
v 1 11 -3
v 1 12 -3
v 1 13 -3
v 2 14 -3
v 2 17 -3
v 2 19 -3
v -1 7 -4
v -1 8 -4
v -1 9 -4
v -1 10 -4
v -1 11 -4
v -1 12 -4
v -1 13 -4
v 0 7 -4
v 0 8 -4
v 0 9 -4
v 0 10 -4
v 0 11 -4
v 0 12 -4
v 0 13 -4
v -2 0 2
v 1 0 2
v -2 0 -0
v 1 0 -0
v -2 0 -1
v 1 0 -1
v -2 0 -3
v 1 0 -3
v 0 4 2
v 1 4 2
v 0 4 -0
v 1 4 -0
v 0 4 -1
v 1 4 -1
v 0 4 -3
v 1 4 -3
v -2 6 2
v -1 6 2
v -2 6 -0
v -1 6 -0
v 1 6 -0
v -2 6 -1
v -1 6 -1
v 1 6 -1
v -2 6 -3
v -1 6 -3
v -1 7 3
v 0 7 3
v -1 7 2
v 0 7 2
v -1 7 -3
v 0 7 -3
v -1 7 -4
v 0 7 -4
v -3 8 1
v -2 8 1
v -3 8 -0
v -2 8 -0
v -3 8 -1
v -2 8 -1
v -3 8 -2
v -2 8 -2
v -4 9 1
v -3 9 1
v 1 9 1
v 2 9 1
v -3 9 -0
v -2 9 -0
v -3 9 -1
v -2 9 -1
v -4 9 -2
v -3 9 -2
v 1 9 -2
v 2 9 -2
v -3 14 2
v -1 14 2
v 2 14 2
v 1 14 1
v 2 14 1
v -1 14 -0
v 0 14 -0
v 1 14 -0
v 2 14 -0
v -1 14 -1
v 0 14 -1
v 1 14 -1
v 2 14 -1
v 1 14 -2
v 2 14 -2
v -3 14 -3
v -1 14 -3
v 2 14 -3
v 2 15 -0
v 3 15 -0
v 2 15 -1
v 3 15 -1
v 0 1 2
v 1 1 2
v 0 1 -0
v 1 1 -0
v 0 1 -1
v 1 1 -1
v 0 1 -3
v 1 1 -3
v -2 4 2
v -1 4 2
v -2 4 -0
v -1 4 -0
v -2 4 -1
v -1 4 -1
v -2 4 -3
v -1 4 -3
v 1 12 1
v 2 12 1
v 1 12 -0
v 2 12 -0
v 1 12 -1
v 1 12 -2
v 2 12 -2
v -1 13 3
v 0 13 3
v -2 13 2
v -1 13 2
v 0 13 2
v 1 13 2
v -4 13 1
v -3 13 1
v -2 13 1
v 1 13 1
v -2 13 -0
v -1 13 -0
v 0 13 -0
v 1 13 -0
v -4 13 -1
v -3 13 -1
v -2 13 -1
v -1 13 -1
v 0 13 -1
v 1 13 -1
v -4 13 -2
v -3 13 -2
v -2 13 -2
v 1 13 -2
v -2 13 -3
v -1 13 -3
v 0 13 -3
v 1 13 -3
v -1 13 -4
v 0 13 -4
v 2 16 -0
v 3 16 -0
v 2 16 -1
v 3 16 -1
v -3 19 2
v 2 19 2
v -3 19 -3
v 2 19 -3

# faces
f 3/11/1 2/11/1 1/11/1
f 4/11/1 2/11/1 3/11/1
f 5/11/1 2/11/1 4/11/1
f 6/5/1 4/5/1 3/5/1
f 7/12/1 5/12/1 4/12/1
f 7/5/1 4/5/1 6/5/1
f 8/12/1 5/12/1 7/12/1
f 9/15/1 7/15/1 6/15/1
f 9/4/1 8/4/1 7/4/1
f 10/4/1 8/4/1 9/4/1
f 11/15/1 9/15/1 6/15/1
f 12/8/1 10/8/1 9/8/1
f 12/15/1 9/15/1 11/15/1
f 13/8/1 10/8/1 12/8/1
f 18/11/1 15/11/1 14/11/1
f 19/11/1 15/11/1 18/11/1
f 20/11/1 17/11/1 16/11/1
f 21/11/1 17/11/1 20/11/1
f 24/3/1 23/3/1 22/3/1
f 25/3/1 23/3/1 24/3/1
f 30/7/1 27/7/1 26/7/1
f 31/7/1 27/7/1 30/7/1
f 32/7/1 29/7/1 28/7/1
f 33/7/1 29/7/1 32/7/1
f 34/6/1 31/6/1 30/6/1
f 35/6/1 31/6/1 34/6/1
f 36/6/1 33/6/1 32/6/1
f 37/6/1 33/6/1 36/6/1
f 42/6/1 39/6/1 38/6/1
f 43/10/1 40/10/1 39/10/1
f 43/6/1 39/6/1 42/6/1
f 44/6/1 41/6/1 40/6/1
f 44/10/1 40/10/1 43/10/1
f 45/6/1 41/6/1 44/6/1
f 46/10/1 43/10/1 42/10/1
f 46/10/1 44/10/1 43/10/1
f 46/10/1 45/10/1 44/10/1
f 47/10/1 45/10/1 46/10/1
f 48/10/1 45/10/1 47/10/1
f 49/10/1 45/10/1 48/10/1
f 50/10/1 45/10/1 49/10/1
f 51/10/1 45/10/1 50/10/1
f 52/11/1 47/11/1 46/11/1
f 53/11/1 47/11/1 52/11/1
f 54/10/1 49/10/1 48/10/1
f 55/10/1 49/10/1 54/10/1
f 56/11/1 51/11/1 50/11/1
f 57/11/1 51/11/1 56/11/1
f 58/10/1 53/10/1 52/10/1
f 59/10/1 53/10/1 58/10/1
f 60/10/1 57/10/1 56/10/1
f 61/10/1 57/10/1 60/10/1
f 62/13/1 59/13/1 58/13/1
f 63/13/1 59/13/1 62/13/1
f 64/13/1 61/13/1 60/13/1
f 65/13/1 61/13/1 64/13/1
f 66/10/1 63/10/1 62/10/1
f 67/10/1 63/10/1 66/10/1
f 68/10/1 65/10/1 64/10/1
f 69/10/1 65/10/1 68/10/1
f 70/13/1 67/13/1 66/13/1
f 71/13/1 67/13/1 70/13/1
f 72/13/1 69/13/1 68/13/1
f 73/13/1 69/13/1 72/13/1
f 78/6/1 75/6/1 74/6/1
f 79/6/1 75/6/1 78/6/1
f 80/6/1 77/6/1 76/6/1
f 81/6/1 77/6/1 80/6/1
f 86/1/1 83/1/1 82/1/1
f 87/1/1 83/1/1 86/1/1
f 88/1/1 85/1/1 84/1/1
f 89/1/1 85/1/1 88/1/1
f 90/13/1 87/13/1 86/13/1
f 91/13/1 87/13/1 90/13/1
f 92/13/1 89/13/1 88/13/1
f 93/13/1 89/13/1 92/13/1
f 94/10/1 91/10/1 90/10/1
f 95/10/1 91/10/1 94/10/1
f 96/10/1 93/10/1 92/10/1
f 97/10/1 93/10/1 96/10/1
f 98/13/1 95/13/1 94/13/1
f 99/13/1 95/13/1 98/13/1
f 100/13/1 97/13/1 96/13/1
f 101/13/1 97/13/1 100/13/1
f 102/10/1 99/10/1 98/10/1
f 103/10/1 99/10/1 102/10/1
f 104/10/1 101/10/1 100/10/1
f 105/10/1 101/10/1 104/10/1
f 106/13/1 103/13/1 102/13/1
f 107/13/1 103/13/1 106/13/1
f 110/13/1 105/13/1 104/13/1
f 111/13/1 105/13/1 110/13/1
f 112/1/1 109/1/1 108/1/1
f 113/1/1 109/1/1 112/1/1
f 114/7/2 115/7/2 118/7/2
f 118/7/2 115/7/2 119/7/2
f 116/7/2 117/7/2 120/7/2
f 120/7/2 117/7/2 121/7/2
f 118/6/2 119/6/2 122/6/2
f 122/6/2 119/6/2 123/6/2
f 120/6/2 121/6/2 124/6/2
f 124/6/2 121/6/2 125/6/2
f 126/1/2 127/1/2 130/1/2
f 130/1/2 127/1/2 131/1/2
f 128/1/2 129/1/2 132/1/2
f 132/1/2 129/1/2 133/1/2
f 130/13/2 131/13/2 134/13/2
f 134/13/2 131/13/2 135/13/2
f 132/13/2 133/13/2 136/13/2
f 136/13/2 133/13/2 137/13/2
f 134/10/2 135/10/2 138/10/2
f 138/10/2 135/10/2 139/10/2
f 136/10/2 137/10/2 140/10/2
f 140/10/2 137/10/2 141/10/2
f 138/13/2 139/13/2 142/13/2
f 142/13/2 139/13/2 143/13/2
f 140/13/2 141/13/2 144/13/2
f 144/13/2 141/13/2 145/13/2
f 142/10/2 143/10/2 146/10/2
f 146/10/2 143/10/2 147/10/2
f 144/10/2 145/10/2 148/10/2
f 148/10/2 145/10/2 149/10/2
f 146/13/2 147/13/2 150/13/2
f 150/13/2 147/13/2 151/13/2
f 148/13/2 149/13/2 154/13/2
f 154/13/2 149/13/2 155/13/2
f 152/1/2 153/1/2 156/1/2
f 156/1/2 153/1/2 157/1/2
f 158/7/2 159/7/2 162/7/2
f 162/7/2 159/7/2 163/7/2
f 160/7/2 161/7/2 164/7/2
f 164/7/2 161/7/2 165/7/2
f 166/6/2 167/6/2 170/6/2
f 168/6/2 169/6/2 171/6/2
f 166/6/2 170/6/2 172/6/2
f 172/6/2 170/6/2 173/6/2
f 170/10/2 171/10/2 174/10/2
f 173/6/2 170/6/2 174/6/2
f 171/6/2 169/6/2 175/6/2
f 174/10/2 171/10/2 175/10/2
f 175/6/2 169/6/2 176/6/2
f 176/6/2 169/6/2 177/6/2
f 172/10/2 173/10/2 178/10/2
f 173/11/2 174/11/2 179/11/2
f 178/10/2 173/10/2 179/10/2
f 174/11/2 175/11/2 179/11/2
f 175/11/2 176/11/2 179/11/2
f 176/10/2 177/10/2 180/10/2
f 179/11/2 176/11/2 180/11/2
f 180/10/2 177/10/2 181/10/2
f 178/11/2 179/11/2 182/11/2
f 179/11/2 180/11/2 182/11/2
f 180/11/2 181/11/2 182/11/2
f 182/11/2 181/11/2 183/11/2
f 183/11/2 181/11/2 184/11/2
f 184/11/2 181/11/2 185/11/2
f 182/10/2 183/10/2 186/10/2
f 186/10/2 183/10/2 187/10/2
f 184/10/2 185/10/2 188/10/2
f 188/10/2 185/10/2 189/10/2
f 186/13/2 187/13/2 190/13/2
f 190/13/2 187/13/2 191/13/2
f 188/13/2 189/13/2 192/13/2
f 192/13/2 189/13/2 193/13/2
f 190/10/2 191/10/2 194/10/2
f 194/10/2 191/10/2 195/10/2
f 192/10/2 193/10/2 198/10/2
f 198/10/2 193/10/2 199/10/2
f 194/13/2 195/13/2 200/13/2
f 195/11/2 196/11/2 201/11/2
f 200/13/2 195/13/2 201/13/2
f 196/13/2 197/13/2 202/13/2
f 201/11/2 196/11/2 202/11/2
f 197/11/2 198/11/2 203/11/2
f 202/13/2 197/13/2 203/13/2
f 198/13/2 199/13/2 204/13/2
f 203/11/2 198/11/2 204/11/2
f 204/13/2 199/13/2 205/13/2
f 206/17/2 207/17/2 208/17/2
f 208/17/2 207/17/2 209/17/2
f 209/17/2 207/17/2 210/17/2
f 208/8/2 209/8/2 211/8/2
f 209/15/2 210/15/2 212/15/2
f 211/8/2 209/8/2 212/8/2
f 212/15/2 210/15/2 213/15/2
f 211/12/2 212/12/2 214/12/2
f 212/14/2 213/14/2 215/14/2
f 214/12/2 212/12/2 215/12/2
f 215/14/2 213/14/2 216/14/2
f 218/3/2 219/3/2 223/3/2
f 217/1/2 218/1/2 223/1/2
f 219/1/2 220/1/2 224/1/2
f 223/3/2 219/3/2 224/3/2
f 220/3/2 221/3/2 225/3/2
f 224/1/2 220/1/2 225/1/2
f 221/1/2 222/1/2 226/1/2
f 225/3/2 221/3/2 226/3/2
f 223/1/2 224/1/2 227/1/2
f 217/1/2 223/1/2 227/1/2
f 227/1/2 224/1/2 228/1/2
f 225/1/2 226/1/2 229/1/2
f 226/1/2 222/1/2 230/1/2
f 229/1/2 226/1/2 230/1/2
f 217/1/2 227/1/2 231/1/2
f 227/18/2 228/18/2 232/18/2
f 231/1/2 227/1/2 232/1/2
f 228/1/2 229/1/2 233/1/2
f 232/18/2 228/18/2 233/18/2
f 229/18/2 230/18/2 234/18/2
f 233/1/2 229/1/2 234/1/2
f 230/1/2 222/1/2 235/1/2
f 234/18/2 230/18/2 235/18/2
f 235/1/2 222/1/2 236/1/2
f 231/3/2 232/3/2 237/3/2
f 233/1/2 234/1/2 237/1/2
f 232/1/2 233/1/2 237/1/2
f 234/1/2 235/1/2 237/1/2
f 235/3/2 236/3/2 238/3/2
f 237/1/2 235/1/2 238/1/2
f 231/3/2 237/3/2 239/3/2
f 237/3/2 238/3/2 239/3/2
f 238/3/2 236/3/2 240/3/2
f 239/3/2 238/3/2 240/3/2
f 241/1/2 242/1/2 243/1/2
f 243/1/2 242/1/2 244/1/2
f 252/1/3 246/1/3 245/1/3
f 253/13/3 247/13/3 246/13/3
f 253/1/3 246/1/3 252/1/3
f 254/10/3 248/10/3 247/10/3
f 254/13/3 247/13/3 253/13/3
f 255/13/3 249/13/3 248/13/3
f 255/10/3 248/10/3 254/10/3
f 256/10/3 250/10/3 249/10/3
f 256/13/3 249/13/3 255/13/3
f 257/13/3 251/13/3 250/13/3
f 257/10/3 250/10/3 256/10/3
f 258/13/3 251/13/3 257/13/3
f 272/6/3 263/6/3 262/6/3
f 273/6/3 265/6/3 264/6/3
f 274/10/3 266/10/3 265/10/3
f 274/6/3 265/6/3 273/6/3
f 275/11/3 267/11/3 266/11/3
f 275/10/3 266/10/3 274/10/3
f 276/10/3 268/10/3 267/10/3
f 276/11/3 267/11/3 275/11/3
f 277/13/3 269/13/3 268/13/3
f 277/10/3 268/10/3 276/10/3
f 278/10/3 270/10/3 269/10/3
f 278/13/3 269/13/3 277/13/3
f 279/13/3 271/13/3 270/13/3
f 279/10/3 270/10/3 278/10/3
f 280/13/3 271/13/3 279/13/3
f 281/3/3 260/3/3 259/3/3
f 282/3/3 260/3/3 281/3/3
f 283/7/3 262/7/3 261/7/3
f 284/6/3 272/6/3 262/6/3
f 284/7/3 262/7/3 283/7/3
f 284/6/3 273/6/3 272/6/3
f 284/6/3 274/6/3 273/6/3
f 285/6/3 274/6/3 284/6/3
f 286/6/3 274/6/3 285/6/3
f 293/3/3 260/3/3 282/3/3
f 293/1/3 282/1/3 281/1/3
f 294/3/3 260/3/3 293/3/3
f 295/7/3 283/7/3 261/7/3
f 296/7/3 283/7/3 295/7/3
f 297/6/3 286/6/3 285/6/3
f 298/10/3 287/10/3 286/10/3
f 298/6/3 286/6/3 297/6/3
f 299/11/3 288/11/3 287/11/3
f 299/10/3 287/10/3 298/10/3
f 300/10/3 289/10/3 288/10/3
f 300/11/3 288/11/3 299/11/3
f 301/13/3 290/13/3 289/13/3
f 301/10/3 289/10/3 300/10/3
f 302/10/3 291/10/3 290/10/3
f 302/13/3 290/13/3 301/13/3
f 303/13/3 292/13/3 291/13/3
f 303/10/3 291/10/3 302/10/3
f 304/13/3 292/13/3 303/13/3
f 305/1/3 294/1/3 293/1/3
f 305/1/3 293/1/3 281/1/3
f 306/3/3 260/3/3 294/3/3
f 306/1/3 294/1/3 305/1/3
f 307/3/3 260/3/3 306/3/3
f 313/11/3 309/11/3 308/11/3
f 314/5/3 310/5/3 309/5/3
f 314/11/3 309/11/3 313/11/3
f 315/15/3 311/15/3 310/15/3
f 315/5/3 310/5/3 314/5/3
f 316/15/3 311/15/3 315/15/3
f 317/11/3 314/11/3 313/11/3
f 317/11/3 313/11/3 312/11/3
f 317/11/3 316/11/3 315/11/3
f 317/11/3 315/11/3 314/11/3
f 318/11/3 316/11/3 317/11/3
f 319/11/3 316/11/3 318/11/3
f 320/11/3 316/11/3 319/11/3
f 321/11/3 316/11/3 320/11/3
f 322/11/3 316/11/3 321/11/3
f 327/17/3 324/17/3 323/17/3
f 328/8/3 325/8/3 324/8/3
f 328/17/3 324/17/3 327/17/3
f 329/12/3 326/12/3 325/12/3
f 329/8/3 325/8/3 328/8/3
f 330/12/3 326/12/3 329/12/3
f 333/1/3 332/1/3 331/1/3
f 334/1/3 332/1/3 333/1/3
f 337/1/3 336/1/3 335/1/3
f 338/1/3 336/1/3 337/1/3
f 344/11/3 340/11/3 339/11/3
f 345/11/3 340/11/3 344/11/3
f 346/6/3 343/6/3 342/6/3
f 348/7/3 342/7/3 341/7/3
f 349/6/3 347/6/3 346/6/3
f 349/7/3 342/7/3 348/7/3
f 349/6/3 346/6/3 342/6/3
f 350/6/3 347/6/3 349/6/3
f 351/7/3 348/7/3 341/7/3
f 352/7/3 348/7/3 351/7/3
f 353/6/3 347/6/3 350/6/3
f 354/6/3 347/6/3 353/6/3
f 355/11/4 356/11/4 360/11/4
f 360/11/4 356/11/4 361/11/4
f 358/6/4 359/6/4 362/6/4
f 357/7/4 358/7/4 364/7/4
f 362/6/4 363/6/4 365/6/4
f 364/7/4 358/7/4 365/7/4
f 358/6/4 362/6/4 365/6/4
f 365/6/4 363/6/4 366/6/4
f 357/7/4 364/7/4 367/7/4
f 367/7/4 364/7/4 368/7/4
f 366/6/4 363/6/4 369/6/4
f 369/6/4 363/6/4 370/6/4
f 371/1/4 372/1/4 373/1/4
f 373/1/4 372/1/4 374/1/4
f 375/1/4 376/1/4 377/1/4
f 377/1/4 376/1/4 378/1/4
f 379/11/4 380/11/4 385/11/4
f 380/12/4 381/12/4 386/12/4
f 385/11/4 380/11/4 386/11/4
f 381/4/4 382/4/4 387/4/4
f 386/12/4 381/12/4 387/12/4
f 382/8/4 383/8/4 388/8/4
f 387/4/4 382/4/4 388/4/4
f 388/8/4 383/8/4 389/8/4
f 386/11/4 387/11/4 390/11/4
f 384/11/4 385/11/4 390/11/4
f 388/11/4 389/11/4 390/11/4
f 387/11/4 388/11/4 390/11/4
f 385/11/4 386/11/4 390/11/4
f 390/11/4 389/11/4 391/11/4
f 391/11/4 389/11/4 392/11/4
f 392/11/4 389/11/4 393/11/4
f 393/11/4 389/11/4 394/11/4
f 394/11/4 389/11/4 395/11/4
f 396/17/4 397/17/4 400/17/4
f 397/15/4 398/15/4 401/15/4
f 400/17/4 397/17/4 401/17/4
f 398/14/4 399/14/4 402/14/4
f 401/15/4 398/15/4 402/15/4
f 402/14/4 399/14/4 403/14/4
f 407/6/4 408/6/4 417/6/4
f 409/6/4 410/6/4 418/6/4
f 410/10/4 411/10/4 419/10/4
f 418/6/4 410/6/4 419/6/4
f 411/11/4 412/11/4 420/11/4
f 419/10/4 411/10/4 420/10/4
f 412/10/4 413/10/4 421/10/4
f 420/11/4 412/11/4 421/11/4
f 413/13/4 414/13/4 422/13/4
f 421/10/4 413/10/4 422/10/4
f 414/10/4 415/10/4 423/10/4
f 422/13/4 414/13/4 423/13/4
f 415/13/4 416/13/4 424/13/4
f 423/10/4 415/10/4 424/10/4
f 424/13/4 416/13/4 425/13/4
f 404/3/4 405/3/4 426/3/4
f 426/3/4 405/3/4 427/3/4
f 406/7/4 407/7/4 428/7/4
f 407/6/4 417/6/4 429/6/4
f 428/7/4 407/7/4 429/7/4
f 417/6/4 418/6/4 429/6/4
f 418/6/4 419/6/4 429/6/4
f 429/6/4 419/6/4 430/6/4
f 430/6/4 419/6/4 431/6/4
f 427/3/4 405/3/4 438/3/4
f 426/1/4 427/1/4 438/1/4
f 438/3/4 405/3/4 439/3/4
f 406/7/4 428/7/4 440/7/4
f 440/7/4 428/7/4 441/7/4
f 430/6/4 431/6/4 442/6/4
f 431/10/4 432/10/4 443/10/4
f 442/6/4 431/6/4 443/6/4
f 432/11/4 433/11/4 444/11/4
f 443/10/4 432/10/4 444/10/4
f 433/10/4 434/10/4 445/10/4
f 444/11/4 433/11/4 445/11/4
f 434/13/4 435/13/4 446/13/4
f 445/10/4 434/10/4 446/10/4
f 435/10/4 436/10/4 447/10/4
f 446/13/4 435/13/4 447/13/4
f 436/13/4 437/13/4 448/13/4
f 447/10/4 436/10/4 448/10/4
f 448/13/4 437/13/4 449/13/4
f 438/1/4 439/1/4 450/1/4
f 426/1/4 438/1/4 450/1/4
f 439/3/4 405/3/4 451/3/4
f 450/1/4 439/1/4 451/1/4
f 451/3/4 405/3/4 452/3/4
f 453/1/4 454/1/4 460/1/4
f 454/13/4 455/13/4 461/13/4
f 460/1/4 454/1/4 461/1/4
f 455/10/4 456/10/4 462/10/4
f 461/13/4 455/13/4 462/13/4
f 456/13/4 457/13/4 463/13/4
f 462/10/4 456/10/4 463/10/4
f 457/10/4 458/10/4 464/10/4
f 463/13/4 457/13/4 464/13/4
f 458/13/4 459/13/4 465/13/4
f 464/10/4 458/10/4 465/10/4
f 465/13/4 459/13/4 466/13/4
f 469/7/5 468/7/5 467/7/5
f 470/7/5 468/7/5 469/7/5
f 473/7/5 472/7/5 471/7/5
f 474/7/5 472/7/5 473/7/5
f 477/6/5 476/6/5 475/6/5
f 478/6/5 476/6/5 477/6/5
f 481/6/5 480/6/5 479/6/5
f 482/6/5 480/6/5 481/6/5
f 485/6/5 484/6/5 483/6/5
f 486/6/5 484/6/5 485/6/5
f 488/10/5 486/10/5 485/10/5
f 488/10/5 487/10/5 486/10/5
f 489/10/5 487/10/5 488/10/5
f 490/10/5 487/10/5 489/10/5
f 491/6/5 489/6/5 488/6/5
f 492/6/5 489/6/5 491/6/5
f 495/1/5 494/1/5 493/1/5
f 496/1/5 494/1/5 495/1/5
f 499/1/5 498/1/5 497/1/5
f 500/1/5 498/1/5 499/1/5
f 503/11/5 502/11/5 501/11/5
f 504/11/5 502/11/5 503/11/5
f 507/11/5 506/11/5 505/11/5
f 508/11/5 506/11/5 507/11/5
f 513/11/5 510/11/5 509/11/5
f 515/11/5 513/11/5 509/11/5
f 515/11/5 514/11/5 513/11/5
f 516/11/5 514/11/5 515/11/5
f 517/11/5 515/11/5 509/11/5
f 518/11/5 515/11/5 517/11/5
f 519/17/5 512/17/5 511/17/5
f 520/17/5 512/17/5 519/17/5
f 524/1/5 523/1/5 522/1/5
f 525/1/5 523/1/5 524/1/5
f 526/3/5 522/3/5 521/3/5
f 526/1/5 524/1/5 522/1/5
f 527/1/5 524/1/5 526/1/5
f 528/3/5 525/3/5 524/3/5
f 528/1/5 524/1/5 527/1/5
f 529/3/5 525/3/5 528/3/5
f 530/3/5 526/3/5 521/3/5
f 531/1/5 529/1/5 528/1/5
f 531/1/5 528/1/5 527/1/5
f 532/1/5 529/1/5 531/1/5
f 533/1/5 529/1/5 532/1/5
f 534/1/5 531/1/5 530/1/5
f 534/1/5 532/1/5 531/1/5
f 534/3/5 533/3/5 532/3/5
f 535/3/5 533/3/5 534/3/5
f 536/3/5 530/3/5 521/3/5
f 537/1/5 534/1/5 530/1/5
f 537/3/5 530/3/5 536/3/5
f 537/1/5 535/1/5 534/1/5
f 538/1/5 535/1/5 537/1/5
f 541/1/5 540/1/5 539/1/5
f 542/1/5 540/1/5 541/1/5
f 543/7/6 544/7/6 545/7/6
f 545/7/6 544/7/6 546/7/6
f 547/7/6 548/7/6 549/7/6
f 549/7/6 548/7/6 550/7/6
f 551/6/6 552/6/6 553/6/6
f 553/6/6 552/6/6 554/6/6
f 555/6/6 556/6/6 557/6/6
f 557/6/6 556/6/6 558/6/6
f 559/12/6 560/12/6 561/12/6
f 561/12/6 560/12/6 562/12/6
f 561/14/6 562/14/6 563/14/6
f 563/14/6 562/14/6 564/14/6
f 564/14/6 562/14/6 565/14/6
f 566/13/6 567/13/6 569/13/6
f 569/13/6 567/13/6 570/13/6
f 568/13/6 569/13/6 574/13/6
f 569/13/6 570/13/6 574/13/6
f 570/13/6 571/13/6 574/13/6
f 574/13/6 571/13/6 575/13/6
f 573/11/6 574/11/6 576/11/6
f 574/11/6 575/11/6 576/11/6
f 576/11/6 575/11/6 577/11/6
f 577/11/6 575/11/6 578/11/6
f 578/11/6 575/11/6 579/11/6
f 572/15/6 573/15/6 580/15/6
f 573/11/6 576/11/6 581/11/6
f 580/15/6 573/15/6 581/15/6
f 576/13/6 577/13/6 582/13/6
f 581/11/6 576/11/6 582/11/6
f 582/13/6 577/13/6 583/13/6
f 578/13/6 579/13/6 584/13/6
f 584/13/6 579/13/6 585/13/6
f 580/8/6 581/8/6 586/8/6
f 582/11/6 583/11/6 587/11/6
f 586/8/6 581/8/6 587/8/6
f 581/11/6 582/11/6 587/11/6
f 584/11/6 585/11/6 587/11/6
f 583/11/6 584/11/6 587/11/6
f 587/11/6 585/11/6 588/11/6
f 588/11/6 585/11/6 589/11/6
f 588/13/6 589/13/6 590/13/6
f 590/13/6 589/13/6 591/13/6
f 591/13/6 589/13/6 592/13/6
f 592/13/6 589/13/6 593/13/6
f 591/13/6 592/13/6 594/13/6
f 594/13/6 592/13/6 595/13/6
f 596/1/6 597/1/6 598/1/6
f 598/1/6 597/1/6 599/1/6
f 600/3/6 601/3/6 602/3/6
f 602/3/6 601/3/6 603/3/6
