# MagicaVoxel @ Ephtracy

# group
g FemalePerson3

# material
mtllib FemalePerson3.mtl
usemtl palette

# normals
vn -1 0 0
vn 1 0 0
vn 0 0 1
vn 0 0 -1
vn 0 -1 0
vn 0 1 0

# texcoords
vt 0.0332031 0.5
vt 0.0371094 0.5
vt 0.0449219 0.5
vt 0.0917969 0.5
vt 0.279297 0.5
vt 0.306641 0.5
vt 0.892578 0.5
vt 0.958984 0.5
vt 0.962891 0.5
vt 0.966797 0.5
vt 0.978516 0.5
vt 0.982422 0.5
vt 0.994141 0.5

# verts
v -4 9 1
v -4 9 -2
v -4 10 1
v -4 10 -1
v -4 10 -2
v -4 11 1
v -4 11 -1
v -4 11 -2
v -4 12 -1
v -4 12 -2
v -4 13 1
v -4 13 -1
v -4 13 -2
v -3 8 1
v -3 8 -0
v -3 8 -1
v -3 8 -2
v -3 9 1
v -3 9 -0
v -3 9 -1
v -3 9 -2
v -3 14 2
v -3 14 -3
v -3 19 2
v -3 19 -3
v -2 0 2
v -2 0 -0
v -2 0 -1
v -2 0 -3
v -2 2 2
v -2 2 -0
v -2 2 -1
v -2 2 -3
v -2 4 2
v -2 4 -0
v -2 4 -1
v -2 4 -3
v -2 6 2
v -2 6 -3
v -2 8 2
v -2 8 1
v -2 8 -0
v -2 8 -1
v -2 8 -2
v -2 8 -3
v -2 9 2
v -2 9 1
v -2 9 -0
v -2 9 -1
v -2 9 -2
v -2 9 -3
v -2 13 2
v -2 13 1
v -2 13 -2
v -2 13 -3
v -2 15 3
v -2 15 2
v -2 15 -3
v -2 15 -4
v -2 18 3
v -2 18 2
v -2 18 -3
v -2 18 -4
v -1 4 2
v -1 4 -0
v -1 4 -1
v -1 4 -3
v -1 6 2
v -1 6 -0
v -1 6 -1
v -1 6 -3
v -1 7 3
v -1 7 2
v -1 7 -3
v -1 7 -4
v -1 8 2
v -1 8 -3
v -1 9 3
v -1 9 2
v -1 9 -3
v -1 9 -4
v -1 13 3
v -1 13 2
v -1 13 -0
v -1 13 -1
v -1 13 -3
v -1 13 -4
v -1 14 -0
v -1 14 -1
v 0 16 3
v 0 16 2
v 0 16 -3
v 0 16 -4
v 0 17 3
v 0 17 2
v 0 17 -3
v 0 17 -4
v -1 16 3
v -1 16 2
v -1 16 -3
v -1 16 -4
v -1 17 3
v -1 17 2
v -1 17 -3
v -1 17 -4
v 0 1 2
v 0 1 -0
v 0 1 -1
v 0 1 -3
v 0 2 2
v 0 2 -0
v 0 2 -1
v 0 2 -3
v 0 4 2
v 0 4 -0
v 0 4 -1
v 0 4 -3
v 0 7 3
v 0 7 2
v 0 7 -3
v 0 7 -4
v 0 8 2
v 0 8 -3
v 0 9 3
v 0 9 2
v 0 9 -3
v 0 9 -4
v 0 13 3
v 0 13 2
v 0 13 -0
v 0 13 -1
v 0 13 -3
v 0 13 -4
v 0 14 -0
v 0 14 -1
v 1 4 2
v 1 4 -0
v 1 4 -1
v 1 4 -3
v 1 6 -0
v 1 6 -1
v 1 7 1
v 1 7 -2
v 1 8 2
v 1 8 1
v 1 8 -2
v 1 8 -3
v 1 9 2
v 1 9 1
v 1 9 -2
v 1 9 -3
v 1 10 1
v 1 10 -2
v 1 11 1
v 1 11 -2
v 1 12 1
v 1 12 -0
v 1 12 -1
v 1 12 -2
v 1 13 2
v 1 13 1
v 1 13 -0
v 1 13 -1
v 1 13 -2
v 1 13 -3
v 1 15 3
v 1 15 2
v 1 15 -3
v 1 15 -4
v 1 17 2
v 1 17 -3
v 1 18 3
v 1 18 2
v 1 18 -3
v 1 18 -4
v 2 0 2
v 2 0 -0
v 2 0 -1
v 2 0 -3
v 2 1 2
v 2 1 -0
v 2 1 -1
v 2 1 -3
v 2 9 1
v 2 9 -2
v 2 10 1
v 2 10 -0
v 2 10 -2
v 2 11 1
v 2 11 -0
v 2 11 -2
v 2 12 1
v 2 12 -0
v 2 12 -2
v 2 14 2
v 2 14 -3
v 2 15 -0
v 2 15 -1
v 2 16 1
v 2 16 -0
v 2 16 -1
v 2 16 -2
v 2 17 2
v 2 17 1
v 2 17 -0
v 2 17 -1
v 2 17 -2
v 2 17 -3
v 2 18 1
v 2 18 -2
v 2 19 2
v 2 19 -3
v 3 15 -0
v 3 15 -1
v 3 16 -0
v 3 16 -1
v -2 15 3
v -2 18 3
v -1 7 3
v -1 9 3
v -1 13 3
v -1 16 3
v -1 17 3
v 0 7 3
v 0 9 3
v 0 13 3
v 0 16 3
v 0 17 3
v 1 15 3
v 1 18 3
v -3 14 2
v -3 19 2
v -2 0 2
v -2 2 2
v -2 4 2
v -2 6 2
v -2 8 2
v -2 9 2
v -2 13 2
v -2 15 2
v -2 18 2
v -1 4 2
v -1 6 2
v -1 7 2
v -1 8 2
v -1 9 2
v -1 13 2
v -1 14 2
v -1 15 2
v -1 16 2
v -1 17 2
v 0 1 2
v 0 2 2
v 0 4 2
v 0 7 2
v 0 8 2
v 0 9 2
v 0 13 2
v 0 16 2
v 0 17 2
v 1 4 2
v 1 8 2
v 1 9 2
v 1 13 2
v 1 15 2
v 1 17 2
v 1 18 2
v 2 0 2
v 2 1 2
v 2 14 2
v 2 17 2
v 2 19 2
v -4 9 1
v -4 10 1
v -4 11 1
v -4 13 1
v -3 8 1
v -3 9 1
v -3 10 1
v -3 11 1
v -3 13 1
v -2 8 1
v -2 9 1
v -2 13 1
v 1 9 1
v 1 10 1
v 1 11 1
v 1 12 1
v 2 9 1
v 2 10 1
v 2 11 1
v 2 12 1
v -1 13 -0
v -1 14 -0
v 0 13 -0
v 0 14 -0
v 2 15 -0
v 2 16 -0
v 3 15 -0
v 3 16 -0
v -3 8 -1
v -3 9 -1
v -2 0 -1
v -2 2 -1
v -2 4 -1
v -2 8 -1
v -2 9 -1
v -1 4 -1
v -1 6 -1
v 0 1 -1
v 0 2 -1
v 0 4 -1
v 1 4 -1
v 1 6 -1
v 2 0 -1
v 2 1 -1
v -3 8 -0
v -3 9 -0
v -2 0 -0
v -2 2 -0
v -2 4 -0
v -2 8 -0
v -2 9 -0
v -1 4 -0
v -1 6 -0
v 0 1 -0
v 0 2 -0
v 0 4 -0
v 1 4 -0
v 1 6 -0
v 2 0 -0
v 2 1 -0
v -1 13 -1
v -1 14 -1
v 0 13 -1
v 0 14 -1
v 2 15 -1
v 2 16 -1
v 3 15 -1
v 3 16 -1
v -4 9 -2
v -4 10 -2
v -4 11 -2
v -4 12 -2
v -4 13 -2
v -3 8 -2
v -3 9 -2
v -3 10 -2
v -3 11 -2
v -3 12 -2
v -3 13 -2
v -2 8 -2
v -2 9 -2
v -2 13 -2
v 1 9 -2
v 1 10 -2
v 1 11 -2
v 1 12 -2
v 2 9 -2
v 2 10 -2
v 2 11 -2
v 2 12 -2
v -3 14 -3
v -3 19 -3
v -2 0 -3
v -2 2 -3
v -2 4 -3
v -2 6 -3
v -2 8 -3
v -2 9 -3
v -2 13 -3
v -2 15 -3
v -2 18 -3
v -1 4 -3
v -1 6 -3
v -1 7 -3
v -1 8 -3
v -1 9 -3
v -1 13 -3
v -1 14 -3
v -1 15 -3
v -1 16 -3
v -1 17 -3
v 0 1 -3
v 0 2 -3
v 0 4 -3
v 0 7 -3
v 0 8 -3
v 0 9 -3
v 0 13 -3
v 0 16 -3
v 0 17 -3
v 1 4 -3
v 1 8 -3
v 1 9 -3
v 1 13 -3
v 1 15 -3
v 1 17 -3
v 1 18 -3
v 2 0 -3
v 2 1 -3
v 2 14 -3
v 2 17 -3
v 2 19 -3
v -2 15 -4
v -2 18 -4
v -1 7 -4
v -1 9 -4
v -1 13 -4
v -1 16 -4
v -1 17 -4
v 0 7 -4
v 0 9 -4
v 0 13 -4
v 0 16 -4
v 0 17 -4
v 1 15 -4
v 1 18 -4
v -2 0 2
v 2 0 2
v -2 0 -0
v 2 0 -0
v -2 0 -1
v 2 0 -1
v -2 0 -3
v 2 0 -3
v 0 4 2
v 1 4 2
v 0 4 -0
v 1 4 -0
v 0 4 -1
v 1 4 -1
v 0 4 -3
v 1 4 -3
v -2 6 2
v -1 6 2
v -1 6 -0
v 1 6 -0
v -1 6 -1
v 1 6 -1
v -2 6 -3
v -1 6 -3
v -1 7 3
v 0 7 3
v -1 7 2
v 0 7 2
v -1 7 -3
v 0 7 -3
v -1 7 -4
v 0 7 -4
v -3 8 1
v -2 8 1
v -3 8 -0
v -2 8 -0
v -3 8 -1
v -2 8 -1
v -3 8 -2
v -2 8 -2
v -4 9 1
v -3 9 1
v 1 9 1
v 2 9 1
v -3 9 -0
v -2 9 -0
v -3 9 -1
v -2 9 -1
v -4 9 -2
v -3 9 -2
v 1 9 -2
v 2 9 -2
v -3 14 2
v -1 14 2
v 2 14 2
v -1 14 -0
v 0 14 -0
v -1 14 -1
v 0 14 -1
v -3 14 -3
v -1 14 -3
v 2 14 -3
v -2 15 3
v 1 15 3
v -2 15 2
v -1 15 2
v 1 15 2
v 2 15 -0
v 3 15 -0
v 2 15 -1
v 3 15 -1
v -2 15 -3
v -1 15 -3
v 1 15 -3
v -2 15 -4
v 1 15 -4
v -1 17 3
v 0 17 3
v -1 17 2
v 0 17 2
v -1 17 -3
v 0 17 -3
v -1 17 -4
v 0 17 -4
v 0 1 2
v 2 1 2
v 0 1 -0
v 2 1 -0
v 0 1 -1
v 2 1 -1
v 0 1 -3
v 2 1 -3
v -2 4 2
v -1 4 2
v -2 4 -0
v -1 4 -0
v -2 4 -1
v -1 4 -1
v -2 4 -3
v -1 4 -3
v 1 12 1
v 2 12 1
v 1 12 -0
v 2 12 -0
v 1 12 -1
v 1 12 -2
v 2 12 -2
v -1 13 3
v 0 13 3
v -2 13 2
v -1 13 2
v 0 13 2
v 1 13 2
v -4 13 1
v -3 13 1
v -2 13 1
v 1 13 1
v -2 13 -0
v -1 13 -0
v 0 13 -0
v 1 13 -0
v -4 13 -1
v -3 13 -1
v -2 13 -1
v -1 13 -1
v 0 13 -1
v 1 13 -1
v -4 13 -2
v -3 13 -2
v -2 13 -2
v 1 13 -2
v -2 13 -3
v -1 13 -3
v 0 13 -3
v 1 13 -3
v -1 13 -4
v 0 13 -4
v -1 16 3
v 0 16 3
v -1 16 2
v 0 16 2
v 2 16 -0
v 3 16 -0
v 2 16 -1
v 3 16 -1
v -1 16 -3
v 0 16 -3
v -1 16 -4
v 0 16 -4
v -2 18 3
v 1 18 3
v -2 18 2
v 1 18 2
v -2 18 -3
v 1 18 -3
v -2 18 -4
v 1 18 -4
v -3 19 2
v 2 19 2
v -3 19 -3
v 2 19 -3

# faces
f 3/2/1 2/2/1 1/2/1
f 4/2/1 2/2/1 3/2/1
f 5/2/1 2/2/1 4/2/1
f 6/4/1 4/4/1 3/4/1
f 7/7/1 5/7/1 4/7/1
f 7/4/1 4/4/1 6/4/1
f 8/7/1 5/7/1 7/7/1
f 9/9/1 7/9/1 6/9/1
f 9/3/1 8/3/1 7/3/1
f 10/3/1 8/3/1 9/3/1
f 11/9/1 9/9/1 6/9/1
f 12/5/1 10/5/1 9/5/1
f 12/9/1 9/9/1 11/9/1
f 13/5/1 10/5/1 12/5/1
f 18/2/1 15/2/1 14/2/1
f 19/2/1 15/2/1 18/2/1
f 20/2/1 17/2/1 16/2/1
f 21/2/1 17/2/1 20/2/1
f 24/4/1 23/4/1 22/4/1
f 25/4/1 23/4/1 24/4/1
f 30/12/1 27/12/1 26/12/1
f 31/12/1 27/12/1 30/12/1
f 32/12/1 29/12/1 28/12/1
f 33/12/1 29/12/1 32/12/1
f 34/6/1 31/6/1 30/6/1
f 35/6/1 31/6/1 34/6/1
f 36/6/1 33/6/1 32/6/1
f 37/6/1 33/6/1 36/6/1
f 40/6/1 39/6/1 38/6/1
f 41/6/1 39/6/1 40/6/1
f 42/6/1 39/6/1 41/6/1
f 43/6/1 39/6/1 42/6/1
f 44/6/1 39/6/1 43/6/1
f 45/6/1 39/6/1 44/6/1
f 46/2/1 41/2/1 40/2/1
f 47/2/1 41/2/1 46/2/1
f 48/2/1 43/2/1 42/2/1
f 49/2/1 43/2/1 48/2/1
f 50/2/1 45/2/1 44/2/1
f 51/2/1 45/2/1 50/2/1
f 52/6/1 47/6/1 46/6/1
f 53/6/1 47/6/1 52/6/1
f 54/6/1 51/6/1 50/6/1
f 55/6/1 51/6/1 54/6/1
f 60/4/1 57/4/1 56/4/1
f 61/4/1 57/4/1 60/4/1
f 62/4/1 59/4/1 58/4/1
f 63/4/1 59/4/1 62/4/1
f 68/6/1 65/6/1 64/6/1
f 69/6/1 65/6/1 68/6/1
f 70/6/1 67/6/1 66/6/1
f 71/6/1 67/6/1 70/6/1
f 76/1/1 73/1/1 72/1/1
f 77/1/1 75/1/1 74/1/1
f 78/1/1 76/1/1 72/1/1
f 79/1/1 76/1/1 78/1/1
f 80/1/1 75/1/1 77/1/1
f 81/1/1 75/1/1 80/1/1
f 82/6/1 79/6/1 78/6/1
f 83/6/1 79/6/1 82/6/1
f 86/6/1 81/6/1 80/6/1
f 87/6/1 81/6/1 86/6/1
f 88/1/1 85/1/1 84/1/1
f 89/1/1 85/1/1 88/1/1
f 94/4/1 91/4/1 90/4/1
f 95/4/1 91/4/1 94/4/1
f 96/4/1 93/4/1 92/4/1
f 97/4/1 93/4/1 96/4/1
f 98/4/2 99/4/2 102/4/2
f 102/4/2 99/4/2 103/4/2
f 100/4/2 101/4/2 104/4/2
f 104/4/2 101/4/2 105/4/2
f 106/12/2 107/12/2 110/12/2
f 110/12/2 107/12/2 111/12/2
f 108/12/2 109/12/2 112/12/2
f 112/12/2 109/12/2 113/12/2
f 110/6/2 111/6/2 114/6/2
f 114/6/2 111/6/2 115/6/2
f 112/6/2 113/6/2 116/6/2
f 116/6/2 113/6/2 117/6/2
f 118/1/2 119/1/2 122/1/2
f 120/1/2 121/1/2 123/1/2
f 118/1/2 122/1/2 124/1/2
f 124/1/2 122/1/2 125/1/2
f 123/1/2 121/1/2 126/1/2
f 126/1/2 121/1/2 127/1/2
f 124/6/2 125/6/2 128/6/2
f 128/6/2 125/6/2 129/6/2
f 126/6/2 127/6/2 132/6/2
f 132/6/2 127/6/2 133/6/2
f 130/1/2 131/1/2 134/1/2
f 134/1/2 131/1/2 135/1/2
f 136/6/2 137/6/2 140/6/2
f 138/6/2 139/6/2 141/6/2
f 136/6/2 140/6/2 142/6/2
f 140/6/2 141/6/2 142/6/2
f 141/6/2 139/6/2 143/6/2
f 142/6/2 141/6/2 143/6/2
f 136/6/2 142/6/2 144/6/2
f 142/2/2 143/2/2 145/2/2
f 144/6/2 142/6/2 145/6/2
f 143/6/2 139/6/2 146/6/2
f 145/2/2 143/2/2 146/2/2
f 146/6/2 139/6/2 147/6/2
f 144/2/2 145/2/2 148/2/2
f 145/2/2 146/2/2 148/2/2
f 146/2/2 147/2/2 148/2/2
f 148/2/2 147/2/2 149/2/2
f 149/2/2 147/2/2 150/2/2
f 150/2/2 147/2/2 151/2/2
f 148/6/2 149/6/2 152/6/2
f 150/6/2 151/6/2 153/6/2
f 148/6/2 152/6/2 154/6/2
f 153/6/2 151/6/2 155/6/2
f 148/6/2 154/6/2 156/6/2
f 155/6/2 151/6/2 159/6/2
f 148/6/2 156/6/2 160/6/2
f 156/2/2 157/2/2 161/2/2
f 160/6/2 156/6/2 161/6/2
f 157/6/2 158/6/2 162/6/2
f 161/2/2 157/2/2 162/2/2
f 158/2/2 159/2/2 163/2/2
f 162/6/2 158/6/2 163/6/2
f 159/6/2 151/6/2 164/6/2
f 163/2/2 159/2/2 164/2/2
f 164/6/2 151/6/2 165/6/2
f 166/4/2 167/4/2 170/4/2
f 168/4/2 169/4/2 171/4/2
f 166/4/2 170/4/2 172/4/2
f 172/4/2 170/4/2 173/4/2
f 171/4/2 169/4/2 174/4/2
f 174/4/2 169/4/2 175/4/2
f 176/12/2 177/12/2 180/12/2
f 180/12/2 177/12/2 181/12/2
f 178/12/2 179/12/2 182/12/2
f 182/12/2 179/12/2 183/12/2
f 184/11/2 185/11/2 186/11/2
f 186/11/2 185/11/2 187/11/2
f 187/11/2 185/11/2 188/11/2
f 186/5/2 187/5/2 189/5/2
f 187/9/2 188/9/2 190/9/2
f 189/5/2 187/5/2 190/5/2
f 190/9/2 188/9/2 191/9/2
f 189/7/2 190/7/2 192/7/2
f 190/8/2 191/8/2 193/8/2
f 192/7/2 190/7/2 193/7/2
f 193/8/2 191/8/2 194/8/2
f 195/1/2 196/1/2 197/1/2
f 197/1/2 196/1/2 198/1/2
f 195/1/2 197/1/2 199/1/2
f 199/1/2 197/1/2 200/1/2
f 198/1/2 196/1/2 201/1/2
f 201/1/2 196/1/2 202/1/2
f 195/1/2 199/1/2 203/1/2
f 199/13/2 200/13/2 204/13/2
f 203/1/2 199/1/2 204/1/2
f 200/1/2 201/1/2 205/1/2
f 204/13/2 200/13/2 205/13/2
f 201/13/2 202/13/2 206/13/2
f 205/1/2 201/1/2 206/1/2
f 202/1/2 196/1/2 207/1/2
f 206/13/2 202/13/2 207/13/2
f 207/1/2 196/1/2 208/1/2
f 205/1/2 206/1/2 209/1/2
f 203/4/2 204/4/2 209/4/2
f 204/1/2 205/1/2 209/1/2
f 206/1/2 207/1/2 209/1/2
f 207/4/2 208/4/2 210/4/2
f 209/1/2 207/1/2 210/1/2
f 203/4/2 209/4/2 211/4/2
f 209/4/2 210/4/2 211/4/2
f 210/4/2 208/4/2 212/4/2
f 211/4/2 210/4/2 212/4/2
f 213/1/2 214/1/2 215/1/2
f 215/1/2 214/1/2 216/1/2
f 222/4/3 218/4/3 217/4/3
f 223/4/3 218/4/3 222/4/3
f 224/1/3 220/1/3 219/1/3
f 225/6/3 221/6/3 220/6/3
f 225/1/3 220/1/3 224/1/3
f 226/6/3 221/6/3 225/6/3
f 227/4/3 222/4/3 217/4/3
f 228/4/3 218/4/3 223/4/3
f 229/4/3 227/4/3 217/4/3
f 229/4/3 228/4/3 227/4/3
f 230/4/3 218/4/3 228/4/3
f 230/4/3 228/4/3 229/4/3
f 240/4/3 232/4/3 231/4/3
f 241/4/3 232/4/3 240/4/3
f 242/6/3 235/6/3 234/6/3
f 243/6/3 237/6/3 236/6/3
f 244/6/3 237/6/3 243/6/3
f 245/2/3 238/2/3 237/2/3
f 245/6/3 237/6/3 244/6/3
f 246/6/3 239/6/3 238/6/3
f 246/2/3 238/2/3 245/2/3
f 247/6/3 239/6/3 246/6/3
f 248/4/3 240/4/3 231/4/3
f 249/4/3 240/4/3 248/4/3
f 252/12/3 234/12/3 233/12/3
f 253/6/3 242/6/3 234/6/3
f 253/12/3 234/12/3 252/12/3
f 253/6/3 244/6/3 243/6/3
f 253/6/3 243/6/3 242/6/3
f 254/6/3 244/6/3 253/6/3
f 255/6/3 244/6/3 254/6/3
f 259/4/3 251/4/3 250/4/3
f 260/4/3 251/4/3 259/4/3
f 261/6/3 255/6/3 254/6/3
f 261/6/3 256/6/3 255/6/3
f 262/2/3 257/2/3 256/2/3
f 262/6/3 256/6/3 261/6/3
f 263/6/3 258/6/3 257/6/3
f 263/2/3 257/2/3 262/2/3
f 264/6/3 258/6/3 263/6/3
f 265/1/3 249/1/3 248/1/3
f 267/4/3 232/4/3 241/4/3
f 268/12/3 252/12/3 233/12/3
f 269/12/3 252/12/3 268/12/3
f 270/1/3 266/1/3 265/1/3
f 270/1/3 265/1/3 248/1/3
f 271/4/3 267/4/3 266/4/3
f 271/1/3 266/1/3 270/1/3
f 272/4/3 232/4/3 267/4/3
f 272/4/3 267/4/3 271/4/3
f 278/2/3 274/2/3 273/2/3
f 279/4/3 275/4/3 274/4/3
f 279/2/3 274/2/3 278/2/3
f 280/9/3 276/9/3 275/9/3
f 280/4/3 275/4/3 279/4/3
f 281/9/3 276/9/3 280/9/3
f 282/2/3 279/2/3 278/2/3
f 282/2/3 278/2/3 277/2/3
f 282/2/3 281/2/3 280/2/3
f 282/2/3 280/2/3 279/2/3
f 283/2/3 281/2/3 282/2/3
f 284/2/3 281/2/3 283/2/3
f 289/11/3 286/11/3 285/11/3
f 290/5/3 287/5/3 286/5/3
f 290/11/3 286/11/3 289/11/3
f 291/7/3 288/7/3 287/7/3
f 291/5/3 287/5/3 290/5/3
f 292/7/3 288/7/3 291/7/3
f 295/1/3 294/1/3 293/1/3
f 296/1/3 294/1/3 295/1/3
f 299/1/3 298/1/3 297/1/3
f 300/1/3 298/1/3 299/1/3
f 306/2/3 302/2/3 301/2/3
f 307/2/3 302/2/3 306/2/3
f 308/6/3 305/6/3 304/6/3
f 310/12/3 304/12/3 303/12/3
f 311/6/3 309/6/3 308/6/3
f 311/12/3 304/12/3 310/12/3
f 311/6/3 308/6/3 304/6/3
f 312/6/3 309/6/3 311/6/3
f 313/6/3 309/6/3 312/6/3
f 314/6/3 309/6/3 313/6/3
f 315/12/3 310/12/3 303/12/3
f 316/12/3 310/12/3 315/12/3
f 317/2/4 318/2/4 322/2/4
f 322/2/4 318/2/4 323/2/4
f 320/6/4 321/6/4 324/6/4
f 319/12/4 320/12/4 326/12/4
f 324/6/4 325/6/4 327/6/4
f 326/12/4 320/12/4 327/12/4
f 320/6/4 324/6/4 327/6/4
f 327/6/4 325/6/4 328/6/4
f 328/6/4 325/6/4 329/6/4
f 329/6/4 325/6/4 330/6/4
f 319/12/4 326/12/4 331/12/4
f 331/12/4 326/12/4 332/12/4
f 333/1/4 334/1/4 335/1/4
f 335/1/4 334/1/4 336/1/4
f 337/1/4 338/1/4 339/1/4
f 339/1/4 338/1/4 340/1/4
f 341/2/4 342/2/4 347/2/4
f 342/7/4 343/7/4 348/7/4
f 347/2/4 342/2/4 348/2/4
f 343/3/4 344/3/4 349/3/4
f 348/7/4 343/7/4 349/7/4
f 344/5/4 345/5/4 350/5/4
f 349/3/4 344/3/4 350/3/4
f 350/5/4 345/5/4 351/5/4
f 348/2/4 349/2/4 352/2/4
f 346/2/4 347/2/4 352/2/4
f 350/2/4 351/2/4 352/2/4
f 349/2/4 350/2/4 352/2/4
f 347/2/4 348/2/4 352/2/4
f 352/2/4 351/2/4 353/2/4
f 353/2/4 351/2/4 354/2/4
f 355/11/4 356/11/4 359/11/4
f 356/9/4 357/9/4 360/9/4
f 359/11/4 356/11/4 360/11/4
f 357/8/4 358/8/4 361/8/4
f 360/9/4 357/9/4 361/9/4
f 361/8/4 358/8/4 362/8/4
f 363/4/4 364/4/4 372/4/4
f 372/4/4 364/4/4 373/4/4
f 366/6/4 367/6/4 374/6/4
f 368/6/4 369/6/4 375/6/4
f 375/6/4 369/6/4 376/6/4
f 369/2/4 370/2/4 377/2/4
f 376/6/4 369/6/4 377/6/4
f 370/6/4 371/6/4 378/6/4
f 377/2/4 370/2/4 378/2/4
f 378/6/4 371/6/4 379/6/4
f 363/4/4 372/4/4 380/4/4
f 380/4/4 372/4/4 381/4/4
f 365/12/4 366/12/4 384/12/4
f 366/6/4 374/6/4 385/6/4
f 384/12/4 366/12/4 385/12/4
f 375/6/4 376/6/4 385/6/4
f 374/6/4 375/6/4 385/6/4
f 385/6/4 376/6/4 386/6/4
f 386/6/4 376/6/4 387/6/4
f 382/4/4 383/4/4 391/4/4
f 391/4/4 383/4/4 392/4/4
f 386/6/4 387/6/4 393/6/4
f 387/6/4 388/6/4 393/6/4
f 388/2/4 389/2/4 394/2/4
f 393/6/4 388/6/4 394/6/4
f 389/6/4 390/6/4 395/6/4
f 394/2/4 389/2/4 395/2/4
f 395/6/4 390/6/4 396/6/4
f 380/1/4 381/1/4 397/1/4
f 373/4/4 364/4/4 399/4/4
f 365/12/4 384/12/4 400/12/4
f 400/12/4 384/12/4 401/12/4
f 397/1/4 398/1/4 402/1/4
f 380/1/4 397/1/4 402/1/4
f 398/4/4 399/4/4 403/4/4
f 402/1/4 398/1/4 403/1/4
f 399/4/4 364/4/4 404/4/4
f 403/4/4 399/4/4 404/4/4
f 405/4/4 406/4/4 410/4/4
f 410/4/4 406/4/4 411/4/4
f 407/1/4 408/1/4 412/1/4
f 408/6/4 409/6/4 413/6/4
f 412/1/4 408/1/4 413/1/4
f 413/6/4 409/6/4 414/6/4
f 405/4/4 410/4/4 415/4/4
f 411/4/4 406/4/4 416/4/4
f 405/4/4 415/4/4 417/4/4
f 415/4/4 416/4/4 417/4/4
f 416/4/4 406/4/4 418/4/4
f 417/4/4 416/4/4 418/4/4
f 421/12/5 420/12/5 419/12/5
f 422/12/5 420/12/5 421/12/5
f 425/12/5 424/12/5 423/12/5
f 426/12/5 424/12/5 425/12/5
f 429/6/5 428/6/5 427/6/5
f 430/6/5 428/6/5 429/6/5
f 433/6/5 432/6/5 431/6/5
f 434/6/5 432/6/5 433/6/5
f 437/6/5 436/6/5 435/6/5
f 439/6/5 437/6/5 435/6/5
f 439/6/5 438/6/5 437/6/5
f 440/6/5 438/6/5 439/6/5
f 441/6/5 439/6/5 435/6/5
f 442/6/5 439/6/5 441/6/5
f 445/1/5 444/1/5 443/1/5
f 446/1/5 444/1/5 445/1/5
f 449/1/5 448/1/5 447/1/5
f 450/1/5 448/1/5 449/1/5
f 453/2/5 452/2/5 451/2/5
f 454/2/5 452/2/5 453/2/5
f 457/2/5 456/2/5 455/2/5
f 458/2/5 456/2/5 457/2/5
f 463/2/5 460/2/5 459/2/5
f 465/2/5 463/2/5 459/2/5
f 465/2/5 464/2/5 463/2/5
f 466/2/5 464/2/5 465/2/5
f 467/2/5 465/2/5 459/2/5
f 468/2/5 465/2/5 467/2/5
f 469/11/5 462/11/5 461/11/5
f 470/11/5 462/11/5 469/11/5
f 474/4/5 472/4/5 471/4/5
f 474/1/5 473/1/5 472/1/5
f 475/1/5 473/1/5 474/1/5
f 476/4/5 474/4/5 471/4/5
f 477/1/5 473/1/5 475/1/5
f 478/4/5 476/4/5 471/4/5
f 479/1/5 477/1/5 476/1/5
f 479/4/5 476/4/5 478/4/5
f 480/1/5 473/1/5 477/1/5
f 480/1/5 477/1/5 479/1/5
f 483/4/5 482/4/5 481/4/5
f 484/4/5 482/4/5 483/4/5
f 485/4/5 482/4/5 484/4/5
f 488/1/5 487/1/5 486/1/5
f 489/1/5 487/1/5 488/1/5
f 493/4/5 491/4/5 490/4/5
f 493/4/5 492/4/5 491/4/5
f 494/4/5 492/4/5 493/4/5
f 497/4/5 496/4/5 495/4/5
f 498/4/5 496/4/5 497/4/5
f 501/4/5 500/4/5 499/4/5
f 502/4/5 500/4/5 501/4/5
f 503/12/6 504/12/6 505/12/6
f 505/12/6 504/12/6 506/12/6
f 507/12/6 508/12/6 509/12/6
f 509/12/6 508/12/6 510/12/6
f 511/6/6 512/6/6 513/6/6
f 513/6/6 512/6/6 514/6/6
f 515/6/6 516/6/6 517/6/6
f 517/6/6 516/6/6 518/6/6
f 519/7/6 520/7/6 521/7/6
f 521/7/6 520/7/6 522/7/6
f 521/8/6 522/8/6 523/8/6
f 523/8/6 522/8/6 524/8/6
f 524/8/6 522/8/6 525/8/6
f 526/6/6 527/6/6 529/6/6
f 529/6/6 527/6/6 530/6/6
f 528/6/6 529/6/6 534/6/6
f 529/6/6 530/6/6 534/6/6
f 530/6/6 531/6/6 534/6/6
f 534/6/6 531/6/6 535/6/6
f 533/2/6 534/2/6 536/2/6
f 534/2/6 535/2/6 536/2/6
f 536/2/6 535/2/6 537/2/6
f 537/2/6 535/2/6 538/2/6
f 538/2/6 535/2/6 539/2/6
f 532/9/6 533/9/6 540/9/6
f 533/2/6 536/2/6 541/2/6
f 540/9/6 533/9/6 541/9/6
f 536/6/6 537/6/6 542/6/6
f 541/2/6 536/2/6 542/2/6
f 542/6/6 537/6/6 543/6/6
f 538/6/6 539/6/6 544/6/6
f 544/6/6 539/6/6 545/6/6
f 540/5/6 541/5/6 546/5/6
f 542/2/6 543/2/6 547/2/6
f 546/5/6 541/5/6 547/5/6
f 541/2/6 542/2/6 547/2/6
f 544/2/6 545/2/6 547/2/6
f 543/2/6 544/2/6 547/2/6
f 547/2/6 545/2/6 548/2/6
f 548/2/6 545/2/6 549/2/6
f 548/6/6 549/6/6 550/6/6
f 550/6/6 549/6/6 551/6/6
f 551/6/6 549/6/6 552/6/6
f 552/6/6 549/6/6 553/6/6
f 551/6/6 552/6/6 554/6/6
f 554/6/6 552/6/6 555/6/6
f 556/4/6 557/4/6 558/4/6
f 558/4/6 557/4/6 559/4/6
f 560/1/6 561/1/6 562/1/6
f 562/1/6 561/1/6 563/1/6
f 564/4/6 565/4/6 566/4/6
f 566/4/6 565/4/6 567/4/6
f 568/4/6 569/4/6 570/4/6
f 570/4/6 569/4/6 571/4/6
f 572/4/6 573/4/6 574/4/6
f 574/4/6 573/4/6 575/4/6
f 576/4/6 577/4/6 578/4/6
f 578/4/6 577/4/6 579/4/6
