# MagicaVoxel @ Ephtracy

# group
g MalePerson1

# material
mtllib MalePerson1.mtl
usemtl palette

# normals
vn -1 0 0
vn 1 0 0
vn 0 0 1
vn 0 0 -1
vn 0 -1 0
vn 0 1 0

# texcoords
vt 0.0332031 0.5
vt 0.0371094 0.5
vt 0.0449219 0.5
vt 0.0917969 0.5
vt 0.279297 0.5
vt 0.306641 0.5
vt 0.537109 0.5
vt 0.892578 0.5
vt 0.958984 0.5
vt 0.962891 0.5
vt 0.966797 0.5
vt 0.978516 0.5
vt 0.982422 0.5
vt 0.994141 0.5

# verts
v -4 1 -1
v -4 1 -3
v -4 5 -1
v -4 5 -3
v -4 9 1
v -4 9 -2
v -4 10 1
v -4 10 -1
v -4 10 -2
v -4 11 1
v -4 11 -1
v -4 11 -2
v -4 12 -1
v -4 12 -2
v -4 13 1
v -4 13 -1
v -4 13 -2
v -3 8 1
v -3 8 -0
v -3 8 -1
v -3 8 -2
v -3 9 1
v -3 9 -0
v -3 9 -1
v -3 9 -2
v -2 0 2
v -2 0 -0
v -2 2 2
v -2 2 -0
v -2 4 2
v -2 4 -0
v -2 6 2
v -2 6 -3
v -2 8 2
v -2 8 1
v -2 8 -0
v -2 8 -1
v -2 8 -2
v -2 8 -3
v -2 9 2
v -2 9 1
v -2 9 -0
v -2 9 -1
v -2 9 -2
v -2 9 -3
v -2 13 2
v -2 13 1
v -2 13 -2
v -2 13 -3
v -2 14 2
v -2 14 -3
v -2 16 2
v -2 16 -3
v -2 19 2
v -2 19 -3
v -1 4 2
v -1 4 -0
v -1 5 -1
v -1 5 -3
v -1 6 2
v -1 6 -0
v -1 6 -1
v -1 6 -3
v -1 7 3
v -1 7 2
v -1 7 -3
v -1 7 -4
v -1 8 2
v -1 8 -3
v -1 9 3
v -1 9 2
v -1 9 -3
v -1 9 -4
v -1 13 3
v -1 13 2
v -1 13 -0
v -1 13 -1
v -1 13 -3
v -1 13 -4
v -1 14 -0
v -1 14 -1
v -3 1 -1
v -3 1 -3
v -3 3 -1
v -3 3 -3
v 0 1 2
v 0 1 -0
v 0 2 2
v 0 2 -0
v 0 3 -1
v 0 3 -3
v 0 4 2
v 0 4 -0
v 0 4 -1
v 0 4 -3
v 0 7 3
v 0 7 2
v 0 7 -3
v 0 7 -4
v 0 8 2
v 0 8 -3
v 0 9 3
v 0 9 2
v 0 9 -3
v 0 9 -4
v 0 13 3
v 0 13 2
v 0 13 -0
v 0 13 -1
v 0 13 -3
v 0 13 -4
v 0 14 -0
v 0 14 -1
v 1 4 2
v 1 4 -0
v 1 4 -1
v 1 4 -3
v 1 6 -0
v 1 6 -1
v 1 7 1
v 1 7 -2
v 1 8 2
v 1 8 1
v 1 8 -2
v 1 8 -3
v 1 9 2
v 1 9 1
v 1 9 -2
v 1 9 -3
v 1 10 1
v 1 10 -2
v 1 11 1
v 1 11 -2
v 1 12 1
v 1 12 -0
v 1 12 -1
v 1 12 -2
v 1 13 2
v 1 13 1
v 1 13 -0
v 1 13 -1
v 1 13 -2
v 1 13 -3
v 2 0 2
v 2 0 -0
v 2 1 2
v 2 1 -0
v 2 9 1
v 2 9 -2
v 2 10 1
v 2 10 -0
v 2 10 -2
v 2 11 1
v 2 11 -0
v 2 11 -2
v 2 12 1
v 2 12 -0
v 2 12 -2
v 2 14 2
v 2 14 -3
v 2 15 -0
v 2 15 -1
v 2 16 1
v 2 16 -0
v 2 16 -1
v 2 16 -2
v 2 17 1
v 2 17 -0
v 2 17 -1
v 2 17 -2
v 2 18 2
v 2 18 -3
v 2 19 2
v 2 19 -3
v 3 15 -0
v 3 15 -1
v 3 16 -0
v 3 16 -1
v -1 7 3
v -1 9 3
v -1 13 3
v 0 7 3
v 0 9 3
v 0 13 3
v -2 0 2
v -2 2 2
v -2 4 2
v -2 6 2
v -2 8 2
v -2 9 2
v -2 13 2
v -2 14 2
v -2 16 2
v -2 19 2
v -1 4 2
v -1 6 2
v -1 7 2
v -1 8 2
v -1 9 2
v -1 13 2
v 0 1 2
v 0 2 2
v 0 4 2
v 0 7 2
v 0 8 2
v 0 9 2
v 0 13 2
v 0 16 2
v 0 17 2
v 1 4 2
v 1 8 2
v 1 9 2
v 1 13 2
v 1 17 2
v 1 18 2
v 2 0 2
v 2 1 2
v 2 14 2
v 2 18 2
v 2 19 2
v -4 9 1
v -4 10 1
v -4 11 1
v -4 13 1
v -3 8 1
v -3 9 1
v -3 10 1
v -3 11 1
v -3 13 1
v -2 8 1
v -2 9 1
v -2 13 1
v 1 9 1
v 1 10 1
v 1 11 1
v 1 12 1
v 2 9 1
v 2 10 1
v 2 11 1
v 2 12 1
v -1 13 -0
v -1 14 -0
v 0 13 -0
v 0 14 -0
v 2 15 -0
v 2 16 -0
v 3 15 -0
v 3 16 -0
v -4 1 -1
v -4 5 -1
v -3 1 -1
v -3 3 -1
v -3 8 -1
v -3 9 -1
v -2 3 -1
v -2 5 -1
v -2 8 -1
v -2 9 -1
v -1 5 -1
v -1 6 -1
v 0 3 -1
v 0 4 -1
v 1 4 -1
v 1 6 -1
v -3 8 -0
v -3 9 -0
v -2 0 -0
v -2 2 -0
v -2 4 -0
v -2 8 -0
v -2 9 -0
v -1 4 -0
v -1 6 -0
v 0 1 -0
v 0 2 -0
v 0 4 -0
v 1 4 -0
v 1 6 -0
v 2 0 -0
v 2 1 -0
v -1 13 -1
v -1 14 -1
v 0 13 -1
v 0 14 -1
v 2 15 -1
v 2 16 -1
v 3 15 -1
v 3 16 -1
v -4 9 -2
v -4 10 -2
v -4 11 -2
v -4 12 -2
v -4 13 -2
v -3 8 -2
v -3 9 -2
v -3 10 -2
v -3 11 -2
v -3 12 -2
v -3 13 -2
v -2 8 -2
v -2 9 -2
v -2 13 -2
v 1 9 -2
v 1 10 -2
v 1 11 -2
v 1 12 -2
v 2 9 -2
v 2 10 -2
v 2 11 -2
v 2 12 -2
v -4 1 -3
v -4 5 -3
v -3 1 -3
v -3 3 -3
v -2 3 -3
v -2 5 -3
v -2 6 -3
v -2 8 -3
v -2 9 -3
v -2 13 -3
v -2 14 -3
v -2 16 -3
v -2 19 -3
v -1 5 -3
v -1 6 -3
v -1 7 -3
v -1 8 -3
v -1 9 -3
v -1 13 -3
v 0 3 -3
v 0 4 -3
v 0 7 -3
v 0 8 -3
v 0 9 -3
v 0 13 -3
v 0 16 -3
v 0 17 -3
v 1 4 -3
v 1 8 -3
v 1 9 -3
v 1 13 -3
v 1 17 -3
v 1 18 -3
v 2 14 -3
v 2 18 -3
v 2 19 -3
v -1 7 -4
v -1 9 -4
v -1 13 -4
v 0 7 -4
v 0 9 -4
v 0 13 -4
v -2 0 2
v 2 0 2
v -2 0 -0
v 2 0 -0
v -4 1 -1
v -3 1 -1
v -4 1 -3
v -3 1 -3
v -3 3 -1
v -2 3 -1
v 0 3 -1
v -3 3 -3
v -2 3 -3
v 0 3 -3
v 0 4 2
v 1 4 2
v 0 4 -0
v 1 4 -0
v 0 4 -1
v 1 4 -1
v 0 4 -3
v 1 4 -3
v -2 6 2
v -1 6 2
v -1 6 -0
v 1 6 -0
v -1 6 -1
v 1 6 -1
v -2 6 -3
v -1 6 -3
v -1 7 3
v 0 7 3
v -1 7 2
v 0 7 2
v -1 7 -3
v 0 7 -3
v -1 7 -4
v 0 7 -4
v -3 8 1
v -2 8 1
v -3 8 -0
v -2 8 -0
v -3 8 -1
v -2 8 -1
v -3 8 -2
v -2 8 -2
v -4 9 1
v -3 9 1
v 1 9 1
v 2 9 1
v -3 9 -0
v -2 9 -0
v -3 9 -1
v -2 9 -1
v -4 9 -2
v -3 9 -2
v 1 9 -2
v 2 9 -2
v -2 14 2
v 2 14 2
v -1 14 -0
v 0 14 -0
v -1 14 -1
v 0 14 -1
v -2 14 -3
v 2 14 -3
v 2 15 -0
v 3 15 -0
v 2 15 -1
v 3 15 -1
v 0 1 2
v 2 1 2
v 0 1 -0
v 2 1 -0
v -2 4 2
v -1 4 2
v -2 4 -0
v -1 4 -0
v -4 5 -1
v -2 5 -1
v -1 5 -1
v -4 5 -3
v -2 5 -3
v -1 5 -3
v 1 12 1
v 2 12 1
v 1 12 -0
v 2 12 -0
v 1 12 -1
v 1 12 -2
v 2 12 -2
v -1 13 3
v 0 13 3
v -2 13 2
v -1 13 2
v 0 13 2
v 1 13 2
v -4 13 1
v -3 13 1
v -2 13 1
v 1 13 1
v -2 13 -0
v -1 13 -0
v 0 13 -0
v 1 13 -0
v -4 13 -1
v -3 13 -1
v -2 13 -1
v -1 13 -1
v 0 13 -1
v 1 13 -1
v -4 13 -2
v -3 13 -2
v -2 13 -2
v 1 13 -2
v -2 13 -3
v -1 13 -3
v 0 13 -3
v 1 13 -3
v -1 13 -4
v 0 13 -4
v 2 16 -0
v 3 16 -0
v 2 16 -1
v 3 16 -1
v -2 19 2
v 2 19 2
v -2 19 -3
v 2 19 -3

# faces
f 3/13/1 2/13/1 1/13/1
f 4/13/1 2/13/1 3/13/1
f 7/2/1 6/2/1 5/2/1
f 8/2/1 6/2/1 7/2/1
f 9/2/1 6/2/1 8/2/1
f 10/4/1 8/4/1 7/4/1
f 11/8/1 9/8/1 8/8/1
f 11/4/1 8/4/1 10/4/1
f 12/8/1 9/8/1 11/8/1
f 13/10/1 11/10/1 10/10/1
f 13/3/1 12/3/1 11/3/1
f 14/3/1 12/3/1 13/3/1
f 15/10/1 13/10/1 10/10/1
f 16/5/1 14/5/1 13/5/1
f 16/10/1 13/10/1 15/10/1
f 17/5/1 14/5/1 16/5/1
f 22/2/1 19/2/1 18/2/1
f 23/2/1 19/2/1 22/2/1
f 24/2/1 21/2/1 20/2/1
f 25/2/1 21/2/1 24/2/1
f 28/13/1 27/13/1 26/13/1
f 29/13/1 27/13/1 28/13/1
f 30/6/1 29/6/1 28/6/1
f 31/6/1 29/6/1 30/6/1
f 34/6/1 33/6/1 32/6/1
f 35/6/1 33/6/1 34/6/1
f 36/6/1 33/6/1 35/6/1
f 37/6/1 33/6/1 36/6/1
f 38/6/1 33/6/1 37/6/1
f 39/6/1 33/6/1 38/6/1
f 40/2/1 35/2/1 34/2/1
f 41/2/1 35/2/1 40/2/1
f 42/2/1 37/2/1 36/2/1
f 43/2/1 37/2/1 42/2/1
f 44/2/1 39/2/1 38/2/1
f 45/2/1 39/2/1 44/2/1
f 46/6/1 41/6/1 40/6/1
f 47/6/1 41/6/1 46/6/1
f 48/6/1 45/6/1 44/6/1
f 49/6/1 45/6/1 48/6/1
f 52/1/1 51/1/1 50/1/1
f 53/1/1 51/1/1 52/1/1
f 54/7/1 53/7/1 52/7/1
f 55/7/1 53/7/1 54/7/1
f 60/6/1 57/6/1 56/6/1
f 61/6/1 57/6/1 60/6/1
f 62/6/1 59/6/1 58/6/1
f 63/6/1 59/6/1 62/6/1
f 68/1/1 65/1/1 64/1/1
f 69/1/1 67/1/1 66/1/1
f 70/1/1 68/1/1 64/1/1
f 71/1/1 68/1/1 70/1/1
f 72/1/1 67/1/1 69/1/1
f 73/1/1 67/1/1 72/1/1
f 74/6/1 71/6/1 70/6/1
f 75/6/1 71/6/1 74/6/1
f 78/6/1 73/6/1 72/6/1
f 79/6/1 73/6/1 78/6/1
f 80/1/1 77/1/1 76/1/1
f 81/1/1 77/1/1 80/1/1
f 82/13/2 83/13/2 84/13/2
f 84/13/2 83/13/2 85/13/2
f 86/13/2 87/13/2 88/13/2
f 88/13/2 87/13/2 89/13/2
f 88/6/2 89/6/2 92/6/2
f 92/6/2 89/6/2 93/6/2
f 90/6/2 91/6/2 94/6/2
f 94/6/2 91/6/2 95/6/2
f 96/1/2 97/1/2 100/1/2
f 98/1/2 99/1/2 101/1/2
f 96/1/2 100/1/2 102/1/2
f 102/1/2 100/1/2 103/1/2
f 101/1/2 99/1/2 104/1/2
f 104/1/2 99/1/2 105/1/2
f 102/6/2 103/6/2 106/6/2
f 106/6/2 103/6/2 107/6/2
f 104/6/2 105/6/2 110/6/2
f 110/6/2 105/6/2 111/6/2
f 108/1/2 109/1/2 112/1/2
f 112/1/2 109/1/2 113/1/2
f 114/6/2 115/6/2 118/6/2
f 116/6/2 117/6/2 119/6/2
f 114/6/2 118/6/2 120/6/2
f 118/6/2 119/6/2 120/6/2
f 119/6/2 117/6/2 121/6/2
f 120/6/2 119/6/2 121/6/2
f 114/6/2 120/6/2 122/6/2
f 120/2/2 121/2/2 123/2/2
f 122/6/2 120/6/2 123/6/2
f 121/6/2 117/6/2 124/6/2
f 123/2/2 121/2/2 124/2/2
f 124/6/2 117/6/2 125/6/2
f 122/2/2 123/2/2 126/2/2
f 123/2/2 124/2/2 126/2/2
f 124/2/2 125/2/2 126/2/2
f 126/2/2 125/2/2 127/2/2
f 127/2/2 125/2/2 128/2/2
f 128/2/2 125/2/2 129/2/2
f 126/6/2 127/6/2 130/6/2
f 128/6/2 129/6/2 131/6/2
f 126/6/2 130/6/2 132/6/2
f 131/6/2 129/6/2 133/6/2
f 126/6/2 132/6/2 134/6/2
f 133/6/2 129/6/2 137/6/2
f 126/6/2 134/6/2 138/6/2
f 134/2/2 135/2/2 139/2/2
f 138/6/2 134/6/2 139/6/2
f 135/6/2 136/6/2 140/6/2
f 139/2/2 135/2/2 140/2/2
f 136/2/2 137/2/2 141/2/2
f 140/6/2 136/6/2 141/6/2
f 137/6/2 129/6/2 142/6/2
f 141/2/2 137/2/2 142/2/2
f 142/6/2 129/6/2 143/6/2
f 144/13/2 145/13/2 146/13/2
f 146/13/2 145/13/2 147/13/2
f 148/12/2 149/12/2 150/12/2
f 150/12/2 149/12/2 151/12/2
f 151/12/2 149/12/2 152/12/2
f 150/5/2 151/5/2 153/5/2
f 151/10/2 152/10/2 154/10/2
f 153/5/2 151/5/2 154/5/2
f 154/10/2 152/10/2 155/10/2
f 153/8/2 154/8/2 156/8/2
f 154/9/2 155/9/2 157/9/2
f 156/8/2 154/8/2 157/8/2
f 157/9/2 155/9/2 158/9/2
f 159/1/2 160/1/2 161/1/2
f 161/1/2 160/1/2 162/1/2
f 159/1/2 161/1/2 163/1/2
f 163/1/2 161/1/2 164/1/2
f 162/1/2 160/1/2 165/1/2
f 165/1/2 160/1/2 166/1/2
f 163/14/2 164/14/2 167/14/2
f 159/1/2 163/1/2 167/1/2
f 164/1/2 165/1/2 168/1/2
f 167/14/2 164/14/2 168/14/2
f 165/14/2 166/14/2 169/14/2
f 168/1/2 165/1/2 169/1/2
f 166/1/2 160/1/2 170/1/2
f 169/14/2 166/14/2 170/14/2
f 168/1/2 169/1/2 171/1/2
f 167/1/2 168/1/2 171/1/2
f 169/1/2 170/1/2 171/1/2
f 159/1/2 167/1/2 171/1/2
f 170/1/2 160/1/2 172/1/2
f 171/1/2 170/1/2 172/1/2
f 171/7/2 172/7/2 173/7/2
f 173/7/2 172/7/2 174/7/2
f 175/1/2 176/1/2 177/1/2
f 177/1/2 176/1/2 178/1/2
f 182/1/3 180/1/3 179/1/3
f 183/6/3 181/6/3 180/6/3
f 183/1/3 180/1/3 182/1/3
f 184/6/3 181/6/3 183/6/3
f 195/6/3 187/6/3 186/6/3
f 196/6/3 189/6/3 188/6/3
f 197/6/3 189/6/3 196/6/3
f 198/2/3 190/2/3 189/2/3
f 198/6/3 189/6/3 197/6/3
f 199/6/3 191/6/3 190/6/3
f 199/2/3 190/2/3 198/2/3
f 200/6/3 191/6/3 199/6/3
f 201/13/3 186/13/3 185/13/3
f 202/6/3 195/6/3 186/6/3
f 202/13/3 186/13/3 201/13/3
f 202/6/3 197/6/3 196/6/3
f 202/6/3 196/6/3 195/6/3
f 203/6/3 197/6/3 202/6/3
f 204/6/3 197/6/3 203/6/3
f 208/7/3 194/7/3 193/7/3
f 208/1/3 193/1/3 192/1/3
f 209/7/3 194/7/3 208/7/3
f 210/6/3 205/6/3 204/6/3
f 210/6/3 204/6/3 203/6/3
f 211/2/3 206/2/3 205/2/3
f 211/6/3 205/6/3 210/6/3
f 212/6/3 207/6/3 206/6/3
f 212/2/3 206/2/3 211/2/3
f 213/6/3 207/6/3 212/6/3
f 214/7/3 194/7/3 209/7/3
f 214/1/3 209/1/3 208/1/3
f 215/7/3 194/7/3 214/7/3
f 216/13/3 201/13/3 185/13/3
f 217/13/3 201/13/3 216/13/3
f 218/1/3 215/1/3 214/1/3
f 218/1/3 214/1/3 208/1/3
f 218/1/3 208/1/3 192/1/3
f 219/7/3 194/7/3 215/7/3
f 219/1/3 215/1/3 218/1/3
f 220/7/3 194/7/3 219/7/3
f 226/2/3 222/2/3 221/2/3
f 227/4/3 223/4/3 222/4/3
f 227/2/3 222/2/3 226/2/3
f 228/10/3 224/10/3 223/10/3
f 228/4/3 223/4/3 227/4/3
f 229/10/3 224/10/3 228/10/3
f 230/2/3 227/2/3 226/2/3
f 230/2/3 226/2/3 225/2/3
f 230/2/3 229/2/3 228/2/3
f 230/2/3 228/2/3 227/2/3
f 231/2/3 229/2/3 230/2/3
f 232/2/3 229/2/3 231/2/3
f 237/12/3 234/12/3 233/12/3
f 238/5/3 235/5/3 234/5/3
f 238/12/3 234/12/3 237/12/3
f 239/8/3 236/8/3 235/8/3
f 239/5/3 235/5/3 238/5/3
f 240/8/3 236/8/3 239/8/3
f 243/1/3 242/1/3 241/1/3
f 244/1/3 242/1/3 243/1/3
f 247/1/3 246/1/3 245/1/3
f 248/1/3 246/1/3 247/1/3
f 251/13/3 250/13/3 249/13/3
f 252/13/3 250/13/3 251/13/3
f 255/13/3 250/13/3 252/13/3
f 256/13/3 250/13/3 255/13/3
f 257/2/3 254/2/3 253/2/3
f 258/2/3 254/2/3 257/2/3
f 259/6/3 256/6/3 255/6/3
f 261/6/3 259/6/3 255/6/3
f 261/6/3 260/6/3 259/6/3
f 262/6/3 260/6/3 261/6/3
f 263/6/3 260/6/3 262/6/3
f 264/6/3 260/6/3 263/6/3
f 265/2/4 266/2/4 270/2/4
f 270/2/4 266/2/4 271/2/4
f 268/6/4 269/6/4 272/6/4
f 267/13/4 268/13/4 274/13/4
f 272/6/4 273/6/4 275/6/4
f 274/13/4 268/13/4 275/13/4
f 268/6/4 272/6/4 275/6/4
f 275/6/4 273/6/4 276/6/4
f 276/6/4 273/6/4 277/6/4
f 277/6/4 273/6/4 278/6/4
f 267/13/4 274/13/4 279/13/4
f 279/13/4 274/13/4 280/13/4
f 281/1/4 282/1/4 283/1/4
f 283/1/4 282/1/4 284/1/4
f 285/1/4 286/1/4 287/1/4
f 287/1/4 286/1/4 288/1/4
f 289/2/4 290/2/4 295/2/4
f 290/8/4 291/8/4 296/8/4
f 295/2/4 290/2/4 296/2/4
f 291/3/4 292/3/4 297/3/4
f 296/8/4 291/8/4 297/8/4
f 292/5/4 293/5/4 298/5/4
f 297/3/4 292/3/4 298/3/4
f 298/5/4 293/5/4 299/5/4
f 296/2/4 297/2/4 300/2/4
f 294/2/4 295/2/4 300/2/4
f 298/2/4 299/2/4 300/2/4
f 297/2/4 298/2/4 300/2/4
f 295/2/4 296/2/4 300/2/4
f 300/2/4 299/2/4 301/2/4
f 301/2/4 299/2/4 302/2/4
f 303/12/4 304/12/4 307/12/4
f 304/10/4 305/10/4 308/10/4
f 307/12/4 304/12/4 308/12/4
f 305/9/4 306/9/4 309/9/4
f 308/10/4 305/10/4 309/10/4
f 309/9/4 306/9/4 310/9/4
f 311/13/4 312/13/4 313/13/4
f 313/13/4 312/13/4 314/13/4
f 314/13/4 312/13/4 315/13/4
f 315/13/4 312/13/4 316/13/4
f 315/6/4 316/6/4 324/6/4
f 317/6/4 318/6/4 325/6/4
f 325/6/4 318/6/4 326/6/4
f 318/2/4 319/2/4 327/2/4
f 326/6/4 318/6/4 327/6/4
f 319/6/4 320/6/4 328/6/4
f 327/2/4 319/2/4 328/2/4
f 328/6/4 320/6/4 329/6/4
f 315/6/4 324/6/4 330/6/4
f 325/6/4 326/6/4 330/6/4
f 324/6/4 325/6/4 330/6/4
f 330/6/4 326/6/4 331/6/4
f 331/6/4 326/6/4 332/6/4
f 322/7/4 323/7/4 336/7/4
f 321/1/4 322/1/4 336/1/4
f 336/7/4 323/7/4 337/7/4
f 332/6/4 333/6/4 338/6/4
f 331/6/4 332/6/4 338/6/4
f 333/2/4 334/2/4 339/2/4
f 338/6/4 333/6/4 339/6/4
f 334/6/4 335/6/4 340/6/4
f 339/2/4 334/2/4 340/2/4
f 340/6/4 335/6/4 341/6/4
f 337/7/4 323/7/4 342/7/4
f 336/1/4 337/1/4 342/1/4
f 342/7/4 323/7/4 343/7/4
f 342/1/4 343/1/4 344/1/4
f 336/1/4 342/1/4 344/1/4
f 321/1/4 336/1/4 344/1/4
f 343/7/4 323/7/4 345/7/4
f 344/1/4 343/1/4 345/1/4
f 345/7/4 323/7/4 346/7/4
f 347/1/4 348/1/4 350/1/4
f 348/6/4 349/6/4 351/6/4
f 350/1/4 348/1/4 351/1/4
f 351/6/4 349/6/4 352/6/4
f 355/13/5 354/13/5 353/13/5
f 356/13/5 354/13/5 355/13/5
f 359/13/5 358/13/5 357/13/5
f 360/13/5 358/13/5 359/13/5
f 364/13/5 362/13/5 361/13/5
f 365/6/5 363/6/5 362/6/5
f 365/13/5 362/13/5 364/13/5
f 366/6/5 363/6/5 365/6/5
f 369/6/5 368/6/5 367/6/5
f 370/6/5 368/6/5 369/6/5
f 373/6/5 372/6/5 371/6/5
f 374/6/5 372/6/5 373/6/5
f 377/6/5 376/6/5 375/6/5
f 379/6/5 377/6/5 375/6/5
f 379/6/5 378/6/5 377/6/5
f 380/6/5 378/6/5 379/6/5
f 381/6/5 379/6/5 375/6/5
f 382/6/5 379/6/5 381/6/5
f 385/1/5 384/1/5 383/1/5
f 386/1/5 384/1/5 385/1/5
f 389/1/5 388/1/5 387/1/5
f 390/1/5 388/1/5 389/1/5
f 393/2/5 392/2/5 391/2/5
f 394/2/5 392/2/5 393/2/5
f 397/2/5 396/2/5 395/2/5
f 398/2/5 396/2/5 397/2/5
f 403/2/5 400/2/5 399/2/5
f 405/2/5 403/2/5 399/2/5
f 405/2/5 404/2/5 403/2/5
f 406/2/5 404/2/5 405/2/5
f 407/2/5 405/2/5 399/2/5
f 408/2/5 405/2/5 407/2/5
f 409/12/5 402/12/5 401/12/5
f 410/12/5 402/12/5 409/12/5
f 413/1/5 412/1/5 411/1/5
f 414/1/5 412/1/5 413/1/5
f 415/1/5 413/1/5 411/1/5
f 416/1/5 412/1/5 414/1/5
f 417/1/5 415/1/5 411/1/5
f 417/1/5 416/1/5 415/1/5
f 418/1/5 412/1/5 416/1/5
f 418/1/5 416/1/5 417/1/5
f 421/1/5 420/1/5 419/1/5
f 422/1/5 420/1/5 421/1/5
f 423/13/6 424/13/6 425/13/6
f 425/13/6 424/13/6 426/13/6
f 427/6/6 428/6/6 429/6/6
f 429/6/6 428/6/6 430/6/6
f 431/13/6 432/13/6 434/13/6
f 432/6/6 433/6/6 435/6/6
f 434/13/6 432/13/6 435/13/6
f 435/6/6 433/6/6 436/6/6
f 437/8/6 438/8/6 439/8/6
f 439/8/6 438/8/6 440/8/6
f 439/9/6 440/9/6 441/9/6
f 441/9/6 440/9/6 442/9/6
f 442/9/6 440/9/6 443/9/6
f 444/6/6 445/6/6 447/6/6
f 447/6/6 445/6/6 448/6/6
f 446/6/6 447/6/6 452/6/6
f 447/6/6 448/6/6 452/6/6
f 448/6/6 449/6/6 452/6/6
f 452/6/6 449/6/6 453/6/6
f 451/2/6 452/2/6 454/2/6
f 452/2/6 453/2/6 454/2/6
f 454/2/6 453/2/6 455/2/6
f 455/2/6 453/2/6 456/2/6
f 456/2/6 453/2/6 457/2/6
f 450/10/6 451/10/6 458/10/6
f 451/2/6 454/2/6 459/2/6
f 458/10/6 451/10/6 459/10/6
f 454/6/6 455/6/6 460/6/6
f 459/2/6 454/2/6 460/2/6
f 460/6/6 455/6/6 461/6/6
f 456/6/6 457/6/6 462/6/6
f 462/6/6 457/6/6 463/6/6
f 458/5/6 459/5/6 464/5/6
f 460/2/6 461/2/6 465/2/6
f 464/5/6 459/5/6 465/5/6
f 459/2/6 460/2/6 465/2/6
f 462/2/6 463/2/6 465/2/6
f 461/2/6 462/2/6 465/2/6
f 465/2/6 463/2/6 466/2/6
f 466/2/6 463/2/6 467/2/6
f 466/6/6 467/6/6 468/6/6
f 468/6/6 467/6/6 469/6/6
f 469/6/6 467/6/6 470/6/6
f 470/6/6 467/6/6 471/6/6
f 469/6/6 470/6/6 472/6/6
f 472/6/6 470/6/6 473/6/6
f 474/1/6 475/1/6 476/1/6
f 476/1/6 475/1/6 477/1/6
f 478/7/6 479/7/6 480/7/6
f 480/7/6 479/7/6 481/7/6
