# MagicaVoxel @ Ephtracy

# group
g SpecialHalen2

# material
mtllib SpecialHalen2.mtl
usemtl palette

# normals
vn -1 0 0
vn 1 0 0
vn 0 0 1
vn 0 0 -1
vn 0 -1 0
vn 0 1 0

# texcoords
vt 0.0332031 0.5
vt 0.0371094 0.5
vt 0.0644531 0.5
vt 0.0917969 0.5
vt 0.705078 0.5
vt 0.861328 0.5
vt 0.970703 0.5
vt 0.974609 0.5
vt 0.978516 0.5
vt 0.986328 0.5
vt 0.990234 0.5

# verts
v -4 1 2
v -4 1 -0
v -4 5 2
v -4 5 -0
v -3 14 2
v -3 14 -3
v -3 15 1
v -3 15 -0
v -3 15 -1
v -3 15 -2
v -3 16 1
v -3 16 -0
v -3 16 -1
v -3 16 -2
v -3 17 1
v -3 17 -0
v -3 17 -1
v -3 17 -2
v -3 18 1
v -3 18 -0
v -3 18 -1
v -3 18 -2
v -3 19 2
v -3 19 1
v -3 19 -2
v -3 19 -3
v -2 0 -1
v -2 0 -3
v -2 1 -1
v -2 1 -3
v -2 2 -1
v -2 2 -3
v -2 3 -1
v -2 3 -3
v -2 4 -1
v -2 4 -3
v -2 6 2
v -2 6 -3
v -2 7 2
v -2 7 1
v -2 7 -2
v -2 7 -3
v -2 8 2
v -2 8 1
v -2 8 -2
v -2 8 -3
v -2 9 2
v -2 9 1
v -2 9 -2
v -2 9 -3
v -2 10 2
v -2 10 1
v -2 10 -0
v -2 10 -1
v -2 10 -2
v -2 10 -3
v -2 11 1
v -2 11 -0
v -2 11 -1
v -2 11 -2
v -2 12 2
v -2 12 1
v -2 12 -2
v -2 12 -3
v -2 13 2
v -2 13 1
v -2 13 -2
v -2 13 -3
v -2 14 2
v -2 14 -3
v -1 4 -1
v -1 4 -3
v -1 5 2
v -1 5 -0
v -1 6 2
v -1 6 -0
v -1 6 -1
v -1 6 -3
v -1 7 3
v -1 7 2
v -1 7 -3
v -1 7 -4
v -1 8 3
v -1 8 2
v -1 8 -3
v -1 9 3
v -1 9 2
v -1 9 -3
v -1 10 2
v -1 10 -3
v -1 11 3
v -1 11 2
v -1 12 2
v -1 12 -3
v -1 13 3
v -1 13 2
v -1 13 -3
v -1 13 -4
v -1 17 3
v -1 17 2
v -1 17 -3
v -1 17 -4
v -1 19 2
v -1 19 -3
v -1 20 3
v -1 20 2
v -1 20 -3
v -1 20 -4
v -3 1 2
v -3 1 -0
v -3 3 2
v -3 3 -0
v 0 1 -1
v 0 1 -3
v 0 2 -1
v 0 2 -3
v 0 3 2
v 0 3 -0
v 0 3 -1
v 0 3 -3
v 0 4 2
v 0 4 -0
v 0 4 -1
v 0 4 -3
v 0 7 3
v 0 7 2
v 0 7 -3
v 0 7 -4
v 0 8 3
v 0 8 2
v 0 8 -3
v 0 9 3
v 0 9 2
v 0 9 -3
v 0 10 2
v 0 10 -3
v 0 11 3
v 0 11 2
v 0 12 -3
v 0 13 3
v 0 13 2
v 0 13 -3
v 0 13 -4
v 0 17 3
v 0 17 2
v 0 17 -3
v 0 17 -4
v 0 19 2
v 0 19 -3
v 0 20 3
v 0 20 2
v 0 20 -3
v 0 20 -4
v 1 4 2
v 1 4 -0
v 1 4 -1
v 1 4 -3
v 1 5 2
v 1 5 -0
v 1 5 -1
v 1 5 -3
v 1 6 2
v 1 6 -0
v 1 6 -1
v 1 6 -3
v 1 7 2
v 1 7 1
v 1 7 -2
v 1 7 -3
v 1 8 2
v 1 8 1
v 1 8 -2
v 1 8 -3
v 1 9 2
v 1 9 1
v 1 9 -2
v 1 9 -3
v 1 10 2
v 1 10 1
v 1 10 -0
v 1 10 -1
v 1 10 -2
v 1 10 -3
v 1 11 2
v 1 11 1
v 1 11 -0
v 1 11 -1
v 1 11 -2
v 1 12 -2
v 1 12 -3
v 1 13 1
v 1 13 -2
v 1 13 -3
v 1 14 2
v 1 14 1
v 1 14 -2
v 1 14 -3
v 2 0 -1
v 2 0 -3
v 2 1 -1
v 2 1 -3
v 2 14 2
v 2 14 1
v 2 14 -2
v 2 14 -3
v 2 15 1
v 2 15 -2
v 2 16 2
v 2 16 1
v 2 16 -0
v 2 16 -1
v 2 16 -2
v 2 16 -3
v 2 17 1
v 2 17 -0
v 2 17 -1
v 2 17 -2
v 2 18 1
v 2 18 -0
v 2 18 -1
v 2 18 -2
v 2 19 2
v 2 19 1
v 2 19 -0
v 2 19 -1
v 2 19 -2
v 2 19 -3
v -1 7 3
v -1 8 3
v -1 9 3
v -1 11 3
v -1 13 3
v -1 17 3
v -1 20 3
v 0 7 3
v 0 8 3
v 0 9 3
v 0 11 3
v 0 13 3
v 0 17 3
v 0 20 3
v -4 1 2
v -4 5 2
v -3 1 2
v -3 3 2
v -3 5 2
v -3 14 2
v -3 19 2
v -2 3 2
v -2 5 2
v -2 6 2
v -2 7 2
v -2 8 2
v -2 9 2
v -2 10 2
v -2 12 2
v -2 13 2
v -2 14 2
v -1 3 2
v -1 5 2
v -1 6 2
v -1 7 2
v -1 8 2
v -1 9 2
v -1 10 2
v -1 11 2
v -1 12 2
v -1 13 2
v -1 17 2
v -1 19 2
v 0 3 2
v 0 4 2
v 0 5 2
v 0 7 2
v 0 8 2
v 0 9 2
v 0 10 2
v 0 11 2
v 0 13 2
v 0 17 2
v 0 19 2
v 1 4 2
v 1 5 2
v 1 6 2
v 1 7 2
v 1 8 2
v 1 9 2
v 1 10 2
v 1 11 2
v 1 14 2
v 1 16 2
v 2 14 2
v 2 16 2
v 2 19 2
v -2 0 -1
v -2 1 -1
v -2 2 -1
v -2 3 -1
v -2 4 -1
v -1 4 -1
v -1 6 -1
v 0 1 -1
v 0 2 -1
v 0 3 -1
v 0 4 -1
v 0 5 -1
v 0 6 -1
v 1 4 -1
v 1 5 -1
v 1 6 -1
v 2 0 -1
v 2 1 -1
v -1 19 -3
v -1 20 -3
v 0 19 -3
v 0 20 -3
v -1 19 2
v -1 20 2
v 0 19 2
v 0 20 2
v -4 1 -0
v -4 5 -0
v -3 1 -0
v -3 3 -0
v -3 5 -0
v -2 3 -0
v -2 5 -0
v -1 3 -0
v -1 5 -0
v -1 6 -0
v 0 3 -0
v 0 4 -0
v 0 5 -0
v 0 6 -0
v 1 4 -0
v 1 5 -0
v 1 6 -0
v -3 14 -3
v -3 19 -3
v -2 0 -3
v -2 1 -3
v -2 2 -3
v -2 3 -3
v -2 4 -3
v -2 6 -3
v -2 7 -3
v -2 8 -3
v -2 9 -3
v -2 10 -3
v -2 12 -3
v -2 13 -3
v -2 14 -3
v -1 4 -3
v -1 6 -3
v -1 7 -3
v -1 8 -3
v -1 9 -3
v -1 10 -3
v -1 12 -3
v -1 13 -3
v -1 17 -3
v -1 19 -3
v 0 1 -3
v 0 2 -3
v 0 3 -3
v 0 4 -3
v 0 5 -3
v 0 7 -3
v 0 8 -3
v 0 9 -3
v 0 10 -3
v 0 12 -3
v 0 13 -3
v 0 17 -3
v 0 19 -3
v 1 4 -3
v 1 5 -3
v 1 6 -3
v 1 7 -3
v 1 8 -3
v 1 9 -3
v 1 10 -3
v 1 12 -3
v 1 13 -3
v 1 14 -3
v 1 16 -3
v 2 0 -3
v 2 1 -3
v 2 14 -3
v 2 16 -3
v 2 19 -3
v -1 7 -4
v -1 13 -4
v -1 17 -4
v -1 20 -4
v 0 7 -4
v 0 13 -4
v 0 17 -4
v 0 20 -4
v -2 0 -1
v 2 0 -1
v -2 0 -3
v 2 0 -3
v -4 1 2
v -3 1 2
v -4 1 -0
v -3 1 -0
v -3 3 2
v -2 3 2
v -1 3 2
v 0 3 2
v -3 3 -0
v -2 3 -0
v -1 3 -0
v 0 3 -0
v 0 4 2
v 1 4 2
v 0 4 -0
v 1 4 -0
v 0 4 -1
v 1 4 -1
v 0 4 -3
v 1 4 -3
v -2 6 2
v -1 6 2
v -1 6 -0
v 0 6 -0
v 1 6 -0
v -1 6 -1
v 0 6 -1
v 1 6 -1
v -2 6 -3
v -1 6 -3
v -1 7 3
v 0 7 3
v -1 7 2
v 0 7 2
v -1 7 -3
v 0 7 -3
v -1 7 -4
v 0 7 -4
v -3 14 2
v -2 14 2
v 1 14 2
v 2 14 2
v 1 14 1
v 2 14 1
v 1 14 -2
v 2 14 -2
v -3 14 -3
v -2 14 -3
v 1 14 -3
v 2 14 -3
v -1 17 3
v 0 17 3
v -1 17 2
v 0 17 2
v -1 17 -3
v 0 17 -3
v -1 17 -4
v 0 17 -4
v 0 1 -1
v 2 1 -1
v 0 1 -3
v 2 1 -3
v -2 4 -1
v -1 4 -1
v -2 4 -3
v -1 4 -3
v -4 5 2
v -3 5 2
v -2 5 2
v -1 5 2
v -4 5 -0
v -3 5 -0
v -2 5 -0
v -1 5 -0
v -1 13 3
v 0 13 3
v -1 13 2
v 0 13 2
v -1 13 -3
v 0 13 -3
v -1 13 -4
v 0 13 -4
v -3 19 2
v -1 19 2
v 0 19 2
v 2 19 2
v -3 19 1
v 2 19 1
v 1 19 -0
v 2 19 -0
v 1 19 -1
v 2 19 -1
v -3 19 -2
v 2 19 -2
v -3 19 -3
v -1 19 -3
v 0 19 -3
v 2 19 -3
v -1 20 3
v 0 20 3
v -1 20 2
v 0 20 2
v -1 20 -3
v 0 20 -3
v -1 20 -4
v 0 20 -4

# faces
f 3/9/1 2/9/1 1/9/1
f 4/9/1 2/9/1 3/9/1
f 7/7/1 6/7/1 5/7/1
f 8/7/1 6/7/1 7/7/1
f 9/7/1 6/7/1 8/7/1
f 10/7/1 6/7/1 9/7/1
f 11/7/1 7/7/1 5/7/1
f 11/5/1 8/5/1 7/5/1
f 12/9/1 9/9/1 8/9/1
f 12/5/1 8/5/1 11/5/1
f 13/5/1 10/5/1 9/5/1
f 13/9/1 9/9/1 12/9/1
f 14/7/1 6/7/1 10/7/1
f 14/5/1 10/5/1 13/5/1
f 15/9/1 13/9/1 12/9/1
f 15/9/1 12/9/1 11/9/1
f 15/9/1 14/9/1 13/9/1
f 15/7/1 11/7/1 5/7/1
f 16/9/1 14/9/1 15/9/1
f 17/9/1 14/9/1 16/9/1
f 18/7/1 6/7/1 14/7/1
f 18/9/1 14/9/1 17/9/1
f 19/7/1 15/7/1 5/7/1
f 19/5/1 16/5/1 15/5/1
f 20/9/1 17/9/1 16/9/1
f 20/5/1 16/5/1 19/5/1
f 21/5/1 18/5/1 17/5/1
f 21/9/1 17/9/1 20/9/1
f 22/7/1 6/7/1 18/7/1
f 22/5/1 18/5/1 21/5/1
f 23/7/1 19/7/1 5/7/1
f 24/9/1 21/9/1 20/9/1
f 24/7/1 19/7/1 23/7/1
f 24/9/1 20/9/1 19/9/1
f 24/9/1 22/9/1 21/9/1
f 25/7/1 6/7/1 22/7/1
f 25/9/1 22/9/1 24/9/1
f 26/7/1 6/7/1 25/7/1
f 29/9/1 28/9/1 27/9/1
f 30/9/1 28/9/1 29/9/1
f 31/3/1 30/3/1 29/3/1
f 32/3/1 30/3/1 31/3/1
f 33/7/1 32/7/1 31/7/1
f 34/7/1 32/7/1 33/7/1
f 35/3/1 34/3/1 33/3/1
f 36/3/1 34/3/1 35/3/1
f 39/8/1 38/8/1 37/8/1
f 40/8/1 38/8/1 39/8/1
f 41/8/1 38/8/1 40/8/1
f 42/8/1 38/8/1 41/8/1
f 43/7/1 40/7/1 39/7/1
f 44/8/1 41/8/1 40/8/1
f 44/7/1 40/7/1 43/7/1
f 45/7/1 42/7/1 41/7/1
f 45/8/1 41/8/1 44/8/1
f 46/7/1 42/7/1 45/7/1
f 47/11/1 44/11/1 43/11/1
f 47/11/1 45/11/1 44/11/1
f 47/11/1 46/11/1 45/11/1
f 48/11/1 46/11/1 47/11/1
f 49/11/1 46/11/1 48/11/1
f 50/11/1 46/11/1 49/11/1
f 51/5/1 48/5/1 47/5/1
f 52/9/1 49/9/1 48/9/1
f 52/5/1 48/5/1 51/5/1
f 53/9/1 49/9/1 52/9/1
f 54/9/1 49/9/1 53/9/1
f 55/5/1 50/5/1 49/5/1
f 55/9/1 49/9/1 54/9/1
f 56/5/1 50/5/1 55/5/1
f 57/7/1 52/7/1 51/7/1
f 57/5/1 53/5/1 52/5/1
f 58/9/1 54/9/1 53/9/1
f 58/5/1 53/5/1 57/5/1
f 59/5/1 55/5/1 54/5/1
f 59/9/1 54/9/1 58/9/1
f 60/7/1 56/7/1 55/7/1
f 60/5/1 55/5/1 59/5/1
f 61/7/1 57/7/1 51/7/1
f 61/7/1 59/7/1 58/7/1
f 61/7/1 60/7/1 59/7/1
f 61/7/1 58/7/1 57/7/1
f 62/7/1 60/7/1 61/7/1
f 63/7/1 56/7/1 60/7/1
f 63/7/1 60/7/1 62/7/1
f 64/7/1 56/7/1 63/7/1
f 65/9/1 62/9/1 61/9/1
f 66/7/1 63/7/1 62/7/1
f 66/9/1 62/9/1 65/9/1
f 67/6/1 64/6/1 63/6/1
f 67/7/1 63/7/1 66/7/1
f 68/6/1 64/6/1 67/6/1
f 69/3/1 66/3/1 65/3/1
f 69/3/1 67/3/1 66/3/1
f 69/3/1 68/3/1 67/3/1
f 70/3/1 68/3/1 69/3/1
f 75/10/1 74/10/1 73/10/1
f 76/10/1 74/10/1 75/10/1
f 77/10/1 72/10/1 71/10/1
f 78/10/1 72/10/1 77/10/1
f 83/11/1 80/11/1 79/11/1
f 84/11/1 80/11/1 83/11/1
f 85/6/1 82/6/1 81/6/1
f 86/5/1 84/5/1 83/5/1
f 87/5/1 84/5/1 86/5/1
f 88/6/1 82/6/1 85/6/1
f 89/7/1 87/7/1 86/7/1
f 90/6/1 82/6/1 88/6/1
f 91/7/1 89/7/1 86/7/1
f 92/7/1 89/7/1 91/7/1
f 93/9/1 92/9/1 91/9/1
f 94/6/1 82/6/1 90/6/1
f 95/9/1 93/9/1 91/9/1
f 96/9/1 93/9/1 95/9/1
f 97/6/1 82/6/1 94/6/1
f 98/6/1 82/6/1 97/6/1
f 103/9/1 100/9/1 99/9/1
f 104/9/1 102/9/1 101/9/1
f 105/9/1 103/9/1 99/9/1
f 106/9/1 103/9/1 105/9/1
f 107/9/1 102/9/1 104/9/1
f 108/9/1 102/9/1 107/9/1
f 109/9/2 110/9/2 111/9/2
f 111/9/2 110/9/2 112/9/2
f 113/3/2 114/3/2 115/3/2
f 115/3/2 114/3/2 116/3/2
f 115/7/2 116/7/2 119/7/2
f 119/7/2 116/7/2 120/7/2
f 117/3/2 118/3/2 121/3/2
f 121/3/2 118/3/2 122/3/2
f 119/3/2 120/3/2 123/3/2
f 123/3/2 120/3/2 124/3/2
f 125/11/2 126/11/2 129/11/2
f 129/11/2 126/11/2 130/11/2
f 127/6/2 128/6/2 131/6/2
f 129/5/2 130/5/2 132/5/2
f 132/5/2 130/5/2 133/5/2
f 131/6/2 128/6/2 134/6/2
f 132/7/2 133/7/2 135/7/2
f 134/6/2 128/6/2 136/6/2
f 132/7/2 135/7/2 137/7/2
f 137/7/2 135/7/2 138/7/2
f 136/6/2 128/6/2 139/6/2
f 137/9/2 138/9/2 140/9/2
f 140/9/2 138/9/2 141/9/2
f 139/6/2 128/6/2 142/6/2
f 142/6/2 128/6/2 143/6/2
f 144/9/2 145/9/2 148/9/2
f 146/9/2 147/9/2 149/9/2
f 144/9/2 148/9/2 150/9/2
f 150/9/2 148/9/2 151/9/2
f 149/9/2 147/9/2 152/9/2
f 152/9/2 147/9/2 153/9/2
f 154/7/2 155/7/2 158/7/2
f 158/7/2 155/7/2 159/7/2
f 156/7/2 157/7/2 160/7/2
f 160/7/2 157/7/2 161/7/2
f 158/10/2 159/10/2 162/10/2
f 162/10/2 159/10/2 163/10/2
f 160/10/2 161/10/2 164/10/2
f 164/10/2 161/10/2 165/10/2
f 162/8/2 163/8/2 166/8/2
f 163/8/2 164/8/2 166/8/2
f 164/8/2 165/8/2 166/8/2
f 166/8/2 165/8/2 167/8/2
f 167/8/2 165/8/2 168/8/2
f 168/8/2 165/8/2 169/8/2
f 166/7/2 167/7/2 170/7/2
f 167/8/2 168/8/2 171/8/2
f 170/7/2 167/7/2 171/7/2
f 168/7/2 169/7/2 172/7/2
f 171/8/2 168/8/2 172/8/2
f 172/7/2 169/7/2 173/7/2
f 170/11/2 171/11/2 174/11/2
f 171/11/2 172/11/2 174/11/2
f 172/11/2 173/11/2 174/11/2
f 174/11/2 173/11/2 175/11/2
f 175/11/2 173/11/2 176/11/2
f 176/11/2 173/11/2 177/11/2
f 174/5/2 175/5/2 178/5/2
f 175/3/2 176/3/2 179/3/2
f 178/5/2 175/5/2 179/5/2
f 179/3/2 176/3/2 180/3/2
f 180/3/2 176/3/2 181/3/2
f 176/5/2 177/5/2 182/5/2
f 181/3/2 176/3/2 182/3/2
f 182/5/2 177/5/2 183/5/2
f 178/7/2 179/7/2 184/7/2
f 179/5/2 180/5/2 185/5/2
f 184/7/2 179/7/2 185/7/2
f 180/7/2 181/7/2 186/7/2
f 185/5/2 180/5/2 186/5/2
f 181/5/2 182/5/2 187/5/2
f 186/7/2 181/7/2 187/7/2
f 182/7/2 183/7/2 188/7/2
f 187/5/2 182/5/2 188/5/2
f 185/7/2 186/7/2 189/7/2
f 188/7/2 183/7/2 189/7/2
f 187/7/2 188/7/2 189/7/2
f 186/7/2 187/7/2 189/7/2
f 189/7/2 183/7/2 190/7/2
f 184/3/2 185/3/2 191/3/2
f 185/7/2 189/7/2 191/7/2
f 189/6/2 190/6/2 192/6/2
f 191/7/2 189/7/2 192/7/2
f 192/6/2 190/6/2 193/6/2
f 184/3/2 191/3/2 194/3/2
f 191/3/2 192/3/2 194/3/2
f 192/3/2 193/3/2 194/3/2
f 194/3/2 193/3/2 195/3/2
f 195/3/2 193/3/2 196/3/2
f 196/3/2 193/3/2 197/3/2
f 198/9/2 199/9/2 200/9/2
f 200/9/2 199/9/2 201/9/2
f 202/3/2 203/3/2 206/3/2
f 203/7/2 204/7/2 206/7/2
f 204/3/2 205/3/2 207/3/2
f 206/7/2 204/7/2 207/7/2
f 202/3/2 206/3/2 208/3/2
f 206/11/2 207/11/2 209/11/2
f 208/3/2 206/3/2 209/3/2
f 209/11/2 207/11/2 210/11/2
f 210/11/2 207/11/2 211/11/2
f 207/3/2 205/3/2 212/3/2
f 211/11/2 207/11/2 212/11/2
f 212/3/2 205/3/2 213/3/2
f 208/7/2 209/7/2 214/7/2
f 209/5/2 210/5/2 214/5/2
f 210/11/2 211/11/2 215/11/2
f 214/5/2 210/5/2 215/5/2
f 211/5/2 212/5/2 216/5/2
f 215/11/2 211/11/2 216/11/2
f 212/7/2 213/7/2 217/7/2
f 216/5/2 212/5/2 217/5/2
f 208/7/2 214/7/2 218/7/2
f 215/11/2 216/11/2 218/11/2
f 216/11/2 217/11/2 218/11/2
f 214/11/2 215/11/2 218/11/2
f 218/11/2 217/11/2 219/11/2
f 219/11/2 217/11/2 220/11/2
f 217/7/2 213/7/2 221/7/2
f 220/11/2 217/11/2 221/11/2
f 208/7/2 218/7/2 222/7/2
f 218/9/2 219/9/2 223/9/2
f 222/7/2 218/7/2 223/7/2
f 219/3/2 220/3/2 224/3/2
f 223/9/2 219/9/2 224/9/2
f 220/9/2 221/9/2 225/9/2
f 224/3/2 220/3/2 225/3/2
f 221/7/2 213/7/2 226/7/2
f 225/9/2 221/9/2 226/9/2
f 226/7/2 213/7/2 227/7/2
f 235/11/3 229/11/3 228/11/3
f 236/5/3 230/5/3 229/5/3
f 236/11/3 229/11/3 235/11/3
f 237/7/3 231/7/3 230/7/3
f 237/5/3 230/5/3 236/5/3
f 238/9/3 232/9/3 231/9/3
f 238/7/3 231/7/3 237/7/3
f 239/9/3 232/9/3 238/9/3
f 240/9/3 234/9/3 233/9/3
f 241/9/3 234/9/3 240/9/3
f 244/9/3 243/9/3 242/9/3
f 245/9/3 243/9/3 244/9/3
f 246/9/3 243/9/3 245/9/3
f 249/3/3 246/3/3 245/3/3
f 250/3/3 246/3/3 249/3/3
f 258/7/3 248/7/3 247/7/3
f 259/7/3 250/7/3 249/7/3
f 260/7/3 250/7/3 259/7/3
f 261/8/3 252/8/3 251/8/3
f 262/7/3 253/7/3 252/7/3
f 262/8/3 252/8/3 261/8/3
f 263/11/3 254/11/3 253/11/3
f 263/7/3 253/7/3 262/7/3
f 264/5/3 255/5/3 254/5/3
f 264/11/3 254/11/3 263/11/3
f 265/7/3 256/7/3 255/7/3
f 265/5/3 255/5/3 264/5/3
f 266/7/3 256/7/3 265/7/3
f 267/9/3 257/9/3 256/9/3
f 267/7/3 256/7/3 266/7/3
f 268/3/3 258/3/3 257/3/3
f 268/9/3 257/9/3 267/9/3
f 269/7/3 248/7/3 258/7/3
f 270/7/3 248/7/3 269/7/3
f 271/3/3 260/3/3 259/3/3
f 272/3/3 260/3/3 271/3/3
f 273/10/3 261/10/3 260/10/3
f 273/3/3 260/3/3 272/3/3
f 274/8/3 262/8/3 261/8/3
f 279/3/3 258/3/3 268/3/3
f 280/7/3 269/7/3 258/7/3
f 282/7/3 273/7/3 272/7/3
f 283/10/3 261/10/3 273/10/3
f 283/7/3 273/7/3 282/7/3
f 284/8/3 274/8/3 261/8/3
f 284/10/3 261/10/3 283/10/3
f 285/7/3 275/7/3 274/7/3
f 285/8/3 274/8/3 284/8/3
f 286/11/3 276/11/3 275/11/3
f 286/7/3 275/7/3 285/7/3
f 287/5/3 277/5/3 276/5/3
f 287/11/3 276/11/3 286/11/3
f 288/7/3 278/7/3 277/7/3
f 288/5/3 277/5/3 287/5/3
f 289/3/3 279/3/3 278/3/3
f 289/7/3 278/7/3 288/7/3
f 290/7/3 281/7/3 280/7/3
f 290/3/3 279/3/3 289/3/3
f 290/7/3 280/7/3 258/7/3
f 290/3/3 258/3/3 279/3/3
f 291/7/3 281/7/3 290/7/3
f 292/3/3 291/3/3 290/3/3
f 293/7/3 281/7/3 291/7/3
f 293/3/3 291/3/3 292/3/3
f 294/7/3 281/7/3 293/7/3
f 300/3/3 299/3/3 298/3/3
f 302/9/3 296/9/3 295/9/3
f 302/3/3 297/3/3 296/3/3
f 303/7/3 298/7/3 297/7/3
f 303/3/3 297/3/3 302/3/3
f 304/3/3 300/3/3 298/3/3
f 304/7/3 298/7/3 303/7/3
f 305/10/3 301/10/3 300/10/3
f 305/3/3 300/3/3 304/3/3
f 306/10/3 301/10/3 305/10/3
f 307/10/3 301/10/3 306/10/3
f 308/7/3 306/7/3 305/7/3
f 309/10/3 307/10/3 306/10/3
f 309/7/3 306/7/3 308/7/3
f 310/10/3 307/10/3 309/10/3
f 311/9/3 302/9/3 295/9/3
f 312/9/3 302/9/3 311/9/3
f 315/9/3 314/9/3 313/9/3
f 316/9/3 314/9/3 315/9/3
f 317/9/4 318/9/4 319/9/4
f 319/9/4 318/9/4 320/9/4
f 321/9/4 322/9/4 323/9/4
f 323/9/4 322/9/4 324/9/4
f 324/9/4 322/9/4 325/9/4
f 324/3/4 325/3/4 326/3/4
f 326/3/4 325/3/4 327/3/4
f 326/7/4 327/7/4 328/7/4
f 328/7/4 327/7/4 329/7/4
f 328/3/4 329/3/4 331/3/4
f 331/3/4 329/3/4 332/3/4
f 329/10/4 330/10/4 333/10/4
f 332/3/4 329/3/4 333/3/4
f 333/10/4 330/10/4 334/10/4
f 332/7/4 333/7/4 335/7/4
f 333/10/4 334/10/4 336/10/4
f 335/7/4 333/7/4 336/7/4
f 336/10/4 334/10/4 337/10/4
f 338/7/4 339/7/4 352/7/4
f 343/3/4 344/3/4 353/3/4
f 345/8/4 346/8/4 354/8/4
f 346/7/4 347/7/4 355/7/4
f 354/8/4 346/8/4 355/8/4
f 347/11/4 348/11/4 356/11/4
f 355/7/4 347/7/4 356/7/4
f 348/5/4 349/5/4 357/5/4
f 356/11/4 348/11/4 357/11/4
f 349/7/4 350/7/4 358/7/4
f 357/5/4 349/5/4 358/5/4
f 350/6/4 351/6/4 359/6/4
f 358/7/4 350/7/4 359/7/4
f 351/3/4 352/3/4 360/3/4
f 359/6/4 351/6/4 360/6/4
f 352/7/4 339/7/4 361/7/4
f 361/7/4 339/7/4 362/7/4
f 340/9/4 341/9/4 363/9/4
f 341/3/4 342/3/4 363/3/4
f 342/7/4 343/7/4 364/7/4
f 363/3/4 342/3/4 364/3/4
f 343/3/4 353/3/4 365/3/4
f 364/7/4 343/7/4 365/7/4
f 353/10/4 354/10/4 366/10/4
f 365/3/4 353/3/4 366/3/4
f 366/10/4 354/10/4 367/10/4
f 354/8/4 355/8/4 368/8/4
f 360/3/4 352/3/4 373/3/4
f 352/7/4 361/7/4 374/7/4
f 366/7/4 367/7/4 376/7/4
f 367/10/4 354/10/4 377/10/4
f 376/7/4 367/7/4 377/7/4
f 354/8/4 368/8/4 378/8/4
f 377/10/4 354/10/4 378/10/4
f 368/7/4 369/7/4 379/7/4
f 378/8/4 368/8/4 379/8/4
f 369/11/4 370/11/4 380/11/4
f 379/7/4 369/7/4 380/7/4
f 370/5/4 371/5/4 381/5/4
f 380/11/4 370/11/4 381/11/4
f 371/7/4 372/7/4 382/7/4
f 381/5/4 371/5/4 382/5/4
f 372/6/4 373/6/4 383/6/4
f 382/7/4 372/7/4 383/7/4
f 373/3/4 352/3/4 384/3/4
f 383/6/4 373/6/4 384/6/4
f 374/7/4 375/7/4 385/7/4
f 384/3/4 352/3/4 385/3/4
f 352/7/4 374/7/4 385/7/4
f 385/7/4 375/7/4 386/7/4
f 340/9/4 363/9/4 387/9/4
f 387/9/4 363/9/4 388/9/4
f 385/3/4 386/3/4 389/3/4
f 386/7/4 375/7/4 390/7/4
f 389/3/4 386/3/4 390/3/4
f 390/7/4 375/7/4 391/7/4
f 392/6/4 393/6/4 396/6/4
f 396/6/4 393/6/4 397/6/4
f 394/9/4 395/9/4 398/9/4
f 398/9/4 395/9/4 399/9/4
f 402/9/5 401/9/5 400/9/5
f 403/9/5 401/9/5 402/9/5
f 406/9/5 405/9/5 404/9/5
f 407/9/5 405/9/5 406/9/5
f 412/3/5 409/3/5 408/3/5
f 413/7/5 410/7/5 409/7/5
f 413/3/5 409/3/5 412/3/5
f 414/3/5 411/3/5 410/3/5
f 414/7/5 410/7/5 413/7/5
f 415/3/5 411/3/5 414/3/5
f 418/7/5 417/7/5 416/7/5
f 419/7/5 417/7/5 418/7/5
f 422/7/5 421/7/5 420/7/5
f 423/7/5 421/7/5 422/7/5
f 426/8/5 425/8/5 424/8/5
f 429/8/5 426/8/5 424/8/5
f 429/10/5 427/10/5 426/10/5
f 430/8/5 428/8/5 427/8/5
f 430/10/5 427/10/5 429/10/5
f 431/8/5 428/8/5 430/8/5
f 432/8/5 429/8/5 424/8/5
f 433/8/5 429/8/5 432/8/5
f 436/11/5 435/11/5 434/11/5
f 437/11/5 435/11/5 436/11/5
f 440/6/5 439/6/5 438/6/5
f 441/6/5 439/6/5 440/6/5
f 446/3/5 445/3/5 444/3/5
f 447/3/5 445/3/5 446/3/5
f 448/7/5 447/7/5 446/7/5
f 449/7/5 447/7/5 448/7/5
f 450/7/5 443/7/5 442/7/5
f 451/7/5 443/7/5 450/7/5
f 452/3/5 449/3/5 448/3/5
f 453/3/5 449/3/5 452/3/5
f 456/9/5 455/9/5 454/9/5
f 457/9/5 455/9/5 456/9/5
f 460/9/5 459/9/5 458/9/5
f 461/9/5 459/9/5 460/9/5
f 462/9/6 463/9/6 464/9/6
f 464/9/6 463/9/6 465/9/6
f 466/3/6 467/3/6 468/3/6
f 468/3/6 467/3/6 469/3/6
f 470/9/6 471/9/6 474/9/6
f 471/3/6 472/3/6 475/3/6
f 474/9/6 471/9/6 475/9/6
f 472/7/6 473/7/6 476/7/6
f 475/3/6 472/3/6 476/3/6
f 476/7/6 473/7/6 477/7/6
f 478/9/6 479/9/6 480/9/6
f 480/9/6 479/9/6 481/9/6
f 482/6/6 483/6/6 484/6/6
f 484/6/6 483/6/6 485/6/6
f 486/7/6 487/7/6 490/7/6
f 488/7/6 489/7/6 490/7/6
f 487/7/6 488/7/6 490/7/6
f 490/7/6 489/7/6 491/7/6
f 490/9/6 491/9/6 492/9/6
f 492/9/6 491/9/6 493/9/6
f 490/9/6 492/9/6 494/9/6
f 492/3/6 493/3/6 494/3/6
f 494/3/6 493/3/6 495/3/6
f 490/9/6 494/9/6 496/9/6
f 494/9/6 495/9/6 496/9/6
f 496/9/6 495/9/6 497/9/6
f 496/7/6 497/7/6 498/7/6
f 498/7/6 497/7/6 499/7/6
f 499/7/6 497/7/6 500/7/6
f 500/7/6 497/7/6 501/7/6
f 502/9/6 503/9/6 504/9/6
f 504/9/6 503/9/6 505/9/6
f 506/9/6 507/9/6 508/9/6
f 508/9/6 507/9/6 509/9/6
