# MagicaVoxel @ Ephtracy

# group
g SpecialPerson2

# material
mtllib SpecialPerson2.mtl
usemtl palette

# normals
vn -1 0 0
vn 1 0 0
vn 0 0 1
vn 0 0 -1
vn 0 -1 0
vn 0 1 0

# texcoords
vt 0.0332031 0.5
vt 0.0371094 0.5
vt 0.0410156 0.5
vt 0.0449219 0.5
vt 0.0917969 0.5
vt 0.123047 0.5
vt 0.271484 0.5
vt 0.279297 0.5
vt 0.306641 0.5
vt 0.431641 0.5
vt 0.681641 0.5
vt 0.892578 0.5
vt 0.955078 0.5
vt 0.958984 0.5
vt 0.962891 0.5
vt 0.966797 0.5
vt 0.978516 0.5
vt 0.994141 0.5

# verts
v -4 1 -1
v -4 1 -3
v -4 5 -1
v -4 5 -3
v -4 9 1
v -4 9 -2
v -4 10 1
v -4 10 -1
v -4 10 -2
v -4 11 1
v -4 11 -1
v -4 11 -2
v -4 12 -1
v -4 12 -2
v -4 13 1
v -4 13 -1
v -4 13 -2
v -3 8 1
v -3 8 -0
v -3 8 -1
v -3 8 -2
v -3 9 1
v -3 9 -0
v -3 9 -1
v -3 9 -2
v -3 14 2
v -3 14 -3
v -3 19 2
v -3 19 -3
v -2 0 2
v -2 0 -0
v -2 2 2
v -2 2 -0
v -2 4 2
v -2 4 -0
v -2 6 2
v -2 6 -0
v -2 6 -1
v -2 6 -3
v -2 7 2
v -2 7 -0
v -2 7 -1
v -2 7 -3
v -2 8 2
v -2 8 1
v -2 8 -0
v -2 8 -1
v -2 8 -2
v -2 8 -3
v -2 9 2
v -2 9 1
v -2 9 -0
v -2 9 -1
v -2 9 -2
v -2 9 -3
v -2 10 2
v -2 10 1
v -2 10 -2
v -2 10 -3
v -2 11 2
v -2 11 1
v -2 11 -2
v -2 11 -3
v -2 12 2
v -2 12 1
v -2 12 -2
v -2 12 -3
v -2 13 2
v -2 13 1
v -2 13 -2
v -2 13 -3
v -1 4 2
v -1 4 -0
v -1 5 -1
v -1 5 -3
v -1 6 2
v -1 6 -0
v -1 6 -1
v -1 6 -3
v -1 7 3
v -1 7 2
v -1 7 -3
v -1 7 -4
v -1 8 2
v -1 8 -3
v -1 9 3
v -1 9 2
v -1 9 -3
v -1 9 -4
v -1 10 3
v -1 10 2
v -1 10 -3
v -1 10 -4
v -1 11 3
v -1 11 2
v -1 11 -3
v -1 11 -4
v -1 12 3
v -1 12 2
v -1 12 -3
v -1 12 -4
v -1 13 3
v -1 13 2
v -1 13 -0
v -1 13 -1
v -1 13 -3
v -1 13 -4
v -1 14 -0
v -1 14 -1
v -3 1 -1
v -3 1 -3
v -3 3 -1
v -3 3 -3
v 0 1 2
v 0 1 -0
v 0 2 2
v 0 2 -0
v 0 3 -1
v 0 3 -3
v 0 4 2
v 0 4 -0
v 0 4 -1
v 0 4 -3
v 0 7 3
v 0 7 2
v 0 7 -3
v 0 7 -4
v 0 8 2
v 0 8 -3
v 0 9 3
v 0 9 2
v 0 9 -3
v 0 9 -4
v 0 10 3
v 0 10 2
v 0 10 -3
v 0 10 -4
v 0 11 3
v 0 11 2
v 0 11 -3
v 0 11 -4
v 0 12 3
v 0 12 2
v 0 12 -3
v 0 12 -4
v 0 13 3
v 0 13 2
v 0 13 -0
v 0 13 -1
v 0 13 -3
v 0 13 -4
v 0 14 -0
v 0 14 -1
v 1 4 2
v 1 4 -0
v 1 4 -1
v 1 4 -3
v 1 6 -0
v 1 6 -1
v 1 7 2
v 1 7 1
v 1 7 -0
v 1 7 -1
v 1 7 -2
v 1 7 -3
v 1 8 2
v 1 8 1
v 1 8 -2
v 1 8 -3
v 1 9 2
v 1 9 1
v 1 9 -2
v 1 9 -3
v 1 10 2
v 1 10 1
v 1 10 -2
v 1 10 -3
v 1 11 2
v 1 11 1
v 1 11 -2
v 1 11 -3
v 1 12 2
v 1 12 1
v 1 12 -0
v 1 12 -1
v 1 12 -2
v 1 12 -3
v 1 13 2
v 1 13 1
v 1 13 -0
v 1 13 -1
v 1 13 -2
v 1 13 -3
v 2 0 2
v 2 0 -0
v 2 1 2
v 2 1 -0
v 2 9 1
v 2 9 -2
v 2 10 1
v 2 10 -0
v 2 10 -2
v 2 11 1
v 2 11 -0
v 2 11 -2
v 2 12 1
v 2 12 -0
v 2 12 -2
v 2 14 2
v 2 14 1
v 2 14 -0
v 2 14 -1
v 2 14 -2
v 2 14 -3
v 2 15 1
v 2 15 -0
v 2 15 -1
v 2 15 -2
v 2 16 1
v 2 16 -0
v 2 16 -1
v 2 16 -2
v 2 17 2
v 2 17 1
v 2 17 -0
v 2 17 -1
v 2 17 -2
v 2 17 -3
v 2 18 1
v 2 18 -2
v 2 19 2
v 2 19 -3
v 3 15 -0
v 3 15 -1
v 3 16 -0
v 3 16 -1
v -1 7 3
v -1 9 3
v -1 10 3
v -1 11 3
v -1 12 3
v -1 13 3
v 0 7 3
v 0 9 3
v 0 10 3
v 0 11 3
v 0 12 3
v 0 13 3
v -3 14 2
v -3 19 2
v -2 0 2
v -2 2 2
v -2 4 2
v -2 6 2
v -2 7 2
v -2 8 2
v -2 9 2
v -2 10 2
v -2 11 2
v -2 12 2
v -2 13 2
v -1 4 2
v -1 6 2
v -1 7 2
v -1 8 2
v -1 9 2
v -1 10 2
v -1 11 2
v -1 12 2
v -1 13 2
v -1 14 2
v -1 16 2
v 0 1 2
v 0 2 2
v 0 4 2
v 0 7 2
v 0 8 2
v 0 9 2
v 0 10 2
v 0 11 2
v 0 12 2
v 0 13 2
v 0 16 2
v 0 17 2
v 1 4 2
v 1 7 2
v 1 8 2
v 1 9 2
v 1 10 2
v 1 11 2
v 1 12 2
v 1 13 2
v 2 0 2
v 2 1 2
v 2 14 2
v 2 17 2
v 2 19 2
v -4 9 1
v -4 10 1
v -4 11 1
v -4 13 1
v -3 8 1
v -3 9 1
v -3 10 1
v -3 11 1
v -3 13 1
v -2 8 1
v -2 9 1
v -2 10 1
v -2 11 1
v -2 12 1
v -2 13 1
v 1 9 1
v 1 10 1
v 1 11 1
v 1 12 1
v 2 9 1
v 2 10 1
v 2 11 1
v 2 12 1
v -1 13 -0
v -1 14 -0
v 0 13 -0
v 0 14 -0
v 2 15 -0
v 2 16 -0
v 3 15 -0
v 3 16 -0
v -4 1 -1
v -4 5 -1
v -3 1 -1
v -3 3 -1
v -3 8 -1
v -3 9 -1
v -2 3 -1
v -2 5 -1
v -2 8 -1
v -2 9 -1
v -1 5 -1
v -1 6 -1
v 0 3 -1
v 0 4 -1
v 1 4 -1
v 1 6 -1
v -3 8 -0
v -3 9 -0
v -2 0 -0
v -2 2 -0
v -2 4 -0
v -2 8 -0
v -2 9 -0
v -1 4 -0
v -1 6 -0
v 0 1 -0
v 0 2 -0
v 0 4 -0
v 1 4 -0
v 1 6 -0
v 2 0 -0
v 2 1 -0
v -1 13 -1
v -1 14 -1
v 0 13 -1
v 0 14 -1
v 2 15 -1
v 2 16 -1
v 3 15 -1
v 3 16 -1
v -4 9 -2
v -4 10 -2
v -4 11 -2
v -4 12 -2
v -4 13 -2
v -3 8 -2
v -3 9 -2
v -3 10 -2
v -3 11 -2
v -3 12 -2
v -3 13 -2
v -2 8 -2
v -2 9 -2
v -2 10 -2
v -2 11 -2
v -2 12 -2
v -2 13 -2
v 1 9 -2
v 1 10 -2
v 1 11 -2
v 1 12 -2
v 2 9 -2
v 2 10 -2
v 2 11 -2
v 2 12 -2
v -4 1 -3
v -4 5 -3
v -3 1 -3
v -3 3 -3
v -3 14 -3
v -3 19 -3
v -2 3 -3
v -2 5 -3
v -2 6 -3
v -2 7 -3
v -2 8 -3
v -2 9 -3
v -2 10 -3
v -2 11 -3
v -2 12 -3
v -2 13 -3
v -1 5 -3
v -1 6 -3
v -1 7 -3
v -1 8 -3
v -1 9 -3
v -1 10 -3
v -1 11 -3
v -1 12 -3
v -1 13 -3
v -1 14 -3
v -1 16 -3
v 0 3 -3
v 0 4 -3
v 0 7 -3
v 0 8 -3
v 0 9 -3
v 0 10 -3
v 0 11 -3
v 0 12 -3
v 0 13 -3
v 0 16 -3
v 0 17 -3
v 1 4 -3
v 1 7 -3
v 1 8 -3
v 1 9 -3
v 1 10 -3
v 1 11 -3
v 1 12 -3
v 1 13 -3
v 2 14 -3
v 2 17 -3
v 2 19 -3
v -1 7 -4
v -1 9 -4
v -1 10 -4
v -1 11 -4
v -1 12 -4
v -1 13 -4
v 0 7 -4
v 0 9 -4
v 0 10 -4
v 0 11 -4
v 0 12 -4
v 0 13 -4
v -2 0 2
v 2 0 2
v -2 0 -0
v 2 0 -0
v -4 1 -1
v -3 1 -1
v -4 1 -3
v -3 1 -3
v -3 3 -1
v -2 3 -1
v 0 3 -1
v -3 3 -3
v -2 3 -3
v 0 3 -3
v 0 4 2
v 1 4 2
v 0 4 -0
v 1 4 -0
v 0 4 -1
v 1 4 -1
v 0 4 -3
v 1 4 -3
v -2 6 2
v -1 6 2
v -2 6 -0
v -1 6 -0
v 1 6 -0
v -2 6 -1
v -1 6 -1
v 1 6 -1
v -2 6 -3
v -1 6 -3
v -1 7 3
v 0 7 3
v -1 7 2
v 0 7 2
v -1 7 -3
v 0 7 -3
v -1 7 -4
v 0 7 -4
v -3 8 1
v -2 8 1
v -3 8 -0
v -2 8 -0
v -3 8 -1
v -2 8 -1
v -3 8 -2
v -2 8 -2
v -4 9 1
v -3 9 1
v 1 9 1
v 2 9 1
v -3 9 -0
v -2 9 -0
v -3 9 -1
v -2 9 -1
v -4 9 -2
v -3 9 -2
v 1 9 -2
v 2 9 -2
v -3 14 2
v -1 14 2
v 2 14 2
v 1 14 1
v 2 14 1
v -1 14 -0
v 0 14 -0
v 1 14 -0
v 2 14 -0
v -1 14 -1
v 0 14 -1
v 1 14 -1
v 2 14 -1
v 1 14 -2
v 2 14 -2
v -3 14 -3
v -1 14 -3
v 2 14 -3
v 2 15 -0
v 3 15 -0
v 2 15 -1
v 3 15 -1
v 0 1 2
v 2 1 2
v 0 1 -0
v 2 1 -0
v -2 4 2
v -1 4 2
v -2 4 -0
v -1 4 -0
v -4 5 -1
v -2 5 -1
v -1 5 -1
v -4 5 -3
v -2 5 -3
v -1 5 -3
v 1 12 1
v 2 12 1
v 1 12 -0
v 2 12 -0
v 1 12 -1
v 1 12 -2
v 2 12 -2
v -1 13 3
v 0 13 3
v -2 13 2
v -1 13 2
v 0 13 2
v 1 13 2
v -4 13 1
v -3 13 1
v -2 13 1
v 1 13 1
v -2 13 -0
v -1 13 -0
v 0 13 -0
v 1 13 -0
v -4 13 -1
v -3 13 -1
v -2 13 -1
v -1 13 -1
v 0 13 -1
v 1 13 -1
v -4 13 -2
v -3 13 -2
v -2 13 -2
v 1 13 -2
v -2 13 -3
v -1 13 -3
v 0 13 -3
v 1 13 -3
v -1 13 -4
v 0 13 -4
v 2 16 -0
v 3 16 -0
v 2 16 -1
v 3 16 -1
v -3 19 2
v 2 19 2
v -3 19 -3
v 2 19 -3

# faces
f 3/7/1 2/7/1 1/7/1
f 4/7/1 2/7/1 3/7/1
f 7/11/1 6/11/1 5/11/1
f 8/11/1 6/11/1 7/11/1
f 9/11/1 6/11/1 8/11/1
f 10/5/1 8/5/1 7/5/1
f 11/12/1 9/12/1 8/12/1
f 11/5/1 8/5/1 10/5/1
f 12/12/1 9/12/1 11/12/1
f 13/15/1 11/15/1 10/15/1
f 13/4/1 12/4/1 11/4/1
f 14/4/1 12/4/1 13/4/1
f 15/15/1 13/15/1 10/15/1
f 16/8/1 14/8/1 13/8/1
f 16/15/1 13/15/1 15/15/1
f 17/8/1 14/8/1 16/8/1
f 22/11/1 19/11/1 18/11/1
f 23/11/1 19/11/1 22/11/1
f 24/11/1 21/11/1 20/11/1
f 25/11/1 21/11/1 24/11/1
f 28/3/1 27/3/1 26/3/1
f 29/3/1 27/3/1 28/3/1
f 32/7/1 31/7/1 30/7/1
f 33/7/1 31/7/1 32/7/1
f 34/6/1 33/6/1 32/6/1
f 35/6/1 33/6/1 34/6/1
f 40/6/1 37/6/1 36/6/1
f 41/10/1 38/10/1 37/10/1
f 41/6/1 37/6/1 40/6/1
f 42/6/1 39/6/1 38/6/1
f 42/10/1 38/10/1 41/10/1
f 43/6/1 39/6/1 42/6/1
f 44/10/1 41/10/1 40/10/1
f 44/10/1 42/10/1 41/10/1
f 44/10/1 43/10/1 42/10/1
f 45/10/1 43/10/1 44/10/1
f 46/10/1 43/10/1 45/10/1
f 47/10/1 43/10/1 46/10/1
f 48/10/1 43/10/1 47/10/1
f 49/10/1 43/10/1 48/10/1
f 50/11/1 45/11/1 44/11/1
f 51/11/1 45/11/1 50/11/1
f 52/10/1 47/10/1 46/10/1
f 53/10/1 47/10/1 52/10/1
f 54/11/1 49/11/1 48/11/1
f 55/11/1 49/11/1 54/11/1
f 56/10/1 51/10/1 50/10/1
f 57/10/1 51/10/1 56/10/1
f 58/10/1 55/10/1 54/10/1
f 59/10/1 55/10/1 58/10/1
f 60/13/1 57/13/1 56/13/1
f 61/13/1 57/13/1 60/13/1
f 62/13/1 59/13/1 58/13/1
f 63/13/1 59/13/1 62/13/1
f 64/10/1 61/10/1 60/10/1
f 65/10/1 61/10/1 64/10/1
f 66/10/1 63/10/1 62/10/1
f 67/10/1 63/10/1 66/10/1
f 68/13/1 65/13/1 64/13/1
f 69/13/1 65/13/1 68/13/1
f 70/13/1 67/13/1 66/13/1
f 71/13/1 67/13/1 70/13/1
f 76/6/1 73/6/1 72/6/1
f 77/6/1 73/6/1 76/6/1
f 78/6/1 75/6/1 74/6/1
f 79/6/1 75/6/1 78/6/1
f 84/1/1 81/1/1 80/1/1
f 85/1/1 83/1/1 82/1/1
f 86/1/1 84/1/1 80/1/1
f 87/1/1 84/1/1 86/1/1
f 88/1/1 83/1/1 85/1/1
f 89/1/1 83/1/1 88/1/1
f 90/10/1 87/10/1 86/10/1
f 91/10/1 87/10/1 90/10/1
f 92/10/1 89/10/1 88/10/1
f 93/10/1 89/10/1 92/10/1
f 94/13/1 91/13/1 90/13/1
f 95/13/1 91/13/1 94/13/1
f 96/13/1 93/13/1 92/13/1
f 97/13/1 93/13/1 96/13/1
f 98/10/1 95/10/1 94/10/1
f 99/10/1 95/10/1 98/10/1
f 100/10/1 97/10/1 96/10/1
f 101/10/1 97/10/1 100/10/1
f 102/13/1 99/13/1 98/13/1
f 103/13/1 99/13/1 102/13/1
f 106/13/1 101/13/1 100/13/1
f 107/13/1 101/13/1 106/13/1
f 108/1/1 105/1/1 104/1/1
f 109/1/1 105/1/1 108/1/1
f 110/7/2 111/7/2 112/7/2
f 112/7/2 111/7/2 113/7/2
f 114/7/2 115/7/2 116/7/2
f 116/7/2 115/7/2 117/7/2
f 116/6/2 117/6/2 120/6/2
f 120/6/2 117/6/2 121/6/2
f 118/6/2 119/6/2 122/6/2
f 122/6/2 119/6/2 123/6/2
f 124/1/2 125/1/2 128/1/2
f 126/1/2 127/1/2 129/1/2
f 124/1/2 128/1/2 130/1/2
f 130/1/2 128/1/2 131/1/2
f 129/1/2 127/1/2 132/1/2
f 132/1/2 127/1/2 133/1/2
f 130/10/2 131/10/2 134/10/2
f 134/10/2 131/10/2 135/10/2
f 132/10/2 133/10/2 136/10/2
f 136/10/2 133/10/2 137/10/2
f 134/13/2 135/13/2 138/13/2
f 138/13/2 135/13/2 139/13/2
f 136/13/2 137/13/2 140/13/2
f 140/13/2 137/13/2 141/13/2
f 138/10/2 139/10/2 142/10/2
f 142/10/2 139/10/2 143/10/2
f 140/10/2 141/10/2 144/10/2
f 144/10/2 141/10/2 145/10/2
f 142/13/2 143/13/2 146/13/2
f 146/13/2 143/13/2 147/13/2
f 144/13/2 145/13/2 150/13/2
f 150/13/2 145/13/2 151/13/2
f 148/1/2 149/1/2 152/1/2
f 152/1/2 149/1/2 153/1/2
f 154/6/2 155/6/2 158/6/2
f 156/6/2 157/6/2 159/6/2
f 154/6/2 158/6/2 160/6/2
f 160/6/2 158/6/2 161/6/2
f 158/10/2 159/10/2 162/10/2
f 161/6/2 158/6/2 162/6/2
f 159/6/2 157/6/2 163/6/2
f 162/10/2 159/10/2 163/10/2
f 163/6/2 157/6/2 164/6/2
f 164/6/2 157/6/2 165/6/2
f 160/10/2 161/10/2 166/10/2
f 161/11/2 162/11/2 167/11/2
f 166/10/2 161/10/2 167/10/2
f 162/11/2 163/11/2 167/11/2
f 163/11/2 164/11/2 167/11/2
f 164/10/2 165/10/2 168/10/2
f 167/11/2 164/11/2 168/11/2
f 168/10/2 165/10/2 169/10/2
f 166/11/2 167/11/2 170/11/2
f 167/11/2 168/11/2 170/11/2
f 168/11/2 169/11/2 170/11/2
f 170/11/2 169/11/2 171/11/2
f 171/11/2 169/11/2 172/11/2
f 172/11/2 169/11/2 173/11/2
f 170/10/2 171/10/2 174/10/2
f 174/10/2 171/10/2 175/10/2
f 172/10/2 173/10/2 176/10/2
f 176/10/2 173/10/2 177/10/2
f 174/13/2 175/13/2 178/13/2
f 178/13/2 175/13/2 179/13/2
f 176/13/2 177/13/2 180/13/2
f 180/13/2 177/13/2 181/13/2
f 178/10/2 179/10/2 182/10/2
f 182/10/2 179/10/2 183/10/2
f 180/10/2 181/10/2 186/10/2
f 186/10/2 181/10/2 187/10/2
f 182/13/2 183/13/2 188/13/2
f 183/11/2 184/11/2 189/11/2
f 188/13/2 183/13/2 189/13/2
f 184/13/2 185/13/2 190/13/2
f 189/11/2 184/11/2 190/11/2
f 185/11/2 186/11/2 191/11/2
f 190/13/2 185/13/2 191/13/2
f 186/13/2 187/13/2 192/13/2
f 191/11/2 186/11/2 192/11/2
f 192/13/2 187/13/2 193/13/2
f 194/7/2 195/7/2 196/7/2
f 196/7/2 195/7/2 197/7/2
f 198/17/2 199/17/2 200/17/2
f 200/17/2 199/17/2 201/17/2
f 201/17/2 199/17/2 202/17/2
f 200/8/2 201/8/2 203/8/2
f 201/15/2 202/15/2 204/15/2
f 203/8/2 201/8/2 204/8/2
f 204/15/2 202/15/2 205/15/2
f 203/12/2 204/12/2 206/12/2
f 204/14/2 205/14/2 207/14/2
f 206/12/2 204/12/2 207/12/2
f 207/14/2 205/14/2 208/14/2
f 210/3/2 211/3/2 215/3/2
f 209/1/2 210/1/2 215/1/2
f 211/1/2 212/1/2 216/1/2
f 215/3/2 211/3/2 216/3/2
f 212/3/2 213/3/2 217/3/2
f 216/1/2 212/1/2 217/1/2
f 213/1/2 214/1/2 218/1/2
f 217/3/2 213/3/2 218/3/2
f 215/1/2 216/1/2 219/1/2
f 209/1/2 215/1/2 219/1/2
f 219/1/2 216/1/2 220/1/2
f 217/1/2 218/1/2 221/1/2
f 218/1/2 214/1/2 222/1/2
f 221/1/2 218/1/2 222/1/2
f 209/1/2 219/1/2 223/1/2
f 219/18/2 220/18/2 224/18/2
f 223/1/2 219/1/2 224/1/2
f 220/1/2 221/1/2 225/1/2
f 224/18/2 220/18/2 225/18/2
f 221/18/2 222/18/2 226/18/2
f 225/1/2 221/1/2 226/1/2
f 222/1/2 214/1/2 227/1/2
f 226/18/2 222/18/2 227/18/2
f 227/1/2 214/1/2 228/1/2
f 223/3/2 224/3/2 229/3/2
f 225/1/2 226/1/2 229/1/2
f 224/1/2 225/1/2 229/1/2
f 226/1/2 227/1/2 229/1/2
f 227/3/2 228/3/2 230/3/2
f 229/1/2 227/1/2 230/1/2
f 223/3/2 229/3/2 231/3/2
f 229/3/2 230/3/2 231/3/2
f 230/3/2 228/3/2 232/3/2
f 231/3/2 230/3/2 232/3/2
f 233/1/2 234/1/2 235/1/2
f 235/1/2 234/1/2 236/1/2
f 243/1/3 238/1/3 237/1/3
f 244/10/3 239/10/3 238/10/3
f 244/1/3 238/1/3 243/1/3
f 245/13/3 240/13/3 239/13/3
f 245/10/3 239/10/3 244/10/3
f 246/10/3 241/10/3 240/10/3
f 246/13/3 240/13/3 245/13/3
f 247/13/3 242/13/3 241/13/3
f 247/10/3 241/10/3 246/10/3
f 248/13/3 242/13/3 247/13/3
f 262/6/3 253/6/3 252/6/3
f 263/6/3 255/6/3 254/6/3
f 264/10/3 256/10/3 255/10/3
f 264/6/3 255/6/3 263/6/3
f 265/11/3 257/11/3 256/11/3
f 265/10/3 256/10/3 264/10/3
f 266/10/3 258/10/3 257/10/3
f 266/11/3 257/11/3 265/11/3
f 267/13/3 259/13/3 258/13/3
f 267/10/3 258/10/3 266/10/3
f 268/10/3 260/10/3 259/10/3
f 268/13/3 259/13/3 267/13/3
f 269/13/3 261/13/3 260/13/3
f 269/10/3 260/10/3 268/10/3
f 270/13/3 261/13/3 269/13/3
f 271/3/3 250/3/3 249/3/3
f 272/3/3 250/3/3 271/3/3
f 273/7/3 252/7/3 251/7/3
f 274/6/3 262/6/3 252/6/3
f 274/7/3 252/7/3 273/7/3
f 274/6/3 263/6/3 262/6/3
f 274/6/3 264/6/3 263/6/3
f 275/6/3 264/6/3 274/6/3
f 276/6/3 264/6/3 275/6/3
f 283/3/3 250/3/3 272/3/3
f 283/1/3 272/1/3 271/1/3
f 284/3/3 250/3/3 283/3/3
f 285/6/3 276/6/3 275/6/3
f 286/10/3 277/10/3 276/10/3
f 286/6/3 276/6/3 285/6/3
f 287/11/3 278/11/3 277/11/3
f 287/10/3 277/10/3 286/10/3
f 288/10/3 279/10/3 278/10/3
f 288/11/3 278/11/3 287/11/3
f 289/13/3 280/13/3 279/13/3
f 289/10/3 279/10/3 288/10/3
f 290/10/3 281/10/3 280/10/3
f 290/13/3 280/13/3 289/13/3
f 291/13/3 282/13/3 281/13/3
f 291/10/3 281/10/3 290/10/3
f 292/13/3 282/13/3 291/13/3
f 293/7/3 273/7/3 251/7/3
f 294/7/3 273/7/3 293/7/3
f 295/1/3 283/1/3 271/1/3
f 295/1/3 284/1/3 283/1/3
f 296/3/3 250/3/3 284/3/3
f 296/1/3 284/1/3 295/1/3
f 297/3/3 250/3/3 296/3/3
f 303/11/3 299/11/3 298/11/3
f 304/5/3 300/5/3 299/5/3
f 304/11/3 299/11/3 303/11/3
f 305/15/3 301/15/3 300/15/3
f 305/5/3 300/5/3 304/5/3
f 306/15/3 301/15/3 305/15/3
f 307/11/3 304/11/3 303/11/3
f 307/11/3 303/11/3 302/11/3
f 307/11/3 306/11/3 305/11/3
f 307/11/3 305/11/3 304/11/3
f 308/11/3 306/11/3 307/11/3
f 309/11/3 306/11/3 308/11/3
f 310/11/3 306/11/3 309/11/3
f 311/11/3 306/11/3 310/11/3
f 312/11/3 306/11/3 311/11/3
f 317/17/3 314/17/3 313/17/3
f 318/8/3 315/8/3 314/8/3
f 318/17/3 314/17/3 317/17/3
f 319/12/3 316/12/3 315/12/3
f 319/8/3 315/8/3 318/8/3
f 320/12/3 316/12/3 319/12/3
f 323/1/3 322/1/3 321/1/3
f 324/1/3 322/1/3 323/1/3
f 327/1/3 326/1/3 325/1/3
f 328/1/3 326/1/3 327/1/3
f 331/7/3 330/7/3 329/7/3
f 332/7/3 330/7/3 331/7/3
f 335/7/3 330/7/3 332/7/3
f 336/7/3 330/7/3 335/7/3
f 337/11/3 334/11/3 333/11/3
f 338/11/3 334/11/3 337/11/3
f 339/6/3 336/6/3 335/6/3
f 341/6/3 339/6/3 335/6/3
f 341/6/3 340/6/3 339/6/3
f 342/6/3 340/6/3 341/6/3
f 343/6/3 340/6/3 342/6/3
f 344/6/3 340/6/3 343/6/3
f 345/11/4 346/11/4 350/11/4
f 350/11/4 346/11/4 351/11/4
f 348/6/4 349/6/4 352/6/4
f 347/7/4 348/7/4 354/7/4
f 352/6/4 353/6/4 355/6/4
f 354/7/4 348/7/4 355/7/4
f 348/6/4 352/6/4 355/6/4
f 355/6/4 353/6/4 356/6/4
f 356/6/4 353/6/4 357/6/4
f 357/6/4 353/6/4 358/6/4
f 347/7/4 354/7/4 359/7/4
f 359/7/4 354/7/4 360/7/4
f 361/1/4 362/1/4 363/1/4
f 363/1/4 362/1/4 364/1/4
f 365/1/4 366/1/4 367/1/4
f 367/1/4 366/1/4 368/1/4
f 369/11/4 370/11/4 375/11/4
f 370/12/4 371/12/4 376/12/4
f 375/11/4 370/11/4 376/11/4
f 371/4/4 372/4/4 377/4/4
f 376/12/4 371/12/4 377/12/4
f 372/8/4 373/8/4 378/8/4
f 377/4/4 372/4/4 378/4/4
f 378/8/4 373/8/4 379/8/4
f 376/11/4 377/11/4 380/11/4
f 374/11/4 375/11/4 380/11/4
f 378/11/4 379/11/4 380/11/4
f 377/11/4 378/11/4 380/11/4
f 375/11/4 376/11/4 380/11/4
f 380/11/4 379/11/4 381/11/4
f 381/11/4 379/11/4 382/11/4
f 382/11/4 379/11/4 383/11/4
f 383/11/4 379/11/4 384/11/4
f 384/11/4 379/11/4 385/11/4
f 386/17/4 387/17/4 390/17/4
f 387/15/4 388/15/4 391/15/4
f 390/17/4 387/17/4 391/17/4
f 388/14/4 389/14/4 392/14/4
f 391/15/4 388/15/4 392/15/4
f 392/14/4 389/14/4 393/14/4
f 394/7/4 395/7/4 396/7/4
f 396/7/4 395/7/4 397/7/4
f 397/7/4 395/7/4 400/7/4
f 400/7/4 395/7/4 401/7/4
f 400/6/4 401/6/4 410/6/4
f 402/6/4 403/6/4 411/6/4
f 403/10/4 404/10/4 412/10/4
f 411/6/4 403/6/4 412/6/4
f 404/11/4 405/11/4 413/11/4
f 412/10/4 404/10/4 413/10/4
f 405/10/4 406/10/4 414/10/4
f 413/11/4 405/11/4 414/11/4
f 406/13/4 407/13/4 415/13/4
f 414/10/4 406/10/4 415/10/4
f 407/10/4 408/10/4 416/10/4
f 415/13/4 407/13/4 416/13/4
f 408/13/4 409/13/4 417/13/4
f 416/10/4 408/10/4 417/10/4
f 417/13/4 409/13/4 418/13/4
f 398/3/4 399/3/4 419/3/4
f 419/3/4 399/3/4 420/3/4
f 400/6/4 410/6/4 421/6/4
f 410/6/4 411/6/4 421/6/4
f 411/6/4 412/6/4 421/6/4
f 421/6/4 412/6/4 422/6/4
f 422/6/4 412/6/4 423/6/4
f 420/3/4 399/3/4 430/3/4
f 419/1/4 420/1/4 430/1/4
f 430/3/4 399/3/4 431/3/4
f 422/6/4 423/6/4 432/6/4
f 423/10/4 424/10/4 433/10/4
f 432/6/4 423/6/4 433/6/4
f 424/11/4 425/11/4 434/11/4
f 433/10/4 424/10/4 434/10/4
f 425/10/4 426/10/4 435/10/4
f 434/11/4 425/11/4 435/11/4
f 426/13/4 427/13/4 436/13/4
f 435/10/4 426/10/4 436/10/4
f 427/10/4 428/10/4 437/10/4
f 436/13/4 427/13/4 437/13/4
f 428/13/4 429/13/4 438/13/4
f 437/10/4 428/10/4 438/10/4
f 438/13/4 429/13/4 439/13/4
f 419/1/4 430/1/4 440/1/4
f 430/1/4 431/1/4 440/1/4
f 431/3/4 399/3/4 441/3/4
f 440/1/4 431/1/4 441/1/4
f 441/3/4 399/3/4 442/3/4
f 443/1/4 444/1/4 449/1/4
f 444/10/4 445/10/4 450/10/4
f 449/1/4 444/1/4 450/1/4
f 445/13/4 446/13/4 451/13/4
f 450/10/4 445/10/4 451/10/4
f 446/10/4 447/10/4 452/10/4
f 451/13/4 446/13/4 452/13/4
f 447/13/4 448/13/4 453/13/4
f 452/10/4 447/10/4 453/10/4
f 453/13/4 448/13/4 454/13/4
f 457/7/5 456/7/5 455/7/5
f 458/7/5 456/7/5 457/7/5
f 461/7/5 460/7/5 459/7/5
f 462/7/5 460/7/5 461/7/5
f 466/7/5 464/7/5 463/7/5
f 467/6/5 465/6/5 464/6/5
f 467/7/5 464/7/5 466/7/5
f 468/6/5 465/6/5 467/6/5
f 471/6/5 470/6/5 469/6/5
f 472/6/5 470/6/5 471/6/5
f 475/6/5 474/6/5 473/6/5
f 476/6/5 474/6/5 475/6/5
f 479/6/5 478/6/5 477/6/5
f 480/6/5 478/6/5 479/6/5
f 482/10/5 480/10/5 479/10/5
f 482/10/5 481/10/5 480/10/5
f 483/10/5 481/10/5 482/10/5
f 484/10/5 481/10/5 483/10/5
f 485/6/5 483/6/5 482/6/5
f 486/6/5 483/6/5 485/6/5
f 489/1/5 488/1/5 487/1/5
f 490/1/5 488/1/5 489/1/5
f 493/1/5 492/1/5 491/1/5
f 494/1/5 492/1/5 493/1/5
f 497/11/5 496/11/5 495/11/5
f 498/11/5 496/11/5 497/11/5
f 501/11/5 500/11/5 499/11/5
f 502/11/5 500/11/5 501/11/5
f 507/11/5 504/11/5 503/11/5
f 509/11/5 507/11/5 503/11/5
f 509/11/5 508/11/5 507/11/5
f 510/11/5 508/11/5 509/11/5
f 511/11/5 509/11/5 503/11/5
f 512/11/5 509/11/5 511/11/5
f 513/17/5 506/17/5 505/17/5
f 514/17/5 506/17/5 513/17/5
f 518/1/5 517/1/5 516/1/5
f 519/1/5 517/1/5 518/1/5
f 520/3/5 516/3/5 515/3/5
f 520/1/5 518/1/5 516/1/5
f 521/1/5 518/1/5 520/1/5
f 522/3/5 519/3/5 518/3/5
f 522/1/5 518/1/5 521/1/5
f 523/3/5 519/3/5 522/3/5
f 524/3/5 520/3/5 515/3/5
f 525/1/5 523/1/5 522/1/5
f 525/1/5 522/1/5 521/1/5
f 526/1/5 523/1/5 525/1/5
f 527/1/5 523/1/5 526/1/5
f 528/1/5 525/1/5 524/1/5
f 528/1/5 526/1/5 525/1/5
f 528/3/5 527/3/5 526/3/5
f 529/3/5 527/3/5 528/3/5
f 530/3/5 524/3/5 515/3/5
f 531/1/5 528/1/5 524/1/5
f 531/3/5 524/3/5 530/3/5
f 531/1/5 529/1/5 528/1/5
f 532/1/5 529/1/5 531/1/5
f 535/1/5 534/1/5 533/1/5
f 536/1/5 534/1/5 535/1/5
f 537/7/6 538/7/6 539/7/6
f 539/7/6 538/7/6 540/7/6
f 541/6/6 542/6/6 543/6/6
f 543/6/6 542/6/6 544/6/6
f 545/7/6 546/7/6 548/7/6
f 546/6/6 547/6/6 549/6/6
f 548/7/6 546/7/6 549/7/6
f 549/6/6 547/6/6 550/6/6
f 551/12/6 552/12/6 553/12/6
f 553/12/6 552/12/6 554/12/6
f 553/14/6 554/14/6 555/14/6
f 555/14/6 554/14/6 556/14/6
f 556/14/6 554/14/6 557/14/6
f 558/13/6 559/13/6 561/13/6
f 561/13/6 559/13/6 562/13/6
f 560/13/6 561/13/6 566/13/6
f 561/13/6 562/13/6 566/13/6
f 562/13/6 563/13/6 566/13/6
f 566/13/6 563/13/6 567/13/6
f 565/11/6 566/11/6 568/11/6
f 566/11/6 567/11/6 568/11/6
f 568/11/6 567/11/6 569/11/6
f 569/11/6 567/11/6 570/11/6
f 570/11/6 567/11/6 571/11/6
f 564/15/6 565/15/6 572/15/6
f 565/11/6 568/11/6 573/11/6
f 572/15/6 565/15/6 573/15/6
f 568/13/6 569/13/6 574/13/6
f 573/11/6 568/11/6 574/11/6
f 574/13/6 569/13/6 575/13/6
f 570/13/6 571/13/6 576/13/6
f 576/13/6 571/13/6 577/13/6
f 572/8/6 573/8/6 578/8/6
f 574/11/6 575/11/6 579/11/6
f 578/8/6 573/8/6 579/8/6
f 573/11/6 574/11/6 579/11/6
f 576/11/6 577/11/6 579/11/6
f 575/11/6 576/11/6 579/11/6
f 579/11/6 577/11/6 580/11/6
f 580/11/6 577/11/6 581/11/6
f 580/13/6 581/13/6 582/13/6
f 582/13/6 581/13/6 583/13/6
f 583/13/6 581/13/6 584/13/6
f 584/13/6 581/13/6 585/13/6
f 583/13/6 584/13/6 586/13/6
f 586/13/6 584/13/6 587/13/6
f 588/1/6 589/1/6 590/1/6
f 590/1/6 589/1/6 591/1/6
f 592/3/6 593/3/6 594/3/6
f 594/3/6 593/3/6 595/3/6
