# MagicaVoxel @ Ephtracy

# group
g SpecialPerson2

# material
mtllib SpecialPerson2.mtl
usemtl palette

# normals
vn -1 0 0
vn 1 0 0
vn 0 0 1
vn 0 0 -1
vn 0 -1 0
vn 0 1 0

# texcoords
vt 0.0332031 0.5
vt 0.0371094 0.5
vt 0.0410156 0.5
vt 0.0449219 0.5
vt 0.0917969 0.5
vt 0.123047 0.5
vt 0.271484 0.5
vt 0.279297 0.5
vt 0.306641 0.5
vt 0.431641 0.5
vt 0.681641 0.5
vt 0.892578 0.5
vt 0.955078 0.5
vt 0.958984 0.5
vt 0.962891 0.5
vt 0.966797 0.5
vt 0.978516 0.5
vt 0.994141 0.5

# verts
v -4 1 2
v -4 1 -0
v -4 5 2
v -4 5 -0
v -4 9 1
v -4 9 -2
v -4 10 1
v -4 10 -1
v -4 10 -2
v -4 11 1
v -4 11 -1
v -4 11 -2
v -4 12 -1
v -4 12 -2
v -4 13 1
v -4 13 -1
v -4 13 -2
v -3 8 1
v -3 8 -0
v -3 8 -1
v -3 8 -2
v -3 9 1
v -3 9 -0
v -3 9 -1
v -3 9 -2
v -3 14 2
v -3 14 -2
v -3 15 -2
v -3 15 -3
v -3 19 2
v -3 19 -3
v -2 0 -1
v -2 0 -3
v -2 2 -1
v -2 2 -3
v -2 4 -1
v -2 4 -3
v -2 6 2
v -2 6 -0
v -2 6 -1
v -2 6 -3
v -2 7 2
v -2 7 -0
v -2 7 -1
v -2 7 -3
v -2 8 2
v -2 8 1
v -2 8 -0
v -2 8 -1
v -2 8 -2
v -2 8 -3
v -2 9 2
v -2 9 1
v -2 9 -0
v -2 9 -1
v -2 9 -2
v -2 9 -3
v -2 10 2
v -2 10 1
v -2 10 -2
v -2 10 -3
v -2 11 2
v -2 11 1
v -2 11 -2
v -2 11 -3
v -2 12 2
v -2 12 1
v -2 12 -2
v -2 12 -3
v -2 13 2
v -2 13 1
v -2 13 -2
v -2 13 -3
v -2 14 -2
v -2 14 -3
v -2 15 -2
v -2 15 -3
v -1 4 -1
v -1 4 -3
v -1 5 2
v -1 5 -0
v -1 6 2
v -1 6 -0
v -1 6 -1
v -1 6 -3
v -1 7 3
v -1 7 2
v -1 7 -3
v -1 7 -4
v -1 8 2
v -1 8 -3
v -1 9 3
v -1 9 2
v -1 9 -3
v -1 9 -4
v -1 10 3
v -1 10 2
v -1 10 -3
v -1 10 -4
v -1 11 3
v -1 11 2
v -1 11 -3
v -1 11 -4
v -1 12 3
v -1 12 2
v -1 12 -3
v -1 12 -4
v -1 13 3
v -1 13 2
v -1 13 -0
v -1 13 -1
v -1 13 -3
v -1 13 -4
v -1 14 -0
v -1 14 -1
v -3 1 2
v -3 1 -0
v -3 3 2
v -3 3 -0
v 0 1 -1
v 0 1 -3
v 0 2 -1
v 0 2 -3
v 0 3 2
v 0 3 -0
v 0 4 2
v 0 4 -0
v 0 4 -1
v 0 4 -3
v 0 7 3
v 0 7 2
v 0 7 -3
v 0 7 -4
v 0 8 2
v 0 8 -3
v 0 9 3
v 0 9 2
v 0 9 -3
v 0 9 -4
v 0 10 3
v 0 10 2
v 0 10 -3
v 0 10 -4
v 0 11 3
v 0 11 2
v 0 11 -3
v 0 11 -4
v 0 12 3
v 0 12 2
v 0 12 -3
v 0 12 -4
v 0 13 3
v 0 13 2
v 0 13 -0
v 0 13 -1
v 0 13 -3
v 0 13 -4
v 0 14 -0
v 0 14 -1
v 1 4 2
v 1 4 -0
v 1 4 -1
v 1 4 -3
v 1 6 -0
v 1 6 -1
v 1 7 2
v 1 7 1
v 1 7 -0
v 1 7 -1
v 1 7 -2
v 1 7 -3
v 1 8 2
v 1 8 1
v 1 8 -2
v 1 8 -3
v 1 9 2
v 1 9 1
v 1 9 -2
v 1 9 -3
v 1 10 2
v 1 10 1
v 1 10 -2
v 1 10 -3
v 1 11 2
v 1 11 1
v 1 11 -2
v 1 11 -3
v 1 12 2
v 1 12 1
v 1 12 -0
v 1 12 -1
v 1 12 -2
v 1 12 -3
v 1 13 2
v 1 13 1
v 1 13 -0
v 1 13 -1
v 1 13 -2
v 1 13 -3
v 2 0 -1
v 2 0 -3
v 2 1 -1
v 2 1 -3
v 2 9 1
v 2 9 -2
v 2 10 1
v 2 10 -0
v 2 10 -2
v 2 11 1
v 2 11 -0
v 2 11 -2
v 2 12 1
v 2 12 -0
v 2 12 -2
v 2 14 2
v 2 14 1
v 2 14 -0
v 2 14 -1
v 2 14 -2
v 2 14 -3
v 2 15 1
v 2 15 -0
v 2 15 -1
v 2 15 -2
v 2 16 1
v 2 16 -0
v 2 16 -1
v 2 16 -2
v 2 17 2
v 2 17 1
v 2 17 -0
v 2 17 -1
v 2 17 -2
v 2 17 -3
v 2 18 1
v 2 18 -2
v 2 19 2
v 2 19 -3
v 3 15 -0
v 3 15 -1
v 3 16 -0
v 3 16 -1
v -1 7 3
v -1 9 3
v -1 10 3
v -1 11 3
v -1 12 3
v -1 13 3
v 0 7 3
v 0 9 3
v 0 10 3
v 0 11 3
v 0 12 3
v 0 13 3
v -4 1 2
v -4 5 2
v -3 1 2
v -3 3 2
v -3 14 2
v -3 19 2
v -2 3 2
v -2 5 2
v -2 6 2
v -2 7 2
v -2 8 2
v -2 9 2
v -2 10 2
v -2 11 2
v -2 12 2
v -2 13 2
v -1 5 2
v -1 6 2
v -1 7 2
v -1 8 2
v -1 9 2
v -1 10 2
v -1 11 2
v -1 12 2
v -1 13 2
v -1 14 2
v -1 16 2
v 0 3 2
v 0 4 2
v 0 7 2
v 0 8 2
v 0 9 2
v 0 10 2
v 0 11 2
v 0 12 2
v 0 13 2
v 0 16 2
v 0 17 2
v 1 4 2
v 1 7 2
v 1 8 2
v 1 9 2
v 1 10 2
v 1 11 2
v 1 12 2
v 1 13 2
v 2 14 2
v 2 17 2
v 2 19 2
v -4 9 1
v -4 10 1
v -4 11 1
v -4 13 1
v -3 8 1
v -3 9 1
v -3 10 1
v -3 11 1
v -3 13 1
v -2 8 1
v -2 9 1
v -2 10 1
v -2 11 1
v -2 12 1
v -2 13 1
v 1 9 1
v 1 10 1
v 1 11 1
v 1 12 1
v 2 9 1
v 2 10 1
v 2 11 1
v 2 12 1
v -1 13 -0
v -1 14 -0
v 0 13 -0
v 0 14 -0
v 2 15 -0
v 2 16 -0
v 3 15 -0
v 3 16 -0
v -3 8 -1
v -3 9 -1
v -2 0 -1
v -2 2 -1
v -2 4 -1
v -2 8 -1
v -2 9 -1
v -1 4 -1
v -1 6 -1
v 0 1 -1
v 0 2 -1
v 0 4 -1
v 1 4 -1
v 1 6 -1
v 2 0 -1
v 2 1 -1
v -4 1 -0
v -4 5 -0
v -3 1 -0
v -3 3 -0
v -3 8 -0
v -3 9 -0
v -2 3 -0
v -2 5 -0
v -2 8 -0
v -2 9 -0
v -1 5 -0
v -1 6 -0
v 0 3 -0
v 0 4 -0
v 1 4 -0
v 1 6 -0
v -1 13 -1
v -1 14 -1
v 0 13 -1
v 0 14 -1
v 2 15 -1
v 2 16 -1
v 3 15 -1
v 3 16 -1
v -4 9 -2
v -4 10 -2
v -4 11 -2
v -4 12 -2
v -4 13 -2
v -3 8 -2
v -3 9 -2
v -3 10 -2
v -3 11 -2
v -3 12 -2
v -3 13 -2
v -3 14 -2
v -3 15 -2
v -2 8 -2
v -2 9 -2
v -2 10 -2
v -2 11 -2
v -2 12 -2
v -2 13 -2
v -2 14 -2
v -2 15 -2
v 1 9 -2
v 1 10 -2
v 1 11 -2
v 1 12 -2
v 2 9 -2
v 2 10 -2
v 2 11 -2
v 2 12 -2
v -3 15 -3
v -3 19 -3
v -2 0 -3
v -2 2 -3
v -2 4 -3
v -2 6 -3
v -2 7 -3
v -2 8 -3
v -2 9 -3
v -2 10 -3
v -2 11 -3
v -2 12 -3
v -2 13 -3
v -2 14 -3
v -2 15 -3
v -1 4 -3
v -1 6 -3
v -1 7 -3
v -1 8 -3
v -1 9 -3
v -1 10 -3
v -1 11 -3
v -1 12 -3
v -1 13 -3
v -1 14 -3
v -1 16 -3
v 0 1 -3
v 0 2 -3
v 0 4 -3
v 0 7 -3
v 0 8 -3
v 0 9 -3
v 0 10 -3
v 0 11 -3
v 0 12 -3
v 0 13 -3
v 0 16 -3
v 0 17 -3
v 1 4 -3
v 1 7 -3
v 1 8 -3
v 1 9 -3
v 1 10 -3
v 1 11 -3
v 1 12 -3
v 1 13 -3
v 2 0 -3
v 2 1 -3
v 2 14 -3
v 2 17 -3
v 2 19 -3
v -1 7 -4
v -1 9 -4
v -1 10 -4
v -1 11 -4
v -1 12 -4
v -1 13 -4
v 0 7 -4
v 0 9 -4
v 0 10 -4
v 0 11 -4
v 0 12 -4
v 0 13 -4
v -2 0 -1
v 2 0 -1
v -2 0 -3
v 2 0 -3
v -4 1 2
v -3 1 2
v -4 1 -0
v -3 1 -0
v -3 3 2
v -2 3 2
v 0 3 2
v -3 3 -0
v -2 3 -0
v 0 3 -0
v 0 4 2
v 1 4 2
v 0 4 -0
v 1 4 -0
v 0 4 -1
v 1 4 -1
v 0 4 -3
v 1 4 -3
v -2 6 2
v -1 6 2
v -2 6 -0
v -1 6 -0
v 1 6 -0
v -2 6 -1
v -1 6 -1
v 1 6 -1
v -2 6 -3
v -1 6 -3
v -1 7 3
v 0 7 3
v -1 7 2
v 0 7 2
v -1 7 -3
v 0 7 -3
v -1 7 -4
v 0 7 -4
v -3 8 1
v -2 8 1
v -3 8 -0
v -2 8 -0
v -3 8 -1
v -2 8 -1
v -3 8 -2
v -2 8 -2
v -4 9 1
v -3 9 1
v 1 9 1
v 2 9 1
v -3 9 -0
v -2 9 -0
v -3 9 -1
v -2 9 -1
v -4 9 -2
v -3 9 -2
v 1 9 -2
v 2 9 -2
v -3 14 2
v -1 14 2
v 2 14 2
v -2 14 1
v -1 14 1
v 1 14 1
v 2 14 1
v -1 14 -0
v 0 14 -0
v 1 14 -0
v 2 14 -0
v -1 14 -1
v 0 14 -1
v 1 14 -1
v 2 14 -1
v -3 14 -2
v -2 14 -2
v -1 14 -2
v 1 14 -2
v 2 14 -2
v -2 14 -3
v -1 14 -3
v 2 14 -3
v 2 15 -0
v 3 15 -0
v 2 15 -1
v 3 15 -1
v -3 15 -2
v -2 15 -2
v -3 15 -3
v -2 15 -3
v 0 1 -1
v 2 1 -1
v 0 1 -3
v 2 1 -3
v -2 4 -1
v -1 4 -1
v -2 4 -3
v -1 4 -3
v -4 5 2
v -2 5 2
v -1 5 2
v -4 5 -0
v -2 5 -0
v -1 5 -0
v 1 12 1
v 2 12 1
v 1 12 -0
v 2 12 -0
v 1 12 -1
v 1 12 -2
v 2 12 -2
v -1 13 3
v 0 13 3
v -2 13 2
v -1 13 2
v 0 13 2
v 1 13 2
v -4 13 1
v -3 13 1
v -2 13 1
v 1 13 1
v -2 13 -0
v -1 13 -0
v 0 13 -0
v 1 13 -0
v -4 13 -1
v -3 13 -1
v -2 13 -1
v -1 13 -1
v 0 13 -1
v 1 13 -1
v -4 13 -2
v -3 13 -2
v -2 13 -2
v 1 13 -2
v -2 13 -3
v -1 13 -3
v 0 13 -3
v 1 13 -3
v -1 13 -4
v 0 13 -4
v 2 16 -0
v 3 16 -0
v 2 16 -1
v 3 16 -1
v -3 19 2
v 2 19 2
v -3 19 -3
v 2 19 -3

# faces
f 3/7/1 2/7/1 1/7/1
f 4/7/1 2/7/1 3/7/1
f 7/11/1 6/11/1 5/11/1
f 8/11/1 6/11/1 7/11/1
f 9/11/1 6/11/1 8/11/1
f 10/5/1 8/5/1 7/5/1
f 11/12/1 9/12/1 8/12/1
f 11/5/1 8/5/1 10/5/1
f 12/12/1 9/12/1 11/12/1
f 13/15/1 11/15/1 10/15/1
f 13/4/1 12/4/1 11/4/1
f 14/4/1 12/4/1 13/4/1
f 15/15/1 13/15/1 10/15/1
f 16/8/1 14/8/1 13/8/1
f 16/15/1 13/15/1 15/15/1
f 17/8/1 14/8/1 16/8/1
f 22/11/1 19/11/1 18/11/1
f 23/11/1 19/11/1 22/11/1
f 24/11/1 21/11/1 20/11/1
f 25/11/1 21/11/1 24/11/1
f 28/3/1 27/3/1 26/3/1
f 30/3/1 28/3/1 26/3/1
f 30/3/1 29/3/1 28/3/1
f 31/3/1 29/3/1 30/3/1
f 34/7/1 33/7/1 32/7/1
f 35/7/1 33/7/1 34/7/1
f 36/6/1 35/6/1 34/6/1
f 37/6/1 35/6/1 36/6/1
f 42/6/1 39/6/1 38/6/1
f 43/10/1 40/10/1 39/10/1
f 43/6/1 39/6/1 42/6/1
f 44/6/1 41/6/1 40/6/1
f 44/10/1 40/10/1 43/10/1
f 45/6/1 41/6/1 44/6/1
f 46/10/1 43/10/1 42/10/1
f 46/10/1 44/10/1 43/10/1
f 46/10/1 45/10/1 44/10/1
f 47/10/1 45/10/1 46/10/1
f 48/10/1 45/10/1 47/10/1
f 49/10/1 45/10/1 48/10/1
f 50/10/1 45/10/1 49/10/1
f 51/10/1 45/10/1 50/10/1
f 52/11/1 47/11/1 46/11/1
f 53/11/1 47/11/1 52/11/1
f 54/10/1 49/10/1 48/10/1
f 55/10/1 49/10/1 54/10/1
f 56/11/1 51/11/1 50/11/1
f 57/11/1 51/11/1 56/11/1
f 58/10/1 53/10/1 52/10/1
f 59/10/1 53/10/1 58/10/1
f 60/10/1 57/10/1 56/10/1
f 61/10/1 57/10/1 60/10/1
f 62/13/1 59/13/1 58/13/1
f 63/13/1 59/13/1 62/13/1
f 64/13/1 61/13/1 60/13/1
f 65/13/1 61/13/1 64/13/1
f 66/10/1 63/10/1 62/10/1
f 67/10/1 63/10/1 66/10/1
f 68/10/1 65/10/1 64/10/1
f 69/10/1 65/10/1 68/10/1
f 70/13/1 67/13/1 66/13/1
f 71/13/1 67/13/1 70/13/1
f 72/13/1 69/13/1 68/13/1
f 73/13/1 69/13/1 72/13/1
f 76/3/1 75/3/1 74/3/1
f 77/3/1 75/3/1 76/3/1
f 82/6/1 81/6/1 80/6/1
f 83/6/1 81/6/1 82/6/1
f 84/6/1 79/6/1 78/6/1
f 85/6/1 79/6/1 84/6/1
f 90/1/1 87/1/1 86/1/1
f 91/1/1 89/1/1 88/1/1
f 92/1/1 90/1/1 86/1/1
f 93/1/1 90/1/1 92/1/1
f 94/1/1 89/1/1 91/1/1
f 95/1/1 89/1/1 94/1/1
f 96/10/1 93/10/1 92/10/1
f 97/10/1 93/10/1 96/10/1
f 98/10/1 95/10/1 94/10/1
f 99/10/1 95/10/1 98/10/1
f 100/13/1 97/13/1 96/13/1
f 101/13/1 97/13/1 100/13/1
f 102/13/1 99/13/1 98/13/1
f 103/13/1 99/13/1 102/13/1
f 104/10/1 101/10/1 100/10/1
f 105/10/1 101/10/1 104/10/1
f 106/10/1 103/10/1 102/10/1
f 107/10/1 103/10/1 106/10/1
f 108/13/1 105/13/1 104/13/1
f 109/13/1 105/13/1 108/13/1
f 112/13/1 107/13/1 106/13/1
f 113/13/1 107/13/1 112/13/1
f 114/1/1 111/1/1 110/1/1
f 115/1/1 111/1/1 114/1/1
f 116/7/2 117/7/2 118/7/2
f 118/7/2 117/7/2 119/7/2
f 120/7/2 121/7/2 122/7/2
f 122/7/2 121/7/2 123/7/2
f 124/6/2 125/6/2 126/6/2
f 126/6/2 125/6/2 127/6/2
f 122/6/2 123/6/2 128/6/2
f 128/6/2 123/6/2 129/6/2
f 130/1/2 131/1/2 134/1/2
f 132/1/2 133/1/2 135/1/2
f 130/1/2 134/1/2 136/1/2
f 136/1/2 134/1/2 137/1/2
f 135/1/2 133/1/2 138/1/2
f 138/1/2 133/1/2 139/1/2
f 136/10/2 137/10/2 140/10/2
f 140/10/2 137/10/2 141/10/2
f 138/10/2 139/10/2 142/10/2
f 142/10/2 139/10/2 143/10/2
f 140/13/2 141/13/2 144/13/2
f 144/13/2 141/13/2 145/13/2
f 142/13/2 143/13/2 146/13/2
f 146/13/2 143/13/2 147/13/2
f 144/10/2 145/10/2 148/10/2
f 148/10/2 145/10/2 149/10/2
f 146/10/2 147/10/2 150/10/2
f 150/10/2 147/10/2 151/10/2
f 148/13/2 149/13/2 152/13/2
f 152/13/2 149/13/2 153/13/2
f 150/13/2 151/13/2 156/13/2
f 156/13/2 151/13/2 157/13/2
f 154/1/2 155/1/2 158/1/2
f 158/1/2 155/1/2 159/1/2
f 160/6/2 161/6/2 164/6/2
f 162/6/2 163/6/2 165/6/2
f 160/6/2 164/6/2 166/6/2
f 166/6/2 164/6/2 167/6/2
f 164/10/2 165/10/2 168/10/2
f 167/6/2 164/6/2 168/6/2
f 165/6/2 163/6/2 169/6/2
f 168/10/2 165/10/2 169/10/2
f 169/6/2 163/6/2 170/6/2
f 170/6/2 163/6/2 171/6/2
f 166/10/2 167/10/2 172/10/2
f 167/11/2 168/11/2 173/11/2
f 172/10/2 167/10/2 173/10/2
f 168/11/2 169/11/2 173/11/2
f 169/11/2 170/11/2 173/11/2
f 170/10/2 171/10/2 174/10/2
f 173/11/2 170/11/2 174/11/2
f 174/10/2 171/10/2 175/10/2
f 172/11/2 173/11/2 176/11/2
f 173/11/2 174/11/2 176/11/2
f 174/11/2 175/11/2 176/11/2
f 176/11/2 175/11/2 177/11/2
f 177/11/2 175/11/2 178/11/2
f 178/11/2 175/11/2 179/11/2
f 176/10/2 177/10/2 180/10/2
f 180/10/2 177/10/2 181/10/2
f 178/10/2 179/10/2 182/10/2
f 182/10/2 179/10/2 183/10/2
f 180/13/2 181/13/2 184/13/2
f 184/13/2 181/13/2 185/13/2
f 182/13/2 183/13/2 186/13/2
f 186/13/2 183/13/2 187/13/2
f 184/10/2 185/10/2 188/10/2
f 188/10/2 185/10/2 189/10/2
f 186/10/2 187/10/2 192/10/2
f 192/10/2 187/10/2 193/10/2
f 188/13/2 189/13/2 194/13/2
f 189/11/2 190/11/2 195/11/2
f 194/13/2 189/13/2 195/13/2
f 190/13/2 191/13/2 196/13/2
f 195/11/2 190/11/2 196/11/2
f 191/11/2 192/11/2 197/11/2
f 196/13/2 191/13/2 197/13/2
f 192/13/2 193/13/2 198/13/2
f 197/11/2 192/11/2 198/11/2
f 198/13/2 193/13/2 199/13/2
f 200/7/2 201/7/2 202/7/2
f 202/7/2 201/7/2 203/7/2
f 204/17/2 205/17/2 206/17/2
f 206/17/2 205/17/2 207/17/2
f 207/17/2 205/17/2 208/17/2
f 206/8/2 207/8/2 209/8/2
f 207/15/2 208/15/2 210/15/2
f 209/8/2 207/8/2 210/8/2
f 210/15/2 208/15/2 211/15/2
f 209/12/2 210/12/2 212/12/2
f 210/14/2 211/14/2 213/14/2
f 212/12/2 210/12/2 213/12/2
f 213/14/2 211/14/2 214/14/2
f 216/3/2 217/3/2 221/3/2
f 215/1/2 216/1/2 221/1/2
f 217/1/2 218/1/2 222/1/2
f 221/3/2 217/3/2 222/3/2
f 218/3/2 219/3/2 223/3/2
f 222/1/2 218/1/2 223/1/2
f 219/1/2 220/1/2 224/1/2
f 223/3/2 219/3/2 224/3/2
f 221/1/2 222/1/2 225/1/2
f 215/1/2 221/1/2 225/1/2
f 225/1/2 222/1/2 226/1/2
f 223/1/2 224/1/2 227/1/2
f 224/1/2 220/1/2 228/1/2
f 227/1/2 224/1/2 228/1/2
f 215/1/2 225/1/2 229/1/2
f 225/18/2 226/18/2 230/18/2
f 229/1/2 225/1/2 230/1/2
f 226/1/2 227/1/2 231/1/2
f 230/18/2 226/18/2 231/18/2
f 227/18/2 228/18/2 232/18/2
f 231/1/2 227/1/2 232/1/2
f 228/1/2 220/1/2 233/1/2
f 232/18/2 228/18/2 233/18/2
f 233/1/2 220/1/2 234/1/2
f 229/3/2 230/3/2 235/3/2
f 231/1/2 232/1/2 235/1/2
f 230/1/2 231/1/2 235/1/2
f 232/1/2 233/1/2 235/1/2
f 233/3/2 234/3/2 236/3/2
f 235/1/2 233/1/2 236/1/2
f 229/3/2 235/3/2 237/3/2
f 235/3/2 236/3/2 237/3/2
f 236/3/2 234/3/2 238/3/2
f 237/3/2 236/3/2 238/3/2
f 239/1/2 240/1/2 241/1/2
f 241/1/2 240/1/2 242/1/2
f 249/1/3 244/1/3 243/1/3
f 250/10/3 245/10/3 244/10/3
f 250/1/3 244/1/3 249/1/3
f 251/13/3 246/13/3 245/13/3
f 251/10/3 245/10/3 250/10/3
f 252/10/3 247/10/3 246/10/3
f 252/13/3 246/13/3 251/13/3
f 253/13/3 248/13/3 247/13/3
f 253/10/3 247/10/3 252/10/3
f 254/13/3 248/13/3 253/13/3
f 257/7/3 256/7/3 255/7/3
f 258/7/3 256/7/3 257/7/3
f 261/7/3 256/7/3 258/7/3
f 262/7/3 256/7/3 261/7/3
f 271/6/3 262/6/3 261/6/3
f 272/6/3 264/6/3 263/6/3
f 273/10/3 265/10/3 264/10/3
f 273/6/3 264/6/3 272/6/3
f 274/11/3 266/11/3 265/11/3
f 274/10/3 265/10/3 273/10/3
f 275/10/3 267/10/3 266/10/3
f 275/11/3 266/11/3 274/11/3
f 276/13/3 268/13/3 267/13/3
f 276/10/3 267/10/3 275/10/3
f 277/10/3 269/10/3 268/10/3
f 277/13/3 268/13/3 276/13/3
f 278/13/3 270/13/3 269/13/3
f 278/10/3 269/10/3 277/10/3
f 279/13/3 270/13/3 278/13/3
f 280/3/3 260/3/3 259/3/3
f 281/3/3 260/3/3 280/3/3
f 282/6/3 271/6/3 261/6/3
f 282/6/3 272/6/3 271/6/3
f 282/6/3 273/6/3 272/6/3
f 283/6/3 273/6/3 282/6/3
f 284/6/3 273/6/3 283/6/3
f 291/3/3 260/3/3 281/3/3
f 291/1/3 281/1/3 280/1/3
f 292/3/3 260/3/3 291/3/3
f 293/6/3 284/6/3 283/6/3
f 294/10/3 285/10/3 284/10/3
f 294/6/3 284/6/3 293/6/3
f 295/11/3 286/11/3 285/11/3
f 295/10/3 285/10/3 294/10/3
f 296/10/3 287/10/3 286/10/3
f 296/11/3 286/11/3 295/11/3
f 297/13/3 288/13/3 287/13/3
f 297/10/3 287/10/3 296/10/3
f 298/10/3 289/10/3 288/10/3
f 298/13/3 288/13/3 297/13/3
f 299/13/3 290/13/3 289/13/3
f 299/10/3 289/10/3 298/10/3
f 300/13/3 290/13/3 299/13/3
f 301/1/3 291/1/3 280/1/3
f 301/1/3 292/1/3 291/1/3
f 302/3/3 260/3/3 292/3/3
f 302/1/3 292/1/3 301/1/3
f 303/3/3 260/3/3 302/3/3
f 309/11/3 305/11/3 304/11/3
f 310/5/3 306/5/3 305/5/3
f 310/11/3 305/11/3 309/11/3
f 311/15/3 307/15/3 306/15/3
f 311/5/3 306/5/3 310/5/3
f 312/15/3 307/15/3 311/15/3
f 313/11/3 310/11/3 309/11/3
f 313/11/3 309/11/3 308/11/3
f 313/11/3 312/11/3 311/11/3
f 313/11/3 311/11/3 310/11/3
f 314/11/3 312/11/3 313/11/3
f 315/11/3 312/11/3 314/11/3
f 316/11/3 312/11/3 315/11/3
f 317/11/3 312/11/3 316/11/3
f 318/11/3 312/11/3 317/11/3
f 323/17/3 320/17/3 319/17/3
f 324/8/3 321/8/3 320/8/3
f 324/17/3 320/17/3 323/17/3
f 325/12/3 322/12/3 321/12/3
f 325/8/3 321/8/3 324/8/3
f 326/12/3 322/12/3 325/12/3
f 329/1/3 328/1/3 327/1/3
f 330/1/3 328/1/3 329/1/3
f 333/1/3 332/1/3 331/1/3
f 334/1/3 332/1/3 333/1/3
f 340/11/3 336/11/3 335/11/3
f 341/11/3 336/11/3 340/11/3
f 342/6/3 339/6/3 338/6/3
f 344/7/3 338/7/3 337/7/3
f 345/6/3 343/6/3 342/6/3
f 345/7/3 338/7/3 344/7/3
f 345/6/3 342/6/3 338/6/3
f 346/6/3 343/6/3 345/6/3
f 347/6/3 343/6/3 346/6/3
f 348/6/3 343/6/3 347/6/3
f 349/7/3 344/7/3 337/7/3
f 350/7/3 344/7/3 349/7/3
f 351/7/4 352/7/4 353/7/4
f 353/7/4 352/7/4 354/7/4
f 354/7/4 352/7/4 357/7/4
f 357/7/4 352/7/4 358/7/4
f 355/11/4 356/11/4 359/11/4
f 359/11/4 356/11/4 360/11/4
f 357/6/4 358/6/4 361/6/4
f 357/6/4 361/6/4 363/6/4
f 361/6/4 362/6/4 363/6/4
f 363/6/4 362/6/4 364/6/4
f 364/6/4 362/6/4 365/6/4
f 365/6/4 362/6/4 366/6/4
f 367/1/4 368/1/4 369/1/4
f 369/1/4 368/1/4 370/1/4
f 371/1/4 372/1/4 373/1/4
f 373/1/4 372/1/4 374/1/4
f 375/11/4 376/11/4 381/11/4
f 376/12/4 377/12/4 382/12/4
f 381/11/4 376/11/4 382/11/4
f 377/4/4 378/4/4 383/4/4
f 382/12/4 377/12/4 383/12/4
f 378/8/4 379/8/4 384/8/4
f 383/4/4 378/4/4 384/4/4
f 384/8/4 379/8/4 385/8/4
f 382/11/4 383/11/4 388/11/4
f 380/11/4 381/11/4 388/11/4
f 384/11/4 385/11/4 388/11/4
f 383/11/4 384/11/4 388/11/4
f 381/11/4 382/11/4 388/11/4
f 388/11/4 385/11/4 389/11/4
f 389/11/4 385/11/4 390/11/4
f 390/11/4 385/11/4 391/11/4
f 391/11/4 385/11/4 392/11/4
f 392/11/4 385/11/4 393/11/4
f 386/3/4 387/3/4 394/3/4
f 394/3/4 387/3/4 395/3/4
f 396/17/4 397/17/4 400/17/4
f 397/15/4 398/15/4 401/15/4
f 400/17/4 397/17/4 401/17/4
f 398/14/4 399/14/4 402/14/4
f 401/15/4 398/15/4 402/15/4
f 402/14/4 399/14/4 403/14/4
f 404/3/4 405/3/4 418/3/4
f 407/6/4 408/6/4 419/6/4
f 409/6/4 410/6/4 420/6/4
f 410/10/4 411/10/4 421/10/4
f 420/6/4 410/6/4 421/6/4
f 411/11/4 412/11/4 422/11/4
f 421/10/4 411/10/4 422/10/4
f 412/10/4 413/10/4 423/10/4
f 422/11/4 412/11/4 423/11/4
f 413/13/4 414/13/4 424/13/4
f 423/10/4 413/10/4 424/10/4
f 414/10/4 415/10/4 425/10/4
f 424/13/4 414/13/4 425/13/4
f 415/13/4 416/13/4 426/13/4
f 425/10/4 415/10/4 426/10/4
f 426/13/4 416/13/4 427/13/4
f 417/3/4 418/3/4 428/3/4
f 418/3/4 405/3/4 429/3/4
f 428/3/4 418/3/4 429/3/4
f 406/7/4 407/7/4 430/7/4
f 407/6/4 419/6/4 431/6/4
f 430/7/4 407/7/4 431/7/4
f 419/6/4 420/6/4 431/6/4
f 420/6/4 421/6/4 431/6/4
f 431/6/4 421/6/4 432/6/4
f 432/6/4 421/6/4 433/6/4
f 429/3/4 405/3/4 440/3/4
f 428/1/4 429/1/4 440/1/4
f 440/3/4 405/3/4 441/3/4
f 432/6/4 433/6/4 442/6/4
f 433/10/4 434/10/4 443/10/4
f 442/6/4 433/6/4 443/6/4
f 434/11/4 435/11/4 444/11/4
f 443/10/4 434/10/4 444/10/4
f 435/10/4 436/10/4 445/10/4
f 444/11/4 435/11/4 445/11/4
f 436/13/4 437/13/4 446/13/4
f 445/10/4 436/10/4 446/10/4
f 437/10/4 438/10/4 447/10/4
f 446/13/4 437/13/4 447/13/4
f 438/13/4 439/13/4 448/13/4
f 447/10/4 438/10/4 448/10/4
f 448/13/4 439/13/4 449/13/4
f 406/7/4 430/7/4 450/7/4
f 450/7/4 430/7/4 451/7/4
f 428/1/4 440/1/4 452/1/4
f 440/1/4 441/1/4 452/1/4
f 441/3/4 405/3/4 453/3/4
f 452/1/4 441/1/4 453/1/4
f 453/3/4 405/3/4 454/3/4
f 455/1/4 456/1/4 461/1/4
f 456/10/4 457/10/4 462/10/4
f 461/1/4 456/1/4 462/1/4
f 457/13/4 458/13/4 463/13/4
f 462/10/4 457/10/4 463/10/4
f 458/10/4 459/10/4 464/10/4
f 463/13/4 458/13/4 464/13/4
f 459/13/4 460/13/4 465/13/4
f 464/10/4 459/10/4 465/10/4
f 465/13/4 460/13/4 466/13/4
f 469/7/5 468/7/5 467/7/5
f 470/7/5 468/7/5 469/7/5
f 473/7/5 472/7/5 471/7/5
f 474/7/5 472/7/5 473/7/5
f 478/7/5 476/7/5 475/7/5
f 479/6/5 477/6/5 476/6/5
f 479/7/5 476/7/5 478/7/5
f 480/6/5 477/6/5 479/6/5
f 483/6/5 482/6/5 481/6/5
f 484/6/5 482/6/5 483/6/5
f 487/6/5 486/6/5 485/6/5
f 488/6/5 486/6/5 487/6/5
f 491/6/5 490/6/5 489/6/5
f 492/6/5 490/6/5 491/6/5
f 494/10/5 492/10/5 491/10/5
f 494/10/5 493/10/5 492/10/5
f 495/10/5 493/10/5 494/10/5
f 496/10/5 493/10/5 495/10/5
f 497/6/5 495/6/5 494/6/5
f 498/6/5 495/6/5 497/6/5
f 501/1/5 500/1/5 499/1/5
f 502/1/5 500/1/5 501/1/5
f 505/1/5 504/1/5 503/1/5
f 506/1/5 504/1/5 505/1/5
f 509/11/5 508/11/5 507/11/5
f 510/11/5 508/11/5 509/11/5
f 513/11/5 512/11/5 511/11/5
f 514/11/5 512/11/5 513/11/5
f 519/11/5 516/11/5 515/11/5
f 521/11/5 519/11/5 515/11/5
f 521/11/5 520/11/5 519/11/5
f 522/11/5 520/11/5 521/11/5
f 523/11/5 521/11/5 515/11/5
f 524/11/5 521/11/5 523/11/5
f 525/17/5 518/17/5 517/17/5
f 526/17/5 518/17/5 525/17/5
f 530/3/5 528/3/5 527/3/5
f 531/1/5 529/1/5 528/1/5
f 531/3/5 528/3/5 530/3/5
f 532/1/5 529/1/5 531/1/5
f 533/1/5 529/1/5 532/1/5
f 534/5/5 531/5/5 530/5/5
f 534/1/5 532/1/5 531/1/5
f 535/1/5 532/1/5 534/1/5
f 536/3/5 533/3/5 532/3/5
f 536/1/5 532/1/5 535/1/5
f 537/3/5 533/3/5 536/3/5
f 538/5/5 534/5/5 530/5/5
f 539/1/5 537/1/5 536/1/5
f 539/1/5 536/1/5 535/1/5
f 540/1/5 537/1/5 539/1/5
f 541/1/5 537/1/5 540/1/5
f 542/3/5 530/3/5 527/3/5
f 543/5/5 538/5/5 530/5/5
f 543/3/5 530/3/5 542/3/5
f 544/1/5 539/1/5 538/1/5
f 544/5/5 538/5/5 543/5/5
f 544/1/5 540/1/5 539/1/5
f 545/3/5 541/3/5 540/3/5
f 545/1/5 540/1/5 544/1/5
f 546/3/5 541/3/5 545/3/5
f 547/3/5 544/3/5 543/3/5
f 548/1/5 546/1/5 545/1/5
f 548/3/5 544/3/5 547/3/5
f 548/1/5 545/1/5 544/1/5
f 549/1/5 546/1/5 548/1/5
f 552/1/5 551/1/5 550/1/5
f 553/1/5 551/1/5 552/1/5
f 556/3/5 555/3/5 554/3/5
f 557/3/5 555/3/5 556/3/5
f 558/7/6 559/7/6 560/7/6
f 560/7/6 559/7/6 561/7/6
f 562/6/6 563/6/6 564/6/6
f 564/6/6 563/6/6 565/6/6
f 566/7/6 567/7/6 569/7/6
f 567/6/6 568/6/6 570/6/6
f 569/7/6 567/7/6 570/7/6
f 570/6/6 568/6/6 571/6/6
f 572/12/6 573/12/6 574/12/6
f 574/12/6 573/12/6 575/12/6
f 574/14/6 575/14/6 576/14/6
f 576/14/6 575/14/6 577/14/6
f 577/14/6 575/14/6 578/14/6
f 579/13/6 580/13/6 582/13/6
f 582/13/6 580/13/6 583/13/6
f 581/13/6 582/13/6 587/13/6
f 582/13/6 583/13/6 587/13/6
f 583/13/6 584/13/6 587/13/6
f 587/13/6 584/13/6 588/13/6
f 586/11/6 587/11/6 589/11/6
f 587/11/6 588/11/6 589/11/6
f 589/11/6 588/11/6 590/11/6
f 590/11/6 588/11/6 591/11/6
f 591/11/6 588/11/6 592/11/6
f 585/15/6 586/15/6 593/15/6
f 586/11/6 589/11/6 594/11/6
f 593/15/6 586/15/6 594/15/6
f 589/13/6 590/13/6 595/13/6
f 594/11/6 589/11/6 595/11/6
f 595/13/6 590/13/6 596/13/6
f 591/13/6 592/13/6 597/13/6
f 597/13/6 592/13/6 598/13/6
f 593/8/6 594/8/6 599/8/6
f 595/11/6 596/11/6 600/11/6
f 599/8/6 594/8/6 600/8/6
f 594/11/6 595/11/6 600/11/6
f 597/11/6 598/11/6 600/11/6
f 596/11/6 597/11/6 600/11/6
f 600/11/6 598/11/6 601/11/6
f 601/11/6 598/11/6 602/11/6
f 601/13/6 602/13/6 603/13/6
f 603/13/6 602/13/6 604/13/6
f 604/13/6 602/13/6 605/13/6
f 605/13/6 602/13/6 606/13/6
f 604/13/6 605/13/6 607/13/6
f 607/13/6 605/13/6 608/13/6
f 609/1/6 610/1/6 611/1/6
f 611/1/6 610/1/6 612/1/6
f 613/3/6 614/3/6 615/3/6
f 615/3/6 614/3/6 616/3/6
