# MagicaVoxel @ Ephtracy

# group
g SpecialPerson3

# material
mtllib SpecialPerson3.mtl
usemtl palette

# normals
vn -1 0 0
vn 1 0 0
vn 0 0 1
vn 0 0 -1
vn 0 -1 0
vn 0 1 0

# texcoords
vt 0.0332031 0.5
vt 0.0371094 0.5
vt 0.0410156 0.5
vt 0.0449219 0.5
vt 0.0917969 0.5
vt 0.123047 0.5
vt 0.271484 0.5
vt 0.279297 0.5
vt 0.306641 0.5
vt 0.431641 0.5
vt 0.681641 0.5
vt 0.892578 0.5
vt 0.955078 0.5
vt 0.958984 0.5
vt 0.962891 0.5
vt 0.966797 0.5
vt 0.978516 0.5
vt 0.994141 0.5

# verts
v -4 9 1
v -4 9 -2
v -4 10 1
v -4 10 -1
v -4 10 -2
v -4 11 1
v -4 11 -1
v -4 11 -2
v -4 12 -1
v -4 12 -2
v -4 13 1
v -4 13 -1
v -4 13 -2
v -3 8 1
v -3 8 -0
v -3 8 -1
v -3 8 -2
v -3 9 1
v -3 9 -0
v -3 9 -1
v -3 9 -2
v -3 14 2
v -3 14 -3
v -3 19 2
v -3 19 -3
v -2 0 2
v -2 0 -0
v -2 0 -1
v -2 0 -3
v -2 2 2
v -2 2 -0
v -2 2 -1
v -2 2 -3
v -2 4 2
v -2 4 -0
v -2 4 -1
v -2 4 -3
v -2 6 2
v -2 6 -0
v -2 6 -1
v -2 6 -3
v -2 7 2
v -2 7 -0
v -2 7 -1
v -2 7 -3
v -2 8 2
v -2 8 1
v -2 8 -0
v -2 8 -1
v -2 8 -2
v -2 8 -3
v -2 9 2
v -2 9 1
v -2 9 -0
v -2 9 -1
v -2 9 -2
v -2 9 -3
v -2 10 2
v -2 10 1
v -2 10 -2
v -2 10 -3
v -2 11 2
v -2 11 1
v -2 11 -2
v -2 11 -3
v -2 12 2
v -2 12 1
v -2 12 -2
v -2 12 -3
v -2 13 2
v -2 13 1
v -2 13 -2
v -2 13 -3
v -1 4 2
v -1 4 -0
v -1 4 -1
v -1 4 -3
v -1 6 2
v -1 6 -0
v -1 6 -1
v -1 6 -3
v -1 7 3
v -1 7 2
v -1 7 -3
v -1 7 -4
v -1 8 2
v -1 8 -3
v -1 9 3
v -1 9 2
v -1 9 -3
v -1 9 -4
v -1 10 3
v -1 10 2
v -1 10 -3
v -1 10 -4
v -1 11 3
v -1 11 2
v -1 11 -3
v -1 11 -4
v -1 12 3
v -1 12 2
v -1 12 -3
v -1 12 -4
v -1 13 3
v -1 13 2
v -1 13 -0
v -1 13 -1
v -1 13 -3
v -1 13 -4
v -1 14 -0
v -1 14 -1
v 0 1 2
v 0 1 -0
v 0 1 -1
v 0 1 -3
v 0 2 2
v 0 2 -0
v 0 2 -1
v 0 2 -3
v 0 4 2
v 0 4 -0
v 0 4 -1
v 0 4 -3
v 0 7 3
v 0 7 2
v 0 7 -3
v 0 7 -4
v 0 8 2
v 0 8 -3
v 0 9 3
v 0 9 2
v 0 9 -3
v 0 9 -4
v 0 10 3
v 0 10 2
v 0 10 -3
v 0 10 -4
v 0 11 3
v 0 11 2
v 0 11 -3
v 0 11 -4
v 0 12 3
v 0 12 2
v 0 12 -3
v 0 12 -4
v 0 13 3
v 0 13 2
v 0 13 -0
v 0 13 -1
v 0 13 -3
v 0 13 -4
v 0 14 -0
v 0 14 -1
v 1 4 2
v 1 4 -0
v 1 4 -1
v 1 4 -3
v 1 6 -0
v 1 6 -1
v 1 7 2
v 1 7 1
v 1 7 -0
v 1 7 -1
v 1 7 -2
v 1 7 -3
v 1 8 2
v 1 8 1
v 1 8 -2
v 1 8 -3
v 1 9 2
v 1 9 1
v 1 9 -2
v 1 9 -3
v 1 10 2
v 1 10 1
v 1 10 -2
v 1 10 -3
v 1 11 2
v 1 11 1
v 1 11 -2
v 1 11 -3
v 1 12 2
v 1 12 1
v 1 12 -0
v 1 12 -1
v 1 12 -2
v 1 12 -3
v 1 13 2
v 1 13 1
v 1 13 -0
v 1 13 -1
v 1 13 -2
v 1 13 -3
v 2 0 2
v 2 0 -0
v 2 0 -1
v 2 0 -3
v 2 1 2
v 2 1 -0
v 2 1 -1
v 2 1 -3
v 2 9 1
v 2 9 -2
v 2 10 1
v 2 10 -0
v 2 10 -2
v 2 11 1
v 2 11 -0
v 2 11 -2
v 2 12 1
v 2 12 -0
v 2 12 -2
v 2 14 2
v 2 14 1
v 2 14 -0
v 2 14 -1
v 2 14 -2
v 2 14 -3
v 2 15 1
v 2 15 -0
v 2 15 -1
v 2 15 -2
v 2 16 1
v 2 16 -0
v 2 16 -1
v 2 16 -2
v 2 17 2
v 2 17 1
v 2 17 -0
v 2 17 -1
v 2 17 -2
v 2 17 -3
v 2 18 1
v 2 18 -2
v 2 19 2
v 2 19 -3
v 3 15 -0
v 3 15 -1
v 3 16 -0
v 3 16 -1
v -1 7 3
v -1 9 3
v -1 10 3
v -1 11 3
v -1 12 3
v -1 13 3
v 0 7 3
v 0 9 3
v 0 10 3
v 0 11 3
v 0 12 3
v 0 13 3
v -3 14 2
v -3 19 2
v -2 0 2
v -2 2 2
v -2 4 2
v -2 6 2
v -2 7 2
v -2 8 2
v -2 9 2
v -2 10 2
v -2 11 2
v -2 12 2
v -2 13 2
v -1 4 2
v -1 6 2
v -1 7 2
v -1 8 2
v -1 9 2
v -1 10 2
v -1 11 2
v -1 12 2
v -1 13 2
v -1 14 2
v -1 16 2
v 0 1 2
v 0 2 2
v 0 4 2
v 0 7 2
v 0 8 2
v 0 9 2
v 0 10 2
v 0 11 2
v 0 12 2
v 0 13 2
v 0 16 2
v 0 17 2
v 1 4 2
v 1 7 2
v 1 8 2
v 1 9 2
v 1 10 2
v 1 11 2
v 1 12 2
v 1 13 2
v 2 0 2
v 2 1 2
v 2 14 2
v 2 17 2
v 2 19 2
v -4 9 1
v -4 10 1
v -4 11 1
v -4 13 1
v -3 8 1
v -3 9 1
v -3 10 1
v -3 11 1
v -3 13 1
v -2 8 1
v -2 9 1
v -2 10 1
v -2 11 1
v -2 12 1
v -2 13 1
v 1 9 1
v 1 10 1
v 1 11 1
v 1 12 1
v 2 9 1
v 2 10 1
v 2 11 1
v 2 12 1
v -1 13 -0
v -1 14 -0
v 0 13 -0
v 0 14 -0
v 2 15 -0
v 2 16 -0
v 3 15 -0
v 3 16 -0
v -3 8 -1
v -3 9 -1
v -2 0 -1
v -2 2 -1
v -2 4 -1
v -2 8 -1
v -2 9 -1
v -1 4 -1
v -1 6 -1
v 0 1 -1
v 0 2 -1
v 0 4 -1
v 1 4 -1
v 1 6 -1
v 2 0 -1
v 2 1 -1
v -3 8 -0
v -3 9 -0
v -2 0 -0
v -2 2 -0
v -2 4 -0
v -2 8 -0
v -2 9 -0
v -1 4 -0
v -1 6 -0
v 0 1 -0
v 0 2 -0
v 0 4 -0
v 1 4 -0
v 1 6 -0
v 2 0 -0
v 2 1 -0
v -1 13 -1
v -1 14 -1
v 0 13 -1
v 0 14 -1
v 2 15 -1
v 2 16 -1
v 3 15 -1
v 3 16 -1
v -4 9 -2
v -4 10 -2
v -4 11 -2
v -4 12 -2
v -4 13 -2
v -3 8 -2
v -3 9 -2
v -3 10 -2
v -3 11 -2
v -3 12 -2
v -3 13 -2
v -2 8 -2
v -2 9 -2
v -2 10 -2
v -2 11 -2
v -2 12 -2
v -2 13 -2
v 1 9 -2
v 1 10 -2
v 1 11 -2
v 1 12 -2
v 2 9 -2
v 2 10 -2
v 2 11 -2
v 2 12 -2
v -3 14 -3
v -3 19 -3
v -2 0 -3
v -2 2 -3
v -2 4 -3
v -2 6 -3
v -2 7 -3
v -2 8 -3
v -2 9 -3
v -2 10 -3
v -2 11 -3
v -2 12 -3
v -2 13 -3
v -1 4 -3
v -1 6 -3
v -1 7 -3
v -1 8 -3
v -1 9 -3
v -1 10 -3
v -1 11 -3
v -1 12 -3
v -1 13 -3
v -1 14 -3
v -1 16 -3
v 0 1 -3
v 0 2 -3
v 0 4 -3
v 0 7 -3
v 0 8 -3
v 0 9 -3
v 0 10 -3
v 0 11 -3
v 0 12 -3
v 0 13 -3
v 0 16 -3
v 0 17 -3
v 1 4 -3
v 1 7 -3
v 1 8 -3
v 1 9 -3
v 1 10 -3
v 1 11 -3
v 1 12 -3
v 1 13 -3
v 2 0 -3
v 2 1 -3
v 2 14 -3
v 2 17 -3
v 2 19 -3
v -1 7 -4
v -1 9 -4
v -1 10 -4
v -1 11 -4
v -1 12 -4
v -1 13 -4
v 0 7 -4
v 0 9 -4
v 0 10 -4
v 0 11 -4
v 0 12 -4
v 0 13 -4
v -2 0 2
v 2 0 2
v -2 0 -0
v 2 0 -0
v -2 0 -1
v 2 0 -1
v -2 0 -3
v 2 0 -3
v 0 4 2
v 1 4 2
v 0 4 -0
v 1 4 -0
v 0 4 -1
v 1 4 -1
v 0 4 -3
v 1 4 -3
v -2 6 2
v -1 6 2
v -2 6 -0
v -1 6 -0
v 1 6 -0
v -2 6 -1
v -1 6 -1
v 1 6 -1
v -2 6 -3
v -1 6 -3
v -1 7 3
v 0 7 3
v -1 7 2
v 0 7 2
v -1 7 -3
v 0 7 -3
v -1 7 -4
v 0 7 -4
v -3 8 1
v -2 8 1
v -3 8 -0
v -2 8 -0
v -3 8 -1
v -2 8 -1
v -3 8 -2
v -2 8 -2
v -4 9 1
v -3 9 1
v 1 9 1
v 2 9 1
v -3 9 -0
v -2 9 -0
v -3 9 -1
v -2 9 -1
v -4 9 -2
v -3 9 -2
v 1 9 -2
v 2 9 -2
v -3 14 2
v -1 14 2
v 2 14 2
v 1 14 1
v 2 14 1
v -1 14 -0
v 0 14 -0
v 1 14 -0
v 2 14 -0
v -1 14 -1
v 0 14 -1
v 1 14 -1
v 2 14 -1
v 1 14 -2
v 2 14 -2
v -3 14 -3
v -1 14 -3
v 2 14 -3
v 2 15 -0
v 3 15 -0
v 2 15 -1
v 3 15 -1
v 0 1 2
v 2 1 2
v 0 1 -0
v 2 1 -0
v 0 1 -1
v 2 1 -1
v 0 1 -3
v 2 1 -3
v -2 4 2
v -1 4 2
v -2 4 -0
v -1 4 -0
v -2 4 -1
v -1 4 -1
v -2 4 -3
v -1 4 -3
v 1 12 1
v 2 12 1
v 1 12 -0
v 2 12 -0
v 1 12 -1
v 1 12 -2
v 2 12 -2
v -1 13 3
v 0 13 3
v -2 13 2
v -1 13 2
v 0 13 2
v 1 13 2
v -4 13 1
v -3 13 1
v -2 13 1
v 1 13 1
v -2 13 -0
v -1 13 -0
v 0 13 -0
v 1 13 -0
v -4 13 -1
v -3 13 -1
v -2 13 -1
v -1 13 -1
v 0 13 -1
v 1 13 -1
v -4 13 -2
v -3 13 -2
v -2 13 -2
v 1 13 -2
v -2 13 -3
v -1 13 -3
v 0 13 -3
v 1 13 -3
v -1 13 -4
v 0 13 -4
v 2 16 -0
v 3 16 -0
v 2 16 -1
v 3 16 -1
v -3 19 2
v 2 19 2
v -3 19 -3
v 2 19 -3

# faces
f 3/11/1 2/11/1 1/11/1
f 4/11/1 2/11/1 3/11/1
f 5/11/1 2/11/1 4/11/1
f 6/5/1 4/5/1 3/5/1
f 7/12/1 5/12/1 4/12/1
f 7/5/1 4/5/1 6/5/1
f 8/12/1 5/12/1 7/12/1
f 9/15/1 7/15/1 6/15/1
f 9/4/1 8/4/1 7/4/1
f 10/4/1 8/4/1 9/4/1
f 11/15/1 9/15/1 6/15/1
f 12/8/1 10/8/1 9/8/1
f 12/15/1 9/15/1 11/15/1
f 13/8/1 10/8/1 12/8/1
f 18/11/1 15/11/1 14/11/1
f 19/11/1 15/11/1 18/11/1
f 20/11/1 17/11/1 16/11/1
f 21/11/1 17/11/1 20/11/1
f 24/3/1 23/3/1 22/3/1
f 25/3/1 23/3/1 24/3/1
f 30/7/1 27/7/1 26/7/1
f 31/7/1 27/7/1 30/7/1
f 32/7/1 29/7/1 28/7/1
f 33/7/1 29/7/1 32/7/1
f 34/6/1 31/6/1 30/6/1
f 35/6/1 31/6/1 34/6/1
f 36/6/1 33/6/1 32/6/1
f 37/6/1 33/6/1 36/6/1
f 42/6/1 39/6/1 38/6/1
f 43/10/1 40/10/1 39/10/1
f 43/6/1 39/6/1 42/6/1
f 44/6/1 41/6/1 40/6/1
f 44/10/1 40/10/1 43/10/1
f 45/6/1 41/6/1 44/6/1
f 46/10/1 43/10/1 42/10/1
f 46/10/1 44/10/1 43/10/1
f 46/10/1 45/10/1 44/10/1
f 47/10/1 45/10/1 46/10/1
f 48/10/1 45/10/1 47/10/1
f 49/10/1 45/10/1 48/10/1
f 50/10/1 45/10/1 49/10/1
f 51/10/1 45/10/1 50/10/1
f 52/11/1 47/11/1 46/11/1
f 53/11/1 47/11/1 52/11/1
f 54/10/1 49/10/1 48/10/1
f 55/10/1 49/10/1 54/10/1
f 56/11/1 51/11/1 50/11/1
f 57/11/1 51/11/1 56/11/1
f 58/10/1 53/10/1 52/10/1
f 59/10/1 53/10/1 58/10/1
f 60/10/1 57/10/1 56/10/1
f 61/10/1 57/10/1 60/10/1
f 62/13/1 59/13/1 58/13/1
f 63/13/1 59/13/1 62/13/1
f 64/13/1 61/13/1 60/13/1
f 65/13/1 61/13/1 64/13/1
f 66/10/1 63/10/1 62/10/1
f 67/10/1 63/10/1 66/10/1
f 68/10/1 65/10/1 64/10/1
f 69/10/1 65/10/1 68/10/1
f 70/13/1 67/13/1 66/13/1
f 71/13/1 67/13/1 70/13/1
f 72/13/1 69/13/1 68/13/1
f 73/13/1 69/13/1 72/13/1
f 78/6/1 75/6/1 74/6/1
f 79/6/1 75/6/1 78/6/1
f 80/6/1 77/6/1 76/6/1
f 81/6/1 77/6/1 80/6/1
f 86/1/1 83/1/1 82/1/1
f 87/1/1 85/1/1 84/1/1
f 88/1/1 86/1/1 82/1/1
f 89/1/1 86/1/1 88/1/1
f 90/1/1 85/1/1 87/1/1
f 91/1/1 85/1/1 90/1/1
f 92/10/1 89/10/1 88/10/1
f 93/10/1 89/10/1 92/10/1
f 94/10/1 91/10/1 90/10/1
f 95/10/1 91/10/1 94/10/1
f 96/13/1 93/13/1 92/13/1
f 97/13/1 93/13/1 96/13/1
f 98/13/1 95/13/1 94/13/1
f 99/13/1 95/13/1 98/13/1
f 100/10/1 97/10/1 96/10/1
f 101/10/1 97/10/1 100/10/1
f 102/10/1 99/10/1 98/10/1
f 103/10/1 99/10/1 102/10/1
f 104/13/1 101/13/1 100/13/1
f 105/13/1 101/13/1 104/13/1
f 108/13/1 103/13/1 102/13/1
f 109/13/1 103/13/1 108/13/1
f 110/1/1 107/1/1 106/1/1
f 111/1/1 107/1/1 110/1/1
f 112/7/2 113/7/2 116/7/2
f 116/7/2 113/7/2 117/7/2
f 114/7/2 115/7/2 118/7/2
f 118/7/2 115/7/2 119/7/2
f 116/6/2 117/6/2 120/6/2
f 120/6/2 117/6/2 121/6/2
f 118/6/2 119/6/2 122/6/2
f 122/6/2 119/6/2 123/6/2
f 124/1/2 125/1/2 128/1/2
f 126/1/2 127/1/2 129/1/2
f 124/1/2 128/1/2 130/1/2
f 130/1/2 128/1/2 131/1/2
f 129/1/2 127/1/2 132/1/2
f 132/1/2 127/1/2 133/1/2
f 130/10/2 131/10/2 134/10/2
f 134/10/2 131/10/2 135/10/2
f 132/10/2 133/10/2 136/10/2
f 136/10/2 133/10/2 137/10/2
f 134/13/2 135/13/2 138/13/2
f 138/13/2 135/13/2 139/13/2
f 136/13/2 137/13/2 140/13/2
f 140/13/2 137/13/2 141/13/2
f 138/10/2 139/10/2 142/10/2
f 142/10/2 139/10/2 143/10/2
f 140/10/2 141/10/2 144/10/2
f 144/10/2 141/10/2 145/10/2
f 142/13/2 143/13/2 146/13/2
f 146/13/2 143/13/2 147/13/2
f 144/13/2 145/13/2 150/13/2
f 150/13/2 145/13/2 151/13/2
f 148/1/2 149/1/2 152/1/2
f 152/1/2 149/1/2 153/1/2
f 154/6/2 155/6/2 158/6/2
f 156/6/2 157/6/2 159/6/2
f 154/6/2 158/6/2 160/6/2
f 160/6/2 158/6/2 161/6/2
f 158/10/2 159/10/2 162/10/2
f 161/6/2 158/6/2 162/6/2
f 159/6/2 157/6/2 163/6/2
f 162/10/2 159/10/2 163/10/2
f 163/6/2 157/6/2 164/6/2
f 164/6/2 157/6/2 165/6/2
f 160/10/2 161/10/2 166/10/2
f 161/11/2 162/11/2 167/11/2
f 166/10/2 161/10/2 167/10/2
f 162/11/2 163/11/2 167/11/2
f 163/11/2 164/11/2 167/11/2
f 164/10/2 165/10/2 168/10/2
f 167/11/2 164/11/2 168/11/2
f 168/10/2 165/10/2 169/10/2
f 166/11/2 167/11/2 170/11/2
f 167/11/2 168/11/2 170/11/2
f 168/11/2 169/11/2 170/11/2
f 170/11/2 169/11/2 171/11/2
f 171/11/2 169/11/2 172/11/2
f 172/11/2 169/11/2 173/11/2
f 170/10/2 171/10/2 174/10/2
f 174/10/2 171/10/2 175/10/2
f 172/10/2 173/10/2 176/10/2
f 176/10/2 173/10/2 177/10/2
f 174/13/2 175/13/2 178/13/2
f 178/13/2 175/13/2 179/13/2
f 176/13/2 177/13/2 180/13/2
f 180/13/2 177/13/2 181/13/2
f 178/10/2 179/10/2 182/10/2
f 182/10/2 179/10/2 183/10/2
f 180/10/2 181/10/2 186/10/2
f 186/10/2 181/10/2 187/10/2
f 182/13/2 183/13/2 188/13/2
f 183/11/2 184/11/2 189/11/2
f 188/13/2 183/13/2 189/13/2
f 184/13/2 185/13/2 190/13/2
f 189/11/2 184/11/2 190/11/2
f 185/11/2 186/11/2 191/11/2
f 190/13/2 185/13/2 191/13/2
f 186/13/2 187/13/2 192/13/2
f 191/11/2 186/11/2 192/11/2
f 192/13/2 187/13/2 193/13/2
f 194/7/2 195/7/2 198/7/2
f 198/7/2 195/7/2 199/7/2
f 196/7/2 197/7/2 200/7/2
f 200/7/2 197/7/2 201/7/2
f 202/17/2 203/17/2 204/17/2
f 204/17/2 203/17/2 205/17/2
f 205/17/2 203/17/2 206/17/2
f 204/8/2 205/8/2 207/8/2
f 205/15/2 206/15/2 208/15/2
f 207/8/2 205/8/2 208/8/2
f 208/15/2 206/15/2 209/15/2
f 207/12/2 208/12/2 210/12/2
f 208/14/2 209/14/2 211/14/2
f 210/12/2 208/12/2 211/12/2
f 211/14/2 209/14/2 212/14/2
f 214/3/2 215/3/2 219/3/2
f 213/1/2 214/1/2 219/1/2
f 215/1/2 216/1/2 220/1/2
f 219/3/2 215/3/2 220/3/2
f 216/3/2 217/3/2 221/3/2
f 220/1/2 216/1/2 221/1/2
f 217/1/2 218/1/2 222/1/2
f 221/3/2 217/3/2 222/3/2
f 219/1/2 220/1/2 223/1/2
f 213/1/2 219/1/2 223/1/2
f 223/1/2 220/1/2 224/1/2
f 221/1/2 222/1/2 225/1/2
f 222/1/2 218/1/2 226/1/2
f 225/1/2 222/1/2 226/1/2
f 213/1/2 223/1/2 227/1/2
f 223/18/2 224/18/2 228/18/2
f 227/1/2 223/1/2 228/1/2
f 224/1/2 225/1/2 229/1/2
f 228/18/2 224/18/2 229/18/2
f 225/18/2 226/18/2 230/18/2
f 229/1/2 225/1/2 230/1/2
f 226/1/2 218/1/2 231/1/2
f 230/18/2 226/18/2 231/18/2
f 231/1/2 218/1/2 232/1/2
f 227/3/2 228/3/2 233/3/2
f 229/1/2 230/1/2 233/1/2
f 228/1/2 229/1/2 233/1/2
f 230/1/2 231/1/2 233/1/2
f 231/3/2 232/3/2 234/3/2
f 233/1/2 231/1/2 234/1/2
f 227/3/2 233/3/2 235/3/2
f 233/3/2 234/3/2 235/3/2
f 234/3/2 232/3/2 236/3/2
f 235/3/2 234/3/2 236/3/2
f 237/1/2 238/1/2 239/1/2
f 239/1/2 238/1/2 240/1/2
f 247/1/3 242/1/3 241/1/3
f 248/10/3 243/10/3 242/10/3
f 248/1/3 242/1/3 247/1/3
f 249/13/3 244/13/3 243/13/3
f 249/10/3 243/10/3 248/10/3
f 250/10/3 245/10/3 244/10/3
f 250/13/3 244/13/3 249/13/3
f 251/13/3 246/13/3 245/13/3
f 251/10/3 245/10/3 250/10/3
f 252/13/3 246/13/3 251/13/3
f 266/6/3 257/6/3 256/6/3
f 267/6/3 259/6/3 258/6/3
f 268/10/3 260/10/3 259/10/3
f 268/6/3 259/6/3 267/6/3
f 269/11/3 261/11/3 260/11/3
f 269/10/3 260/10/3 268/10/3
f 270/10/3 262/10/3 261/10/3
f 270/11/3 261/11/3 269/11/3
f 271/13/3 263/13/3 262/13/3
f 271/10/3 262/10/3 270/10/3
f 272/10/3 264/10/3 263/10/3
f 272/13/3 263/13/3 271/13/3
f 273/13/3 265/13/3 264/13/3
f 273/10/3 264/10/3 272/10/3
f 274/13/3 265/13/3 273/13/3
f 275/3/3 254/3/3 253/3/3
f 276/3/3 254/3/3 275/3/3
f 277/7/3 256/7/3 255/7/3
f 278/6/3 266/6/3 256/6/3
f 278/7/3 256/7/3 277/7/3
f 278/6/3 267/6/3 266/6/3
f 278/6/3 268/6/3 267/6/3
f 279/6/3 268/6/3 278/6/3
f 280/6/3 268/6/3 279/6/3
f 287/3/3 254/3/3 276/3/3
f 287/1/3 276/1/3 275/1/3
f 288/3/3 254/3/3 287/3/3
f 289/6/3 280/6/3 279/6/3
f 290/10/3 281/10/3 280/10/3
f 290/6/3 280/6/3 289/6/3
f 291/11/3 282/11/3 281/11/3
f 291/10/3 281/10/3 290/10/3
f 292/10/3 283/10/3 282/10/3
f 292/11/3 282/11/3 291/11/3
f 293/13/3 284/13/3 283/13/3
f 293/10/3 283/10/3 292/10/3
f 294/10/3 285/10/3 284/10/3
f 294/13/3 284/13/3 293/13/3
f 295/13/3 286/13/3 285/13/3
f 295/10/3 285/10/3 294/10/3
f 296/13/3 286/13/3 295/13/3
f 297/7/3 277/7/3 255/7/3
f 298/7/3 277/7/3 297/7/3
f 299/1/3 287/1/3 275/1/3
f 299/1/3 288/1/3 287/1/3
f 300/3/3 254/3/3 288/3/3
f 300/1/3 288/1/3 299/1/3
f 301/3/3 254/3/3 300/3/3
f 307/11/3 303/11/3 302/11/3
f 308/5/3 304/5/3 303/5/3
f 308/11/3 303/11/3 307/11/3
f 309/15/3 305/15/3 304/15/3
f 309/5/3 304/5/3 308/5/3
f 310/15/3 305/15/3 309/15/3
f 311/11/3 308/11/3 307/11/3
f 311/11/3 307/11/3 306/11/3
f 311/11/3 310/11/3 309/11/3
f 311/11/3 309/11/3 308/11/3
f 312/11/3 310/11/3 311/11/3
f 313/11/3 310/11/3 312/11/3
f 314/11/3 310/11/3 313/11/3
f 315/11/3 310/11/3 314/11/3
f 316/11/3 310/11/3 315/11/3
f 321/17/3 318/17/3 317/17/3
f 322/8/3 319/8/3 318/8/3
f 322/17/3 318/17/3 321/17/3
f 323/12/3 320/12/3 319/12/3
f 323/8/3 319/8/3 322/8/3
f 324/12/3 320/12/3 323/12/3
f 327/1/3 326/1/3 325/1/3
f 328/1/3 326/1/3 327/1/3
f 331/1/3 330/1/3 329/1/3
f 332/1/3 330/1/3 331/1/3
f 338/11/3 334/11/3 333/11/3
f 339/11/3 334/11/3 338/11/3
f 340/6/3 337/6/3 336/6/3
f 342/7/3 336/7/3 335/7/3
f 343/6/3 341/6/3 340/6/3
f 343/7/3 336/7/3 342/7/3
f 343/6/3 340/6/3 336/6/3
f 344/6/3 341/6/3 343/6/3
f 345/6/3 341/6/3 344/6/3
f 346/6/3 341/6/3 345/6/3
f 347/7/3 342/7/3 335/7/3
f 348/7/3 342/7/3 347/7/3
f 349/11/4 350/11/4 354/11/4
f 354/11/4 350/11/4 355/11/4
f 352/6/4 353/6/4 356/6/4
f 351/7/4 352/7/4 358/7/4
f 356/6/4 357/6/4 359/6/4
f 358/7/4 352/7/4 359/7/4
f 352/6/4 356/6/4 359/6/4
f 359/6/4 357/6/4 360/6/4
f 360/6/4 357/6/4 361/6/4
f 361/6/4 357/6/4 362/6/4
f 351/7/4 358/7/4 363/7/4
f 363/7/4 358/7/4 364/7/4
f 365/1/4 366/1/4 367/1/4
f 367/1/4 366/1/4 368/1/4
f 369/1/4 370/1/4 371/1/4
f 371/1/4 370/1/4 372/1/4
f 373/11/4 374/11/4 379/11/4
f 374/12/4 375/12/4 380/12/4
f 379/11/4 374/11/4 380/11/4
f 375/4/4 376/4/4 381/4/4
f 380/12/4 375/12/4 381/12/4
f 376/8/4 377/8/4 382/8/4
f 381/4/4 376/4/4 382/4/4
f 382/8/4 377/8/4 383/8/4
f 380/11/4 381/11/4 384/11/4
f 378/11/4 379/11/4 384/11/4
f 382/11/4 383/11/4 384/11/4
f 381/11/4 382/11/4 384/11/4
f 379/11/4 380/11/4 384/11/4
f 384/11/4 383/11/4 385/11/4
f 385/11/4 383/11/4 386/11/4
f 386/11/4 383/11/4 387/11/4
f 387/11/4 383/11/4 388/11/4
f 388/11/4 383/11/4 389/11/4
f 390/17/4 391/17/4 394/17/4
f 391/15/4 392/15/4 395/15/4
f 394/17/4 391/17/4 395/17/4
f 392/14/4 393/14/4 396/14/4
f 395/15/4 392/15/4 396/15/4
f 396/14/4 393/14/4 397/14/4
f 401/6/4 402/6/4 411/6/4
f 403/6/4 404/6/4 412/6/4
f 404/10/4 405/10/4 413/10/4
f 412/6/4 404/6/4 413/6/4
f 405/11/4 406/11/4 414/11/4
f 413/10/4 405/10/4 414/10/4
f 406/10/4 407/10/4 415/10/4
f 414/11/4 406/11/4 415/11/4
f 407/13/4 408/13/4 416/13/4
f 415/10/4 407/10/4 416/10/4
f 408/10/4 409/10/4 417/10/4
f 416/13/4 408/13/4 417/13/4
f 409/13/4 410/13/4 418/13/4
f 417/10/4 409/10/4 418/10/4
f 418/13/4 410/13/4 419/13/4
f 398/3/4 399/3/4 420/3/4
f 420/3/4 399/3/4 421/3/4
f 400/7/4 401/7/4 422/7/4
f 401/6/4 411/6/4 423/6/4
f 422/7/4 401/7/4 423/7/4
f 411/6/4 412/6/4 423/6/4
f 412/6/4 413/6/4 423/6/4
f 423/6/4 413/6/4 424/6/4
f 424/6/4 413/6/4 425/6/4
f 421/3/4 399/3/4 432/3/4
f 420/1/4 421/1/4 432/1/4
f 432/3/4 399/3/4 433/3/4
f 424/6/4 425/6/4 434/6/4
f 425/10/4 426/10/4 435/10/4
f 434/6/4 425/6/4 435/6/4
f 426/11/4 427/11/4 436/11/4
f 435/10/4 426/10/4 436/10/4
f 427/10/4 428/10/4 437/10/4
f 436/11/4 427/11/4 437/11/4
f 428/13/4 429/13/4 438/13/4
f 437/10/4 428/10/4 438/10/4
f 429/10/4 430/10/4 439/10/4
f 438/13/4 429/13/4 439/13/4
f 430/13/4 431/13/4 440/13/4
f 439/10/4 430/10/4 440/10/4
f 440/13/4 431/13/4 441/13/4
f 400/7/4 422/7/4 442/7/4
f 442/7/4 422/7/4 443/7/4
f 420/1/4 432/1/4 444/1/4
f 432/1/4 433/1/4 444/1/4
f 433/3/4 399/3/4 445/3/4
f 444/1/4 433/1/4 445/1/4
f 445/3/4 399/3/4 446/3/4
f 447/1/4 448/1/4 453/1/4
f 448/10/4 449/10/4 454/10/4
f 453/1/4 448/1/4 454/1/4
f 449/13/4 450/13/4 455/13/4
f 454/10/4 449/10/4 455/10/4
f 450/10/4 451/10/4 456/10/4
f 455/13/4 450/13/4 456/13/4
f 451/13/4 452/13/4 457/13/4
f 456/10/4 451/10/4 457/10/4
f 457/13/4 452/13/4 458/13/4
f 461/7/5 460/7/5 459/7/5
f 462/7/5 460/7/5 461/7/5
f 465/7/5 464/7/5 463/7/5
f 466/7/5 464/7/5 465/7/5
f 469/6/5 468/6/5 467/6/5
f 470/6/5 468/6/5 469/6/5
f 473/6/5 472/6/5 471/6/5
f 474/6/5 472/6/5 473/6/5
f 477/6/5 476/6/5 475/6/5
f 478/6/5 476/6/5 477/6/5
f 480/10/5 478/10/5 477/10/5
f 480/10/5 479/10/5 478/10/5
f 481/10/5 479/10/5 480/10/5
f 482/10/5 479/10/5 481/10/5
f 483/6/5 481/6/5 480/6/5
f 484/6/5 481/6/5 483/6/5
f 487/1/5 486/1/5 485/1/5
f 488/1/5 486/1/5 487/1/5
f 491/1/5 490/1/5 489/1/5
f 492/1/5 490/1/5 491/1/5
f 495/11/5 494/11/5 493/11/5
f 496/11/5 494/11/5 495/11/5
f 499/11/5 498/11/5 497/11/5
f 500/11/5 498/11/5 499/11/5
f 505/11/5 502/11/5 501/11/5
f 507/11/5 505/11/5 501/11/5
f 507/11/5 506/11/5 505/11/5
f 508/11/5 506/11/5 507/11/5
f 509/11/5 507/11/5 501/11/5
f 510/11/5 507/11/5 509/11/5
f 511/17/5 504/17/5 503/17/5
f 512/17/5 504/17/5 511/17/5
f 516/1/5 515/1/5 514/1/5
f 517/1/5 515/1/5 516/1/5
f 518/3/5 514/3/5 513/3/5
f 518/1/5 516/1/5 514/1/5
f 519/1/5 516/1/5 518/1/5
f 520/3/5 517/3/5 516/3/5
f 520/1/5 516/1/5 519/1/5
f 521/3/5 517/3/5 520/3/5
f 522/3/5 518/3/5 513/3/5
f 523/1/5 521/1/5 520/1/5
f 523/1/5 520/1/5 519/1/5
f 524/1/5 521/1/5 523/1/5
f 525/1/5 521/1/5 524/1/5
f 526/1/5 523/1/5 522/1/5
f 526/1/5 524/1/5 523/1/5
f 526/3/5 525/3/5 524/3/5
f 527/3/5 525/3/5 526/3/5
f 528/3/5 522/3/5 513/3/5
f 529/1/5 526/1/5 522/1/5
f 529/3/5 522/3/5 528/3/5
f 529/1/5 527/1/5 526/1/5
f 530/1/5 527/1/5 529/1/5
f 533/1/5 532/1/5 531/1/5
f 534/1/5 532/1/5 533/1/5
f 535/7/6 536/7/6 537/7/6
f 537/7/6 536/7/6 538/7/6
f 539/7/6 540/7/6 541/7/6
f 541/7/6 540/7/6 542/7/6
f 543/6/6 544/6/6 545/6/6
f 545/6/6 544/6/6 546/6/6
f 547/6/6 548/6/6 549/6/6
f 549/6/6 548/6/6 550/6/6
f 551/12/6 552/12/6 553/12/6
f 553/12/6 552/12/6 554/12/6
f 553/14/6 554/14/6 555/14/6
f 555/14/6 554/14/6 556/14/6
f 556/14/6 554/14/6 557/14/6
f 558/13/6 559/13/6 561/13/6
f 561/13/6 559/13/6 562/13/6
f 560/13/6 561/13/6 566/13/6
f 561/13/6 562/13/6 566/13/6
f 562/13/6 563/13/6 566/13/6
f 566/13/6 563/13/6 567/13/6
f 565/11/6 566/11/6 568/11/6
f 566/11/6 567/11/6 568/11/6
f 568/11/6 567/11/6 569/11/6
f 569/11/6 567/11/6 570/11/6
f 570/11/6 567/11/6 571/11/6
f 564/15/6 565/15/6 572/15/6
f 565/11/6 568/11/6 573/11/6
f 572/15/6 565/15/6 573/15/6
f 568/13/6 569/13/6 574/13/6
f 573/11/6 568/11/6 574/11/6
f 574/13/6 569/13/6 575/13/6
f 570/13/6 571/13/6 576/13/6
f 576/13/6 571/13/6 577/13/6
f 572/8/6 573/8/6 578/8/6
f 574/11/6 575/11/6 579/11/6
f 578/8/6 573/8/6 579/8/6
f 573/11/6 574/11/6 579/11/6
f 576/11/6 577/11/6 579/11/6
f 575/11/6 576/11/6 579/11/6
f 579/11/6 577/11/6 580/11/6
f 580/11/6 577/11/6 581/11/6
f 580/13/6 581/13/6 582/13/6
f 582/13/6 581/13/6 583/13/6
f 583/13/6 581/13/6 584/13/6
f 584/13/6 581/13/6 585/13/6
f 583/13/6 584/13/6 586/13/6
f 586/13/6 584/13/6 587/13/6
f 588/1/6 589/1/6 590/1/6
f 590/1/6 589/1/6 591/1/6
f 592/3/6 593/3/6 594/3/6
f 594/3/6 593/3/6 595/3/6
